<svg width="25px" height="48px" viewBox="0 0 25 48" version="1.1" xmlns="http://www.w3.org/2000/svg" xmlns:xlink="http://www.w3.org/1999/xlink">
    <g stroke="none" stroke-width="1" fill="none" fill-rule="evenodd">
        <g transform="translate(-925, -9839)" fill="currentColor">
            <g transform="translate(585, 9543)">
                <path d="M364.941906,333.092507 L354.691151,343.121308 C353.493633,344.292897 351.553654,344.292897 350.356136,343.121308 L340.057481,333.045643 C339.98084,332.970661 339.98084,332.853503 340.057481,332.778521 L341.954349,330.922724 C342.030991,330.847742 342.150742,330.847742 342.227384,330.922724 L350.64354,339.156651 C350.763292,339.27381 350.969265,339.189456 350.969265,339.025433 L350.969265,296.187454 C350.969265,296.084354 351.055487,296 351.160868,296 L353.843309,296 C353.94869,296 354.034911,296.084354 354.034911,296.187454 L354.034911,339.072297 C354.034911,339.241006 354.240885,339.320674 354.360636,339.203515 L362.776793,330.969588 C362.853434,330.894606 362.973186,330.894606 363.049827,330.969588 L364.946696,332.825384 C365.018547,332.900366 365.018547,333.017525 364.941906,333.092507 Z"></path>
            </g>
        </g>
    </g>
</svg>