<svg width="16px" height="16px" viewBox="0 0 16 16" version="1.1" xmlns="http://www.w3.org/2000/svg" xmlns:xlink="http://www.w3.org/1999/xlink">
    <title>Close</title>
    <g stroke="none" stroke-width="1" fill="none" fill-rule="evenodd">
        <g transform="translate(-376, -426)" fill="currentColor" fill-rule="nonzero">
            <path d="M390.618319,426.32494 C390.98835,425.954908 391.52488,425.891497 391.816692,426.183308 C392.108503,426.47512 392.045092,427.01165 391.67506,427.381681 L385.057,434 L391.67506,440.618319 C392.045092,440.98835 392.108503,441.52488 391.816692,441.816692 C391.52488,442.108503 390.98835,442.045092 390.618319,441.67506 L384,435.057 L377.381681,441.67506 C377.042486,442.014256 376.563385,442.095805 376.261122,441.882272 L376.183308,441.816692 C375.891497,441.52488 375.954908,440.98835 376.32494,440.618319 L382.943,434 L376.32494,427.381681 C375.954908,427.01165 375.891497,426.47512 376.183308,426.183308 C376.47512,425.891497 377.01165,425.954908 377.381681,426.32494 L384,432.943 Z"></path>
        </g>
    </g>
</svg>