<svg width="47px" height="37px" viewBox="0 0 47 37" version="1.1" xmlns="http://www.w3.org/2000/svg" xmlns:xlink="http://www.w3.org/1999/xlink">
    <title>Built from the best</title>
    <g stroke="none" stroke-width="1" fill="none" fill-rule="evenodd">
        <g transform="translate(-221, -8549)" fill="currentColor">
            <g transform="translate(0, 8486)" fill-rule="nonzero">
                <g transform="translate(22, 63.2628)">
                    <g transform="translate(199.6891, 0)">
                        <path d="M41.0730774,10.527583 C41.0157566,10.527583 40.9692888,10.5754174 40.9692888,10.6344241 L40.9692888,12.6583015 C40.9692293,12.7279346 41.0234376,12.7848533 41.0913931,12.7865109 L44.7758877,12.8414578 C45.0989304,12.8462791 45.4068225,12.9792498 45.6318128,13.2111101 C45.8568031,13.4429703 45.9804559,13.7547214 45.9755616,14.077763 L45.972509,14.224288 C45.9624892,14.9673544 45.3572335,15.5644494 44.6140996,15.5643818 L41.0730774,15.5643818 C41.0191284,15.5643818 40.975394,15.6067494 40.975394,15.6590126 L40.975394,17.627943 C40.9754159,17.700945 41.0350665,17.7605956 41.1097087,17.7622577 L44.7362039,17.8172046 C45.0665397,17.8220159 45.3814254,17.9581983 45.6115689,18.1957843 C45.8417125,18.4333703 45.9682553,18.7528915 45.9633512,19.0840358 L45.9602986,19.2122452 C45.9503886,19.9443675 45.3570571,20.5349897 44.6232575,20.5431811 L41.0547618,20.5798124 C41.0358488,20.581412 41.0212745,20.5959863 41.0211831,20.6133911 L41.0211831,22.6525314 C41.0211831,22.7233396 41.0785844,22.7807409 41.1493926,22.7807409 C43.0766041,22.7726006 44.2447344,22.7807409 44.6537835,22.8051617 C45.5471793,22.8580735 45.9959123,23.3169819 45.9999912,24.1818867 C46.0060877,26.0653442 42.8252729,25.6776634 41.3142332,25.6410321 C41.2710196,25.6399456 41.2294072,25.6575975 41.1997273,25.6896052 C41.1700473,25.721613 41.1550833,25.7649749 41.1585504,25.8089254 C41.3091456,27.5468754 41.3183034,29.4985077 41.1860238,31.6638225 C41.0791826,33.3977023 40.3557152,35.0888457 38.4722577,35.4612635 C37.2552856,35.705472 35.8877184,35.8143482 34.369556,35.7878923 C28.3884846,35.6881739 23.5531577,35.7573663 19.8635754,35.9954695 C19.3873689,36.0259955 18.6221825,36.0432936 17.5680161,36.0473638 C16.4080261,36.053469 14.5184634,36.1328367 13.1508962,35.9466278 C11.9196787,35.779752 11.218597,35.661718 11.0476511,35.5925256 C9.77166205,35.0766353 8.37967401,33.1107574 7.72641646,32.2651857 C6.91747604,31.2120369 6.7251619,30.0642573 6.69768845,28.6447958 C6.55319846,21.08858 6.53590037,13.1548586 6.64579416,4.84363177 C6.66207472,3.63072991 6.79740689,2.81771935 7.05179067,2.40460009 C7.49340092,1.69029044 8.09781678,1.15303189 8.86503826,0.79282446 C8.91553362,0.770599106 8.96921764,0.757178102 9.02377374,0.75314059 C15.3396142,0.435669633 20.0772577,0.392933158 25.93826,0.167040361 C29.2045478,0.0429010763 31.732105,-0.0120458202 33.5209318,0.00219967151 C34.0113837,0.00626981199 34.9098672,0.103953184 36.2163823,0.295249786 C36.4466417,0.329276214 36.6640233,0.420639525 36.8482716,0.560826453 C38.554678,1.86734155 41.0089727,2.93880603 40.9723414,5.49688932 C40.9682713,5.73702761 40.9865869,6.42793396 41.0272883,7.56960836 C41.0305402,7.6756272 41.1165982,7.76034053 41.2226551,7.7619225 L44.7178882,7.8168694 C45.053884,7.82169204 45.3741984,7.95980905 45.608348,8.20082856 C45.8424976,8.44184807 45.9712967,8.76602147 45.9664038,9.10201625 L45.9633512,9.22106786 C45.9533338,9.945589 45.3631109,10.5276522 44.6385205,10.527583 L41.0730774,10.527583 Z M7.5249445,3.48216978 C7.41098057,8.40500469 7.4292962,13.5099784 7.5798914,18.7970909 C7.65315393,21.4182613 7.68775012,23.2315089 7.68367998,24.2368336 C7.67350463,27.2792636 7.68266245,29.0945463 7.71115343,29.6826816 C7.8088368,31.8408736 9.63429481,32.2896066 11.3071225,32.3201326 C13.6189623,32.3628691 15.5543141,32.3577814 17.1131779,32.3048696 C21.3339136,32.1624147 27.2101789,32.1054327 34.7419739,32.1339237 C36.381223,32.1400289 37.8159475,31.2150895 37.8220527,29.4537362 C37.8617366,20.7996 37.7060537,12.5209343 37.7060537,4.01942833 C37.7060537,3.29087318 37.628721,2.78312316 37.4740557,2.49617825 C37.1016378,1.80323683 36.3995386,0.899665648 35.5112305,0.921033885 C27.0107421,1.12250584 18.8419701,1.22832949 11.0049146,1.23850484 C9.99144964,1.24053991 9.31478878,1.34941617 8.97493205,1.56513362 C8.32370957,1.97418273 7.8637837,2.50024839 7.59515443,3.14333059 C7.55075001,3.25021079 7.52692859,3.36517504 7.5249445,3.48216978 L7.5249445,3.48216978 Z M38.569941,2.84722787 C38.5489798,2.83694633 38.5236732,2.84293721 38.5095463,2.86152523 C38.4954194,2.88011326 38.496423,2.90609994 38.5119415,2.923543 L40.1206645,4.55973948 C40.1215075,4.56142538 40.1235575,4.56210873 40.1252435,4.56126578 C40.1269294,4.56042282 40.1276127,4.55837278 40.1267698,4.55668687 C39.7380713,3.76300948 39.2191284,3.19318981 38.569941,2.84722787 Z M38.5398729,3.67033238 C38.4947483,3.7072359 38.5421248,3.8533863 38.6715795,4.07663019 C38.8010341,4.29987409 39.001962,4.58192326 39.2301585,4.86072636 C39.7053237,5.44126603 40.1666726,5.84957423 40.2606265,5.77272274 C40.3057511,5.73581921 40.2583746,5.58966882 40.1289199,5.36642493 C39.9994652,5.14318103 39.7985374,4.86113185 39.5703409,4.58232875 C39.0951757,4.00178909 38.6338267,3.59348089 38.5398729,3.67033238 L38.5398729,3.67033238 Z M38.5874019,4.92553318 C38.5425226,4.96398928 38.5880167,5.10416689 38.7138757,5.3152276 C38.8397347,5.52628831 39.0356485,5.79094256 39.2585172,6.05096772 C39.4813976,6.31100667 39.7129765,6.54511272 39.9023026,6.70177864 C40.0916287,6.85844456 40.2231913,6.92483527 40.2680443,6.8863437 C40.3129237,6.8478876 40.2674296,6.70770999 40.1415706,6.49664928 C40.0157116,6.28558857 39.8197977,6.02093431 39.596929,5.76090916 C39.3740487,5.50087021 39.1424698,5.26676416 38.9531437,5.11009824 C38.7638176,4.95343232 38.632255,4.88704161 38.5874019,4.92553318 L38.5874019,4.92553318 Z M38.607946,6.05215824 C38.5620299,6.09189609 38.6024433,6.22749938 38.7202946,6.42913354 C38.8381459,6.6307677 39.0237801,6.88191383 39.2363553,7.12731637 C39.4489186,7.37270585 39.6710076,7.59225116 39.8537647,7.73765421 C40.0365218,7.88305726 40.1649762,7.94240722 40.210869,7.90264761 C40.2567851,7.86290975 40.2163717,7.72730646 40.0985204,7.5256723 C39.9806691,7.32403814 39.7950349,7.07289201 39.5824597,6.82748947 C39.3698964,6.58209999 39.1478074,6.36255468 38.9650503,6.21715163 C38.7822932,6.07174859 38.6538388,6.01239863 38.607946,6.05215824 L38.607946,6.05215824 Z M38.6455846,7.22686183 C38.5463445,7.3131367 38.7572927,7.71829131 39.1167542,8.13180669 C39.2893794,8.33039036 39.473868,8.50438279 39.6296333,8.61550631 C39.7853986,8.72662983 39.8996806,8.76578143 39.9473376,8.72434792 C40.0465777,8.63807305 39.8356295,8.23291844 39.476168,7.81940306 C39.3035428,7.62081939 39.1190542,7.44682696 38.9632889,7.33570344 C38.8075236,7.22457992 38.6932416,7.18542832 38.6455846,7.22686183 L38.6455846,7.22686183 Z M38.8507807,8.32054928 C38.8242986,8.29036863 38.7824124,8.27942177 38.7440413,8.29265319 C38.7056702,8.3058846 38.6780788,8.34078924 38.6737296,8.38160139 L38.6157301,8.83338698 C38.602128,8.92409307 38.6315054,9.01561501 38.6950978,9.08064801 L39.6230899,10.0452713 C39.6634128,10.0858605 39.7232896,10.1004923 39.7772432,10.0829412 C39.8311968,10.06539 39.8697335,10.0187441 39.8764561,9.96285096 L39.9252978,9.5873805 C39.9348313,9.5061608 39.9068138,9.42434985 39.8489827,9.36454031 L38.8507807,8.32054928 Z M41.0150779,8.69601974 L41.0211831,9.67285345 C41.0211831,9.7028087 41.0330828,9.73153706 41.0542644,9.75271862 C41.0754459,9.77390018 41.1041743,9.78579985 41.1341295,9.78579985 L44.4675746,9.77358943 C44.8788514,9.77170619 45.2115988,9.51941824 45.2124118,9.20885744 L45.2124118,9.13559491 C45.2128087,8.9852223 45.1337697,8.8410583 44.9928092,8.73505143 C44.8518487,8.62904457 44.6606084,8.56994968 44.4614694,8.57085249 L41.1280243,8.58307334 C41.0656457,8.58307334 41.0150779,8.63364117 41.0150779,8.69601974 Z M38.6589245,9.93003546 C38.5511374,10.0319735 38.7942832,10.4641309 39.2020135,10.8952998 C39.6097502,11.3264676 40.027668,11.593367 40.1354697,11.4914431 C40.2432567,11.3895051 40.000111,10.9573477 39.5923807,10.5261788 C39.184644,10.095011 38.7667261,9.82811155 38.6589245,9.93003546 L38.6589245,9.93003546 Z M40.2519266,12.5972494 C39.944631,12.0152193 39.480635,11.4922062 38.8599385,11.0282102 C38.8195759,10.9956664 38.7627924,10.9929873 38.719545,11.0215864 C38.6762976,11.0501855 38.6565325,11.1034854 38.670677,11.1533671 L38.7622552,11.5135745 C38.7880882,11.6089236 38.842401,11.6941201 38.917938,11.7577829 L40.0809807,12.7346166 C40.1222799,12.7661221 40.1797427,12.765397 40.2202338,12.7328595 C40.2607249,12.700322 40.273803,12.6443625 40.2519266,12.5972494 Z M38.6635644,12.2196116 C38.5678682,12.3073248 38.7654365,12.6786946 39.1048491,13.049096 C39.2678457,13.2269768 39.4424258,13.3808415 39.5901823,13.4768403 C39.7379387,13.572839 39.8467675,13.6031078 39.8927265,13.5609874 C39.9884227,13.4732743 39.7908545,13.1019044 39.4514419,12.731503 C39.2884452,12.5536222 39.1138651,12.3997575 38.9661087,12.3037587 C38.8183522,12.20776 38.7095235,12.1774912 38.6635644,12.2196116 Z M38.6620992,13.2452259 C38.5646259,13.3230844 38.7285986,13.6905813 39.0283508,14.0660715 C39.1723086,14.2464031 39.3289702,14.4044982 39.4638693,14.5055752 C39.5987684,14.6066522 39.7008539,14.6424308 39.7476667,14.6050395 C39.84514,14.5271811 39.6811672,14.1596842 39.3814151,13.7841939 C39.2374573,13.6038623 39.0807957,13.4457673 38.9458966,13.3446902 C38.8109975,13.2436132 38.7089119,13.2078346 38.6620992,13.2452259 Z M41.0517092,13.7267134 L41.0639196,14.6913367 C41.0639196,14.7537152 41.1144874,14.8042831 41.176866,14.8042831 L44.5042058,14.7645992 C44.6963009,14.7624377 44.87987,14.7004041 45.0144396,14.5921757 C45.1490093,14.4839473 45.2235288,14.3384117 45.2216058,14.1876568 L45.2216058,14.1327099 C45.2175404,13.8195058 44.8910851,13.5695421 44.4919954,13.5740831 L41.1646556,13.613767 C41.102277,13.613767 41.0517092,13.6643348 41.0517092,13.7267134 Z M40.2794,15.8940632 L38.8416229,14.3311292 C38.8333906,14.3213762 38.8214613,14.3155017 38.8087116,14.3149222 C38.7959618,14.3143426 38.7835487,14.3191107 38.7744656,14.3280766 L38.7622552,14.3402871 C38.684253,14.4103199 38.6790543,14.5534331 38.7478106,14.737929 C38.8165668,14.922425 38.9536032,15.1330761 39.1285678,15.323226 L39.3147767,15.5246979 C39.6770565,15.9187133 40.1003832,16.1194521 40.2610844,15.9734309 L40.2763474,15.9612205 C40.2861004,15.9529882 40.291975,15.9410589 40.2925545,15.9283091 C40.293134,15.9155594 40.288366,15.9031463 40.2794,15.8940632 L40.2794,15.8940632 Z M39.6566685,16.2847967 C39.3534431,16.0120973 39.060393,15.7495732 38.7775182,15.4972245 C38.7477452,15.4713437 38.7047445,15.4674375 38.6707954,15.4875298 C38.6368462,15.5076222 38.6195792,15.547197 38.6279405,15.58575 C38.729694,16.0884124 38.9270959,16.4720231 39.220146,16.7365823 C39.5213364,17.0133518 39.8133689,17.2768934 40.0962437,17.527207 C40.1256271,17.5522206 40.1675374,17.5561315 40.2010415,17.5369863 C40.2345456,17.5178411 40.2524538,17.4797482 40.2458214,17.4417341 C40.1440679,16.9390717 39.9476836,16.5534259 39.6566685,16.2847967 Z M38.6945178,16.9692824 C38.6060189,17.0572077 38.8433815,17.4397511 39.2246943,17.8237371 C39.4078209,18.0081476 39.6003357,18.1682346 39.7598854,18.2687789 C39.9194352,18.3693233 40.0329496,18.4020885 40.0754555,18.3598662 C40.1639544,18.2719409 39.9265918,17.8893975 39.545279,17.5054114 C39.3621524,17.321001 39.1696376,17.160914 39.0100879,17.0603696 C38.8505381,16.9598253 38.7370237,16.92706 38.6945178,16.9692824 L38.6945178,16.9692824 Z M38.705782,17.9064322 C38.6693312,17.9421116 38.6991832,18.0425125 38.7887705,18.1855464 C38.8783577,18.3285804 39.0203412,18.5025299 39.1834842,18.6691257 C39.5231831,19.0160132 39.860079,19.2369889 39.9359819,19.1627014 C39.9724327,19.127022 39.9425807,19.0266211 39.8529934,18.8835872 C39.7634061,18.7405533 39.6214227,18.5666037 39.4582797,18.400008 C39.1185808,18.0531204 38.7816848,17.8321447 38.705782,17.9064322 Z M41.0578144,18.7116179 L41.0639196,19.6945569 C41.0639088,19.725858 41.0765482,19.755835 41.098967,19.7776789 C41.1213858,19.7995229 41.1516809,19.8113796 41.1829712,19.8105559 L44.4858902,19.7800298 C44.896652,19.7760077 45.2271549,19.5137905 45.2246352,19.1939296 L45.2246352,19.1389827 C45.223422,18.9849449 45.1435795,18.8378763 45.0027038,18.7302153 C44.8618282,18.6225542 44.671493,18.5631455 44.4736798,18.5650929 L41.1707608,18.5956189 C41.1078915,18.5972739 41.0578144,18.6487269 41.0578144,18.7116179 L41.0578144,18.7116179 Z M38.6956168,18.7692816 C38.6493138,18.8098046 38.6801144,18.9345773 38.7812426,19.11615 C38.8823707,19.2977227 39.0455422,19.5212213 39.2348595,19.7374765 C39.6290513,20.1877564 40.0267571,20.4843856 40.1231982,20.4000445 C40.1695012,20.3595215 40.1387006,20.2347489 40.0375724,20.0531761 C39.9364442,19.8716034 39.7732728,19.6481048 39.5839555,19.4318496 C39.1897637,18.9815697 38.7920579,18.6849406 38.6956168,18.7692816 L38.6956168,18.7692816 Z M38.7057514,19.9081782 C38.6584595,19.9524321 38.6904569,20.0775342 38.7947047,20.2559633 C38.8989524,20.4343923 39.0669108,20.6515322 39.2616309,20.8596142 C39.6670867,21.2928936 40.0756067,21.5694496 40.1741157,21.4773394 C40.2214076,21.4330855 40.1894102,21.3079834 40.0851625,21.1295544 C39.9809147,20.9511253 39.8129563,20.7339855 39.6182362,20.5259034 C39.2127804,20.092624 38.8042604,19.816068 38.7057514,19.9081782 L38.7057514,19.9081782 Z M39.5589852,21.6787503 C39.4714771,21.581067 39.2120057,21.3327884 38.7805708,20.9339146 C38.7598226,20.9152109 38.7302439,20.9099336 38.7043077,20.920308 C38.6783715,20.9306825 38.660592,20.9549032 38.6584666,20.9827563 C38.6309931,21.4070685 38.9912006,21.6787503 39.265935,21.9565374 C39.3615833,22.0460805 39.6251249,22.2902889 40.0565598,22.6891627 C40.077308,22.7078664 40.1068867,22.7131438 40.1328229,22.7027693 C40.1587591,22.6923948 40.1765386,22.6681742 40.178664,22.640321 C40.2061375,22.2129563 39.8459301,21.944327 39.5589852,21.6787503 Z M40.1115067,23.4339984 C39.8408424,22.9496517 39.4399336,22.5182168 38.9087802,22.1396937 C38.8738963,22.1144973 38.8268593,22.1142416 38.7917035,22.1390574 C38.7565478,22.1638732 38.7410373,22.2082801 38.7530973,22.2495875 L38.8355177,22.5517955 C38.8597592,22.6313565 38.907678,22.7016374 38.9728849,22.7532674 L39.9710869,23.55305 C40.0063944,23.5789762 40.0548804,23.577282 40.0882921,23.5489546 C40.1217039,23.5206273 40.1313074,23.4730717 40.1115067,23.4339984 Z M38.730966,23.0475996 C38.6359728,23.1409535 38.8176068,23.479826 39.1366572,23.8044931 C39.2898755,23.9604121 39.4549431,24.0921366 39.5955443,24.1706866 C39.7361454,24.2492366 39.8407617,24.2681771 39.8863771,24.2233411 C39.9813703,24.1299873 39.7997362,23.7911148 39.4806858,23.4664476 C39.3274675,23.3105287 39.1623999,23.1788041 39.0217988,23.1002541 C38.8811977,23.0217041 38.7765813,23.0027636 38.730966,23.0475996 L38.730966,23.0475996 Z M41.0944065,23.7178907 L41.1005509,24.7313557 C41.1022067,24.795911 41.155026,24.8473759 41.2196025,24.8473547 L44.5347319,24.8259865 C44.7157265,24.824961 44.888949,24.7622404 45.0161139,24.6516872 C45.1432787,24.541134 45.2139149,24.3918513 45.2124338,24.2368336 L45.2124338,24.1513607 C45.2093033,23.8302232 44.9035783,23.5722677 44.5286267,23.5744183 L41.2134973,23.5957865 C41.1813867,23.5957759 41.1506335,23.608737 41.1282172,23.6317282 C41.1058008,23.6547193 41.0936223,23.6857907 41.0944065,23.7178907 Z M40.2610844,25.5067175 C39.9700694,24.9328277 39.524389,24.4149023 38.9240432,23.9529413 C38.8852099,23.9206945 38.8299811,23.9172618 38.7874534,23.9444516 C38.7449258,23.9716414 38.7248627,24.0232115 38.7378343,24.0719929 L38.8233073,24.4260952 C38.846484,24.5195125 38.8975994,24.6036399 38.9698323,24.667251 L40.0931911,25.6379795 C40.1329549,25.6688529 40.188612,25.6687594 40.2282719,25.6377526 C40.2679317,25.6067458 40.2814514,25.5527556 40.2610844,25.5067175 L40.2610844,25.5067175 Z M40.3068735,26.3034475 C39.973122,25.8150306 39.5050558,25.3947886 38.902675,25.0427214 C38.863309,25.0179084 38.8124106,25.0214282 38.7768347,25.0514235 C38.7412588,25.0814189 38.7291884,25.1309905 38.7469921,25.1739835 L38.8660437,25.4853492 C38.8978738,25.5684165 38.9543227,25.6397765 39.0278318,25.6898738 L40.1664536,26.4438673 C40.2065137,26.4722173 40.261174,26.4675729 40.2958765,26.4328704 C40.3305791,26.3981678 40.3352235,26.3435075 40.3068735,26.3034475 Z M38.670677,25.9951343 L40.3404521,27.5000688 C40.3566134,27.5139785 40.380878,27.5126305 40.395399,27.4970162 L40.4015042,27.4878583 C40.5283712,27.3442767 40.2827574,26.9144524 39.8520353,26.5262877 L39.6902472,26.3797626 C39.25871,25.9905818 38.8038109,25.7897705 38.6737296,25.9310296 L38.6676244,25.9401874 C38.6537146,25.9563487 38.6550627,25.9806133 38.670677,25.9951343 Z M39.7207732,27.3627015 C39.6230899,27.2589129 39.3341099,26.9984239 38.8538333,26.5812345 C38.8306193,26.5611564 38.7979094,26.5562625 38.7698355,26.5686673 C38.7417616,26.5810721 38.7233563,26.6085517 38.7225713,26.6392341 C38.7073083,27.1001775 39.1071996,27.3810172 39.4124601,27.6710147 C39.5203188,27.7646279 39.8143865,28.0200292 40.2946631,28.4372186 C40.3178771,28.4572968 40.3505869,28.4621906 40.3786609,28.4497858 C40.4067348,28.4373811 40.4251401,28.4099015 40.4259251,28.3792191 C40.4381355,27.9182757 40.0412968,27.637436 39.7207732,27.3627015 Z M40.0565598,28.6570062 L38.8660437,27.5702787 C38.8533569,27.5594489 38.8343261,27.5608083 38.8233073,27.5733313 L38.8110968,27.5855417 C38.6896841,27.7222074 38.8423424,28.0615995 39.1529886,28.3456404 L39.2567772,28.4402712 C39.4068102,28.5774001 39.5744096,28.6830693 39.7226889,28.7340225 C39.8709682,28.7849756 39.9877752,28.7770367 40.047402,28.7119531 L40.0565598,28.6997427 C40.0681946,28.6878728 40.0681946,28.6688761 40.0565598,28.6570062 L40.0565598,28.6570062 Z M38.6584666,28.4952181 L40.4198199,30.0062578 C40.4260424,30.0124631 40.4346374,30.0156857 40.4434057,30.0151012 C40.4521741,30.0145166 40.4602652,30.0101816 40.465609,30.0032052 L40.4717142,29.9940473 C40.5869879,29.8558005 40.3453604,29.4571834 39.931403,29.1026866 L39.6261425,28.8401625 C39.4261535,28.6687913 39.2118762,28.5308608 39.0308024,28.4569415 C38.8497287,28.3830221 38.7168147,28.3792195 38.6615192,28.4463764 L38.655414,28.4524816 C38.6445842,28.4651685 38.6459436,28.4841993 38.6584666,28.4952181 Z M40.4503459,28.8798464 L40.4717142,28.7119531 C40.4766192,28.684031 40.4626014,28.656203 40.4372448,28.6435246 C40.4118881,28.6308463 40.381215,28.6363289 40.3618204,28.6570062 C40.3089085,28.7058479 40.2956806,28.782163 40.3221365,28.8859516 C40.3238224,28.9213557 40.3538898,28.9486896 40.3892938,28.9470037 C40.4246979,28.9453178 40.4520318,28.9152504 40.4503459,28.8798464 Z M38.8080442,29.029424 L38.6004671,29.2278434 C38.5732351,29.2542365 38.5718836,29.2974849 38.5974145,29.3255268 L39.6444581,30.4153069 C40.0368138,30.8245009 40.4212126,31.0943979 40.5052928,31.0197227 L40.5175032,31.0075123 C40.5572344,30.9705213 40.5200417,30.8564401 40.4141172,30.6903963 C40.3081928,30.5243525 40.1422253,30.3199665 39.9527713,30.1222568 L38.9057276,29.029424 C38.8785029,29.0030606 38.835269,29.0030606 38.8080442,29.029424 Z M38.6889926,30.0886781 L38.5088889,30.2779396 C38.4965829,30.289997 38.4896482,30.3065003 38.4896482,30.3237287 C38.4896482,30.3409571 38.4965829,30.3574604 38.5088889,30.3695178 L39.9039296,31.7096116 C39.9828955,31.7857546 40.070143,31.8469306 40.1463478,31.8795898 C40.2225526,31.912249 40.2814252,31.9136959 40.3099261,31.8836101 L40.364873,31.8286632 C40.394346,31.7992871 40.3909218,31.7404735 40.3553645,31.6653444 C40.3198072,31.5902152 40.2550754,31.5050219 40.1756114,31.4287719 L38.7805708,30.0886781 C38.7685134,30.0763721 38.7520101,30.0694373 38.7347817,30.0694373 C38.7175533,30.0694373 38.70105,30.0763721 38.6889926,30.0886781 Z M38.6327331,30.9083942 C38.6018759,30.8774216 38.5599782,30.8599761 38.5162579,30.8598957 C38.4725376,30.8598158 38.4305762,30.8771075 38.3996056,30.9079669 L38.3606849,30.9467655 C38.3297163,30.9776267 38.3122763,31.0195267 38.3122017,31.063247 C38.3121275,31.1069674 38.3294247,31.1489264 38.3602881,31.1798929 L40.015136,32.8405103 C40.0459932,32.8714829 40.0878909,32.8889284 40.1316112,32.8890088 C40.1753315,32.8890887 40.2172929,32.871797 40.2482635,32.8409376 L40.2871842,32.802139 C40.3181528,32.7712777 40.3355928,32.7293778 40.3356674,32.6856575 C40.3357416,32.6419371 40.3184444,32.5999781 40.287581,32.5690115 L38.6327331,30.9083942 Z M38.1816496,31.4781325 C38.1519186,31.4459234 38.1017062,31.4439144 38.0694969,31.4736452 L37.8810596,31.6475216 C37.865588,31.6617948 37.8564201,31.6816295 37.8555728,31.7026622 C37.8547256,31.723695 37.8622683,31.7442029 37.8765417,31.7596743 L39.7396994,33.778759 C39.7694305,33.8109681 39.8196428,33.8129772 39.8518521,33.7832464 L40.0402894,33.60937 C40.0557611,33.5950968 40.0649289,33.5752621 40.0657762,33.5542293 C40.0666234,33.5331965 40.0590807,33.5126887 40.0448073,33.4972173 L38.1816496,31.4781325 Z M37.71164,32.0676822 C37.6473623,31.9940046 37.5355297,31.9863787 37.4618453,32.0506486 L37.3652303,32.1349311 C37.2915528,32.1992088 37.2839269,32.3110414 37.3481968,32.3847258 L39.0619294,34.3491994 C39.1262071,34.422877 39.2380398,34.4305028 39.3117241,34.3662329 L39.4083391,34.2819505 C39.4820166,34.2176728 39.4896425,34.1058402 39.4253726,34.0321558 L37.71164,32.0676822 Z M36.9772442,32.5453233 C36.9390043,32.5013229 36.8848506,32.4743166 36.8266977,32.4702463 C36.7685449,32.4661759 36.7111571,32.485375 36.6671605,32.5236193 L36.6487228,32.5396455 C36.6047268,32.5778896 36.5777263,32.6320456 36.5736616,32.6901983 C36.569597,32.748351 36.5888013,32.8057365 36.6270493,32.8497291 L38.2211809,34.6835513 C38.2594207,34.7275517 38.3135744,34.7545579 38.3717273,34.7586283 C38.4298802,34.7626987 38.487268,34.7434996 38.5312645,34.7052553 L38.5497023,34.6892291 C38.5936982,34.650985 38.6206988,34.596829 38.6247634,34.5386763 C38.628828,34.4805236 38.6096237,34.4231381 38.5713757,34.3791455 L36.9772442,32.5453233 Z M37.6999485,34.6950596 L35.947753,32.6925505 C35.9365379,32.6794059 35.9204913,32.6713454 35.9032507,32.670196 C35.8860101,32.6690466 35.8690356,32.6749057 35.8561749,32.6864453 L35.8256488,32.7139187 C35.7575473,32.7730702 35.7237657,32.8659322 35.7317874,32.9719336 C35.7398091,33.077935 35.788972,33.1883254 35.8683853,33.2786507 L37.1107957,34.6981122 C37.1898135,34.7882027 37.2924211,34.8510381 37.3960415,34.8727927 C37.499662,34.8945472 37.5958054,34.8734386 37.6633172,34.8141112 L37.6938433,34.7866378 C37.7069879,34.7754226 37.7150484,34.7593761 37.7161978,34.7421355 C37.7173472,34.7248949 37.711488,34.7079203 37.6999485,34.6950596 Z M36.4575381,35.0430566 L36.6651153,34.8507425 C36.6919769,34.8254029 36.6933405,34.7831298 36.6681679,34.7561117 L35.2181803,33.1718095 C35.1421982,33.0886487 35.0564919,33.0205326 34.9802048,32.9826759 C34.9039176,32.9448191 34.8434053,32.9403755 34.8121838,32.9703376 L34.7450265,33.0344423 C34.6803034,33.0952696 34.7538784,33.2819319 34.9098672,33.4526492 L36.3629073,35.0369514 C36.3873804,35.0647132 36.4297006,35.0674435 36.4575381,35.0430566 L36.4575381,35.0430566 Z M12.0489056,34.9331628 L10.8431265,33.5747534 C10.817165,33.542864 10.782299,33.5185635 10.7423906,33.5045435 L9.60987397,33.0466527 C9.57531286,33.0255789 9.53021183,33.0365124 9.50913799,33.0710735 C9.48806415,33.1056346 9.49899773,33.1507357 9.53355883,33.1718095 L11.7650134,35.1224243 C11.7725801,35.1279494 11.7829151,35.1290978 11.7924868,35.125477 L12.0275374,35.024741 C12.0447182,35.0175528 12.0574021,35.0025515 12.061634,34.9844148 C12.065866,34.9662781 12.061131,34.9472124 12.0489056,34.9331628 L12.0489056,34.9331628 Z M33.3713541,34.1211698 C33.6308256,34.4691668 33.8872444,34.8995842 34.3634508,34.920956 C34.3946705,34.9212441 34.4233751,34.9038706 34.4375956,34.8760761 C34.451816,34.8482816 34.4491109,34.814838 34.4306082,34.7896904 C34.0398747,34.2666773 33.8007539,33.9461537 33.7132459,33.8281197 C33.4385114,33.4923331 33.1820926,33.0619157 32.7058861,33.0405475 C32.6757213,33.0410475 32.6482401,33.0579883 32.6342415,33.0847129 C32.6202429,33.1114375 32.6219642,33.1436748 32.6387288,33.1687569 C33.0294623,33.693805 33.2736707,34.011276 33.3713541,34.1211698 Z M35.367758,35.0491618 L35.5783878,34.8568477 C35.5928354,34.8444716 35.6016425,34.8267626 35.6027933,34.8077738 C35.6039441,34.788785 35.5973402,34.770142 35.584493,34.7561117 L34.2413466,33.2817033 C34.1559281,33.1875117 34.0583991,33.1111089 33.9702301,33.0693145 C33.8820611,33.0275201 33.8104802,33.0237604 33.7712454,33.0588631 L33.7498772,33.0802314 C33.7101074,33.1150303 33.7061106,33.1861531 33.7387727,33.2778362 C33.7714348,33.3695192 33.8380579,33.4741896 33.9238757,33.5686482 L35.267022,35.0461092 C35.2798258,35.0601323 35.2977639,35.0683711 35.3167442,35.0689463 C35.3357246,35.0695215 35.3541286,35.0623839 35.367758,35.0491618 Z M26.689201,34.1486432 C26.9608828,34.4966402 27.2295121,34.9270576 27.7087712,34.936219 C27.7399909,34.9365072 27.7686955,34.9191336 27.7829159,34.8913391 C27.7971363,34.8635446 27.7944312,34.830101 27.7759285,34.8049534 C27.3689144,34.2819403 27.1196183,33.9614168 27.0280402,33.8433827 C26.7441479,33.5106487 26.4755186,33.0802314 25.9962595,33.0680209 C25.9639179,33.0667742 25.93384,33.0845718 25.9193656,33.1135206 C25.9048912,33.1424694 25.9086998,33.1772103 25.9291022,33.2023356 C26.3361163,33.7233136 26.5894825,34.0387494 26.689201,34.1486432 Z M27.7698233,34.2035901 C27.9997862,34.5271663 28.3579586,34.7723923 28.8443403,34.939268 C28.8821158,34.952202 28.9239171,34.9391703 28.9476502,34.9070609 C28.9713832,34.8749514 28.9715769,34.8311664 28.9481289,34.7988482 C28.7344466,34.4854474 28.5095713,34.1618712 28.2735031,33.8281197 C28.0476103,33.5025084 27.6914731,33.2562649 27.2050913,33.0893892 C27.1678341,33.0760441 27.1262196,33.0881413 27.1019228,33.11938 C27.077626,33.1506187 27.0761446,33.1939306 27.0982501,33.2267564 C27.3119325,33.5421923 27.5357902,33.8678035 27.7698233,34.2035901 Z M28.9878128,34.1547484 C29.2747577,34.5027455 29.5617026,34.939268 30.0562247,34.9362313 C30.0891966,34.9356918 30.1189263,34.9162475 30.1326211,34.8862495 C30.1463158,34.8562516 30.1415325,34.8210513 30.1203294,34.7957956 C29.6868594,34.2727825 29.4223003,33.952259 29.326652,33.8342249 C29.0244441,33.4984383 28.7344466,33.0649683 28.2399245,33.0680049 C28.2080986,33.0694181 28.1796906,33.0883985 28.1662189,33.1172664 C28.1527472,33.1461343 28.1564476,33.1800986 28.1758198,33.2053882 C28.6092897,33.7304363 28.8799541,34.0468897 28.9878128,34.1547484 Z M30.108119,34.1516958 C30.4072743,34.4996929 30.7094822,34.9362154 31.2131621,34.924005 C31.247358,34.9245378 31.2785795,34.9046352 31.2925311,34.8734103 C31.3064827,34.8421853 31.3004782,34.8056498 31.2772668,34.7805325 C30.8254812,34.2554844 30.5487117,33.9339433 30.4469582,33.8159093 C30.1325398,33.4831753 29.8303319,33.0466527 29.326652,33.0588631 C29.2924561,33.0583304 29.2612346,33.0782329 29.247283,33.1094579 C29.2333314,33.1406828 29.2393359,33.1772183 29.2625473,33.2023356 C29.7143329,33.7273837 29.9961901,34.0438371 30.108119,34.1516958 Z M31.268109,34.127275 C31.5428435,34.4630616 31.817578,34.8843211 32.296837,34.8843211 C32.3280764,34.8832071 32.3559971,34.8645163 32.3689323,34.8360589 C32.3818675,34.8076015 32.3775908,34.7742756 32.3578891,34.7500065 C31.9427348,34.2412389 31.688351,33.9298732 31.5947378,33.8159093 C31.3047403,33.4923331 31.0300058,33.0710735 30.5507467,33.0710735 C30.5195073,33.0721876 30.4915866,33.0908783 30.4786514,33.1193357 C30.4657162,33.1477932 30.469993,33.1811191 30.4896946,33.2053882 C30.904849,33.7141557 31.1643204,34.0214513 31.268109,34.127275 Z M32.3059948,34.0936963 C32.5776767,34.4386407 32.8493586,34.8690581 33.3316702,34.878216 C33.3634604,34.878244 33.3924328,34.8599866 33.4061258,34.8312965 C33.4198188,34.8026064 33.415791,34.768599 33.3957749,34.7439013 C32.9846907,34.2229233 32.7333596,33.9034173 32.6417814,33.7853832 C32.3548365,33.4526492 32.0831546,33.0222319 31.600843,33.0161266 C31.5685013,33.0148799 31.5384234,33.0326776 31.523949,33.0616263 C31.5094746,33.0905751 31.5132832,33.125316 31.5336857,33.1504413 C31.9447699,33.6714193 32.2022062,33.9858376 32.3059948,34.0936963 Z M21.8996631,34.2951683 C22.1835554,34.6431653 22.473553,35.0796879 22.968075,35.0796879 C23.001047,35.0791642 23.0307767,35.0597199 23.0444714,35.029722 C23.0581661,34.999724 23.0533828,34.9645238 23.0321797,34.939268 C22.6007448,34.4121848 22.3361857,34.0896262 22.2385023,33.9715921 C21.9362944,33.6358055 21.6493495,33.199283 21.1548274,33.199283 C21.1218555,33.1998066 21.0921258,33.2192509 21.0784311,33.2492489 C21.0647363,33.2792468 21.0695197,33.3144471 21.0907227,33.3397028 C21.5221576,33.866786 21.7918044,34.1852745 21.8996631,34.2951683 Z M22.9406016,34.1791693 C23.2183887,34.5302189 23.4931231,34.9697941 23.9845926,34.9789519 C24.0169686,34.9786654 24.0464035,34.9601101 24.0606239,34.9310229 C24.0748443,34.9019357 24.0714088,34.8673104 24.0517499,34.8415847 C23.6345605,34.3104313 23.3791592,33.9858376 23.285546,33.8678035 C22.9924959,33.5289643 22.7177614,33.0893892 22.2262919,33.083284 C22.1949964,33.084365 22.1667974,33.102473 22.1527933,33.1304813 C22.1387892,33.1584896 22.1412221,33.1919136 22.1591346,33.2175986 C22.576324,33.7487519 22.836813,34.0692755 22.9406016,34.1791693 Z M24.546272,33.9410661 C24.2074328,33.5900165 23.8594358,33.1473887 23.3282825,33.1931778 C23.2927405,33.1959522 23.2620389,33.2191004 23.2495932,33.2525074 C23.2371474,33.2859145 23.2452198,33.3235078 23.270283,33.3488606 C23.7810856,33.8759438 24.0944864,34.1985025 24.2104854,34.3165365 C24.5645876,34.6492705 24.909532,35.0918983 25.443738,35.0461092 C25.4792799,35.0433348 25.5099815,35.0201866 25.5224273,34.9867796 C25.534873,34.9533725 25.5268006,34.9157791 25.5017375,34.8904263 C24.9888998,34.3653782 24.6704113,34.0489248 24.546272,33.9410661 Z M24.9461633,34.0051708 L24.9522685,33.5289643 C24.9543286,33.4545436 24.9190599,33.3828684 24.8576377,33.3366502 C24.7375686,33.2450721 24.6174995,33.1931778 24.4974303,33.1809673 C24.4599189,33.1755239 24.4231912,33.1934611 24.4039613,33.2266161 C24.3847314,33.2597711 24.3866739,33.3018084 24.4089048,33.3335976 L24.8973216,34.0204338 C24.9043963,34.0292585 24.9161562,34.0328457 24.9269518,34.0294721 C24.9377474,34.0260985 24.9453722,34.0164535 24.9461633,34.0051708 L24.9461633,34.0051708 Z M12.1740625,34.3959043 C12.4854282,34.7591643 12.8059518,35.2140025 13.3309999,35.1987395 C13.3651681,35.1962812 13.3951074,35.1749586 13.4086017,35.1434718 C13.422096,35.1119851 13.4168887,35.0755997 13.3951046,35.0491618 C12.9209332,34.5017279 12.6309357,34.1669589 12.5251121,34.0448547 C12.1954307,33.6968576 11.8779597,33.2420194 11.349859,33.2572825 C11.3156908,33.2597408 11.2857516,33.2810634 11.2722572,33.3125501 C11.2587629,33.3440369 11.2639702,33.3804222 11.2857543,33.4068601 C11.7599257,33.952259 12.0560284,34.2819403 12.1740625,34.3959043 Z M13.3981572,34.4416934 C13.7156282,34.8171638 14.0392043,35.2903176 14.5795155,35.2781072 C14.6159836,35.2788921 14.6494402,35.2579599 14.6646839,35.2248213 C14.6799277,35.1916827 14.6740516,35.1526574 14.6497254,35.125477 C14.1674138,34.5576924 13.8723286,34.2096953 13.7644699,34.0814859 C13.4286833,33.7212785 13.1051071,33.2481247 12.564796,33.2603351 C12.5283278,33.2595502 12.4948713,33.2804824 12.4796275,33.313621 C12.4643837,33.3467596 12.4702599,33.3857849 12.494586,33.4129653 C12.9768977,33.9807499 13.2780881,34.3236593 13.3981572,34.4416934 Z M17.1925457,33.5411748 L18.721901,35.0705301 C18.813979,35.1627391 18.9437769,35.2067575 19.0729506,35.1895817 L19.649893,35.1102139 C19.6932913,35.1043087 19.7311254,35.0775749 19.7507431,35.0389525 C19.7703608,35.0003302 19.7691728,34.9549171 19.7475764,34.9178998 L18.8745312,33.3580184 C18.8709138,33.3504937 18.8625844,33.345734 18.853163,33.345808 L18.4349561,33.330545 C18.392727,33.3297932 18.3540186,33.353989 18.3361939,33.3922791 C18.3183692,33.4305693 18.3247741,33.4757661 18.3525357,33.5075961 L19.5033679,34.808006 C19.5288868,34.8366341 19.5288868,34.8792335 19.5033679,34.9056894 L19.3904215,35.0186358 C19.3756268,35.0331675 19.3555553,35.0410527 19.3348256,35.0404769 C19.3140958,35.039901 19.294493,35.0309138 19.2805277,35.0155832 L17.940434,33.5014909 C17.8351578,33.38265 17.6851417,33.3120542 17.5252797,33.3061242 L17.2963343,33.3000189 C17.2380718,33.297486 17.184308,33.3312281 17.1612538,33.3847952 C17.1381996,33.4383623 17.1506542,33.5006035 17.1925457,33.5411748 Z M26.6647801,34.7805325 L25.3399494,33.2389668 C25.3291746,33.2253784 25.313354,33.2167351 25.2960981,33.2150095 C25.2788423,33.213284 25.2616235,33.2186233 25.2483712,33.229809 L25.2239504,33.2542299 C25.0661852,33.3901605 25.0743693,33.6588712 25.242266,33.8555931 L26.038996,34.7805325 C26.1203847,34.8756099 26.2289745,34.9406693 26.3407074,34.9612969 C26.4524403,34.9819245 26.5580916,34.9564173 26.6342541,34.8904263 L26.6586749,34.8690581 C26.6841046,34.8459538 26.6867973,34.806909 26.6647801,34.7805325 Z M14.5337264,34.4569564 C14.8359343,34.823269 15.1350897,35.2842124 15.6570852,35.2842124 C15.6923537,35.2855628 15.7250545,35.2658344 15.7403059,35.2340054 C15.7555573,35.2021764 15.7504448,35.1643291 15.7272951,35.1376874 C15.2734744,34.5821132 14.9956874,34.2422565 14.8939338,34.1181172 C14.5764629,33.764015 14.274255,33.3061237 13.7522594,33.3061237 C13.7175445,33.306015 13.6859697,33.3262064 13.6715055,33.3577647 C13.6570413,33.3893229 13.6623576,33.4264228 13.6851021,33.4526492 C14.1389228,34.0061883 14.4217976,34.3409574 14.5337264,34.4569564 Z M15.7303477,34.4966402 C16.0325556,34.8690581 16.3347636,35.3300015 16.8567591,35.3300015 C16.8920276,35.3313519 16.9247284,35.3116234 16.9399798,35.2797945 C16.9552312,35.2479655 16.9501187,35.2101182 16.926969,35.1834765 C16.4711133,34.6258672 16.1923087,34.2839754 16.0905551,34.1578011 C15.7730842,33.8036988 15.4708763,33.3397028 14.9458281,33.3427554 C14.9105597,33.3414051 14.8778588,33.3611335 14.8626074,33.3929625 C14.847356,33.4247915 14.8524685,33.4626388 14.8756182,33.4892805 C15.3314739,34.0468897 15.6163838,34.3826763 15.7303477,34.4966402 Z M16.8598117,34.4203251 C17.1620196,34.7957956 17.4642276,35.2628442 17.9923283,35.2658968 C18.0264656,35.2647722 18.0571402,35.2447433 18.0718996,35.2139411 C18.086659,35.1831388 18.0830502,35.1466825 18.0625382,35.1193717 C17.6066825,34.5536222 17.3278779,34.2076603 17.2261243,34.0814859 C16.9086534,33.7182259 16.6064455,33.2511773 16.0783447,33.2481247 C16.0442074,33.2492493 16.0135328,33.2692781 15.9987734,33.3000804 C15.984014,33.3308827 15.9876228,33.367339 16.0081348,33.3946497 C16.4639905,33.9603992 16.7478828,34.302291 16.8598117,34.4203251 Z M20.2085198,34.1883271 C19.9765218,33.8494879 19.750629,33.4343336 19.301896,33.3946497 C19.2713515,33.3907688 19.2414668,33.4056232 19.2261188,33.4323153 C19.2107709,33.4590074 19.2129665,33.492308 19.2316861,33.5167539 C19.5817181,34.0255215 19.7964181,34.3379048 19.8757858,34.4539038 C20.1199942,34.7805325 20.345887,35.1987395 20.79462,35.2353707 C20.8251645,35.2392517 20.8550492,35.2243973 20.8703972,35.1977051 C20.8857451,35.171013 20.8835495,35.1377125 20.8648299,35.1132665 C20.5147979,34.604499 20.2960278,34.2961858 20.2085198,34.1883271 Z M20.1087606,33.3187925 C20.0149952,33.4109841 20.3403318,33.8941305 20.8354333,34.3979495 C21.3305386,34.9017706 21.8079328,35.2354859 21.9017389,35.1433347 C21.9955043,35.0511431 21.6701677,34.5679967 21.1750662,34.0641776 C20.6799609,33.5603566 20.2025668,33.2266413 20.1087606,33.3187925 Z"></path>
                        <path d="M9.44808588,28.9531089 C9.35661117,28.8098879 9.31083483,28.6416865 9.31682385,28.4707973 C9.36973568,26.4499725 9.36261293,24.1320275 9.29545561,21.5169623 C9.1530007,16.0812896 9.1184045,11.0851922 9.19166703,6.52866993 C9.22219309,4.73984319 9.39619159,4.21174246 10.6996541,3.3753286 C10.9113014,3.23897889 11.3925955,3.14231305 12.1435364,3.08533109 C12.9941958,3.02020884 14.4472359,2.95610413 16.5026569,2.89301695 C21.2911771,2.74242175 26.4551679,2.64066824 31.9946291,2.58775641 C33.4995635,2.57554599 35.0075506,2.71901844 35.7645967,4.06827001 C35.8468461,4.2167912 35.8928672,4.38309486 35.8989113,4.55363426 C36.1553302,12.4985485 36.2743818,19.6029787 36.2560662,25.8669249 C36.249961,27.6923829 36.29575,30.0764677 34.0246116,30.4122543 C33.340828,30.5140078 32.2062764,30.5781125 30.6209567,30.6045684 C23.4259658,30.72362 18.0930643,31.0166701 12.0763791,30.6381471 C11.4231216,30.5954106 10.7973375,30.4885694 10.2967102,29.9665739 C9.88766105,29.5392091 9.60478629,29.2013875 9.44808588,28.9531089 Z M35.0533396,18.9039321 C32.3833275,19.1094742 29.4762297,19.1288073 26.3320461,18.9619316 C26.2544065,18.9579107 26.1789634,18.9867566 26.124469,19.0412993 L23.2061782,21.9626426 C23.1345712,22.0318231 23.1138728,22.1389677 23.154284,22.2312719 C23.7037529,23.5255766 22.9070229,25.1037736 21.6524021,25.6471373 C19.8238915,26.4408147 17.8641189,25.5921904 17.4031755,23.6079969 C16.8659169,21.3093851 19.0027407,19.5419266 21.1670379,20.2562362 C21.2576046,20.285467 21.3568375,20.2564232 21.4173515,20.1829737 C22.2232393,19.2122452 24.4089048,16.5870046 25.590263,16.5442681 C28.6245528,16.4323393 31.7860344,16.3967255 35.0747079,16.4374269 C35.1168556,16.4374269 35.151023,16.4032595 35.151023,16.3611118 L35.3282017,4.84668438 C35.3339068,4.49969088 35.1393556,4.17939311 34.8274469,4.02248093 C33.5941943,3.40280204 32.428099,3.71111518 31.0910579,3.68974695 C24.5218512,3.59206358 19.2774751,3.59613372 15.3579299,3.70195737 C14.8756182,3.71416779 14.0015555,3.69890476 12.7357419,3.65616829 C11.7690835,3.62360716 11.1036155,3.73655356 10.7393379,3.99500748 C10.161378,4.40609167 9.89173119,4.99727958 9.93039753,5.7685712 C10.0932031,8.84966754 10.1857988,11.7364147 10.2081846,14.4288126 C10.2086369,14.4870326 10.2338805,14.5423004 10.2775884,14.5807633 C10.3212962,14.6192262 10.379325,14.6372382 10.43713,14.6302846 C13.2495971,14.2863577 15.9287671,14.1734113 18.4746399,14.2914454 C18.6298386,14.2991481 18.7819934,14.2391746 18.8928469,14.1266047 L21.5547187,11.3975755 C21.6162941,11.3360338 21.6466254,11.2506566 21.6371391,11.1655775 C21.6330689,11.1147007 21.6208585,11.0597538 21.6005078,11.0007368 C21.1670379,9.63011698 21.8905053,8.43654828 23.1329157,7.84434284 C25.7886824,6.58056422 28.6123423,9.28822518 26.9608828,11.9684127 C26.2486083,13.1243326 25.139495,13.5343992 23.633543,13.1986126 C23.5426095,13.1776929 23.4480623,13.2042123 23.3832294,13.2688226 L20.1932568,16.4587952 C19.9561482,16.6959385 19.6361825,16.8335346 19.2988434,16.8434234 C17.4957711,16.888195 16.1923087,16.9411068 15.3884559,17.0021589 C13.7797329,17.1273157 12.3266927,16.9136334 10.3882883,16.8525813 C10.3437581,16.8517643 10.300728,16.8686741 10.2686678,16.8995893 C10.2366076,16.9305045 10.2181447,16.9728915 10.2173424,17.017422 L10.1776586,28.4005873 C10.1756654,28.483181 10.1901974,28.5651835 10.220395,28.6417432 C10.5195504,29.4394907 11.146352,29.8505749 12.1007999,29.8749957 C15.0160381,29.9482583 18.5875863,29.9940473 22.2446076,29.8139436 C25.5760175,29.6470679 28.6042021,29.5890684 31.3291611,29.6399451 C31.6100008,29.6440153 32.1411541,29.7467863 32.9226211,29.9482583 C33.0214578,29.9744804 33.1240123,29.9817317 33.224829,29.9696265 C34.238294,29.8383645 35.2792324,29.5758404 35.2914429,28.4524816 C35.295513,28.1553614 35.2751623,25.0274584 35.2303908,19.0687728 C35.2305169,19.0228541 35.2114839,18.9789639 35.1778762,18.9476739 C35.1442685,18.916384 35.0991323,18.9005305 35.0533396,18.9039321 Z M10.1837623,15.2713317 L10.1837623,16.0436408 C10.1835464,16.1014425 10.207793,16.1566914 10.2506674,16.1960895 C10.2935418,16.2354876 10.3511611,16.2554667 10.4096566,16.251218 C13.376789,16.0517811 16.2869394,16.1097806 19.1401079,16.4252165 C19.3361793,16.4462687 19.5314622,16.3740254 19.6682086,16.2298498 L23.2885986,12.4232509 C23.3637658,12.3440184 23.4807908,12.3186831 23.5847013,12.3591462 C25.1873191,13.0032459 26.8998307,11.6265209 26.5274129,9.86211499 C25.9596283,7.18803269 21.6371391,8.08549867 22.5407103,11.2907343 C22.5632647,11.3758547 22.5388475,11.466547 22.4766056,11.5288375 L19.0576876,14.9477555 C18.9678287,15.0376399 18.845946,15.0881498 18.7188484,15.0881754 L10.3699727,15.0881754 C10.2671324,15.0881754 10.1837623,15.1701772 10.1837623,15.2713317 Z M35.1998647,17.1517366 L25.575,17.0051484 C25.4501682,17.0031513 25.330086,17.0516248 25.242266,17.1395262 L21.4356671,20.9461251 C21.3642061,21.0175886 21.2590101,21.044472 21.1609327,21.016335 C17.5649635,19.9662387 17.259703,25.1892465 20.4069391,25.0640897 C21.9454522,25.0030376 22.8551286,23.5255766 22.2903966,22.1702198 C22.2402273,22.0519865 22.266732,21.9146441 22.357554,21.8222228 L25.6177365,18.5650929 C25.7318637,18.4508525 25.8835698,18.3815012 26.0451012,18.3697261 C29.022409,18.1356931 32.0689091,18.0888864 35.1846017,18.2293063 C35.2149036,18.2309452 35.2408708,18.2063447 35.2426012,18.1743594 L35.2578642,17.2097361 C35.2578642,17.1788628 35.2323197,17.1533674 35.1998647,17.1517366 Z"></path>
                        <path d="M5.53769841,10.0544291 C5.54015944,10.1467326 5.50583565,10.2362302 5.44228423,10.3032168 C5.37873281,10.3702034 5.2911644,10.4091869 5.19885922,10.411584 L1.47162807,10.4970569 C1.08964811,10.5060275 0.720437883,10.3916402 0.445520906,10.1791523 C0.17060393,9.96666434 0.012592914,9.67355358 0.00637750105,9.36454031 L0.000272290329,9.04401675 C-0.0071466346,8.73552324 0.137298032,8.43610151 0.401806333,8.21167023 C0.666314635,7.98723894 1.02920141,7.85619763 1.41057597,7.84739545 L5.13780711,7.7619225 C5.23062833,7.75946525 5.32058224,7.79420514 5.38765733,7.85841377 C5.45473242,7.9226224 5.49336545,8.01097429 5.49496194,8.1038143 L5.53769841,10.0544291 Z M4.89359868,9.75222119 L4.88749347,8.5617051 C4.88585238,8.51906803 4.85079436,8.4853584 4.80812573,8.48538995 L4.69212673,8.48538995 C3.65315513,8.49083481 2.65714369,8.55374322 1.92362512,8.66024943 C1.19010655,8.76675563 0.779295388,8.90811655 0.781728421,9.05317457 L0.781728421,9.30959342 C0.78675049,9.611023 2.53925856,9.84596562 4.69823194,9.83464154 L4.81423094,9.83464154 C4.83582031,9.83465751 4.85648457,9.82587785 4.87145986,9.81032659 C4.88643515,9.79477533 4.89442905,9.77379459 4.89359868,9.75222119 Z"></path>
                        <path d="M5.51634382,15.091228 C5.51714337,15.182714 5.48157873,15.2707756 5.41746081,15.3360385 C5.35334289,15.4013014 5.26592445,15.438419 5.17443838,15.439225 L1.4838385,15.4850141 C0.675547994,15.4940827 0.0144393336,14.983226 0.00637750105,14.3433397 L0.000272290324,14.0319739 C-0.00365074244,13.7239829 0.147317306,13.4266966 0.419891628,13.2056594 C0.692465949,12.9846222 1.06426369,12.857985 1.45331244,12.8536682 L5.14391232,12.8078655 C5.23539833,12.807066 5.32345998,12.8426306 5.38872286,12.9067485 C5.45398574,12.9708664 5.49110331,13.0582849 5.49190933,13.149771 L5.51634382,15.091228 Z M4.9027565,14.7249153 L4.89665129,13.5954513 C4.89665129,13.5516178 4.86111714,13.5160836 4.81728355,13.5160836 L4.06634263,13.5191362 C2.27188887,13.5255064 0.816135548,13.7547159 0.809188032,14.0319739 L0.809188032,14.3128136 C0.805840164,14.4468313 1.1482533,14.5743542 1.76068336,14.667164 C2.37311341,14.7599737 3.20506607,14.8104184 4.07244784,14.8073357 L4.82338876,14.8042831 C4.86722235,14.8042831 4.9027565,14.7687489 4.9027565,14.7249153 Z"></path>
                        <path d="M5.51939762,20.1432898 C5.52019629,20.2274895 5.48752626,20.3085634 5.42856055,20.3686741 C5.36959484,20.4287847 5.28916419,20.4630077 5.20496443,20.4638134 L1.45025984,20.4973921 C1.07261013,20.5011184 0.709166667,20.379975 0.440037655,20.1606635 C0.170908642,19.9413519 0.0181871871,19.6418759 0.0154984119,19.3282442 L0.0154984119,19.0412993 C0.00994116712,18.3895316 0.641032164,17.8554265 1.42583899,17.8477306 L5.18054359,17.8141371 C5.26474328,17.8133384 5.34581712,17.8460085 5.4059278,17.9049742 C5.46603848,17.9639399 5.50026143,18.0443705 5.50106715,18.1285703 L5.51939762,20.1432898 Z M4.90580911,19.7220303 L4.89359868,18.5742507 C4.89359868,18.5304171 4.85806454,18.4948829 4.81423094,18.4948829 L4.42044485,18.5009882 C2.44503437,18.5215572 0.844112975,18.7346491 0.84279137,18.9771946 L0.848896581,19.4045593 C0.848226401,19.5212779 1.22560779,19.6293391 1.89785908,19.7049245 C2.57011037,19.7805098 3.4820447,19.8174142 4.43265527,19.8075033 L4.82644137,19.801398 C4.87027496,19.801398 4.90580911,19.7658639 4.90580911,19.7220303 L4.90580911,19.7220303 Z"></path>
                        <path d="M5.51938278,25.14651 C5.51938278,25.3375176 5.36543864,25.4928315 5.17443838,25.494507 L1.43804942,25.5097901 C1.06484233,25.5115419 0.706341725,25.3956767 0.441725857,25.1877642 C0.177109988,24.9798517 0.0281502246,24.6969982 0.0277448508,24.4016743 L0.0277448508,23.9682044 C0.0268849571,23.3559364 0.652102666,22.8576734 1.42583899,22.8540034 L5.16222796,22.838727 C5.25505027,22.8379261 5.34435091,22.8742302 5.41027473,22.9395808 C5.47619854,23.0049313 5.51328114,23.0939115 5.51327757,23.1867374 L5.51938278,25.14651 Z M4.91496692,24.7191453 L4.90886171,23.638523 C4.90721476,23.5891417 4.86669225,23.54997 4.81728355,23.5499974 L3.21466574,23.5591552 C2.58076892,23.5635778 1.9732855,23.6137189 1.52648756,23.698496 C1.07968961,23.783273 0.830369178,23.8957049 0.833601898,24.0109408 L0.833601898,24.4077795 C0.840330711,24.6464955 1.90763022,24.8321128 3.22077095,24.8229339 L4.82338876,24.813776 C4.84821507,24.8137898 4.87198317,24.8037236 4.88924791,24.7858833 C4.90651266,24.7680431 4.91579447,24.7439578 4.91496692,24.7191453 Z"></path>
                    </g>
                </g>
            </g>
        </g>
    </g>
</svg>