<svg width="36px" height="23px" viewBox="0 0 36 23" version="1.1" xmlns="http://www.w3.org/2000/svg" xmlns:xlink="http://www.w3.org/1999/xlink">
    <title>USA</title>
    <g stroke="none" stroke-width="1" fill="none" fill-rule="evenodd">
        <g transform="translate(-1411, -5304)">
            <g transform="translate(0, 4602)">
                <g transform="translate(1336, 701)">
                    <g transform="translate(75, 1)">
                        <rect stroke="currentColor" stroke-width="1.09824" x="0.54912" y="0.54912" width="34.90176" height="21.90176"></rect>
                        <rect fill="currentColor" x="17.5162912" y="3.01190476" width="18.3373673" height="1.0952381"></rect>
                        <rect fill="currentColor" x="17.5162912" y="6.02380952" width="18.3373673" height="1.0952381"></rect>
                        <rect fill="currentColor" x="17.5162912" y="9.03571429" width="18.3373673" height="1.0952381"></rect>
                        <rect fill="currentColor" x="0" y="12.047619" width="35.5799665" height="1.0952381"></rect>
                        <rect fill="currentColor" x="0.27369205" y="15.3333333" width="35.5799665" height="1.0952381"></rect>
                        <rect fill="currentColor" x="0.27369205" y="18.6190476" width="35.5799665" height="1.0952381"></rect>
                        <rect stroke="currentColor" stroke-width="1.09824" x="0.54912" y="0.54912" width="16.4180512" height="12.0446171"></rect>
                        <polygon fill="currentColor" fill-rule="nonzero" points="4.85803389 5.47619048 4.85803389 5.95535714 4.3790728 5.95535714 4.3790728 6.91369048 4.85803389 6.91369048 4.85803389 7.39285714 5.81595606 7.39285714 5.81595606 6.91369048 6.29491715 6.91369048 6.29491715 5.95535714 5.81595606 5.95535714 5.81595606 5.47619048"></polygon>
                        <polygon fill="currentColor" fill-rule="nonzero" points="8.14233848 5.47619048 8.14233848 5.95535714 7.6633774 5.95535714 7.6633774 6.91369048 8.14233848 6.91369048 8.14233848 7.39285714 9.10026066 7.39285714 9.10026066 6.91369048 9.57922175 6.91369048 9.57922175 5.95535714 9.10026066 5.95535714 9.10026066 5.47619048"></polygon>
                        <polygon fill="currentColor" fill-rule="nonzero" points="11.4266431 5.47619048 11.4266431 5.95535714 10.947682 5.95535714 10.947682 6.91369048 11.4266431 6.91369048 11.4266431 7.39285714 12.3845653 7.39285714 12.3845653 6.91369048 12.8635263 6.91369048 12.8635263 5.95535714 12.3845653 5.95535714 12.3845653 5.47619048"></polygon>
                        <polygon fill="currentColor" fill-rule="nonzero" points="3.21588159 4.6547619 4.17380376 4.6547619 4.17380376 4.17559524 4.65276485 4.17559524 4.65276485 3.2172619 4.17380376 3.2172619 4.17380376 2.73809524 3.21588159 2.73809524 3.21588159 3.2172619 2.7369205 3.2172619 2.7369205 4.17559524 3.21588159 4.17559524"></polygon>
                        <polygon fill="currentColor" fill-rule="nonzero" points="3.21588159 10.1309524 4.17380376 10.1309524 4.17380376 9.65178571 4.65276485 9.65178571 4.65276485 8.69345238 4.17380376 8.69345238 4.17380376 8.21428571 3.21588159 8.21428571 3.21588159 8.69345238 2.7369205 8.69345238 2.7369205 9.65178571 3.21588159 9.65178571"></polygon>
                        <polygon fill="currentColor" fill-rule="nonzero" points="7.45810836 2.73809524 6.50018619 2.73809524 6.50018619 3.2172619 6.0212251 3.2172619 6.0212251 4.17559524 6.50018619 4.17559524 6.50018619 4.6547619 7.45810836 4.6547619 7.45810836 4.17559524 7.93706945 4.17559524 7.93706945 3.2172619 7.45810836 3.2172619"></polygon>
                        <polygon fill="currentColor" fill-rule="nonzero" points="7.45810836 8.21428571 6.50018619 8.21428571 6.50018619 8.69345238 6.0212251 8.69345238 6.0212251 9.65178571 6.50018619 9.65178571 6.50018619 10.1309524 7.45810836 10.1309524 7.45810836 9.65178571 7.93706945 9.65178571 7.93706945 8.69345238 7.45810836 8.69345238"></polygon>
                        <polygon fill="currentColor" fill-rule="nonzero" points="10.742413 2.73809524 9.78449078 2.73809524 9.78449078 3.2172619 9.3055297 3.2172619 9.3055297 4.17559524 9.78449078 4.17559524 9.78449078 4.6547619 10.742413 4.6547619 10.742413 4.17559524 11.221374 4.17559524 11.221374 3.2172619 10.742413 3.2172619"></polygon>
                        <polygon fill="currentColor" fill-rule="nonzero" points="10.742413 8.21428571 9.78449078 8.21428571 9.78449078 8.69345238 9.3055297 8.69345238 9.3055297 9.65178571 9.78449078 9.65178571 9.78449078 10.1309524 10.742413 10.1309524 10.742413 9.65178571 11.221374 9.65178571 11.221374 8.69345238 10.742413 8.69345238"></polygon>
                        <polygon fill="currentColor" fill-rule="nonzero" points="14.0267176 2.73809524 13.0687954 2.73809524 13.0687954 3.2172619 12.5898343 3.2172619 12.5898343 4.17559524 13.0687954 4.17559524 13.0687954 4.6547619 14.0267176 4.6547619 14.0267176 4.17559524 14.5056786 4.17559524 14.5056786 3.2172619 14.0267176 3.2172619"></polygon>
                        <polygon fill="currentColor" fill-rule="nonzero" points="14.0267176 8.21428571 13.0687954 8.21428571 13.0687954 8.69345238 12.5898343 8.69345238 12.5898343 9.65178571 13.0687954 9.65178571 13.0687954 10.1309524 14.0267176 10.1309524 14.0267176 9.65178571 14.5056786 9.65178571 14.5056786 8.69345238 14.0267176 8.69345238"></polygon>
                    </g>
                </g>
            </g>
        </g>
    </g>
</svg>