<svg width="35px" height="39px" viewBox="0 0 35 39" version="1.1" xmlns="http://www.w3.org/2000/svg" xmlns:xlink="http://www.w3.org/1999/xlink">
    <title>Footer time to settle in icon</title>
    <g stroke="none" stroke-width="1" fill="none" fill-rule="evenodd">
        <g transform="translate(-223, -8746)" fill="currentColor">
            <g transform="translate(0, 8486)">
                <g transform="translate(223, 260)" fill-rule="nonzero">
                    <path d="M10.7433397,32.6643406 C9.31740687,32.7946491 7.40748954,32.8994069 6.37446887,32.0051331 C6.04140426,31.7155587 5.501909,31.2471296 4.75598307,30.5998458 C4.33271347,30.231916 4.08551709,29.7081271 4.01439392,29.028479 C3.88949469,27.8310039 3.75331984,25.8755252 3.60586937,23.1620431 C3.59208463,22.9128293 3.40443389,22.7072661 3.15571174,22.668915 C1.83386161,22.4645096 -0.70315391,21.9228352 0.184151004,20.0065343 C1.06885385,18.1004537 2.18774275,16.4396595 3.29101924,14.5412441 C3.37944936,14.3894174 3.42187824,14.2156759 3.4133164,14.0404508 C3.31617255,11.8345755 3.7619934,9.64828909 4.75077893,7.48159152 C6.62426732,3.37048729 10.2073138,0.922732259 14.7166963,0.253304473 C16.5919194,-0.0243462377 18.3769375,-0.0737442168 20.0717506,0.105110535 C22.7128488,0.383612935 26.0096679,1.44141104 28.0965258,3.12009064 C28.2890788,3.27509809 29.0679642,3.94622926 30.4331822,5.13348414 C34.414345,8.59815619 35.5748669,14.0557812 34.7500116,19.0892649 C34.2087817,22.3878576 32.5356525,25.3108552 30.271854,27.7688305 C29.0610254,29.0804321 28.2873441,29.9184943 27.9508101,30.2830173 C27.7270323,30.5266005 27.6082045,30.9481867 27.5943269,31.5477759 C27.5388161,34.0210817 27.5544285,36.1102755 27.6411641,37.8153575 C27.6741236,38.4302771 27.3861615,38.7530674 26.7772778,38.7837282 C26.3331916,38.8058721 23.6521951,38.874859 18.7342881,38.9906887 C17.0819754,39.0290147 15.4973165,38.9395873 13.9256679,38.8935961 C13.7933186,38.8903488 13.6672371,38.8393706 13.5717867,38.7505123 L11.1154353,36.4560614 C10.9642901,36.3156933 10.8786517,36.1207116 10.8786472,35.916942 L10.8786472,32.7869839 C10.8787698,32.7521136 10.8640826,32.7188105 10.8382592,32.695404 C10.8124358,32.6719975 10.7779181,32.6607013 10.7433397,32.6643406 L10.7433397,32.6643406 Z M13.8476059,0.762580604 C13.8407994,0.741240242 13.7199507,0.755952755 13.5116454,0.803481519 C13.3033401,0.851010282 13.0246417,0.927461936 12.7368614,1.01601779 C12.4490812,1.10457394 12.1757946,1.19797964 11.977122,1.27568646 C11.7784495,1.35339328 11.6706656,1.4090358 11.6774818,1.43037315 C11.6842882,1.45171351 11.8051369,1.43700099 12.0134422,1.38947223 C12.2217475,1.34194347 12.5004459,1.26549181 12.7882262,1.17693596 C13.0760064,1.08837981 13.3492931,0.994974111 13.5479656,0.917267292 C13.7466381,0.839560472 13.8544221,0.783917955 13.8476059,0.762580604 Z M24.350772,1.83721661 C24.3614551,1.80059104 24.3398802,1.7623959 24.3025817,1.75190289 L20.8108157,0.768738317 C20.7735243,0.7582464 20.7346301,0.779418223 20.7239327,0.816032624 L20.7210444,0.825869635 C20.7103614,0.862495197 20.7319363,0.900690337 20.7692347,0.911183352 L24.2610007,1.89434792 C24.2982922,1.90483984 24.3371864,1.88366802 24.3478837,1.84705362 L24.350772,1.83721661 Z M24.5342958,35.6205542 C24.0867403,32.9964994 24.0529134,30.6535022 25.314916,28.2798441 C25.8717584,27.2348214 26.7382467,26.2996665 27.5865207,25.2571988 C27.7096852,25.1055981 27.9490754,24.8287991 28.3046912,24.4268017 C29.5745,22.9857435 30.1833837,21.4143767 30.9379832,19.4367542 C31.6561538,17.5613343 31.9553915,15.3154297 31.6613579,13.2023885 C31.4583966,11.7494066 31.2033941,10.4625041 30.8963501,9.34168094 C29.9361873,5.84890314 27.1051382,3.14308625 23.5975516,2.01374625 C22.5706025,1.68158742 21.9252898,1.48569888 21.6616136,1.42608063 C19.8011356,1.0070495 17.727288,1.09392181 15.3594069,1.4286357 C11.9663113,1.91154353 9.28618206,3.28617005 7.12386422,5.99454201 C6.83243269,6.35991672 6.78039135,6.75595224 6.54880737,7.1570979 C5.73175827,8.56238524 5.2295593,9.64403064 5.04221046,10.4020341 C4.76986076,11.5041201 4.53740942,12.4341648 4.34485645,13.1921682 C4.31203202,13.3211434 4.29542835,13.4541479 4.29541717,13.5882038 C4.29194775,14.4313762 4.17312002,15.0735499 3.93893397,15.514725 C3.45668418,16.4226257 2.48958254,18.0050645 1.03762904,20.2620411 C0.865892609,20.5294715 0.819922756,20.7389871 0.899719483,20.8905878 C0.96737323,21.0200446 1.15038529,21.1299125 1.44875566,21.2201915 C2.32305024,21.487622 2.93627074,21.6715869 3.28841717,21.7720862 C4.67531899,22.1681217 4.58164457,22.9065364 4.7377686,24.3833656 C4.90777032,25.9947617 4.95460753,27.4903281 4.87828023,28.8700648 C4.86339772,29.129712 4.97775262,29.3809357 5.18532416,29.5446027 C6.35625439,30.4669822 7.61045078,30.0019599 9.05980221,29.9917396 C11.5135516,29.9712991 11.9272803,31.512005 11.9038617,33.5969404 C11.889984,34.9153554 11.8882493,35.6929477 11.8986575,35.9297174 C11.9006822,35.9692917 11.9187536,36.0063719 11.9487039,36.0324064 C11.9786542,36.0584409 12.0178976,36.0711819 12.0573836,36.067691 C15.8564017,35.7644896 19.9694026,35.6682488 24.3963863,35.7789684 C24.4374064,35.7795541 24.4765628,35.7621769 24.5032197,35.7315565 C24.5298767,35.7009362 24.5412666,35.6602519 24.5342958,35.6205542 L24.5342958,35.6205542 Z M9.29359795,3.12936554 C9.26378268,3.10077675 8.88101625,3.43717626 8.43863673,3.8807599 C8.22617145,4.09380348 8.02809028,4.30358288 7.88797387,4.46394365 C7.74785747,4.62430443 7.67718492,4.72210898 7.69150518,4.73583892 C7.72132045,4.76442771 8.10408688,4.4280282 8.5464664,3.98444456 C8.75893168,3.77140097 8.95701285,3.56162158 9.09712925,3.40126081 C9.23724566,3.24090003 9.30791821,3.14309548 9.29359795,3.12936554 Z M31.4944353,7.71397495 C31.4697898,7.73362408 31.5078817,7.82705372 31.6003307,7.97370912 C31.6927797,8.12036452 31.8320123,8.30823157 31.9873969,8.49597902 C32.3109533,8.88692452 32.6148377,9.17066628 32.6661461,9.12973806 C32.6907916,9.11008893 32.6526997,9.01665928 32.5602507,8.87000389 C32.4678017,8.72334849 32.3285691,8.53548144 32.1731845,8.34773399 C31.8496281,7.95678848 31.5457437,7.67304673 31.4944353,7.71397495 L31.4944353,7.71397495 Z M32.0697784,9.05132303 C32.0317159,9.07827729 32.0566333,9.18775161 32.1390489,9.35566227 C32.2214645,9.52357294 32.354627,9.73616518 32.5092415,9.94666992 C32.8312008,10.385014 33.1564515,10.6948609 33.2357126,10.6387356 C33.2737751,10.6117813 33.2488577,10.502307 33.1664421,10.3343964 C33.0840265,10.1664857 32.950864,9.95389346 32.7962495,9.74338872 C32.4742902,9.30504465 32.1490395,8.99519775 32.0697784,9.05132303 L32.0697784,9.05132303 Z M32.4123665,10.509628 C32.3609336,10.5461821 32.3802504,10.6743535 32.4660673,10.8659449 C32.5518843,11.0575363 32.6971714,11.2968531 32.8699661,11.5312464 C33.2297743,12.0193219 33.6082722,12.3532795 33.7153777,12.2771729 C33.7668106,12.2406188 33.7474938,12.1124474 33.6616769,11.920856 C33.5758599,11.7292646 33.4305728,11.4899478 33.2577782,11.2555545 C32.8979699,10.767479 32.519472,10.4335214 32.4123665,10.509628 L32.4123665,10.509628 Z M31.5911021,11.1813298 C31.6101839,11.2119906 31.6353372,11.2349862 31.666562,11.2503167 C31.678705,11.2213592 31.6726335,11.1872916 31.6483475,11.1481139 C31.637625,11.1360905 31.6197026,11.1332698 31.6056903,11.1414002 C31.591678,11.1495306 31.5855488,11.166307 31.5911021,11.1813298 L31.5911021,11.1813298 Z M32.6037486,11.8396686 C32.5121571,11.9055317 32.7289335,12.3493733 33.0879412,12.831035 C33.2603585,13.0623576 33.4431914,13.2716429 33.5962148,13.4128459 C33.7492381,13.554049 33.8599158,13.6156019 33.9038975,13.5839624 C33.9954889,13.5180992 33.7787125,13.0742577 33.4197048,12.592596 C33.2472875,12.3612734 33.0644546,12.1519881 32.9114313,12.0107851 C32.7584079,11.869582 32.6477302,11.8080291 32.6037486,11.8396686 L32.6037486,11.8396686 Z M31.7706447,12.0398326 C31.7845224,12.0977475 31.8044716,12.1326668 31.8304923,12.1445904 C31.8491162,12.1525228 31.8707855,12.1484698 31.8851357,12.1343701 C31.8886051,12.1309634 31.8816662,12.0926374 31.8643191,12.0193921 C31.8557916,11.9958857 31.8300628,11.9818311 31.8054076,11.9872111 C31.7807524,11.9925911 31.7655702,12.0155728 31.7706447,12.0398326 L31.7706447,12.0398326 Z M32.7740278,13.0830413 C32.7314676,13.1142864 32.7592976,13.2343583 32.8513951,13.4168411 C32.9434926,13.599324 33.0923131,13.8292689 33.265116,14.0560878 C33.6249398,14.5283901 33.9884692,14.8585168 34.0770911,14.7934548 C34.1196513,14.7622098 34.0918213,14.6421379 33.9997238,14.459655 C33.9076263,14.2771721 33.7588058,14.0472273 33.5860029,13.8204083 C33.2261791,13.3481061 32.8626497,13.0179794 32.7740278,13.0830413 L32.7740278,13.0830413 Z M32.8880504,14.2517805 C32.849735,14.2849346 32.8838781,14.3956877 32.9829683,14.5596743 C33.0820585,14.7236609 33.2379785,14.9274474 33.4164262,15.1262013 C33.5948744,15.324954 33.7812305,15.5023908 33.9344967,15.6194761 C34.0877628,15.7365614 34.1953839,15.7837038 34.2336835,15.7505322 C34.2719989,15.717378 34.2378558,15.6066249 34.1387656,15.4426383 C34.0396754,15.2786517 33.8837554,15.0748652 33.7053077,14.8761113 C33.5268595,14.6773586 33.3405034,14.4999218 33.1872372,14.3828365 C33.033971,14.2657512 32.92635,14.2186088 32.8880504,14.2517805 L32.8880504,14.2517805 Z M32.9524516,15.1610014 C32.8646086,15.2316209 33.0855934,15.6394113 33.4460377,16.071832 C33.8064851,16.5042564 34.1699018,16.7975631 34.2577526,16.7269514 C34.3455955,16.6563319 34.1246107,16.2485414 33.7641664,15.8161208 C33.4037191,15.3836963 33.0403023,15.0903897 32.9524516,15.1610014 L32.9524516,15.1610014 Z M32.8895336,16.0972804 C32.9433097,16.3459737 33.0257085,16.5324937 33.13673,16.6568403 C33.1507644,16.6729629 33.1570899,16.6942182 33.1541049,16.7152244 C33.1511199,16.7362307 33.1391106,16.7549738 33.1211176,16.7667082 C33.0812192,16.7939623 33.0499944,16.8007758 33.0274432,16.7871488 C32.9696127,16.7505264 32.8972962,16.7660048 32.8588887,16.8232256 C32.8204812,16.8804465 32.8280472,16.9614359 32.8765233,17.0119947 C33.2911193,17.4480597 33.6562761,17.7938455 33.9719936,18.0493523 C33.9939362,18.0669223 34.0236537,18.0719094 34.0502934,18.0624924 C34.0769331,18.0530753 34.0965943,18.0306329 34.1020969,18.0033611 C34.1870978,17.5553725 34.1133725,17.1959596 33.8809212,16.9251224 C33.5842855,16.5776332 33.2642313,16.1637122 32.9884122,16.0257385 C32.9653017,16.0132586 32.9369119,16.0151043 32.9156788,16.0304671 C32.8944457,16.04583 32.8842405,16.071909 32.8895336,16.0972804 L32.8895336,16.0972804 Z M32.8921357,17.4208056 C32.865655,17.3945147 32.8262319,17.3857668 32.7903755,17.3982253 C32.7545191,17.4106837 32.7284176,17.4421985 32.7230013,17.4795722 L32.67096,17.9190438 C32.6602661,18.006162 32.6910162,18.0929718 32.7542261,18.1541101 L33.680562,19.0739345 C33.7197099,19.1122389 33.7775566,19.1255002 33.8299305,19.1081771 C33.8823044,19.090854 33.9201907,19.0459283 33.9277584,18.9921723 L33.9719936,18.6267976 C33.9803228,18.5480006 33.9516618,18.4691993 33.8939315,18.4121719 L32.8921357,17.4208056 Z M32.6891744,18.4837138 C32.6617272,18.4581207 32.6218091,18.4501591 32.5863683,18.4632093 C32.5509275,18.4762596 32.5261836,18.5080314 32.5226421,18.5450355 L32.478407,18.9768419 C32.4692455,19.0627562 32.5009722,19.1477206 32.5642752,19.2067981 L33.485407,20.0908515 C33.5244628,20.1282019 33.5817376,20.140519 33.6331168,20.122617 C33.6844959,20.104715 33.7210542,20.0597037 33.7273992,20.0065343 L33.7612261,19.6488248 C33.7691063,19.5716106 33.7403974,19.494557 33.6831641,19.4393092 L32.6891744,18.4837138 Z M32.1840611,19.5237031 C32.1237926,19.5733588 32.1315467,19.6976944 32.2056177,19.8693569 C32.2796888,20.0410193 32.414009,20.2459467 32.5790289,20.4390562 C32.7440498,20.6321688 32.9262538,20.7976452 33.0855565,20.8990809 C33.2448592,21.0005166 33.3682106,21.029602 33.4284738,20.9799385 C33.4887424,20.9302828 33.4809882,20.8059473 33.4069172,20.6342848 C33.3328461,20.4626223 33.1985259,20.257695 33.033506,20.0645854 C32.8684851,19.8714728 32.6862811,19.7059964 32.5269784,19.6045607 C32.3676757,19.5031251 32.2443243,19.4740396 32.1840611,19.5237031 L32.1840611,19.5237031 Z M31.8487067,20.4127901 C31.7914612,20.5916448 31.8643191,20.796902 32.0672804,21.0285615 C32.2476904,21.2329669 32.4714681,21.4731433 32.7386137,21.7490906 C32.8232747,21.8372824 32.9599669,21.8518944 33.0622341,21.7836846 C33.1645012,21.7154748 33.2025616,21.584307 33.1523424,21.4731433 C33.0170349,21.1869757 32.6536128,20.8122324 32.0620762,20.3489134 C32.0272194,20.3216278 31.9809125,20.3129514 31.9382727,20.3257165 C31.895633,20.3384816 31.8621322,20.3710502 31.8487067,20.4127901 L31.8487067,20.4127901 Z M31.9475853,22.1681217 C32.2615681,22.5002806 32.4263656,22.6740252 32.441978,22.6893556 C32.5084374,22.7557137 32.615677,22.7622951 32.6917765,22.704686 C32.7767774,22.6433644 32.8166757,22.5283863 32.8114716,22.3597518 C32.8096111,22.3069615 32.7893252,22.2571629 32.7542261,22.2192231 C32.7195319,22.1800454 32.5850917,22.0361099 32.3509057,21.7874166 C32.0386576,21.451851 31.8747274,21.276403 31.859115,21.2610726 C31.7926557,21.1947145 31.6854161,21.1881331 31.6093165,21.2457422 C31.5243157,21.3070639 31.4844173,21.4220419 31.4896215,21.5906764 C31.491482,21.6434668 31.5117678,21.6932653 31.5468669,21.7312051 C31.5798264,21.7703828 31.7133992,21.9160217 31.9475853,22.1681217 Z M31.5173074,22.1767579 C31.4703078,22.126215 31.4047855,22.0960758 31.3351551,22.0929708 C31.2655247,22.0898658 31.1974901,22.1140493 31.1460185,22.160201 L31.1344913,22.170549 C31.0830187,22.2166998 31.0523252,22.2810386 31.049163,22.3494113 C31.0460009,22.417784 31.0706292,22.4845898 31.1176299,22.5351317 L31.9563282,23.4370195 C32.0033279,23.4875624 32.0688501,23.5177016 32.1384805,23.5208066 C32.208111,23.5239116 32.2761456,23.4997282 32.3276172,23.4535764 L32.3391443,23.4432284 C32.3906169,23.3970777 32.4213105,23.3327389 32.4244726,23.2643661 C32.4276348,23.1959934 32.4030065,23.1291876 32.3560057,23.0786457 L31.5173074,22.1767579 Z M31.0528385,22.928791 C30.9664329,22.8381214 30.8215339,22.8333969 30.7291933,22.9182386 L30.7139973,22.9322148 C30.6216598,23.0170597 30.6168485,23.1593414 30.7032507,23.2500141 L31.5673192,24.1567055 C31.6537248,24.2473751 31.7986237,24.2520996 31.8909643,24.1672579 L31.9061604,24.1532817 C31.9984978,24.0684368 32.0033092,23.9261551 31.9169069,23.8354824 L31.0528385,22.928791 Z M31.2112003,25.001692 L31.5624793,24.7053041 C31.5759067,24.6939738 31.5840511,24.677759 31.5850332,24.6604013 C31.5860152,24.6430437 31.5797501,24.6260428 31.5676835,24.6133217 L31.5364587,24.5775507 C30.9753136,23.9391883 30.4626062,23.4688481 30.388947,23.5248628 L30.1963941,23.6883871 C30.1585567,23.7133107 30.231382,23.86165 30.3986006,24.1002655 C30.5658191,24.338881 30.8134966,24.6478889 31.086301,24.9582559 L31.1201279,24.9940268 C31.1432344,25.0206229 31.1838215,25.0240389 31.2112003,25.001692 Z M30.7272158,25.6736749 L30.9900245,25.4667144 C31.0128053,25.4491004 31.0275238,25.4233189 31.03094,25.3950456 C31.0343561,25.3667722 31.0261899,25.3383246 31.008239,25.3159654 L30.5684897,24.774291 C30.4330929,24.6071823 30.2903909,24.457021 30.1718,24.3568653 C30.053209,24.2567097 29.9684516,24.2147709 29.9361873,24.2402818 L29.7462364,24.3910308 C29.6812572,24.4458906 29.854235,24.7684981 30.1339444,25.114115 L30.5736938,25.6557894 C30.5916318,25.6781587 30.6178875,25.6926113 30.6466809,25.6959658 C30.6754744,25.6993203 30.7044452,25.6913015 30.7272158,25.6736749 L30.7272158,25.6736749 Z M29.7103019,25.094952 C29.6236554,24.9932049 29.4694193,24.9796842 29.3657882,25.0647511 L29.3498115,25.0778586 C29.3000439,25.1187171 29.2688444,25.1773153 29.2630764,25.240762 C29.2573085,25.3042087 29.2774446,25.3673068 29.3190551,25.4161751 L30.0267653,26.2472876 C30.1134118,26.3490347 30.2676479,26.3625554 30.371279,26.2774885 L30.3872557,26.264381 C30.4370232,26.2235225 30.4682228,26.1649243 30.4739908,26.1014776 C30.4797587,26.0380309 30.4596226,25.9749328 30.4180121,25.9260645 L29.7103019,25.094952 Z M29.6941951,27.0636318 L30.0428721,26.7621338 C30.0714843,26.736673 30.0738085,26.6933106 30.0480762,26.6650412 L29.7982778,26.3865388 C29.342724,25.8789558 28.8891261,25.5386208 28.7834716,25.6251286 L28.7054095,25.6941154 C28.6026886,25.7842742 28.8890757,26.2689687 29.3455181,26.7774642 L29.5953165,27.0585217 C29.6212457,27.0866171 29.6654057,27.0888993 29.6941951,27.0636318 Z M28.4998462,27.1223984 C28.8120943,27.4818112 28.9751572,27.6691829 28.9890349,27.6845133 C29.0549747,27.7574409 29.1669806,27.769539 29.2492416,27.712619 C29.3394466,27.6512974 29.3854164,27.5329126 29.3871512,27.3574646 C29.3879271,27.3027934 29.3694845,27.250276 29.3351098,27.2092707 C29.3004156,27.1683896 29.1659754,27.0133821 28.9317894,26.7442483 C28.6230108,26.3848354 28.4608152,26.1966121 28.4452028,26.1795783 C28.379263,26.1066507 28.2672571,26.0945526 28.1849961,26.1514726 C28.0947911,26.2127942 28.0488213,26.331179 28.0470865,26.506627 C28.0463107,26.5612982 28.0647532,26.6138156 28.0991279,26.6548209 C28.1338221,26.695702 28.2673949,26.8515612 28.4998462,27.1223984 Z M27.8974156,26.8800757 C27.8331554,26.8040816 27.7183246,26.7936261 27.6409299,26.8567224 L27.4567295,27.0068837 C27.3793375,27.0699833 27.3686897,27.18274 27.4329466,27.2587368 L28.373698,28.3714177 C28.4379582,28.4474119 28.5527891,28.4578674 28.6301838,28.3947711 L28.8143841,28.2446097 C28.8917761,28.1815102 28.9024239,28.0687535 28.838167,27.9927567 L27.8974156,26.8800757 Z M27.3614418,27.6433001 C27.3214859,27.5948462 27.2635633,27.5639637 27.2004176,27.557447 C27.137272,27.5509302 27.0740763,27.5693131 27.0247343,27.6085511 L26.9842982,27.6406939 C26.9349531,27.6799282 26.9035026,27.7368045 26.8968659,27.7988096 C26.8902293,27.8608147 26.9089503,27.9228689 26.9489101,27.9713197 L27.8168036,29.023701 C27.8567596,29.0721548 27.9146822,29.1030373 27.9778278,29.1095541 C28.0409735,29.1160709 28.1041691,29.097688 28.1535111,29.05845 L28.1939472,29.0263072 C28.2432923,28.9870729 28.2747429,28.9301965 28.2813795,28.8681914 C28.2880162,28.8061863 28.2692952,28.7441322 28.2293353,28.6956814 L27.3614418,27.6433001 Z M26.8184945,28.3289781 C26.7929435,28.2969825 26.7554948,28.2762644 26.714387,28.2713816 C26.6732792,28.2664989 26.6318797,28.2778515 26.5992964,28.3029419 L26.4682563,28.4038416 C26.4356682,28.4289273 26.4145639,28.4656978 26.4095864,28.5060632 C26.404609,28.5464287 26.4161661,28.5870825 26.4417152,28.6190805 L27.3761695,29.7893016 C27.4017205,29.8212972 27.4391692,29.8420153 27.480277,29.846898 C27.5213849,29.8517808 27.5627843,29.8404281 27.5953677,29.8153377 L27.7264078,29.7144381 C27.7589959,29.6893523 27.7801002,29.6525819 27.7850776,29.6122164 C27.7900551,29.5718509 27.778498,29.5311972 27.7529489,29.4991992 L26.8184945,28.3289781 Z M26.8137067,29.5982591 C26.5309487,29.2695071 26.3826309,29.0974658 26.3687532,29.0821354 C26.307771,29.0160266 26.2061122,29.0050571 26.1319651,29.0565848 C26.0486989,29.1110929 26.0061985,29.2184057 26.0044638,29.3785233 C26.0035359,29.4282569 26.0201266,29.4762249 26.051301,29.5139419 C26.0825258,29.5514162 26.2039556,29.6936483 26.4155904,29.9406382 C26.6966137,30.2727971 26.8440641,30.4465417 26.8579418,30.4618721 C26.9189241,30.5279809 27.0205828,30.5389504 27.09473,30.4874228 C27.1779961,30.4329147 27.2204965,30.3256018 27.2222312,30.1654842 C27.2231591,30.1157506 27.2065685,30.0677826 27.175394,30.0300656 C27.1441692,29.9925913 27.0236068,29.8486558 26.8137067,29.5982591 Z M25.7390529,29.9661889 C25.9628307,30.4499484 26.3175792,30.8936786 26.8032984,31.2973793 C26.8352159,31.3241269 26.8808501,31.3281802 26.9171375,31.3074907 C26.9534248,31.2868012 26.9724616,31.2458752 26.9646266,31.2053968 L26.9073811,30.911564 C26.891293,30.833575 26.8513504,30.7622639 26.7928902,30.7071586 L25.8847687,29.8639862 C25.8531676,29.8341033 25.8043606,29.8305909 25.7686603,29.8556305 C25.73296,29.8806702 25.7205143,29.9271442 25.7390529,29.9661889 L25.7390529,29.9661889 Z M25.624562,30.6637225 L25.4606318,30.8272468 C25.4384708,30.8491654 25.4384708,30.8845353 25.4606318,30.9064539 L26.514469,31.9131506 C26.6106815,32.0043448 26.7323787,32.033935 26.787686,31.9795824 L26.8319212,31.9335912 C26.8584486,31.9069013 26.8654012,31.8636311 26.8512476,31.813311 C26.837094,31.7629908 26.8029951,31.7097479 26.7564612,31.6653091 L25.7052261,30.6611674 C25.6821956,30.6400976 25.6461617,30.641239 25.624562,30.6637225 L25.624562,30.6637225 Z M9.16190733,30.9914099 C9.13092199,31.019392 9.15130838,31.0997296 9.21858171,31.2147493 C9.28585503,31.329769 9.39450453,31.4700488 9.52062831,31.6047284 C9.78326282,31.8851841 10.048483,32.0653091 10.1130149,32.0070494 C10.1440003,31.9790673 10.1236139,31.8987297 10.0563406,31.78371 C9.98906723,31.6686903 9.88041773,31.5284105 9.75429395,31.3937309 C9.49165944,31.1132752 9.22643931,30.9331502 9.16190733,30.9914099 L9.16190733,30.9914099 Z M9.95946695,30.9833359 C9.93087471,31.0068052 9.94354778,31.0764 9.99469817,31.1768098 C10.0458486,31.2772197 10.1312862,31.4002195 10.2322156,31.5187504 C10.3331509,31.6372866 10.4413096,31.7416413 10.5328954,31.8088551 C10.6244811,31.876069 10.6919909,31.9006355 10.7205716,31.8771497 C10.7491638,31.8536804 10.7364908,31.7840857 10.6853404,31.6836758 C10.63419,31.5832659 10.5487523,31.4602661 10.4478229,31.3417353 C10.3468876,31.223199 10.2387289,31.1188443 10.1471432,31.0516305 C10.0555574,30.9844167 9.98804767,30.9598501 9.95946695,30.9833359 L9.95946695,30.9833359 Z M10.9853319,31.1875114 L10.8474224,30.9984363 C10.8273656,30.9726928 10.7925965,30.9627378 10.7615921,30.9738618 C10.7305877,30.9849857 10.7105449,31.0146063 10.7121149,31.0469826 C10.7207884,31.1372617 10.7867075,31.213062 10.909872,31.2743837 C10.934507,31.2865733 10.9644359,31.2806493 10.9823378,31.26004 C11.0002397,31.2394307 11.0014763,31.2094758 10.9853319,31.1875114 Z M6.53046279,31.0463439 C6.4895337,31.1008654 6.73484355,31.3466747 7.07838008,31.5953769 C7.42185782,31.8440364 7.73349768,32.0014513 7.77451112,31.9470053 C7.81544022,31.8924838 7.57013036,31.6466744 7.22659383,31.3979723 C6.88311609,31.1493128 6.57147623,30.9918978 6.53046279,31.0463439 L6.53046279,31.0463439 Z M7.32162133,31.1210796 L8.46653089,32.0051331 C8.47227922,32.0093665 8.48043412,32.0082225 8.48474536,32.002578 L8.49255156,31.9949128 C8.53958605,31.9363667 8.5273506,31.8358931 8.45853883,31.7156109 C8.38972706,31.5953287 8.26998018,31.4650988 8.12566009,31.3535908 L8.04759807,31.2922692 C7.74722426,31.0602284 7.42455678,30.9710101 7.32682546,31.0929739 L7.31901926,31.1031941 C7.31470801,31.1088386 7.315873,31.1168462 7.32162133,31.1210796 L7.32162133,31.1210796 Z M8.34423373,31.1108593 L9.20031384,32.0664547 C9.21358198,32.0798607 9.23512514,32.0809741 9.24975312,32.0690098 L9.27837586,32.0460142 C9.32397702,32.0081683 9.326264,31.9253341 9.28472818,31.8159328 C9.24319236,31.7065315 9.16127743,31.5796333 9.05720015,31.4634587 L8.93230092,31.325485 C8.71688727,31.0854146 8.46772406,30.9562235 8.37545854,31.0367624 L8.3468358,31.059758 C8.33948883,31.0661361 8.33507096,31.0751535 8.33458124,31.0847709 C8.33409152,31.0943883 8.33757133,31.1037934 8.34423373,31.1108593 L8.34423373,31.1108593 Z M25.3773656,31.5912121 L26.7018178,32.9964994 C26.7112103,33.0069813 26.7274323,33.0081191 26.7382467,32.9990545 C26.8003195,32.9430589 26.8107888,32.8372555 26.7673467,32.7049694 C26.7239045,32.5726833 26.6301179,32.4247763 26.5066628,32.2938558 L26.0773217,31.8364986 C25.9535504,31.7050272 25.8100399,31.6014146 25.6786305,31.548649 C25.5472211,31.4958835 25.4387796,31.4983283 25.3773656,31.5554411 C25.367448,31.5653764 25.367448,31.5812769 25.3773656,31.5912121 L25.3773656,31.5912121 Z M26.8839625,33.8217864 L25.507469,32.1405517 C25.4958317,32.1266933 25.4750832,32.1244295 25.4606318,32.1354416 L25.4502235,32.1431068 C25.3228507,32.2440902 25.5243175,32.6980653 25.9003811,33.1574687 L25.9550245,33.2264555 C26.1361684,33.4476518 26.3342997,33.6404184 26.5056647,33.7621863 C26.6770297,33.8839541 26.8075311,33.9247061 26.8683501,33.8754428 L26.8787584,33.8677776 C26.8928717,33.8563506 26.8951771,33.8359768 26.8839625,33.8217864 L26.8839625,33.8217864 Z M26.8501356,34.7262804 L25.4372132,33.0910369 C25.4255759,33.0771786 25.4048274,33.0749148 25.3903759,33.0859268 L25.3799677,33.093592 C25.2583141,33.1966986 25.4678409,33.6367584 25.8483398,34.0772931 L25.9237997,34.1692756 C26.1073145,34.3817795 26.3068307,34.5659321 26.4782265,34.681009 C26.6496222,34.7960859 26.7787757,34.8326056 26.8371253,34.7824919 L26.8475336,34.7748267 C26.8547309,34.7689067 26.8590988,34.7603159 26.8595922,34.7511095 C26.8600857,34.7419031 26.8566603,34.7329095 26.8501356,34.7262804 L26.8501356,34.7262804 Z M26.8182603,35.5994237 C26.875262,35.5416593 26.8737825,35.4494576 26.8149557,35.3934853 L25.5517822,34.1914791 C25.4929551,34.135507 25.3990575,34.1369598 25.3420556,34.1947241 L25.3311789,34.2057364 C25.2741772,34.2635009 25.2756568,34.3557025 25.3344835,34.4116749 L26.5976571,35.613681 C26.6564841,35.6696531 26.7503817,35.6682003 26.8073837,35.6104361 L26.8182603,35.5994237 Z M26.8978315,36.5328156 C26.9553281,36.4755418 26.9546641,36.3833467 26.8963484,36.3268771 L25.5920361,35.063856 C25.5640284,35.0367324 25.5261945,35.0216452 25.486858,35.02191 C25.4475215,35.0221818 25.4099048,35.0377837 25.3822835,35.0652868 L25.3713028,35.0762225 C25.3138063,35.1334963 25.3144703,35.2256914 25.372786,35.282161 L26.6770982,36.5451821 C26.7051059,36.5723057 26.7429398,36.5873929 26.7822763,36.5871281 C26.8216128,36.5868562 26.8592295,36.5712543 26.8868508,36.5437513 L26.8978315,36.5328156 Z M26.8683501,37.608397 L27.058301,37.4320973 C27.0711952,37.4183918 27.0711952,37.3972565 27.058301,37.383551 L26.5508979,36.8495418 C26.2798689,36.5661249 26.0118014,36.3023702 25.8071661,36.1177754 C25.6025308,35.9331806 25.4785653,35.8432953 25.4632338,35.8683957 L25.3773656,35.9476028 C25.3522933,35.9623804 25.4365098,36.0899804 25.611138,36.3018011 C25.7857661,36.5136219 26.0361997,36.7919464 26.3063036,37.0743878 L26.8163088,37.6058419 C26.8228042,37.6130562 26.8319874,37.6173942 26.8417818,37.6178751 C26.8515761,37.618356 26.8611542,37.614939 26.8683501,37.608397 Z M26.9516163,37.8766791 C26.9082485,37.9260771 26.8440641,37.9422592 26.7590633,37.9252254 C26.7184206,37.9185958 26.6803727,37.8999155 26.6497765,37.871569 C25.9125241,37.1817006 25.3409367,36.6987928 24.9350142,36.4228455 C24.893939,36.3944368 24.8383332,36.4020724 24.8066432,36.4404729 C24.7749532,36.4788733 24.7775842,36.5354302 24.812717,36.5710394 L26.4338049,38.0836396 C26.5303156,38.1735657 26.6715114,38.1986827 26.7928902,38.1475163 L27.1910064,37.9814369 C27.2127935,37.972065 27.22855,37.9528402 27.2332148,37.9299375 C27.2378796,37.9070348 27.2308653,37.8833381 27.214425,37.8664588 C27.1918738,37.8460183 27.1563122,37.8196159 27.1077403,37.7872517 C27.0747808,37.7668112 27.0227394,37.7966203 26.9516163,37.8766791 Z M25.0937403,37.2021412 C24.8283294,36.9134185 24.5577144,36.5505989 24.1231692,36.5735945 C24.0945162,36.5754 24.0693893,36.5930159 24.0583463,36.6190405 C24.0473032,36.6450651 24.0522577,36.6749886 24.0711279,36.6962377 C24.4735809,37.1305993 24.71991,37.3963263 24.810115,37.4934189 C25.0911382,37.7693662 25.3617532,38.1321859 25.7962984,38.1091903 C25.8244865,38.1065136 25.8487752,38.0885647 25.8591982,38.0627086 C25.8696211,38.0368525 25.8644234,38.0074427 25.8457377,37.986547 C25.4432846,37.5538889 25.1926188,37.2924202 25.0937403,37.2021412 Z M23.3645105,36.6234183 C23.2946902,36.6905546 23.5649434,37.072723 23.9681381,37.4770154 C24.3713186,37.8812895 24.7547539,38.1545947 24.8245824,38.0874722 C24.8944028,38.0203359 24.6241495,37.6381675 24.2209549,37.2338751 C23.8177744,36.829601 23.4343391,36.5562958 23.3645105,36.6234183 L23.3645105,36.6234183 Z M12.3740552,36.6063249 C12.321198,36.6541143 12.6363185,37.0751089 13.0779144,37.5466665 C13.5194777,38.0181896 13.9203239,38.3617512 13.9732857,38.3140812 C14.0261429,38.2662918 13.7110224,37.8452972 13.2694265,37.3737395 C12.8278632,36.9022165 12.427017,36.5586549 12.3740552,36.6063249 L12.3740552,36.6063249 Z M21.2296705,38.2190582 L21.3779883,38.0913048 C21.3890397,38.0823776 21.3958597,38.0693756 21.3968443,38.055357 C21.3978289,38.0413384 21.3928912,38.0275403 21.3831925,38.0172078 L20.4776731,37.007956 C20.2716885,36.7774647 20.0639738,36.623638 20.011903,36.6630219 L19.9650658,36.7039029 C19.9410562,36.7243515 19.9577364,36.7883634 20.0114291,36.8818267 C20.0651217,36.9752899 20.1514181,37.0905301 20.2512932,37.2021412 L21.1568126,38.2139481 C21.1755977,38.2349119 21.2080417,38.2371874 21.2296705,38.2190582 L21.2296705,38.2190582 Z M21.5887558,37.2813483 C21.3545697,37.007956 21.1177816,36.6630219 20.7170633,36.668132 C20.6909093,36.668789 20.6674855,36.6841945 20.6569116,36.7076927 C20.6463376,36.7311909 20.6505092,36.7585695 20.667624,36.7779999 C21.0215051,37.1936243 21.2374767,37.4474277 21.3155387,37.5394101 C21.5627351,37.8051372 21.7995232,38.1475163 22.2002416,38.1424062 C22.2263955,38.1417491 22.2498193,38.1263437 22.2603933,38.1028454 C22.2709672,38.0793472 22.2667956,38.0519687 22.2496808,38.0325382 C21.8957997,37.6186172 21.6754913,37.3682206 21.5887558,37.2813483 Z M21.5657535,36.6323355 C21.4906729,36.7042791 21.7674596,37.1023566 22.1839786,37.5214736 C22.3840031,37.7227444 22.5901585,37.9020473 22.7570926,38.0199373 C22.9240267,38.1378272 23.0380649,38.184647 23.0741198,38.1500969 C23.1492004,38.0781533 22.8724137,37.6800758 22.4558947,37.2609588 C22.2558702,37.059688 22.0497148,36.8803851 21.8827807,36.7624951 C21.7158466,36.6446052 21.6018084,36.5977854 21.5657535,36.6323355 L21.5657535,36.6323355 Z M23.3529573,37.2404672 C23.1187713,36.96963 22.8819832,36.6272509 22.4838669,36.6349161 C22.4561701,36.6335881 22.4304523,36.6489908 22.4189776,36.6737792 C22.4075029,36.6985675 22.412595,36.7277217 22.4318255,36.7473391 C22.7874414,37.15615 23.0042803,37.4065466 23.0823423,37.498529 C23.3295387,37.759146 23.5663268,38.1015251 23.9644431,38.0938599 C23.9921399,38.0951879 24.0178577,38.0797851 24.0293324,38.0549968 C24.0408071,38.0302085 24.035715,38.0010542 24.0164845,37.9814369 C23.6608686,37.572626 23.4396929,37.3256361 23.3529573,37.2404672 Z M17.2927428,37.608397 C17.5295309,37.9047848 17.7663191,38.2752697 18.1878539,38.2829349 C18.2159203,38.2836825 18.2419268,38.2685277 18.2547048,38.2439788 C18.2674828,38.2194299 18.2647584,38.1898557 18.2477015,38.1679568 C17.8886162,37.7199683 17.6683079,37.4457243 17.5867764,37.345225 C17.336978,37.0590574 17.1001899,36.6885725 16.678655,36.6809073 C16.6505886,36.6801597 16.6245821,36.6953145 16.6118041,36.7198634 C16.5990261,36.7444123 16.6017505,36.7739866 16.6188074,36.7958854 C16.9778927,37.2438739 17.2025378,37.5147111 17.2927428,37.608397 Z M18.4844896,37.3758858 C18.2555077,37.0871631 18.0265258,36.7268985 17.6180012,36.7166783 C17.5904329,36.7156347 17.5647942,36.7305316 17.5524562,36.7547621 C17.5401181,36.7789925 17.5433645,36.8080711 17.5607557,36.8291013 C17.9059633,37.2651662 18.1175981,37.5325966 18.1956601,37.6313926 C18.4376524,37.909895 18.6666343,38.2701596 19.0751589,38.2803798 C19.1027272,38.2814234 19.1283658,38.2665265 19.1407039,38.242296 C19.153042,38.2180656 19.1497955,38.188987 19.1324043,38.1679568 C18.7871968,37.7318919 18.5712252,37.4678682 18.4844896,37.3758858 Z M18.419516,36.6587038 C18.3827521,36.6915296 18.4242538,36.8058467 18.5348903,36.9765043 C18.6455268,37.1471619 18.8162346,37.3601793 19.0094567,37.5686912 C19.4117786,38.0028496 19.7999635,38.2993851 19.8765175,38.2310415 C19.9132814,38.1982156 19.8717797,38.0838986 19.7611432,37.913241 C19.6505066,37.7425834 19.4797988,37.5295659 19.2865768,37.321054 C18.8842548,36.8868957 18.49607,36.5903601 18.419516,36.6587038 L18.419516,36.6587038 Z M19.4862855,36.668132 L19.3249573,36.7907752 C19.3016384,36.8086384 19.2970256,36.8414774 19.314549,36.8648722 L20.1836395,37.986547 C20.2471853,38.068461 20.3142818,38.1423556 20.3699948,38.1917836 C20.4257078,38.2412116 20.4654138,38.262071 20.4802751,38.249719 L20.6129806,38.1526264 C20.6303541,38.1430934 20.6210654,38.1002141 20.5872344,38.0337743 C20.5534035,37.9673345 20.497917,37.8830036 20.4334379,37.8000271 L19.5617454,36.6783523 C19.5435537,36.6554545 19.5101107,36.650925 19.4862855,36.668132 Z M13.288916,36.7747294 C13.21669,36.8350951 13.4548704,37.2263908 13.8209086,37.6487159 C13.9966922,37.8515287 14.1790538,38.0345173 14.3278745,38.1574245 C14.4766952,38.2803318 14.5797838,38.3330894 14.6144611,38.3040909 C14.6866871,38.2437252 14.4485067,37.8524294 14.0824684,37.4301043 C13.9066849,37.2272915 13.7243233,37.044303 13.5755026,36.9213957 C13.4266818,36.7984885 13.3235933,36.7457308 13.288916,36.7747294 L13.288916,36.7747294 Z M14.0401848,36.7849497 C13.9628437,36.8545469 14.2228321,37.2567552 14.6208882,37.6833116 C14.8120445,37.888153 15.0101253,38.0713271 15.1715548,38.1925376 C15.3329843,38.313748 15.444539,38.3630658 15.481678,38.3296415 C15.5590192,38.2600443 15.2990307,37.857836 14.9009747,37.4312797 C14.7098184,37.2264383 14.5117376,37.0432641 14.3503081,36.9220537 C14.1888786,36.8008432 14.0773239,36.7515254 14.0401848,36.7849497 L14.0401848,36.7849497 Z M15.4478772,37.6313926 C15.7002777,37.9226703 15.9526782,38.28549 16.3794172,38.2778248 C16.4075228,38.2773864 16.4328647,38.2611113 16.4445382,38.2360027 C16.4562117,38.210894 16.4521343,38.181431 16.4340606,38.1602916 C16.0541588,37.7225233 15.8217075,37.4542412 15.7367066,37.3554452 C15.4712958,37.0769428 15.2188953,36.7115681 14.7947583,36.7217884 C14.7666528,36.7222267 14.7413109,36.7385018 14.7296374,36.7636105 C14.7179639,36.7887191 14.7220412,36.8181822 14.7401149,36.8393215 C15.118282,37.2770898 15.3542028,37.5411135 15.4478772,37.6313926 Z M16.447071,37.6927142 C16.6890632,37.9788818 16.9336576,38.3365913 17.3473862,38.3314812 C17.3755053,38.3323903 17.4014651,38.3167396 17.4133627,38.2917052 C17.4252604,38.2666709 17.4208011,38.2370811 17.4020296,38.2165031 C17.0360055,37.7855483 16.8122277,37.5215247 16.7306963,37.4244321 C16.4756937,37.1510398 16.2337015,36.7933303 15.8173707,36.7958718 C15.789724,36.7960104 15.7647222,36.8120454 15.7534937,36.8368533 C15.7422652,36.8616611 15.7468977,36.890629 15.7653294,36.9108634 C16.1296188,37.3418182 16.356866,37.6024351 16.447071,37.6927142 Z"></path>
                    <path d="M18.6328074,8.51128388 C18.8357687,9.78541107 18.914698,11.0416528 18.8695955,12.280009 C18.8666337,12.3690959 18.9242912,12.4487778 19.0101072,12.4741942 C19.4854181,12.617278 19.8462381,12.7986878 20.0925671,13.0184236 C20.1682016,13.0857626 20.2805537,13.0931881 20.3631821,13.0363091 L21.98427,11.9069691 C22.0278538,11.8751844 22.0515089,11.8238895 22.0467196,11.7715505 C21.7865129,9.07339882 25.7702778,9.35190122 25.468438,11.8609779 C25.3253243,13.0363091 24.1882209,13.560098 23.0927506,13.1640625 C22.9765249,13.121478 22.8195336,13.0652665 22.6217764,12.995428 C22.5558704,12.9712297 22.4829148,12.9778279 22.4240193,13.0133135 L20.6832364,14.0736667 C20.6492459,14.0947763 20.6333811,14.1352796 20.6442054,14.1733143 C20.8697179,14.8955468 20.8168092,15.5223902 20.4854793,16.0538443 C20.4303113,16.1411138 20.4432197,16.2541347 20.5167041,16.3272365 L22.9314224,18.6957845 C22.9604791,18.7257501 23.0044417,18.7375234 23.0459134,18.7264453 C24.8413398,18.2282071 26.2256395,20.0934066 25.0208824,21.5267997 C24.3625594,22.3086505 23.0615258,22.3904126 22.3459573,21.6264473 C21.9348307,21.188679 21.8064621,20.6188989 21.9608514,19.9171069 C21.9755509,19.8486318 21.9540147,19.7775002 21.9036059,19.7280319 L19.4030193,17.2700566 C19.3465487,17.2156269 19.259513,17.206131 19.1922519,17.247061 C18.3769375,17.7291171 17.4904999,17.6669438 16.5329392,17.060541 C16.4935104,17.0358098 16.4423675,17.0368142 16.4028358,17.0630961 L13.5223475,19.0688244 C13.4916713,19.0908781 13.475717,19.128085 13.4807144,19.165917 C13.6758694,20.6964026 12.499735,21.6443328 11.0295671,21.199751 C8.84903477,20.5379884 9.71552315,16.5009812 12.7443294,17.9982509 C12.8021419,18.0275414 12.873274,18.0184309 12.923872,17.9752553 L15.3698152,15.8443287 C15.4131503,15.8084299 15.4322417,15.7512036 15.4192544,15.6961348 C15.0723121,14.1613907 15.6517058,13.0550463 17.1574353,12.3771016 C17.1924133,12.359828 17.2145409,12.325261 17.2146808,12.2876742 L17.3551924,8.24811189 C17.3567531,8.19757282 17.3310338,8.14997728 17.2875387,8.12291356 C15.9656886,7.33850772 15.6092053,6.23471839 16.5589599,4.93418884 C17.2042725,4.05524549 18.7811253,4.19832929 19.4758772,4.88564255 C20.5375206,5.93322038 20.1472105,7.42282496 18.8175542,8.14079904 C18.6829519,8.21484081 18.609285,8.36256975 18.6328074,8.51128388 L18.6328074,8.51128388 Z M17.9319406,5.00000739 C17.6060268,5.01789962 17.3009601,5.16675856 17.0838519,5.41383688 C16.8667437,5.6609152 16.7553783,5.98597351 16.7742549,6.31750259 C16.7931264,6.64903247 16.9406943,6.95987793 17.1844952,7.18165625 C17.4282962,7.40343456 17.7483592,7.51797872 18.0742737,7.50009021 C18.4001875,7.48219798 18.7052542,7.33333905 18.9223624,7.08626073 C19.1394706,6.83918241 19.250836,6.5141241 19.2319594,6.18259501 C19.2130879,5.85106513 19.06552,5.54021967 18.8217191,5.31844136 C18.5779182,5.09666304 18.2578552,4.98211888 17.9319406,5.00000739 L17.9319406,5.00000739 Z M24.7684819,11.5748103 C24.7684819,11.0033046 24.2966629,10.5400078 23.7146447,10.5400078 C23.1326264,10.5400078 22.6608075,11.0033046 22.6608075,11.5748103 C22.6608075,12.1463159 23.1326264,12.6096128 23.7146447,12.6096128 C24.2966629,12.6096128 24.7684819,12.1463159 24.7684819,11.5748103 Z M18.0759651,16.682391 C18.7351554,16.668764 19.2573036,16.356194 19.6424095,15.7446811 C20.3033346,14.6996583 19.5097041,13.1104061 18.1852519,12.9903179 C18.152981,12.9885061 18.1261333,12.9653069 18.1202002,12.9341064 C18.0646894,12.6751928 18.0230564,12.5457361 17.995301,12.5457361 C17.9675456,12.5474395 17.9311166,12.6785996 17.8860141,12.9392165 C17.8814008,12.9705579 17.8556497,12.9947902 17.8235645,12.9979831 C16.5043165,13.1666176 15.7731356,14.7839755 16.4730917,15.8060027 C16.8824836,16.4021852 17.4167747,16.6943146 18.0759651,16.682391 Z M12.8354017,19.4725251 C12.8354017,18.8572746 12.3274682,18.3585155 11.7009004,18.3585155 C11.0743327,18.3585155 10.5663991,18.8572746 10.5663991,19.4725251 C10.5663991,20.0877756 11.0743327,20.5865347 11.7009004,20.5865347 C12.3274682,20.5865347 12.8354017,20.0877756 12.8354017,19.4725251 Z M22.9706876,19.4912027 C22.5021266,19.8206066 22.4064349,20.477366 22.7569538,20.9581182 C23.1074696,21.4388703 23.7714624,21.5615692 24.2400281,21.2321748 C24.7085891,20.9027709 24.8042808,20.2460114 24.4537619,19.7652592 C24.1032461,19.2845072 23.4392533,19.1618083 22.9706876,19.4912027 L22.9706876,19.4912027 Z"></path>
                </g>
            </g>
        </g>
    </g>
</svg>