<svg width="34px" height="38px" viewBox="0 0 34 38" version="1.1" xmlns="http://www.w3.org/2000/svg" xmlns:xlink="http://www.w3.org/1999/xlink">
    <title>Time to Settle In</title>
    <g stroke="none" stroke-width="1" fill="none" fill-rule="evenodd">
        <g transform="translate(-223, -3551)" fill="currentColor">
            <g transform="translate(22, 3348)">
                <g transform="translate(201, 203)">
                    <path d="M25.4067466,38 L11.6637482,38 C11.3698583,38 11.0884744,37.8838889 10.8810841,37.6748889 C10.6726515,37.4658889 10.5569715,37.1819444 10.5580137,36.8863889 L10.5580137,31.8545555 L5.65880721,31.8545555 C5.36491736,31.8545555 5.08353345,31.7384444 4.87614306,31.5294445 C4.66771052,31.3204445 4.55203046,31.0365 4.55307266,30.7409445 L4.55307266,23.7848333 L0.598065527,21.7296667 C0.336117086,21.5952674 0.138706992,21.3596055 0.0504516202,21.0759427 C-0.0378037511,20.7922798 -0.0094544459,20.484561 0.129092349,20.2223333 L2.43748253,15.8069445 C2.4968858,14.8368889 2.81057673,11.4928889 4.48845856,8.11194446 C6.32266478,4.41222221 10.1609497,0 18.0417834,0 C22.1166392,0 25.530764,0.937333333 28.1997424,2.77822221 C30.5967165,4.43438887 32.3423388,6.83155554 33.2542311,9.72166667 C35.4719532,16.7305555 32.5872471,25.5602778 26.6740164,30.1055 L26.5072704,36.9138333 C26.4925625,37.51812 26.0045894,38 25.4077888,38 L25.4067466,38 Z M12.7694827,35.7727778 L24.3281083,35.7727778 L24.4802641,29.5027778 C24.4896435,29.1502223 24.6605582,28.8261667 24.9461108,28.6213889 C30.3340915,24.7770555 33.1166657,16.5996667 31.1532313,10.3940555 C29.4805603,5.13 24.826262,2.22616667 18.0428256,2.22616667 C12.6225378,2.22616667 8.72797614,4.541 6.46439888,9.10416667 C4.73649325,12.5927778 4.63540349,16.0940555 4.63540349,16.131 C4.63123486,16.3030555 4.58954832,16.4698333 4.50617534,16.6228889 L2.60318639,20.2687778 L6.16529825,22.1149445 C6.53422381,22.3049445 6.76454177,22.6849445 6.76454172,23.1018889 L6.76454172,29.6283889 L11.6637482,29.6283889 C11.957638,29.6283889 12.2390219,29.7445 12.4464123,29.9535 C12.6548449,30.1625 12.7705249,30.4464445 12.7694827,30.7409445 L12.7694827,35.7738333 L12.7694827,35.7727778 Z" fill-rule="nonzero"></path>
                    <path d="M23.980026,18.8068333 C23.858093,18.8068333 23.7403286,18.8216111 23.6288172,18.8448333 L20.9796398,16.3368333 C21.1441151,15.9288981 21.2084836,15.4866536 21.1672291,15.048 L23.2380062,13.8288333 C23.4631133,13.9312222 23.7142745,13.9913889 23.9748152,13.9913889 C24.9752913,13.9913889 25.7881782,13.1490555 25.7881782,12.1114445 C25.7881782,11.0738333 24.9752913,10.2315 23.9748152,10.2315 C23.0452062,10.2315 22.2771323,10.9577222 22.1739582,11.8887222 L20.1083919,13.1026111 C20.0219973,13.0368042 19.9318694,12.9761817 19.8384718,12.9210555 L19.8384718,8.14255554 C20.3049695,7.78352175 20.5778278,7.22336502 20.5752808,6.62994446 C20.5752808,5.59233333 19.7623939,4.75 18.7608756,4.75 C17.7603995,4.75 16.9475127,5.59233333 16.9475127,6.62994446 C16.9475127,7.2485 17.2393182,7.80161113 17.6832795,8.14255554 L17.6832795,12.749 C16.6409346,13.149488 15.9548878,14.1648306 15.9637112,15.2939445 C15.9637112,15.4945 15.9855966,15.6845 16.0210301,15.8713333 L12.9403974,18.1228333 C12.7553688,18.0594755 12.5614801,18.026686 12.3661658,18.0257222 C11.3646475,18.0257222 10.5517607,18.8680555 10.5517607,19.9046111 C10.5517607,20.9432778 11.3646475,21.7856111 12.3651237,21.7856111 C13.3583046,21.7856111 14.1628542,20.9622778 14.1805709,19.9426111 L17.3101852,17.6531111 C17.9465221,18.0184344 18.7070652,18.0895464 19.3986791,17.8483889 L22.1739582,20.482 C22.1697896,20.5474445 22.1645787,20.6128889 22.1645787,20.6825555 C22.1645787,21.7201667 22.9774656,22.5625 23.9789838,22.5625 C24.9805021,22.5625 25.793389,21.7201667 25.793389,20.6825555 C25.793389,19.6449444 24.9846708,18.8068333 23.980026,18.8068333 L23.980026,18.8068333 Z"></path>
                </g>
            </g>
        </g>
    </g>
</svg>