<svg width="31px" height="31px" viewBox="0 0 31 31" version="1.1" xmlns="http://www.w3.org/2000/svg" xmlns:xlink="http://www.w3.org/1999/xlink">
    <title>Freedom, Always</title>
    <g stroke="none" stroke-width="1" fill="none" fill-rule="evenodd">
        <g transform="translate(-22, -3555)" fill="currentColor">
            <g transform="translate(22, 3348)">
                <path d="M1.10308333,207.188583 C1.35513255,206.937321 1.76295079,206.937321 2.015,207.188583 L7.75,212.923583 L7.75,207.645833 C7.75,207.289149 8.03914943,207 8.39583333,207 L9.6875,207 C10.0441839,207 10.3333333,207.289149 10.3333333,207.645833 L10.3333333,214.75 C10.3333333,216.176736 9.1767356,217.333333 7.75,217.333333 L0.645833333,217.333333 C0.289149432,217.333333 0,217.044184 0,216.6875 L0,215.395833 C0,215.039149 0.289149432,214.75 0.645833333,214.75 L5.92358333,214.75 L0.188583333,209.015 C-0.0626786996,208.762951 -0.0626786996,208.355133 0.188583333,208.103083 L1.10308333,207.188583 Z M7.75,227.666667 C9.05968498,227.666839 10.1620169,228.64706 10.31525,229.94775 L10.3333333,230.25 L10.3333333,237.354167 C10.3328356,237.653723 10.126417,237.913618 9.83475,237.981917 L9.6875,238 L8.39583333,238 C8.09627681,237.999502 7.8363819,237.793084 7.76808333,237.501417 L7.75,237.354167 L7.75,232.076417 L2.015,237.811417 C1.76295079,238.062679 1.35513255,238.062679 1.10308333,237.811417 L0.188583333,236.896917 C-0.0626786996,236.644867 -0.0626786996,236.237049 0.188583333,235.985 L5.92358333,230.25 L0.645833333,230.25 C0.346276813,230.249502 0.0863819007,230.043084 0.0180833333,229.751417 L0,229.604167 L0,228.3125 C0.00049770043,228.012943 0.206916294,227.753049 0.498583333,227.68475 L0.645833333,227.666667 L7.75,227.666667 Z M23.25,227.666667 L30.3541667,227.666667 C30.7108506,227.666667 31,227.955816 31,228.3125 L31,229.604167 C31,229.960851 30.7108506,230.25 30.3541667,230.25 L25.0764167,230.25 L30.8114167,235.985 C31.0626787,236.237049 31.0626787,236.644867 30.8114167,236.896917 L29.8969167,237.811417 C29.6448675,238.062679 29.2370492,238.062679 28.985,237.811417 L23.25,232.076417 L23.25,237.354167 C23.25,237.710851 22.9608506,238 22.6041667,238 L21.3125,238 C20.9558161,238 20.6666667,237.710851 20.6666667,237.354167 L20.6666667,230.25 C20.6666667,228.823264 21.8232644,227.666667 23.25,227.666667 Z M22.6041667,207 C22.9037232,207.000498 23.1636181,207.206916 23.2319167,207.498583 L23.25,207.645833 L23.25,212.923583 L28.985,207.188583 C29.2370492,206.937321 29.6448675,206.937321 29.8969167,207.188583 L30.8114167,208.103083 C31.0626787,208.355133 31.0626787,208.762951 30.8114167,209.015 L25.0764167,214.75 L30.3541667,214.75 C30.6537232,214.750498 30.9136181,214.956916 30.9819167,215.248583 L31,215.395833 L31,216.6875 C30.9995023,216.987057 30.7930837,217.246951 30.5014167,217.31525 L30.3541667,217.333333 L23.25,217.333333 C21.940315,217.333161 20.8379831,216.35294 20.68475,215.05225 L20.6666667,214.75 L20.6666667,207.645833 C20.6671644,207.346277 20.873583,207.086382 21.16525,207.018083 L21.3125,207 L22.6041667,207 Z" fill-rule="nonzero"></path>
            </g>
        </g>
    </g>
</svg>