<svg width="20px" height="14px" viewBox="0 0 20 14" version="1.1" xmlns="http://www.w3.org/2000/svg" xmlns:xlink="http://www.w3.org/1999/xlink">
    <title>YouTube</title>
    <g stroke="none" stroke-width="1" fill="none" fill-rule="evenodd">
        <g transform="translate(-1315, -5133)" fill="currentColor">
            <g transform="translate(0, 4602)">
                <g transform="translate(853, 359)" fill-rule="nonzero">
                    <path d="M469.06,172.030009 L471.118,172 L473.258,172.004001 L474.918,172.030009 L477.43,172.102029 L479.46,172.186053 C480.762,172.342098 481.142,173.022292 481.53,174.24064 L481.622,174.550729 L481.736,175.370963 L481.856,176.431266 L481.91,177.065447 L481.956,177.745642 L481.988,178.455845 L482,179.17605 L481.996,179.556159 L481.968,180.29637 L481.92,181.002572 L481.826,181.952844 L481.698,182.913118 L481.618,183.401258 C481.238,184.801658 480.778,185.493855 479.46,185.745927 L477.776,185.849957 L475.796,185.937982 L474.23,185.981995 L472.56,186 L470.836,185.983995 L468.772,185.933981 L465.566,185.799943 L464.604,185.745927 C463.386,185.589883 462.774,184.84567 462.456,183.697342 L462.376,183.381252 L462.252,182.505001 L462.158,181.690769 L462.072,180.710489 L462.028,179.996285 C462.016255,179.749683 462.008254,179.502918 462.004,179.256073 L462,178.881966 C462,178.637897 462.004,178.395827 462.014,178.155759 L462.048,177.449557 L462.072,177.10946 L462.158,176.167191 L462.252,175.386968 L462.38,174.530723 L462.458,174.266648 L462.616,173.782509 C462.922,172.948271 463.336,172.416119 464.32,172.228065 L464.62,172.186053 L466.9,172.092026 L469.06,172.030009 L469.06,172.030009 Z M469.78,175.256931 L469.78,182.725064 L475.114,178.989997 L469.78,175.256931 L469.78,175.256931 Z"></path>
                </g>
            </g>
        </g>
    </g>
</svg>