<svg width="34px" height="16px" viewBox="0 0 34 16" version="1.1" xmlns="http://www.w3.org/2000/svg" xmlns:xlink="http://www.w3.org/1999/xlink">
    <title>RED</title>
    <g stroke="none" stroke-width="1" fill="none" fill-rule="evenodd">
        <g transform="translate(-1383, -5132)" fill="currentColor">
            <g transform="translate(0, 4602)">
                <g transform="translate(853, 359)">
                    <path d="M533.20573,175.856138 L533.206243,175.856138 C533.206243,176.334295 533.204649,176.812424 533.206837,177.290581 C533.208188,177.595291 533.217994,177.60761 533.530078,177.610128 C533.881035,177.612971 534.232316,177.612457 534.583029,177.600625 C534.936471,177.588684 535.277946,177.505724 535.591354,177.341835 C536.178461,177.034797 536.596465,176.311118 536.356938,175.445129 C536.176192,174.791603 535.491702,174.240017 534.768772,174.165965 C534.347608,174.122806 533.926633,174.096272 533.503362,174.105911 C533.226341,174.112193 533.208242,174.124295 533.206567,174.394646 C533.203596,174.881792 533.20573,175.368965 533.20573,175.856138 M533.207134,180.920619 C533.207134,181.199905 533.207134,181.41605 533.207134,181.632168 C533.206999,183.255978 533.206891,184.879789 533.206729,186.503599 C533.206729,186.575783 533.208728,186.648048 533.205703,186.720097 C533.195951,186.951188 533.162454,186.992478 532.937272,186.993344 C532.055126,186.996729 531.17298,186.996837 530.290834,186.993399 C530.049821,186.992451 530.010544,186.946206 530.001062,186.708183 C529.999252,186.663129 530.00036,186.617967 530.00036,186.572859 C530.000252,181.539055 530.000171,176.505223 530.000117,171.471392 C530.000117,171.444316 529.999793,171.417241 530.000225,171.390192 C530.005357,171.082585 530.034451,171.050256 530.344077,171.050256 C531.541279,171.050798 532.738535,171.04939 533.935656,171.058704 C534.321892,171.06171 534.713179,171.061981 535.09277,171.122522 C535.744492,171.226493 536.411883,171.284083 537.019763,171.57631 C537.630749,171.870028 538.13606,172.289457 538.526699,172.850303 C538.945405,173.451437 539.224047,174.110893 539.336071,174.831052 C539.403496,175.264426 539.502797,175.698016 539.465654,176.144142 C539.382615,177.14115 539.212945,178.111435 538.586939,178.934346 C538.218423,179.41873 537.772218,179.820209 537.242028,180.122698 C537.094211,180.207039 536.947772,180.291353 536.784828,180.351028 C536.555783,180.434881 536.54179,180.499836 536.657379,180.717307 C537.104909,181.559307 537.557003,182.39887 538.000669,183.242928 C538.356515,183.919929 538.689697,184.609194 539.057699,185.279399 C539.295956,185.713341 539.523003,186.153159 539.762692,186.586153 C539.972477,186.965077 539.954973,186.995077 539.52638,186.995131 C538.59923,186.995267 537.671972,186.988958 536.744957,186.999924 C536.510049,187.002604 536.377603,186.935294 536.263094,186.713571 C535.556399,185.345301 534.829471,183.987509 534.11135,182.625142 C533.834329,182.099522 533.562872,181.570896 533.288417,181.043922 C533.27618,181.020393 533.25927,180.999328 533.207134,180.920619 M555.735301,178.995304 C555.735301,180.492753 555.73522,181.990174 555.735463,183.487622 C555.73549,183.568768 555.736381,183.649995 555.739947,183.731059 C555.74408,183.82596 555.794676,183.885553 555.889817,183.889588 C556.258818,183.905156 556.636059,183.928414 556.993175,183.853441 C557.349534,183.778631 557.711782,183.718821 558.061091,183.592188 C558.734208,183.348182 559.323638,182.99942 559.792913,182.44732 C560.135306,182.044515 560.404143,181.60226 560.603393,181.115304 C560.857723,180.493646 561.018506,179.851384 561.01634,179.174627 C561.015345,178.868401 560.999272,178.564828 560.964155,178.258764 C560.892462,177.63402 560.732219,177.041089 560.458493,176.476507 C560.191278,175.925435 559.822925,175.458271 559.347032,175.071306 C558.720593,174.561958 557.974216,174.33639 557.208498,174.179893 C556.806648,174.097772 556.38724,174.084505 555.972451,174.100453 C555.768824,174.108277 555.745323,174.1327 555.736354,174.340668 C555.732843,174.421733 555.734977,174.503014 555.734977,174.584214 C555.734923,176.054586 555.73495,177.524932 555.735301,178.995304 M552.681779,179.035403 C552.681779,176.537752 552.681779,174.040101 552.681962,171.542423 C552.681989,171.107343 552.682664,171.098219 553.109366,171.108372 C553.550952,171.118905 553.989621,171.072172 554.430208,171.063237 C555.213377,171.047344 555.998599,171.065917 556.77461,171.134906 C557.321602,171.183534 557.874753,171.242261 558.422691,171.345149 C559.210749,171.493145 559.905639,171.829127 560.569761,172.234775 C561.279562,172.668311 561.873692,173.242532 562.384244,173.907755 C562.934207,174.624367 563.309638,175.425835 563.592359,176.273548 C563.699683,176.595261 563.768242,176.932353 563.849417,177.263489 C564.008472,177.912331 563.994046,178.56583 563.999773,179.222036 C564.006175,179.955923 563.876323,180.666849 563.694766,181.375853 C563.534929,181.999948 563.304262,182.591633 563.00039,183.154293 C562.567853,183.955219 561.984393,184.627996 561.268136,185.193959 C560.790189,185.571665 560.268941,185.85975 559.712818,186.094957 C559.555574,186.161455 559.388335,186.203124 559.227093,186.249396 C558.909227,186.340587 558.591038,186.434892 558.269039,186.514847 C557.877563,186.612048 557.471742,186.623555 557.086154,186.746642 C556.977426,186.781326 556.855056,186.774719 556.738682,186.783329 C556.149631,186.826786 555.56717,186.923527 554.974337,186.951388 C554.335661,186.981361 553.698067,186.972778 553.060202,186.988238 C552.997315,186.989781 552.934266,186.987317 552.871352,186.984745 C552.753142,186.979872 552.689255,186.918653 552.686041,186.798762 C552.683583,186.708681 552.681935,186.618519 552.681935,186.528384 C552.681779,184.030733 552.681779,181.533082 552.681779,179.035403 M541.249011,178.957442 C541.249011,176.467615 541.249011,173.977816 541.249163,171.48799 C541.24919,171.030979 541.264534,171.012838 541.715493,171.011484 C542.597612,171.008858 543.480569,170.985167 544.361742,171.014652 C546.359564,171.081529 548.357467,171.028515 550.355207,171.048226 C550.756139,171.052179 550.758651,171.051421 550.759083,171.457692 C550.759866,172.215486 550.759245,172.973227 550.759083,173.731021 C550.759056,173.785118 550.760974,173.839459 550.756976,173.89334 C550.741362,174.103826 550.70041,174.145956 550.497243,174.157951 C550.425469,174.162174 550.353262,174.15944 550.281272,174.15944 C548.480998,174.159656 546.680698,174.159792 544.880424,174.159954 C544.817402,174.159981 544.75438,174.15925 544.691385,174.160171 C544.402316,174.164395 544.388404,174.175523 544.387567,174.468725 C544.385676,175.14532 544.385541,175.821887 544.387972,176.498455 C544.388945,176.774491 544.404504,176.790628 544.679391,176.79098 C546.092646,176.792686 547.505846,176.791711 548.9191,176.792226 C549.331161,176.792361 549.347531,176.808309 549.348044,177.215879 C549.348935,177.892474 549.349881,178.569041 549.347747,179.245635 C549.346018,179.783467 549.433514,179.83621 548.749159,179.83288 C547.443958,179.826544 546.138757,179.830227 544.833529,179.830064 C544.387783,179.829983 544.387081,179.830335 544.386919,180.274295 C544.386567,181.347792 544.386756,182.421316 544.38727,183.494786 C544.387297,183.575878 544.38835,183.65724 544.394482,183.738007 C544.400857,183.822185 544.451156,183.86862 544.535059,183.872329 C544.624906,183.876337 544.714968,183.877311 544.804922,183.877338 C546.641204,183.877663 548.477514,183.877528 550.313796,183.877826 C550.756976,183.87788 550.758921,183.879748 550.759272,184.335784 C550.759758,185.048443 550.75952,185.761103 550.758651,186.473762 C550.75857,186.554827 550.758462,186.636514 550.748953,186.716793 C550.73288,186.851711 550.657756,186.928173 550.516207,186.928363 C550.453212,186.928417 550.390217,186.930908 550.327222,186.930935 C547.45579,186.932424 544.584332,186.933886 541.712873,186.934943 C541.2661,186.935105 541.249244,186.917587 541.24919,186.453942 C541.248893,183.9551 541.249011,181.456257 541.249011,178.957442"></path>
                </g>
            </g>
        </g>
    </g>
</svg>