<svg width="18px" height="18px" viewBox="0 0 18 18" version="1.1" xmlns="http://www.w3.org/2000/svg" xmlns:xlink="http://www.w3.org/1999/xlink">
    <title>Pinterest</title>
    <g stroke="none" stroke-width="1" fill="none" fill-rule="evenodd">
        <g transform="translate(-1350, -5131)" fill="currentColor">
            <g transform="translate(0, 4602)">
                <g transform="translate(853, 359)" fill-rule="nonzero">
                    <path d="M506,170 C510.970563,170 515,174.029437 515,179 C515,183.970563 510.970563,188 506,188 C501.029437,188 497,183.970563 497,179 C497,174.029437 501.029437,170 506,170 Z M506.345925,172.454545 C502.308961,172.454545 500.272727,175.176506 500.272727,177.444823 C500.272727,178.818482 500.826382,180.040894 502.012571,180.498154 C502.207862,180.572392 502.382189,180.500878 502.438125,180.298027 C502.477733,180.156735 502.570041,179.803624 502.612452,179.655994 C502.668387,179.455866 502.646941,179.38623 502.490389,179.210519 C502.147338,178.832005 501.928764,178.339434 501.928764,177.644011 C501.928764,175.624704 503.536449,173.818202 506.112909,173.818202 C508.394815,173.818202 509.649595,175.12847 509.649595,176.878859 C509.649595,179.183379 508.564553,181.127462 506.95566,181.127462 C506.066345,181.127462 505.399853,180.436548 505.613258,179.588987 C505.869605,178.57661 506.364571,177.484642 506.364571,176.753861 C506.364571,176.100042 505.990798,175.554927 505.218039,175.554927 C504.30916,175.554927 503.578377,176.437846 503.578377,177.622224 C503.578377,178.376482 503.850567,178.887226 503.850567,178.887226 C503.850567,178.887226 503.451245,180.476971 503.129962,181.755929 L502.985491,182.331025 C502.880587,182.748606 502.796507,183.08327 502.757121,183.239978 C502.432425,184.532308 502.707658,186.116002 502.73094,186.275419 C502.744031,186.370458 502.874498,186.393185 502.933235,186.321577 C503.017139,186.219259 504.099378,184.962428 504.467548,183.707334 C504.571931,183.351452 505.06511,181.511471 505.06511,181.511471 C505.360583,182.041184 506.223814,182.506615 507.141967,182.506615 C509.874109,182.506615 511.727273,180.165798 511.727273,177.030997 C511.727273,174.661255 509.591727,172.454545 506.345925,172.454545 Z"></path>
                </g>
            </g>
        </g>
    </g>
</svg>