<svg width="46px" height="33px" viewBox="0 0 46 33" version="1.1" xmlns="http://www.w3.org/2000/svg" xmlns:xlink="http://www.w3.org/1999/xlink">
    <title>Built From the Best</title>
    <g stroke="none" stroke-width="1" fill="none" fill-rule="evenodd">
        <g transform="translate(-221, -3350)" fill="currentColor">
            <g transform="translate(22, 3348)">
                <g transform="translate(199, 2)">
                    <path d="M34.9555073,33 L10.994574,33 C8.92919147,33 7.25067825,31.3376405 7.25067825,29.2921348 L7.25067825,3.70786517 C7.25067825,1.66235954 8.92919153,0 10.994574,0 L34.9617471,0 C37.0271297,0 38.7056429,1.66235954 38.7056429,3.70786517 L38.7056429,29.2921348 C38.6994031,31.3376405 37.0208898,33 34.9555073,33 Z M10.994574,2.47191011 C10.3081931,2.47191011 9.74660874,3.02808987 9.74660874,3.70786517 L9.74660874,29.2921348 C9.74660874,29.9719101 10.3081931,30.5280899 10.994574,30.5280899 L34.9617471,30.5280899 C35.648128,30.5280899 36.2097124,29.9719101 36.2097124,29.2921348 L36.2097124,3.70786517 C36.2097124,3.02808987 35.648128,2.47191011 34.9617471,2.47191011 L10.994574,2.47191011 Z" fill-rule="nonzero"></path>
                    <polygon points="19.9112859 16.6050562 9.13510581 16.6050562 9.13510581 14.1331461 18.8817145 14.1331461 23.7113402 9.35 25.4772111 11.0988764"></polygon>
                    <path d="M21.6896364,9.99269664 C21.6896364,11.7415731 23.1247965,13.1629214 24.8906674,13.1629214 C26.6565383,13.1629214 28.0916983,11.7415731 28.0916983,9.99269664 C28.0916983,8.86179777 27.4801953,7.81741573 26.4943027,7.24887641 C25.5021703,6.68033708 24.2854042,6.68033708 23.2932718,7.24887641 C22.3011394,7.81741573 21.6896364,8.86179777 21.6896364,9.99269664 Z"></path>
                    <path d="M24.8906674,13.1876404 C23.1123169,13.1876404 21.6646771,11.7539326 21.6646771,9.99269664 C21.6646771,8.2314607 23.1123169,6.79775284 24.8906674,6.79775284 C26.6690179,6.79775284 28.1166576,8.2314607 28.1166576,9.99269664 C28.1166576,11.7539326 26.6690179,13.1876404 24.8906674,13.1876404 Z M24.8906674,6.84719101 C23.143516,6.84719101 21.7145957,8.25617979 21.7145957,9.99269664 C21.7145957,11.7230337 23.1372762,13.1382023 24.8906674,13.1382023 C26.6440586,13.1382023 28.066739,11.7292135 28.066739,9.99269664 C28.066739,8.25617979 26.6378187,6.84719101 24.8906674,6.84719101 Z M21.8081932,23.6438202 L20.0423223,21.8949438 L25.6020076,16.388764 L36.3844275,16.388764 L36.3844275,18.8606741 L26.6378187,18.8606741 L21.8081932,23.6438202 Z" fill-rule="nonzero"></path>
                    <path d="M17.4215952,23.0073034 C17.4215952,24.7561798 18.8505155,26.1775281 20.6226261,26.1775281 C22.388497,26.1775281 23.8236571,24.7623595 23.8236571,23.0073034 C23.8236571,21.8764045 23.2121541,20.8320225 22.2262615,20.2634831 C21.2341291,19.6949438 20.017363,19.6949438 19.0252306,20.2634831 C18.0330982,20.8320225 17.4215952,21.8764045 17.4215952,23.0073034 Z"></path>
                    <path d="M20.6226261,26.2022472 C18.8442756,26.2022472 17.3966359,24.7685393 17.3966359,23.0073034 C17.3966359,21.2460674 18.8442756,19.8123596 20.6226261,19.8123596 C22.4009767,19.8123596 23.8486164,21.2460674 23.8486164,23.0073034 C23.8486164,24.7685393 22.4009767,26.2022472 20.6226261,26.2022472 Z M20.6226261,19.8679775 C18.8754748,19.8679775 17.4465545,21.2769663 17.4465545,23.0134831 C17.4465545,24.7438202 18.8692349,26.1589888 20.6226261,26.1589888 C22.3697775,26.1589888 23.7986977,24.75 23.7986977,23.0134831 C23.7986977,21.2769663 22.3697775,19.8679775 20.6226261,19.8679775 L20.6226261,19.8679775 Z" fill-rule="nonzero"></path>
                    <path d="M5.28513292,10.0050562 L1.27292456,10.0050562 C0.58654364,10.0050562 0.0249592884,9.44887646 0.0249592884,8.76910116 C0.0249592884,8.08932586 0.58654364,7.5331461 1.27292456,7.5331461 L5.28513292,7.5331461 L5.28513292,10.0050562 Z"></path>
                    <path d="M5.31009221,10.0297753 L1.27292456,10.0297753 C0.574064028,10.0297753 0,9.46123597 0,8.76910116 C0,8.07696635 0.574064028,7.50842695 1.27292456,7.50842695 L5.31009221,7.50842695 L5.31009221,10.0297753 Z M1.27292456,7.55786519 C0.599023317,7.55786519 0.0499185768,8.10168543 0.0499185768,8.76910116 C0.0499185768,9.43651689 0.599023317,9.98033707 1.27292456,9.98033707 L5.26017364,9.98033707 L5.26017364,7.55786519 L1.27292456,7.55786519 Z M5.28513292,15.1589888 L1.27292456,15.1589888 C0.58654364,15.1589888 0.0249592884,14.602809 0.0249592884,13.9230337 C0.0249592884,13.2432584 0.58654364,12.6870786 1.27292456,12.6870786 L5.28513292,12.6870786 L5.28513292,15.1589888 Z" fill-rule="nonzero"></path>
                    <path d="M5.31009221,15.1837078 L1.27292456,15.1837078 C0.574064028,15.1837078 0,14.6151685 0,13.9230337 C0,13.2247191 0.574064028,12.6623596 1.27292456,12.6623596 L5.31009221,12.6623596 L5.31009221,15.1837078 Z M1.27292456,12.7117978 C0.599023317,12.7117978 0.0499185768,13.255618 0.0499185768,13.9230337 C0.0499185768,14.5904494 0.599023317,15.1342697 1.27292456,15.1342697 L5.26017364,15.1342697 L5.26017364,12.7117978 L1.27292456,12.7117978 Z M5.28513292,20.3129214 L1.27292456,20.3129214 C0.58654364,20.3129214 0.0249592884,19.7567416 0.0249592884,19.0769663 C0.0249592884,18.397191 0.58654364,17.8410112 1.27292456,17.8410112 L5.28513292,17.8410112 L5.28513292,20.3129214 L5.28513292,20.3129214 Z" fill-rule="nonzero"></path>
                    <path d="M5.31009221,20.3376404 L1.27292456,20.3376404 C0.574064028,20.3376404 0,19.7691011 0,19.0769663 C0,18.3848315 0.574064028,17.8162922 1.27292456,17.8162922 L5.31009221,17.8162922 L5.31009221,20.3376404 Z M1.27292456,17.8657303 C0.599023317,17.8657303 0.0499185768,18.4095506 0.0499185768,19.0769663 C0.0499185768,19.744382 0.599023317,20.2882022 1.27292456,20.2882022 L5.26017364,20.2882022 L5.26017364,17.8657303 L1.27292456,17.8657303 Z M5.28513292,25.4668539 L1.27292456,25.4668539 C0.58654364,25.4668539 0.0249592884,24.9106741 0.0249592884,24.2308988 C0.0249592884,23.5511235 0.58654364,22.9949438 1.27292456,22.9949438 L5.28513292,22.9949438 L5.28513292,25.4668539 L5.28513292,25.4668539 Z" fill-rule="nonzero"></path>
                    <path d="M5.31009221,25.491573 L1.27292456,25.491573 C0.574064028,25.491573 0,24.9230337 0,24.2308988 C0,23.5325842 0.574064028,22.9702247 1.27292456,22.9702247 L5.31009221,22.9702247 L5.31009221,25.491573 Z M1.27292456,23.0196629 C0.599023317,23.0196629 0.0499185768,23.5634832 0.0499185768,24.2308988 C0.0499185768,24.8983145 0.599023317,25.4421348 1.27292456,25.4421348 L5.26017364,25.4421348 L5.26017364,23.0196629 L1.27292456,23.0196629 Z" fill-rule="nonzero"></path>
                    <path d="M40.714867,10.0050562 L44.7270754,10.0050562 C45.4134563,10.0050562 45.9750406,9.44887646 45.9750406,8.76910116 C45.9750406,8.08932586 45.4134563,7.5331461 44.7270754,7.5331461 L40.714867,7.5331461 L40.714867,10.0050562 Z"></path>
                    <path d="M44.7270754,10.0297753 L40.6899077,10.0297753 L40.6899077,7.50842695 L44.7270754,7.50842695 C45.4259359,7.50842695 46,8.07696628 46,8.76910116 C46,9.46741576 45.425936,10.0297753 44.7270754,10.0297753 Z M40.7398264,9.98033707 L44.7270754,9.98033707 C45.4009766,9.98033707 45.9500814,9.43651682 45.9500814,8.76910116 C45.9500814,8.10168549 45.4009766,7.55786519 44.7270754,7.55786519 L40.7398264,7.55786519 L40.7398264,9.98033707 Z M40.714867,15.1589888 L44.7270754,15.1589888 C45.4134563,15.1589888 45.9750406,14.602809 45.9750406,13.9230337 C45.9750406,13.2432584 45.4134563,12.6870786 44.7270754,12.6870786 L40.714867,12.6870786 L40.714867,15.1589888 Z" fill-rule="nonzero"></path>
                    <path d="M44.7270754,15.1837078 L40.6899077,15.1837078 L40.6899077,12.6623596 L44.7270754,12.6623596 C45.4259359,12.6623596 46,13.2308989 46,13.9230337 C46,14.6213483 45.425936,15.1837078 44.7270754,15.1837078 Z M40.7398264,15.1342697 L44.7270754,15.1342697 C45.4009766,15.1342697 45.9500814,14.5904494 45.9500814,13.9230337 C45.9500814,13.255618 45.4009766,12.7117978 44.7270754,12.7117978 L40.7398264,12.7117978 L40.7398264,15.1342697 Z M40.714867,20.3129214 L44.7270754,20.3129214 C45.4134563,20.3129214 45.9750406,19.7567416 45.9750406,19.0769663 C45.9750406,18.397191 45.4134563,17.8410112 44.7270754,17.8410112 L40.714867,17.8410112 L40.714867,20.3129214 L40.714867,20.3129214 Z" fill-rule="nonzero"></path>
                    <path d="M44.7270754,20.3376404 L40.6899077,20.3376404 L40.6899077,17.8162922 L44.7270754,17.8162922 C45.4259359,17.8162922 46,18.3848315 46,19.0769663 C46,19.7752809 45.425936,20.3376404 44.7270754,20.3376404 Z M40.7398264,20.2882022 L44.7270754,20.2882022 C45.4009766,20.2882022 45.9500814,19.744382 45.9500814,19.0769663 C45.9500814,18.4095506 45.4009766,17.8657303 44.7270754,17.8657303 L40.7398264,17.8657303 L40.7398264,20.2882022 Z M40.714867,25.4668539 L44.7270754,25.4668539 C45.4134563,25.4668539 45.9750406,24.9106741 45.9750406,24.2308988 C45.9750406,23.5511235 45.4134563,22.9949438 44.7270754,22.9949438 L40.714867,22.9949438 L40.714867,25.4668539 L40.714867,25.4668539 Z" fill-rule="nonzero"></path>
                    <path d="M44.7270754,25.491573 L40.6899077,25.491573 L40.6899077,22.9702247 L44.7270754,22.9702247 C45.4259359,22.9702247 46,23.538764 46,24.2308988 C46,24.9292134 45.425936,25.491573 44.7270754,25.491573 Z M40.7398264,25.4421348 L44.7270754,25.4421348 C45.4009766,25.4421348 45.9500814,24.8983146 45.9500814,24.2308988 C45.9500814,23.5634831 45.4009766,23.0196629 44.7270754,23.0196629 L40.7398264,23.0196629 L40.7398264,25.4421348 Z" fill-rule="nonzero"></path>
                </g>
            </g>
        </g>
    </g>
</svg>