<svg width="40px" height="40px" viewBox="0 0 40 40" version="1.1" xmlns="http://www.w3.org/2000/svg" xmlns:xlink="http://www.w3.org/1999/xlink">
    <title>Science not guesswork</title>
    <g stroke="none" stroke-width="1" fill="none" fill-rule="evenodd">
        <g transform="translate(-23, -8938)" fill="currentColor">
            <g transform="translate(0, 8486)">
                <g transform="translate(23, 452)" fill-rule="nonzero">
                    <path d="M6.10050583,5.53216307 L8.4076623,3.68320661 C8.41307974,3.67781273 8.41763093,3.67236094 8.42120195,3.66698769 C9.19928054,2.56770558 10.0901896,1.98472564 11.093929,1.91804787 C11.3028996,1.9037886 11.5057826,1.84671333 11.6896736,1.7504524 C12.4496993,1.3485837 12.9362241,1.11611256 13.149248,1.053039 C14.8633677,0.550252591 16.6235223,-0.0336283994 18.6273906,0.00151258614 C19.9290024,0.023137808 21.2748437,0.130362866 22.6649145,0.323187761 C25.3159781,0.690816533 27.5798076,1.74774925 29.7948945,3.26962424 C31.2896719,4.29502017 32.4622057,5.2140921 33.3124957,6.02684002 C36.9284851,9.48146921 39.1137847,13.565933 39.8683946,18.2802314 C40.0146228,19.1866886 40.0389942,20.2994864 39.9415087,21.618625 C39.7393166,24.3758408 38.9287428,27.1808122 37.5097874,30.0335394 C36.6775503,31.7058899 35.8146232,32.9925906 34.9210062,33.8936415 C32.7546621,36.0750858 29.4401556,38.0564967 26.4181056,39.0836948 C23.0277771,40.237941 19.697023,40.2974104 16.3148183,39.2864312 C15.0691704,38.9151983 14.3876747,38.7133628 14.270331,38.680925 C11.5840643,37.9294486 8.86530249,36.131852 7.06994481,34.3504743 C4.08038995,31.3914232 1.92487756,27.9295856 0.603407654,23.9649615 C0.247766163,22.8999194 0.0473793328,22.00878 0.00224716392,21.2915435 C-0.00493068069,21.1768812 0.00511033877,21.0620688 0.0320343954,20.9509463 C0.181873196,20.3346274 0.200828707,19.6399172 0.0889009282,18.8668155 C0.074490418,18.7679488 0.0699547741,18.6683406 0.0753612775,18.5694687 C0.169236189,16.8646804 0.237837086,15.8708212 0.281163968,15.5878912 C0.687353488,12.9198795 1.33725672,10.8438582 2.77516762,8.74080537 C4.37645697,6.3998751 6.287353,4.44099042 8.50785571,2.86415133 C8.55422465,2.83026697 8.61883253,2.83730267 8.65679187,2.88037024 L8.71095047,2.9398396 C8.7206422,2.95144346 8.7255198,2.96624014 8.72450329,2.98095345 C8.72348679,2.99566676 8.71666005,3.00908279 8.70553461,3.01823103 L5.98406483,5.42674012 C5.97535292,5.43433968 5.97416064,5.44743159 5.9813569,5.4564748 L6.04363929,5.52675677 C6.05921366,5.54322694 6.08401868,5.54558515 6.10050583,5.53216307 L6.10050583,5.53216307 Z M18.1507949,1.39363624 C16.6858047,1.52338757 15.3372555,2.64789911 14.4003117,3.79133272 C13.8135935,4.50856924 13.2277779,5.22940997 12.642865,5.9538549 C12.5692518,6.04348418 12.5090406,6.14365925 12.4641416,6.2512017 L11.2076621,9.24088862 C11.1911555,9.27917669 11.1936671,9.32298766 11.2144416,9.35914598 C11.2352161,9.3953043 11.2718297,9.4195913 11.3132713,9.42470301 L17.7121102,10.2356488 C17.7624715,10.241731 17.8130836,10.2264883 17.8516721,10.1936176 C17.8902606,10.1607468 17.9133008,10.1132504 17.915205,10.0626471 L18.2076615,1.4476993 C18.2085445,1.43262385 18.2027364,1.41792443 18.1917817,1.40750981 C18.180827,1.39709519 18.165836,1.3920209 18.1507949,1.39363624 L18.1507949,1.39363624 Z M19.1689767,10.1492287 C21.4851596,10.0752618 23.6135926,9.80674859 25.5542759,9.34360843 C25.577075,9.3381641 25.5964067,9.32315381 25.6073035,9.30243461 C25.6182003,9.28171542 25.6195998,9.25730734 25.6111424,9.23548232 C24.4304849,6.12685668 22.7001175,2.28027034 19.114818,1.44229299 C19.0826407,1.43487567 19.0488314,1.44251679 19.0229926,1.46304612 C18.9971537,1.48357546 18.9821295,1.51475012 18.9821295,1.54771595 L18.9821295,9.96803671 C18.9821295,10.0170219 19.0019643,10.0639269 19.0371698,10.0980517 C19.0723752,10.1321764 19.1199267,10.1506102 19.1689767,10.1492287 Z M15.472652,1.61529477 L12.913658,2.28297349 C12.7070112,2.33633391 12.5151363,2.43719121 12.3531165,2.57761714 C11.0298413,3.70753498 9.50798458,4.56893965 7.7875463,5.16183115 C7.68753756,5.19573058 7.5953608,5.25001892 7.51675329,5.32131716 L5.48580569,7.11621057 C5.4422441,7.15497261 5.42037638,7.21257217 5.42742882,7.26997521 C5.43448126,7.32737825 5.4695359,7.37711315 5.52100878,7.40274476 C6.9905122,8.17044014 8.54035088,8.74981588 10.1705248,9.14087197 C10.2631732,9.16297233 10.3582161,9.11206371 10.3925751,9.02193325 C11.3593061,6.45934446 13.2331938,3.38856296 15.5268106,1.73153033 C15.5534058,1.71373639 15.5630571,1.67925843 15.5495548,1.65027973 C15.5360525,1.62130103 15.5034195,1.60645548 15.472652,1.61529477 L15.472652,1.61529477 Z M22.2343536,1.76126501 C22.7813555,2.30730187 23.2624644,2.81369248 23.6776803,3.28043685 C25.1598208,4.94557893 26.2457007,6.81255642 26.9353203,8.88136931 C26.9518829,8.92835747 26.9868173,8.96657656 27.0319039,8.98703432 C27.0769905,9.00749208 27.1282486,9.00838226 27.1736181,8.98949542 L31.3302909,7.22433668 C31.3512813,7.2158527 31.3669023,7.19780786 31.3722684,7.17584588 C31.3776344,7.15388389 31.3720904,7.13068594 31.3573702,7.11350742 C28.894959,4.27339495 25.875617,2.45147001 22.2993439,1.6477326 C22.2696131,1.63972988 22.2382175,1.6527641 22.2229401,1.67945243 C22.2076627,1.70614077 22.2123527,1.73975895 22.2343536,1.76126501 Z M11.0592404,2.14997838 C11.0175741,2.08980729 10.5617234,2.33168947 10.0410316,2.69025751 C9.52033878,3.04882458 9.13194248,3.38832138 9.17349202,3.44857295 C9.21515838,3.50874404 9.67100899,3.26686185 10.1917008,2.90829381 C10.7123937,2.54972674 11.1007899,2.21022995 11.0592404,2.14997838 L11.0592404,2.14997838 Z M35.1024376,8.99490172 L33.3314513,6.9432088 C33.3199776,6.93021435 33.3073072,6.92331545 33.301664,6.92698988 C33.2962482,6.92698988 33.2872217,6.92248463 33.2745847,6.91347412 C33.2694653,6.91216019 33.2656241,6.9157724 33.2650137,6.9224745 C33.2644034,6.9291766 33.2671578,6.9374981 33.2718768,6.9432088 C33.9028245,7.57034023 34.1790334,8.48670901 35.0049521,9.10032468 C35.0347604,9.11898431 35.0736553,9.11380412 35.0975202,9.08799604 C35.1213852,9.06218796 35.1234513,9.02307199 35.1024376,8.99490172 L35.1024376,8.99490172 Z M1.39141532,18.4640457 L8.32913233,18.1207453 C8.37653483,18.1179198 8.42087995,18.0966642 8.45237925,18.0616703 C8.48387855,18.0266765 8.49994205,17.9808218 8.49702399,17.9342278 C8.44828125,16.8727898 8.55389053,15.7626951 8.81385182,14.6039436 C9.1442193,13.1352307 9.52062158,11.7097681 9.94305869,10.327556 C9.95535696,10.2889357 9.95103807,10.2469018 9.93110144,10.2111812 C9.91116481,10.1754606 9.87733825,10.1491491 9.83744941,10.1383353 C8.04660495,9.64636153 6.53919051,8.94804708 5.31520609,8.04339196 C5.22550314,7.97726177 5.11288255,7.95001999 5.00280464,7.96782522 C4.89272674,7.98563045 4.79448647,8.04697922 4.73029318,8.13800231 C4.08400052,9.04986583 3.548733,10.0653502 3.12449061,11.1844554 C2.23809481,13.5163752 1.62429731,15.9041601 1.28309812,18.3478102 C1.27898779,18.3782751 1.28876158,18.4089763 1.30973569,18.4314837 C1.33070981,18.4539911 1.36067947,18.4659387 1.39141532,18.4640457 L1.39141532,18.4640457 Z M35.7198456,17.9666656 C35.7602626,17.9888223 35.8094155,17.9884241 35.8489763,17.9656194 C35.8885371,17.9428148 35.9125681,17.9010265 35.9121151,17.8558364 C35.898569,15.282435 35.0807741,13.636215 33.7349328,10.7627636 C33.3197169,9.87432741 32.7763256,8.98318806 32.1047589,8.08934556 C32.0614784,8.03093056 31.9816479,8.01452386 31.9206197,8.05150142 C30.5359647,8.89128087 29.0357714,9.54183963 27.4200398,10.0031777 C27.3971878,10.0095876 27.3778767,10.0247858 27.3666164,10.0452229 C27.3553562,10.06566 27.3531327,10.0895464 27.3604653,10.1113038 C28.1511809,12.6018085 28.5961841,15.1247511 28.6954749,17.6801314 C28.6999143,17.7745772 28.7783014,17.8480106 28.8714903,17.8450238 C31.0486661,17.7675334 33.238479,17.7720386 35.4409288,17.8585395 C35.5059191,17.8603416 35.5988914,17.8963837 35.7198456,17.9666656 Z M10.1569852,9.53012596 C10.1660116,9.50129233 10.1578878,9.47335976 10.1326138,9.44632823 C10.1274535,9.4394843 10.1197612,9.43468512 10.1109504,9.43281247 C9.32384533,9.19313292 8.92216903,9.09672048 8.90592144,9.14357512 C8.89147915,9.19223187 9.27781052,9.33910317 10.0649155,9.58418902 C10.0730054,9.58700318 10.0816117,9.58700318 10.0892869,9.58418902 C10.1253926,9.57698061 10.1479587,9.55895959 10.1569852,9.53012596 Z M11.1101766,9.63284577 L11.0776814,9.78422232 C11.0753123,9.795716 11.0777233,9.8076773 11.0843613,9.81736183 C11.0909992,9.82704637 11.1012943,9.8336228 11.1128845,9.83558222 L11.1562114,9.84639483 C11.9004698,9.99756064 12.6158992,10.1331609 13.1432956,10.2230205 C13.6706921,10.3128802 13.9662989,10.3495439 13.9643349,10.3248529 L13.9778746,10.2599772 C13.9823545,10.2367389 13.6926966,10.1547558 13.1726473,10.0320703 C12.6525981,9.9093849 11.9447757,9.75605124 11.2049541,9.60581424 L11.1616272,9.59770478 C11.1501133,9.59533982 11.1381308,9.59774657 11.1284292,9.60437284 C11.1187275,9.6109991 11.1121395,9.62127605 11.1101766,9.63284577 Z M35.9202325,10.8681866 C36.1368669,11.1547208 36.3535013,11.5088338 36.7488591,11.5223495 C36.7745013,11.5223495 36.7979427,11.5078875 36.8094102,11.4849929 C36.8208778,11.4620983 36.818403,11.434701 36.8030177,11.4142234 C36.4744555,10.9835211 36.273166,10.7195132 36.1991493,10.6221997 C35.9689752,10.3464781 35.7523408,9.99236508 35.356983,9.97884932 C35.3308536,9.97778895 35.3064491,9.99184626 35.2942932,10.0149594 C35.2821374,10.0380726 35.2844043,10.0661077 35.3001165,10.0869754 C35.6304839,10.5176778 35.8371893,10.7780815 35.9202325,10.8681866 Z M2.9078562,10.1518511 L1.46452944,14.4850049 L1.5782625,14.5228491 C1.60946576,14.5329383 1.64335834,14.5148136 1.65408455,14.4823018 L3.05950029,10.2653835 C3.06898654,10.2331544 3.05219897,10.1996385 3.02158926,10.1896952 L2.9078562,10.1518511 Z M15.7651085,10.6951848 C16.1351923,10.7492478 16.5648505,10.7537531 17.0540832,10.7087006 C17.0651959,10.7050544 17.072707,10.6946975 17.072707,10.6830206 C17.072707,10.6713437 17.0651959,10.6609868 17.0540832,10.6573407 C16.3716848,10.5870587 15.951053,10.540204 15.7921878,10.5167767 C15.6333225,10.4933494 15.2172039,10.414958 14.543832,10.2816024 C14.5301215,10.2785539 14.516352,10.2864764 14.5121221,10.2998473 C14.5078923,10.3132182 14.5146065,10.3275978 14.5275844,10.3329623 C14.9825167,10.5185788 15.3950247,10.6393196 15.7651085,10.6951848 Z M19.1906401,11.3601604 C19.1403505,11.3615591 19.0926866,11.383142 19.058148,11.4201548 C19.0236094,11.4571676 19.0050294,11.5065739 19.0064197,11.5574905 L19.1581449,17.8828679 C19.1581368,17.9156032 19.1713463,17.9469601 19.194788,17.9698517 C19.2182297,17.9927433 19.2499247,18.0052372 19.2827097,18.0045399 L27.3279701,17.8125859 C27.3459298,17.8118832 27.3628724,17.80408 27.3750634,17.7908963 C27.3872544,17.7777127 27.3936932,17.7602308 27.3930168,17.742304 C27.2864485,15.2770287 26.8513744,12.8523007 26.0877381,10.46812 C26.0617601,10.3876742 25.9774225,10.3414296 25.8954751,10.362697 C23.7345469,10.9411717 21.4996019,11.2736595 19.1906401,11.3601604 Z M17.8123037,11.3547541 C15.4744573,11.3223162 13.2052119,11.0393862 11.0045673,10.5059641 C10.921245,10.4866212 10.8371703,10.5350857 10.8123043,10.6167934 C10.0974107,13.0478287 9.71559255,15.512203 9.66679557,18.0099161 C9.66611245,18.0283027 9.67291806,18.0461944 9.68569474,18.0594587 C9.69847143,18.072723 9.71611419,18.0801981 9.73454807,18.0801981 L17.8800019,18.0801981 C17.9130385,18.0801981 17.9447221,18.0670975 17.9680825,18.0437782 C17.9914429,18.020459 18.0045667,17.9888314 18.0045667,17.955853 L18.0045667,11.5493811 C18.0045667,11.4977628 17.9843105,11.4482586 17.9482542,11.411759 C17.9121978,11.3752593 17.863295,11.3547541 17.8123037,11.3547541 Z M36.1375709,11.8788413 C36.087686,11.9231809 36.117663,12.0528948 36.220907,12.2394453 C36.3241509,12.4259957 36.4922038,12.6541002 36.6880931,12.8735745 C36.8839768,13.0930404 37.0916472,13.2858968 37.2654186,13.409717 C37.43919,13.5335371 37.5648278,13.5781782 37.6146927,13.5338195 C37.6645776,13.4894799 37.6346006,13.359766 37.5313566,13.1732156 C37.4281127,12.9866651 37.2600598,12.7585607 37.0641705,12.5390864 C36.8682868,12.3196205 36.6606164,12.126764 36.486845,12.0029439 C36.3130736,11.8791237 36.1874358,11.8344826 36.1375709,11.8788413 L36.1375709,11.8788413 Z M9.76975116,13.6497307 C9.78058288,13.6317097 9.78690138,13.5866572 9.78870667,13.5145731 C9.78996031,13.479044 9.76443855,13.4481755 9.72925481,13.4426662 C9.69407107,13.4371569 9.66030673,13.458742 9.65060223,13.4929479 C9.63074408,13.5560214 9.62893879,13.6037771 9.64518637,13.636215 C9.65617888,13.6602222 9.67901637,13.6768398 9.70487253,13.6796453 C9.73072869,13.6824508 9.75555295,13.6710047 9.76975116,13.6497307 L9.76975116,13.6497307 Z M37.7372536,14.4039103 C37.4339654,14.1137719 37.1406063,13.8353472 36.8571763,13.5686361 C36.8271721,13.5414266 36.7831544,13.5362775 36.7476613,13.5558254 C36.7121682,13.5753733 36.6930583,13.6152898 36.7001163,13.655137 C36.7903807,14.1723403 36.9826437,14.5715058 37.2769055,14.8526337 C37.5765831,15.1463763 37.8681369,15.4266031 38.1515669,15.6933142 C38.1815711,15.7205237 38.2255887,15.7256728 38.2610818,15.7061249 C38.296575,15.6865771 38.3156848,15.6466605 38.3086268,15.6068133 C38.2183625,15.0896101 38.0279047,14.6886424 37.7372536,14.4039103 Z M9.48084209,14.5309315 C9.4499315,14.5253868 9.39782405,14.6709649 9.36445525,14.8560937 C9.34842775,14.9450125 9.33895532,15.0313482 9.33812244,15.096102 C9.33728956,15.1608559 9.34516447,15.1987219 9.36001425,15.2013674 C9.39092484,15.2069121 9.44303229,15.061334 9.47640109,14.8762052 C9.49242859,14.7872864 9.50190101,14.7009507 9.5027339,14.6361969 C9.50356678,14.571443 9.49569187,14.533577 9.48084209,14.5309315 L9.48084209,14.5309315 Z M38.0811607,16.1068966 C37.774262,15.8636128 37.4772923,15.6302406 37.1902517,15.40678 C37.1601614,15.3840626 37.1190207,15.3826565 37.0874443,15.4032662 C37.0558679,15.4238759 37.0406593,15.4620608 37.0494393,15.4986872 C37.17942,15.97264 37.3933465,16.327654 37.6912188,16.5637294 C37.9963122,16.8106173 38.2923793,17.0457916 38.5794199,17.2692522 C38.6095344,17.2899464 38.6492396,17.2902416 38.6796596,17.2699974 C38.7100796,17.2497532 38.7250779,17.2130534 38.7175243,17.177345 C38.5875436,16.7033923 38.3754224,16.3465761 38.0811607,16.1068966 Z M28.0864885,16.4274364 C28.0723973,16.4302353 28.0662723,16.4695106 28.0694617,16.5366182 C28.0726511,16.6037258 28.0848934,16.6931656 28.1034943,16.7852527 C28.1220902,16.87732 28.1455187,16.9644924 28.1686254,17.0275917 C28.1917321,17.090691 28.2126241,17.124548 28.2267051,17.1217142 C28.2407963,17.1189153 28.2469212,17.0796399 28.2437318,17.0125324 C28.2405424,16.9454248 28.2283001,16.8559849 28.2096993,16.7638978 C28.1911033,16.6718306 28.1676748,16.5846582 28.1445681,16.5215589 C28.1214614,16.4584596 28.1005694,16.4246025 28.0864885,16.4274364 Z M38.2490524,17.5693022 C37.9602065,17.3566542 37.6812897,17.1521156 37.412302,16.9556865 C37.3840468,16.9359367 37.3463783,16.9361516 37.3183511,16.9562225 C37.290324,16.9762935 37.2780497,17.011844 37.2877372,17.0448906 C37.4195231,17.4755929 37.6253258,17.7936639 37.9051452,17.9991035 C38.1903806,18.2171578 38.4674921,18.4243995 38.7364798,18.6208286 C38.7647349,18.6405784 38.8024035,18.6403635 38.8304306,18.6202926 C38.8584578,18.6002216 38.8707321,18.5646712 38.8610446,18.5316246 C38.7292587,18.1009222 38.5252612,17.7801481 38.2490524,17.5693022 Z M9.24755391,17.0639208 C9.20720534,17.0624563 9.17187858,17.13261 9.16864483,17.2206225 C9.16709203,17.2628927 9.17330082,17.3037134 9.18590531,17.3341044 C9.1985098,17.3644955 9.21647749,17.3819674 9.23585565,17.3826765 C9.27620423,17.384141 9.31153098,17.3139873 9.31476474,17.2259748 C9.31631753,17.1837046 9.31010874,17.1428839 9.29750425,17.1124929 C9.28489976,17.0821018 9.26693207,17.0646299 9.24755391,17.0639208 L9.24755391,17.0639208 Z M9.14963516,17.5557864 C9.13338758,17.6170579 9.13338758,17.6765272 9.14963516,17.7341945 C9.16027113,17.773187 9.19517456,17.8006692 9.23563891,17.801912 C9.27610326,17.8031549 9.31263326,17.7778667 9.32565062,17.7396008 C9.33106648,17.7269861 9.31572154,17.6648136 9.2796158,17.5530833 C9.27060712,17.5244066 9.24370948,17.5051143 9.21360922,17.5057403 C9.18350896,17.5063663 9.15743957,17.5267601 9.14963516,17.5557864 Z M28.2757457,17.7179756 C28.2757457,17.7161735 28.2703298,17.689142 28.2594981,17.636881 C28.2568975,17.6254908 28.2483622,17.6163763 28.2371528,17.6130194 C28.2259434,17.6096625 28.2137916,17.6125818 28.2053395,17.6206621 C28.1800655,17.6404852 28.1755523,17.6747251 28.1917999,17.7233819 C28.1978173,17.7423408 28.2160111,17.7547598 28.2358927,17.7534793 C28.2557743,17.7521989 28.2722186,17.7375492 28.2757457,17.7179756 Z M35.7577567,18.1585895 C35.7410065,18.1374664 35.7135986,18.1358143 35.6889207,18.1544402 C35.6642429,18.1730662 35.6474447,18.2080834 35.6467315,18.2423872 C35.6467315,18.291044 35.6638817,18.3144713 35.6981822,18.3126692 C35.7378985,18.3108671 35.7631725,18.2937471 35.7740042,18.2613093 C35.7866412,18.2234651 35.7812254,18.1892252 35.7577567,18.1585895 Z M37.6668474,18.2531998 C37.6314861,18.2208266 37.5806417,18.2116053 37.5361327,18.2294929 C37.4916236,18.2473805 37.4613632,18.2891968 37.4583368,18.3369976 L37.4177178,18.8911439 C37.4087855,19.0012613 37.4518493,19.1092307 37.5341588,19.1830844 L38.7256481,20.2832675 C38.7761353,20.3304981 38.8493966,20.3443948 38.9137197,20.3189424 C38.9780427,20.2934899 39.0218693,20.2332618 39.0262283,20.1643288 L39.0587235,19.707496 C39.0654086,19.6084915 39.0266334,19.5112282 38.9531142,19.442587 L37.6668474,18.2531998 Z M28.7171383,19.1290213 C28.7189436,20.6319742 28.5682021,22.2070112 28.264914,23.8541323 C28.2143659,24.131656 27.9571126,25.194896 27.4931539,27.0438525 C27.4712725,27.1292285 27.5182553,27.2171659 27.6014711,27.246589 C29.0881247,27.7710006 30.4989563,28.2332397 31.8231342,29.1928589 C31.8915348,29.2429961 31.9874621,29.2298294 32.0397686,29.1631243 C34.4985691,26.1220774 35.316364,22.84045 35.9283563,19.0560362 C35.9348736,19.0168645 35.923442,18.9768403 35.8972106,18.9469892 C35.8709791,18.9171382 35.8327153,18.9006095 35.7929597,18.9018801 L28.7767128,19.0668488 C28.743377,19.068297 28.7171068,19.0957129 28.7171383,19.1290213 Z M27.3279701,18.9884574 L19.2014718,19.1993033 C19.1332516,19.2021896 19.07948,19.2594448 19.0796147,19.3290546 L19.2502146,25.938263 C19.2530949,25.9913788 19.2971205,26.0329512 19.350408,26.0328734 C21.6377063,26.0508944 23.8816777,26.3428349 26.0823223,26.9086949 C26.144041,26.923976 26.2072104,26.8870931 26.2258426,26.8248971 C26.9515679,24.2514957 27.3541468,21.6753912 27.4336142,19.0965835 C27.4343098,19.0681582 27.4235064,19.0406437 27.4036211,19.0202845 C27.3837358,18.9999253 27.356455,18.9884574 27.3279701,18.9884574 Z M10.086579,27.3303867 C9.17400653,24.646156 8.43203367,21.9835506 8.45911297,19.2344443 C8.45914098,19.1966602 8.42923756,19.1656155 8.39141472,19.1641623 L1.52139597,19.058718 C1.45817848,19.0578758 1.39745297,19.0833156 1.35378652,19.1289563 C1.31012008,19.174597 1.28745269,19.2363203 1.29122191,19.2993199 C1.40676026,21.5014884 1.86710838,23.6279685 2.67226628,25.6787604 C3.16510956,26.929419 4.01539962,28.2512607 5.22313646,29.6442854 C5.28803214,29.7174329 5.39762136,29.7302346 5.47768189,29.6740201 C6.83886811,28.6918746 8.34447726,27.9674297 9.99450936,27.5006853 C10.030078,27.4905531 10.0600386,27.4666234 10.077429,27.4344568 C10.0948194,27.4022903 10.0981255,27.3646876 10.086579,27.3303867 Z M9.76975116,19.1776776 C9.74027577,19.1775909 9.71210506,19.189804 9.69204841,19.2113654 C9.67199177,19.2329267 9.6618744,19.2618742 9.66414188,19.2912105 C9.8121754,21.8898413 10.2860632,24.4767585 11.0858052,27.051962 C11.1056351,27.1143548 11.170257,27.1501925 11.2320334,27.1330565 C13.4362886,26.5059251 15.6919944,26.1536142 17.9991508,26.0761238 C18.0534258,26.074659 18.0966363,26.0303062 18.0966363,25.9761072 L18.0966363,19.3074294 C18.0966363,19.2357697 18.0396544,19.1776776 17.9693636,19.1776776 L9.76975116,19.1776776 Z M28.2730378,19.8967167 C28.3308069,19.6750582 28.3398334,19.5002543 28.3001171,19.3723051 C28.2956304,19.3424469 28.2677456,19.3218728 28.2378347,19.3263515 C28.2079237,19.3308302 28.1873132,19.3586658 28.1917999,19.388524 C28.1899946,19.7237149 28.1899946,19.8940135 28.1917999,19.8994198 C28.1986492,19.9161847 28.2152346,19.9269165 28.233362,19.9263133 C28.2514894,19.9257101 28.267322,19.9138996 28.2730378,19.8967167 L28.2730378,19.8967167 Z M34.5879308,25.654432 C34.5871831,25.6559249 34.5877893,25.6577403 34.5892848,25.6584867 C34.5907803,25.6592332 34.5925989,25.6586281 34.5933467,25.6571352 C34.8713609,24.9939617 35.0491816,24.5803793 35.1268089,24.4163881 C35.3199746,24.0199257 35.4707161,23.5955307 35.5790333,23.1432031 C35.8751003,21.9123676 36.0520184,20.8076792 36.1097876,19.8291379 C36.1112956,19.8150656 36.1069197,19.8009958 36.097693,19.7902503 C36.0884664,19.7795049 36.0752068,19.7730362 36.0610448,19.7723717 C36.0177179,19.7687675 35.9987624,19.7822832 36.0041783,19.812919 C36.0077889,19.8363463 36.0086915,19.8525652 36.0068862,19.8615757 C35.7613672,21.7718026 35.2883821,23.7027557 34.5879308,25.654432 Z M37.566654,19.777778 C37.5316678,19.7475534 37.4823337,19.7408183 37.4400223,19.7604902 C37.397711,19.7801621 37.3700319,19.822703 37.3689751,19.8696852 L37.3527275,20.4103157 C37.3487772,20.5177485 37.3948156,20.6206525 37.4772923,20.6887404 L38.6850291,21.7132353 C38.7363657,21.7567116 38.8080483,21.7671488 38.8696866,21.7401218 C38.9313249,21.7130948 38.9721204,21.6533385 38.9747777,21.5861871 L38.9856094,21.1401669 C38.9889862,21.0424237 38.947147,20.9479544 38.8718763,20.8833674 L37.566654,19.777778 Z M28.2111074,20.4113556 C28.1663686,20.4080794 28.0863089,20.9735953 28.0322757,21.6745802 C28.0063229,22.0112736 27.989968,22.3348298 27.9868093,22.5740627 C27.9836505,22.8132957 27.9939466,22.9486064 28.0154324,22.9502393 C28.0601712,22.9535156 28.1402308,22.3879997 28.1942641,21.6870147 C28.2202168,21.3503214 28.2365717,21.0267652 28.2397305,20.7875323 C28.2428893,20.5482993 28.2325932,20.4129886 28.2111074,20.4113556 L28.2111074,20.4113556 Z M37.4420892,21.2482931 C37.408456,21.2204088 37.3618191,21.214764 37.3220275,21.2337612 C37.2822359,21.2527584 37.2562937,21.2930537 37.255242,21.3374971 L37.2525341,21.8537993 C37.2512316,21.9557209 37.2972156,22.0525161 37.3770989,22.1160051 L38.5496326,23.0675148 C38.5995017,23.1061794 38.6668861,23.1136428 38.724033,23.0868312 C38.7811798,23.0600196 38.8184238,23.0034676 38.8204256,22.9404667 L38.8231449,22.5133685 C38.8239355,22.4207685 38.7821198,22.3323153 38.7094005,22.2727879 L37.4420892,21.2482931 Z M37.1712962,22.4647118 C37.1365697,22.4367403 37.0888841,22.4310391 37.0485226,22.4500331 C37.0081611,22.469027 36.982223,22.5093754 36.9817411,22.5539158 L36.9763109,23.0729211 C36.9753798,23.1751288 37.0213237,23.2718395 37.10089,23.335127 L38.2707158,24.2947462 C38.3205014,24.336713 38.3901164,24.3461331 38.4492976,24.3189115 C38.5084787,24.2916899 38.5465359,24.2327436 38.5469247,24.167698 L38.5496326,23.7405999 C38.5512164,23.6474283 38.5093585,23.5578911 38.4358996,23.4973161 L37.1712962,22.4647118 Z M1.47953137,23.0801656 C1.43506536,23.0932455 1.53169823,23.5567636 1.69538048,24.1155272 C1.85907174,24.6743182 2.02784106,25.1167905 2.07235143,25.1038539 C2.11681744,25.0907739 2.02018457,24.6272559 1.85650232,24.0684923 C1.69281106,23.5097013 1.52404174,23.0672289 1.47953137,23.0801656 L1.47953137,23.0801656 Z M37.2741975,24.9083619 C37.7634302,25.2237297 38.0089492,25.3823146 38.0107545,25.3841167 C38.0447755,25.4052592 38.0865464,25.4099201 38.1244043,25.3967982 C38.1622621,25.3836763 38.192151,25.3541774 38.2057255,25.3165379 C38.2653,25.1507445 38.2716185,24.981347 38.224681,24.8083452 C38.2054017,24.731753 38.1594351,24.6638807 38.0947004,24.6164214 C37.9502774,24.5137016 37.8040492,24.415487 37.6560157,24.3217777 C37.1685883,24.0028057 36.9239719,23.8424186 36.9221666,23.8406165 C36.8881456,23.8194741 36.8463748,23.8148131 36.8085169,23.827935 C36.770659,23.8410569 36.7407702,23.8705558 36.7271956,23.9081953 C36.6676212,24.0739887 36.6604,24.2433863 36.7055322,24.4163881 C36.7255177,24.4933621 36.7724785,24.5612872 36.8382208,24.6083119 C36.9808384,24.7110317 37.126164,24.8110484 37.2741975,24.9083619 Z M37.3879306,25.424664 C37.1749068,25.2696833 36.9329983,25.0858689 36.6622053,24.8732209 C36.6428491,24.8583258 36.6174985,24.8536301 36.5936187,24.8605166 C36.5697389,24.867403 36.5500494,24.8850873 36.5403485,24.9083619 L36.3832885,25.300319 C36.3465599,25.3963136 36.3775235,25.5044952 36.4591106,25.565228 C36.6396392,25.7003856 36.8156547,25.8292359 36.9871569,25.9517788 C37.1947649,26.1121659 37.4339654,26.2977824 37.7047584,26.5086283 C37.7237565,26.5236938 37.7488068,26.5287971 37.7726304,26.5224554 C37.7964539,26.5161137 37.8163788,26.4990381 37.8266153,26.4761904 L37.9836752,26.0842333 C38.0217809,25.9874634 37.9906818,25.8776996 37.9078532,25.8166212 C37.7273245,25.6832656 37.554017,25.5526133 37.3879306,25.424664 Z M37.5337256,27.2548876 C37.577636,27.1999789 37.5978968,27.1299063 37.5900507,27.0600854 C37.5822047,26.9902645 37.5468944,26.9264147 37.491888,26.8825824 L36.399861,26.0123835 C36.3448552,25.9685505 36.2746588,25.9483255 36.2047145,25.9561577 C36.1347702,25.9639899 36.0708075,25.9992378 36.0268978,26.0541472 L35.9964878,26.0921535 C35.9525773,26.1470623 35.9323165,26.2171349 35.9401626,26.2869558 C35.9480087,26.3567767 35.9833189,26.4206265 36.0383253,26.4644588 L37.1303523,27.3346577 C37.1853581,27.3784907 37.2555545,27.3987157 37.3254988,27.3908835 C37.3954431,27.3830513 37.4594058,27.3478033 37.5033155,27.292894 L37.5337256,27.2548876 Z M34.3469251,26.3545486 C34.4028889,26.2752561 34.4308709,26.2311046 34.4308709,26.2220941 C34.4301179,26.1848483 34.4055611,26.1522674 34.3699189,26.1412255 C34.3342766,26.1301837 34.295556,26.1431614 34.2738109,26.1734373 C34.2322893,26.2347088 34.2106259,26.2806624 34.2088206,26.3112981 C34.2087835,26.3444031 34.2303032,26.3736908 34.261946,26.3836004 C34.2935889,26.3935101 34.3280116,26.381742 34.3469251,26.3545486 L34.3469251,26.3545486 Z M15.8289962,26.7993253 C15.8282962,26.7885926 15.774103,26.781848 15.6783331,26.7805756 C15.5825632,26.7793031 15.4530633,26.7836071 15.3183271,26.7925404 C15.1835835,26.8014738 15.054642,26.8143053 14.9598764,26.8282111 C14.8651109,26.842117 14.8122864,26.8559578 14.8130196,26.8666879 C14.8137197,26.8774206 14.8679129,26.8841652 14.9636827,26.8854376 C15.0594526,26.8867101 15.1889526,26.8824061 15.3236888,26.8734728 C15.4584324,26.8645394 15.5873739,26.8517079 15.6821394,26.8378021 C15.776905,26.8238962 15.8297294,26.8100554 15.8289962,26.7993253 L15.8289962,26.7993253 Z M37.1591647,28.2659749 C37.210624,28.2051948 37.2357876,28.1264978 37.2291197,28.0471969 C37.2224518,27.967896 37.1844985,27.8944874 37.1236095,27.8431207 L36.0191261,26.9114251 C35.9582386,26.8600565 35.8794025,26.8349373 35.7999614,26.8415934 C35.7205204,26.8482496 35.646982,26.8861359 35.5955246,26.9469175 L35.5640855,26.9840858 C35.5126262,27.0448658 35.4874625,27.1235629 35.4941304,27.2028638 C35.5007983,27.2821647 35.5387516,27.3555733 35.5996406,27.40694 L36.7041241,28.3386356 C36.7650115,28.3900042 36.8438476,28.4151234 36.9232887,28.4084673 C37.0027298,28.4018111 37.0762681,28.3639248 37.1277256,28.3031432 L37.1591647,28.2659749 Z M14.4335921,26.9296443 C14.430625,26.9148829 14.290176,26.9284226 14.0431433,26.9672848 C13.7961107,27.0061469 13.4627309,27.067148 13.1163466,27.136868 C12.7698916,27.2066024 12.4388181,27.2793446 12.1959888,27.3390855 C11.9531596,27.3988264 11.8184752,27.44067 11.8215769,27.4554075 C11.824544,27.4701689 11.9649931,27.4566292 12.2120257,27.4177671 C12.4590584,27.3789049 12.7924381,27.3179038 13.1388224,27.2481838 C13.4852775,27.1784494 13.816351,27.1057072 14.0591802,27.0459663 C14.3020095,26.9862254 14.4366939,26.9443818 14.4335921,26.9296443 L14.4335921,26.9296443 Z M14.698184,26.8816633 C14.6277778,26.8834654 14.5889642,26.8888718 14.581743,26.8978823 C14.5778078,26.9047702 14.5770705,26.9130463 14.5797683,26.9200482 C14.5824661,26.9270501 14.5882587,26.9318946 14.5952827,26.9330232 C14.6584677,26.945638 14.698184,26.9474401 14.7144316,26.9384296 C14.7283146,26.932589 14.7356433,26.9173204 14.7315045,26.9028601 C14.7273657,26.8883998 14.7130625,26.8793008 14.698184,26.8816633 L14.698184,26.8816633 Z M18.2618354,35.6047372 L18.2618354,27.3952624 C18.2619091,27.3500895 18.2431252,27.3068723 18.2098557,27.2757052 C18.1765862,27.2445381 18.1317446,27.2281505 18.0858046,27.23037 C15.9357081,27.3402983 13.8090803,27.6475566 11.7059212,28.1521451 C11.6756811,28.159061 11.6501807,28.1792269 11.6365172,28.2070304 C11.6228536,28.234834 11.6224854,28.2673071 11.635515,28.2954122 C12.6067593,30.5101954 13.9038578,32.4555643 15.5268106,34.131519 C16.0702019,34.6919726 16.9403502,35.210978 18.1372553,35.6885349 C18.165795,35.6993437 18.1978431,35.6957605 18.2228015,35.6789704 C18.24776,35.6621802 18.2623775,35.6343703 18.2618354,35.6047372 L18.2618354,35.6047372 Z M25.7248755,27.9440024 C23.6740698,27.5511442 21.5799371,27.3042562 19.4424776,27.2033385 C19.3891349,27.2001508 19.3369776,27.219915 19.2991911,27.2576349 C19.2614045,27.2953548 19.2416053,27.34742 19.2447987,27.4006687 C19.4018586,30.2642085 19.4027613,32.9745696 19.2475066,35.5317521 C19.2443017,35.5785658 19.2630067,35.6242258 19.2983225,35.655796 C19.3336382,35.6873662 19.3817172,35.7014073 19.4289379,35.6939412 L20.9128837,35.4398449 C20.9959415,35.4239436 21.0729609,35.3845642 21.1349339,35.3263125 C23.2453141,33.2971458 24.802374,30.8832304 25.8061134,28.0845663 C25.8160596,28.0551402 25.8128505,28.0228655 25.7973037,27.9959653 C25.7817568,27.969065 25.7553735,27.9501365 25.7248755,27.9440024 L25.7248755,27.9440024 Z M36.7185844,29.2155654 C36.8127699,29.1074027 36.8012889,28.9435029 36.6929403,28.8494774 L35.4994201,27.8137915 C35.3910662,27.7197722 35.2268767,27.7312329 35.1326851,27.8393904 L35.0189792,27.9699526 C34.9247936,28.0781153 34.9362747,28.2420152 35.0446233,28.3360406 L36.2381435,29.3717265 C36.3464973,29.4657459 36.5106868,29.4542851 36.6048784,29.3461277 L36.7185844,29.2155654 Z M23.187545,34.7099937 C23.1608491,34.7362699 23.1556334,34.7773698 23.1749222,34.8094611 C23.194211,34.8415524 23.2329942,34.8562996 23.2687829,34.8451513 C26.285417,33.9963613 28.9770996,32.2339058 31.1488596,30.0416489 C31.1751434,30.0152131 31.1863675,29.9773661 31.1787358,29.9409076 C31.1711042,29.9044492 31.1456375,29.8742553 31.1109485,29.8605377 L27.2413164,28.308928 C27.1971938,28.2914404 27.1478655,28.2924858 27.1045261,28.3118268 C27.0611867,28.3311679 27.0275114,28.3671646 27.0111423,28.4116478 C26.1536311,30.8120474 24.8790987,32.911496 23.187545,34.7099937 Z M12.8919946,32.5150336 C13.0869656,32.8862666 13.4796154,33.3611204 14.0699442,33.9395951 C14.1160693,33.985973 14.1160693,34.0608127 14.0699442,34.1071906 L14.0672363,34.1071906 C14.0463967,34.1298892 14.0103553,34.1310885 13.9859984,34.1098937 C12.450602,32.7853489 11.2455731,30.3768398 10.5090161,28.4981487 C10.4889268,28.4476919 10.4344678,28.4199321 10.3817434,28.433273 C8.82739147,28.8315375 7.34615369,29.4019027 5.93803002,30.1443687 C5.90297124,30.1634357 5.87791552,30.1966997 5.86956189,30.235267 C5.86120827,30.2738344 5.87040864,30.313772 5.89470314,30.344402 C6.83435489,31.5500081 8.9736197,32.9123971 10.5469271,33.6260294 C12.2222332,34.3865164 13.9038578,35.0109447 15.5918009,35.4993143 C15.6252134,35.5102169 15.6605651,35.4937369 15.6737836,35.4610962 C15.6870021,35.4284554 15.6738364,35.390151 15.6432516,35.3722661 C15.0691704,35.0406793 14.6106276,34.5865497 14.2676231,34.0098771 C14.2531808,33.9846477 13.8226199,33.4674444 12.9759404,32.4582674 C12.958574,32.4402742 12.9307555,32.4373674 12.9100328,32.4513806 C12.8893101,32.4653938 12.8816965,32.4922607 12.8919946,32.5150336 L12.8919946,32.5150336 Z M36.2963369,30.1366106 C36.3262348,30.0998877 36.3402927,30.0528121 36.3354174,30.0057417 C36.330542,29.9586714 36.3071329,29.9154627 36.2703407,29.8856229 L34.8497335,28.7331878 C34.7731377,28.6710499 34.6605837,28.6826558 34.5983293,28.759111 L34.3797181,29.0276152 C34.3498201,29.0643381 34.3357623,29.1114137 34.3406376,29.1584841 C34.3455129,29.2055545 34.368922,29.2487631 34.4057142,29.2786029 L35.8263214,30.431038 C35.9029173,30.4931759 36.0154712,30.4815701 36.0777257,30.4051148 L36.2963369,30.1366106 Z M35.6643601,31.1343713 C35.7028171,31.0879693 35.7212325,31.0282174 35.7155549,30.9682611 C35.7098772,30.9083049 35.6805716,30.853056 35.6340855,30.8146695 L34.2319734,29.656801 C34.1854928,29.6184088 34.1256374,29.6000213 34.0655753,29.6056839 C34.0055133,29.6113464 33.9501648,29.6405951 33.9117065,29.6869952 L33.6631456,29.9869371 C33.6246886,30.0333391 33.6062732,30.093091 33.6119509,30.1530473 C33.6176285,30.2130035 33.6469341,30.2682524 33.6934203,30.306639 L35.0955323,31.4645074 C35.142013,31.5028997 35.2018684,31.5212871 35.2619304,31.5156246 C35.3219925,31.509962 35.377341,31.4807133 35.4157992,31.4343132 L35.6643601,31.1343713 Z M34.9452151,32.0228977 C35.0005048,31.9542534 34.9895813,31.8538644 34.9208167,31.7986711 L33.3971186,30.5757648 C33.328353,30.5205727 33.2277866,30.5314769 33.1724958,30.6001202 L32.9145925,30.9203357 C32.8593028,30.9889799 32.8702263,31.089369 32.9389909,31.1445622 L34.4626891,32.3674685 C34.5314546,32.4226606 34.6320211,32.4117564 34.6873119,32.3431131 L34.9452151,32.0228977 Z M34.1138264,32.9076125 C34.149532,32.8645223 34.166627,32.8090379 34.1613505,32.7533655 C34.1560741,32.6976931 34.1288585,32.6463935 34.085691,32.6107523 L32.6627008,31.4356107 C32.6195345,31.3999681 32.563952,31.3829033 32.5081812,31.3881704 C32.4524105,31.3934376 32.4010201,31.4206052 32.3653159,31.4636964 L32.1374707,31.7386071 C32.1017651,31.7816972 32.0846702,31.8371817 32.0899466,31.8928541 C32.095223,31.9485264 32.1224386,31.9998261 32.1656061,32.0354673 L33.5885963,33.2106089 C33.6317626,33.2462515 33.6873451,33.2633163 33.7431159,33.2580492 C33.7988867,33.252782 33.850277,33.2256144 33.8859812,33.1825231 L34.1138264,32.9076125 Z M7.32099702,32.1573795 C7.30332202,32.186831 7.48327492,32.3272332 7.72296217,32.4709993 C7.83808117,32.5400482 7.95186596,32.600655 8.03928487,32.6394866 C8.12670378,32.6783182 8.18059584,32.6921938 8.18910526,32.6780608 C8.20678026,32.6486093 8.02682735,32.5082071 7.78714011,32.364441 C7.6720211,32.2953921 7.55823632,32.2347853 7.47081741,32.1959537 C7.38339849,32.1571221 7.32950644,32.1432465 7.32099702,32.1573795 L7.32099702,32.1573795 Z M33.2958691,33.7485093 C33.3550792,33.6812143 33.3484356,33.5787479 33.2810296,33.5196333 L31.7918847,32.2136862 C31.7595131,32.1852908 31.717167,32.170896 31.674163,32.173669 C31.6311589,32.176442 31.5910199,32.1961556 31.5625771,32.2284724 L31.2873431,32.5412272 C31.228133,32.6085222 31.2347765,32.7109885 31.3021826,32.7701031 L32.7913275,34.0760503 C32.823699,34.1044457 32.8660451,34.1188404 32.9090492,34.1160674 C32.9520533,34.1132944 32.9921922,34.0935809 33.020635,34.061264 L33.2958691,33.7485093 Z M32.4223179,34.5780528 C32.4619528,34.5345688 32.482659,34.4771481 32.4798811,34.4184237 C32.4771032,34.3596993 32.4510688,34.3044819 32.4075055,34.2649196 L31.0495598,33.031471 C30.9588596,32.9490921 30.8184354,32.9556998 30.7359002,33.0462302 L30.6119583,33.1821988 C30.5723234,33.2256828 30.5516171,33.2831034 30.554395,33.3418278 C30.5571729,33.4005523 30.5832073,33.4557697 30.6267706,33.495332 L31.9847164,34.7287806 C32.0754166,34.8111594 32.2158407,34.8045518 32.2983759,34.7140214 L32.4223179,34.5780528 Z M9.12255585,33.3584173 C9.1839356,33.407074 9.22816513,33.4259961 9.25524443,33.4151835 C9.27057005,33.4105902 9.2831222,33.3994702 9.28982179,33.3845513 C9.29652137,33.3696325 9.29674852,33.3522951 9.29044752,33.3367921 C9.28864224,33.3331879 9.25163386,33.3115626 9.17942239,33.2719164 C9.16394318,33.2617761 9.14422046,33.2606496 9.12768357,33.2689611 C9.11114669,33.2772727 9.10030799,33.2937597 9.09925031,33.3122116 C9.09819263,33.3306635 9.10707665,33.348277 9.12255585,33.3584173 L9.12255585,33.3584173 Z M30.2498268,34.8613702 C30.4393819,35.034372 30.6343528,35.2145822 30.8347397,35.4020008 C30.9257509,35.4871816 31.0633588,35.500475 31.170523,35.4344386 L31.6092077,35.1641233 C31.6348729,35.1478899 31.6514883,35.1206393 31.6541434,35.0904254 C31.6567984,35.0602115 31.6451894,35.0304895 31.6227473,35.0100436 C31.3086274,34.7325199 31.0333212,34.485632 30.7968286,34.2693798 C30.6126894,34.0909717 30.4204264,33.9080583 30.2200395,33.7206398 C30.1290283,33.635459 29.9914204,33.6221656 29.8842562,33.6882019 L29.4455715,33.9585172 C29.4199063,33.9747506 29.4032909,34.0020012 29.4006358,34.0322151 C29.3979808,34.062429 29.4095898,34.092151 29.4320319,34.1125969 C29.7443465,34.3901206 30.0169448,34.6397117 30.2498268,34.8613702 Z M10.6362888,34.1693631 C10.5785196,34.1171022 10.4981844,34.0909717 10.395283,34.0909717 C10.3639459,34.0927118 10.3479505,34.1187072 10.3552025,34.1561096 C10.3624545,34.1935121 10.3914181,34.234401 10.4277782,34.2585671 C10.4530522,34.2747861 10.5054055,34.2864997 10.5848381,34.2937081 C10.6157169,34.2967307 10.6449378,34.2792188 10.6567827,34.2505925 C10.6686275,34.2219661 10.6603037,34.1889741 10.6362888,34.1693631 L10.6362888,34.1693631 Z M30.3751227,35.9455237 C30.4231987,35.8961837 30.4496688,35.8297989 30.4487089,35.7609755 C30.4477491,35.692152 30.419438,35.6265285 30.3700047,35.5785437 L29.1508404,34.3950493 C29.1014097,34.3470617 29.0349055,34.3206431 28.9659604,34.3216063 C28.8970153,34.3225695 28.8312779,34.3508356 28.7832118,34.4001853 L28.7001596,34.4854428 C28.6520836,34.5347827 28.6256135,34.6011675 28.6265733,34.669991 C28.6275332,34.7388144 28.6558443,34.8044379 28.7052776,34.8524228 L29.9244419,36.0359171 C29.9738726,36.0839048 30.0403767,36.1103233 30.1093218,36.1093601 C30.178267,36.1083969 30.2440044,36.0801308 30.2920705,36.0307811 L30.3751227,35.9455237 Z M8.71861392,34.5323154 C8.71107301,34.5419035 8.73442726,34.574955 8.78353716,34.6241962 C8.83264706,34.6734375 8.90348819,34.7348334 8.98047076,34.7948727 C9.05745551,34.8549137 9.13427329,34.9086779 9.19401815,34.9443328 C9.25376301,34.9799877 9.29153872,34.9946114 9.29903166,34.9849854 C9.30657257,34.9753973 9.28321832,34.9423458 9.23410842,34.8931046 C9.18499852,34.8438633 9.11415739,34.7824674 9.03717482,34.7224282 C8.96019007,34.6623871 8.88337229,34.6086229 8.82362743,34.572968 C8.76388257,34.5373131 8.72610686,34.5226895 8.71861392,34.5323154 L8.71861392,34.5323154 Z M28.2459585,36.0858984 C28.4210713,36.2643065 28.6016,36.4517251 28.7875445,36.6481542 C28.8716546,36.7380638 29.0074192,36.7591701 29.117912,36.6995141 L29.5620125,36.4589335 C29.5887658,36.4447592 29.6071215,36.4186748 29.6114049,36.3887441 C29.6156882,36.3588135 29.6053833,36.3286419 29.5836759,36.3075569 C29.2930248,36.0174185 29.0375767,35.7588169 28.8173317,35.5317521 C28.6476348,35.3479377 28.4689114,35.157816 28.2811616,34.9613869 C28.1974508,34.8727936 28.0633075,34.851767 27.953502,34.910027 L27.5066935,35.1506075 C27.4799402,35.1647818 27.4615845,35.1908662 27.4573012,35.2207969 C27.4530178,35.2507275 27.4633227,35.2808991 27.4850301,35.3019841 C27.7774865,35.5921225 28.0311293,35.8534273 28.2459585,36.0858984 Z M9.67638173,35.121873 C9.6243113,35.1834872 9.93300726,35.529445 10.365902,35.8946233 C10.7987918,36.2597986 11.1919852,36.5059384 11.244165,36.4444175 C11.2962354,36.3828034 10.9875394,36.0368456 10.5546447,35.6716673 C10.1217549,35.306492 9.72856147,35.0603522 9.67638173,35.121873 L9.67638173,35.121873 Z M27.1438309,36.6049037 C27.308112,36.786916 27.4769063,36.9779388 27.6502138,37.1779721 C27.729118,37.2672555 27.8587127,37.2926726 27.9670417,37.2401446 L28.4138501,37.0238924 C28.4400481,37.0101222 28.4585523,36.9852137 28.463867,36.9565648 C28.4691817,36.9279159 28.4606958,36.8988213 28.4409294,36.8779221 C28.1701364,36.5823774 27.9318386,36.3192706 27.7260359,36.0886015 C27.5671706,35.901183 27.4010843,35.7083581 27.2277767,35.5101269 C27.1495692,35.419909 27.0198697,35.3933509 26.9109489,35.4452512 L26.4641404,35.6615034 C26.4379425,35.6752736 26.4194383,35.7001821 26.4141235,35.728831 C26.4088088,35.7574799 26.4172948,35.7865745 26.4370611,35.8074737 C26.7078541,36.1030184 26.9434441,36.3688284 27.1438309,36.6049037 Z M13.5581454,37.4158495 L11.4567916,35.6912381 C11.4504457,35.6859211 11.4421681,35.6834827 11.433947,35.6845085 C11.425726,35.6855343 11.4183043,35.6899317 11.4134647,35.6966444 L11.4134647,35.6993476 C11.3580648,35.7653905 11.4142838,35.9184811 11.5697262,36.1248648 C11.7251685,36.3312485 11.9670689,36.5739767 12.2420914,36.7995307 L12.3179134,36.8590001 C12.8896221,37.3280573 13.446003,37.5966817 13.5608533,37.4591 L13.5608533,37.4563968 C13.5707869,37.4442777 13.5696026,37.4265451 13.5581454,37.4158495 L13.5581454,37.4158495 Z M25.2374481,36.2751191 L26.4262294,37.548304 C26.4952765,37.6210311 26.5928067,37.6587822 26.6916066,37.6510238 L27.1465388,37.6158828 C27.21511,37.6105818 27.2745504,37.566473 27.2993946,37.5024537 C27.3242387,37.4384343 27.3100782,37.3658638 27.2629798,37.3158329 L26.1608523,36.1399614 C26.0874097,36.0595427 25.9804241,36.0176224 25.8711037,36.026429 L25.3213939,36.0669763 C25.272556,36.0697858 25.2294818,36.1004932 25.2113639,36.1454165 C25.1932459,36.1903397 25.2034573,36.2411152 25.2374481,36.2751191 Z M25.5353204,37.1293153 C25.2888988,36.8103433 25.045185,36.415683 24.6065004,36.4048704 C24.5772921,36.4040795 24.5502276,36.4201126 24.5369297,36.4460843 C24.5236318,36.472056 24.5264671,36.5033443 24.544218,36.5265123 C24.9143018,37.0040693 25.1408652,37.2969108 25.2239084,37.4050369 C25.4838697,37.7104932 25.7275834,38.1051535 26.168976,38.1159661 C26.1976964,38.1157124 26.2238077,38.0992812 26.2364225,38.0735238 C26.2490372,38.0477665 26.2459897,38.017105 26.2285505,37.9943242 C25.8584667,37.5167672 25.62739,37.2284309 25.5353204,37.1293153 Z M15.5809692,38.2538269 C15.6016522,38.262733 15.6257546,38.256332 15.6392697,38.2383436 C15.6527848,38.2203553 15.652192,38.1954655 15.6378358,38.1781386 C14.9662691,37.3050203 14.5384161,36.786015 13.4687837,36.5589501 C13.4412775,36.5542543 13.4139995,36.5683953 13.4020264,36.5935574 C13.3900533,36.6187194 13.3963078,36.6487602 13.417333,36.6670762 C13.7170106,36.8959432 13.9733614,37.1356227 14.1863852,37.3861149 C14.5600796,37.8267288 15.085418,38.0673093 15.5809692,38.2538269 Z M24.6823224,37.2671761 C24.5270677,37.0743512 24.3663972,36.8734169 24.2003108,36.6643731 C24.1254625,36.5680367 23.9940897,36.5346958 23.8807751,36.5832785 L23.420427,36.7806086 C23.392558,36.7923386 23.3719707,36.8166417 23.3650136,36.8460238 C23.3580565,36.8754058 23.365565,36.906338 23.3852239,36.929282 C23.6451852,37.2410457 23.8735539,37.5176683 24.0703302,37.7591499 C24.2219743,37.9573811 24.3808395,38.1610186 24.5469259,38.3700625 C24.62142,38.4651304 24.7511888,38.4983457 24.8637537,38.451157 L25.3268098,38.2538269 C25.3546788,38.2420969 25.375266,38.2177938 25.3822232,38.1884118 C25.3891803,38.1590297 25.3816717,38.1280975 25.3620129,38.1051535 C25.1002463,37.7933899 24.8736828,37.5140641 24.6823224,37.2671761 Z M15.1342691,36.8472143 C15.09018,36.8943987 15.1434637,37.0286117 15.2823979,37.2203269 C15.4213322,37.4120421 15.6345357,37.6455547 15.8751046,37.8694926 C16.3760376,38.335798 16.8565456,38.6341666 16.9483656,38.5359279 C16.9924547,38.4887435 16.939171,38.3545306 16.8002368,38.1628153 C16.6613025,37.9711001 16.448099,37.7375876 16.2075301,37.5136496 C15.7065971,37.0473443 15.2260891,36.7489756 15.1342691,36.8472143 L15.1342691,36.8472143 Z M22.0014716,37.1995973 L23.1983767,38.5700958 C23.2671578,38.6486907 23.3665644,38.6923524 23.4691697,38.6890345 L23.9457654,38.6701124 C24.0171802,38.66676 24.080418,38.6230224 24.1086502,38.557455 C24.1368825,38.4918876 24.1251592,38.4159867 24.078454,38.361953 L22.9709106,37.0941744 C22.8971407,37.0071643 22.7871107,36.9592359 22.6730382,36.964423 L22.0962491,36.9887514 C22.0466008,36.991057 22.0022539,37.0210333 21.9820728,37.065929 C21.9618917,37.1108247 21.9694263,37.1627425 22.0014716,37.1995973 L22.0014716,37.1995973 Z M22.8030189,38.6971439 L21.560079,37.2969108 C21.4883658,37.2165719 21.3848543,37.1728558 21.2784542,37.1779721 L20.7883189,37.2023005 C20.7147781,37.2065583 20.6501395,37.2523869 20.6218889,37.3202988 C20.5936384,37.3882108 20.6067429,37.4662655 20.6556303,37.5212725 L21.8065006,38.8160827 C21.8836444,38.9048261 21.9977049,38.9527668 22.1152046,38.945834 L22.7082413,38.9160993 C22.7591014,38.9139524 22.8042476,38.8829488 22.8244394,38.8363016 C22.8446312,38.7896543 22.8363088,38.7355878 22.8030189,38.6971439 Z M17.606501,37.8537603 C17.3167524,37.5320851 17.0215881,37.1266122 16.5449924,37.1482374 C16.5124911,37.1486932 16.4833906,37.1684441 16.4710145,37.1984473 C16.4586384,37.2284504 16.4653695,37.2629295 16.4881258,37.2860982 C16.9286158,37.7708636 17.1976035,38.0673093 17.295089,38.1754355 C17.6010851,38.486298 17.8962495,38.8917709 18.3728452,38.8674426 C18.404216,38.8660486 18.4319726,38.8467315 18.4441324,38.8178307 C18.4562922,38.7889298 18.4506773,38.7556214 18.4297117,38.7322849 C17.9892218,38.2457174 17.7148182,37.9528759 17.606501,37.8537603 Z M18.6165589,38.3430309 C18.8729096,38.6565966 19.2547278,38.8818594 19.7620134,39.0188191 C19.8012023,39.0294369 19.8428128,39.0139543 19.8654785,38.9803215 C19.8881442,38.9466886 19.8868284,38.9023793 19.8622068,38.8701457 C19.6221036,38.5655905 19.3693635,38.2511237 19.1039863,37.9267454 C18.8530515,37.6113776 18.4739413,37.3852138 17.9666557,37.2482541 C17.9274668,37.2376363 17.8858563,37.2531188 17.8631905,37.2867517 C17.8405248,37.3203846 17.8418406,37.3646939 17.8664623,37.3969275 C18.1065654,37.7014827 18.3565976,38.0168505 18.6165589,38.3430309 Z M19.9244892,38.3403278 C20.0129482,38.4700791 20.1492474,38.6430809 20.3333866,38.8593331 C20.3898698,38.9276131 20.4742337,38.9672437 20.5635607,38.9674592 L21.1755529,38.9782718 C21.2022254,38.9777696 21.2263227,38.9622623 21.2377922,38.9382189 C21.2492616,38.9141756 21.246133,38.8857264 21.2297115,38.8647394 C20.9751661,38.55658 20.7404788,38.2439153 20.5256496,37.9267454 C20.4371906,37.7969941 20.3008914,37.6230912 20.1167522,37.4050369 C20.0597441,37.3377696 19.9754571,37.299165 19.8865781,37.299614 L19.2745859,37.2887878 C19.247425,37.2882694 19.2223807,37.3033835 19.2102317,37.3276388 C19.1980826,37.351894 19.2009965,37.3809626 19.2177194,37.4023338 C19.4740701,37.7104932 19.70966,38.0231579 19.9244892,38.3403278 Z"></path>
                </g>
            </g>
        </g>
    </g>
</svg>