<svg width="38px" height="38px" viewBox="0 0 38 38" version="1.1" xmlns="http://www.w3.org/2000/svg" xmlns:xlink="http://www.w3.org/1999/xlink">
    <title>Science, Not Guesswork</title>
    <g stroke="none" stroke-width="1" fill="none" fill-rule="evenodd">
        <g transform="translate(-22, -3744)" fill="currentColor">
            <g transform="translate(22, 3348)">
                <path d="M19,396 C8.52579618,396 0,404.525796 0,415 C0,425.474204 8.52579618,434 19,434 C29.4742038,434 38,425.474204 38,415 C38,404.525796 29.4742038,396 19,396 L19,396 Z M35.5312102,413.789809 L29.0324841,413.789809 C28.7480892,408.156369 26.5092357,402.910191 22.7031847,398.843949 C29.6859873,400.441401 34.9987261,406.462102 35.5312102,413.789809 Z M19,431.325478 C14.4496815,427.525478 11.7146497,422.097771 11.3878981,416.210191 L26.6121019,416.210191 C26.2853503,422.109873 23.5563694,427.525478 19,431.325478 Z M11.3878981,413.789809 C11.7146497,407.90828 14.4496815,402.474522 19,398.674522 C23.5563694,402.474522 26.2853503,407.890127 26.6121019,413.789809 L11.3878981,413.789809 Z M15.3089172,398.843949 C11.4842488,402.915182 9.23592095,408.216345 8.96751592,413.79586 L2.46878981,413.79586 C3.00127389,406.462102 8.32006369,400.43535 15.3089172,398.843949 Z M2.46878981,416.210191 L8.96751592,416.210191 C9.25191083,421.83758 11.4968153,427.089809 15.3089172,431.162102 C8.32006369,429.56465 3.00127389,423.543949 2.46878981,416.210191 Z M22.6971338,431.162102 C26.5092357,427.09586 28.7480892,421.849682 29.0324841,416.216242 L35.5312102,416.216242 C34.9987261,423.543949 29.6859873,429.558599 22.6971338,431.162102 L22.6971338,431.162102 Z" fill-rule="nonzero"></path>
            </g>
        </g>
    </g>
</svg>