<svg width="40px" height="41px" viewBox="0 0 40 41" version="1.1" xmlns="http://www.w3.org/2000/svg" xmlns:xlink="http://www.w3.org/1999/xlink">
    <title>Designed to Be Lived</title>
    <g stroke="none" stroke-width="1" fill="none" fill-rule="evenodd">
        <g transform="translate(-22, -8545)" fill="#FFFFFF">
            <g transform="translate(0, 8486)" fill-rule="nonzero">
                <path d="M41.8386244,61.9617321 C43.2084431,61.1301902 44.4801916,60.2385748 46.0651319,59.9065904 C46.2102052,59.8754823 46.3595242,59.8820181 46.4985388,59.925561 C49.0135639,60.7128383 50.9464951,61.6329095 52.8351366,63.2612141 C54.0309598,64.2951084 55.3216897,65.1108416 56.4067885,66.2427504 C58.9861392,68.9281356 60.6617681,71.9845002 61.4336751,75.4118442 C62.6990966,81.0186924 61.8438826,86.3230659 58.8680332,91.3249647 C57.5773034,93.4918218 55.8573847,95.2571358 53.7082773,96.6209068 C48.3028188,100.044035 42.5989318,100.689033 36.5966161,98.5559018 C34.2028606,97.7043353 32.1149152,96.4417406 30.3327801,94.7681175 C29.0199053,93.5381942 27.4476192,92.1470214 26.4257914,90.8823188 C22.7275973,86.3072571 21.4337039,80.6097719 22.2214287,74.9280955 C22.7212702,71.3173696 24.2809021,68.0723535 26.9003245,65.1930473 C30.0765322,61.7045759 34.0151564,59.6431107 38.716197,59.0086516 C39.0548011,58.9636247 39.3922629,59.0963799 39.6083191,59.3596065 L41.7279,61.9427616 C41.7548705,61.9758648 41.8021619,61.9839673 41.8386244,61.9617321 L41.8386244,61.9617321 Z M39.8487492,65.4206937 C42.2087601,65.3384881 44.328341,65.7748105 46.2074919,66.7296609 C51.2312149,69.2843602 53.0565853,74.0206714 52.8161552,79.4588926 C52.6168514,83.945425 49.5039147,88.6785745 45.0844303,90.2468057 C35.4261013,93.6773115 27.2672967,85.5357885 28.8554006,75.9461811 C29.4912748,72.1141322 31.3862434,69.2116398 34.6035774,67.2545125 C34.8073724,67.1302908 34.9592301,66.9346743 35.0306571,66.7043669 C35.7477293,64.3646671 36.8728998,62.1788394 38.4061688,60.1468839 C38.4162545,60.1326439 38.4170301,60.1138111 38.4081494,60.0987908 C38.3992688,60.0837705 38.3823886,60.0753649 38.3650426,60.077044 C32.8857678,61.0005582 28.6318428,63.7997666 25.6032675,68.4749505 C23.7578613,71.3184235 22.8741753,74.6055963 22.9522096,78.336469 C23.1451864,87.594092 29.0641951,95.2487045 38.5548558,96.2952459 C50.7535183,97.6421541 59.7000478,87.69843 58.3998273,75.8861077 C57.615266,68.7405381 53.4235575,63.1157733 46.5365014,60.8519556 C46.4329142,60.8167003 46.3227333,60.8090684 46.2169825,60.8298233 C43.8886071,61.2598222 41.2470399,63.4888605 39.7696604,65.2626059 C39.7465327,65.2923947 39.7425527,65.3328016 39.7594244,65.3665259 C39.7762961,65.4002501 39.811028,65.421312 39.8487492,65.4206937 L39.8487492,65.4206937 Z M40.9148667,62.6952596 L41.2185679,62.4802602 C41.2343182,62.4699642 41.245225,62.4537322 41.2488012,62.4352654 C41.2523775,62.4167986 41.2483183,62.3976716 41.2375492,62.3822457 L41.1995866,62.3284959 C40.7917417,61.7527509 40.3792686,61.2158955 40.0537619,60.837145 C39.7282552,60.4583945 39.5166584,60.2690995 39.4659592,60.3112952 L39.4501414,60.3239423 C39.3400851,60.4040571 39.9346539,61.4340576 40.7788339,62.625701 L40.8167966,62.6794509 C40.827594,62.6946891 40.844068,62.7049489 40.8625125,62.7079222 C40.8809571,62.7108954 40.8998232,62.7063324 40.9148667,62.6952596 L40.9148667,62.6952596 Z M39.2170508,60.9330547 C39.1609546,60.8343725 39.0354393,60.7998194 38.9366967,60.8558762 L38.9201829,60.8652666 C38.8214447,60.9213309 38.786872,61.046775 38.8429606,61.1454615 L39.974279,63.1358504 C40.0303752,63.2345326 40.1558905,63.2690856 40.2546331,63.2130289 L40.2711469,63.2036385 C40.3698852,63.1475742 40.4044578,63.0221301 40.3483692,62.9234436 L39.2170508,60.9330547 Z M38.7478326,62.7901123 C39.1738578,63.456189 39.3900339,63.7934431 39.396361,63.8018744 C39.4121631,63.8223746 39.437005,63.8338459 39.4628671,63.8325851 C39.4887293,63.8313242 39.5123361,63.8174909 39.5260667,63.7955509 C39.8012959,63.3718755 39.5039219,62.9829795 39.1970572,62.5023925 C38.773141,61.8363158 38.5580193,61.4990618 38.5516922,61.4906304 C38.5358901,61.4701302 38.5110483,61.4586589 38.4851861,61.4599198 C38.459324,61.4611806 38.4357172,61.4750139 38.4219865,61.4969539 C38.1467574,61.9206293 38.4409679,62.3095254 38.7478326,62.7901123 Z M38.2375514,62.5121307 C38.2095291,62.4605419 38.1621486,62.4221921 38.1058339,62.4055184 C38.0495191,62.3888446 37.9888834,62.3952129 37.9372669,62.4232221 L37.9150271,62.4353 C37.8075493,62.4936316 37.7677351,62.6279971 37.8260996,62.7354139 L38.7076554,64.3580906 C38.7356777,64.4096794 38.7830582,64.4480292 38.8393729,64.464703 C38.8956877,64.4813767 38.9563233,64.4750084 39.0079399,64.4469992 L39.0301797,64.4349213 C39.1376575,64.3765897 39.1774717,64.2422243 39.1191072,64.1348074 L38.2375514,62.5121307 Z M37.7576403,64.3931229 C38.038142,64.9011118 38.182611,65.1614297 38.1910471,65.1740767 C38.2624021,65.2721462 38.3956849,65.3017166 38.5018569,65.2430337 C38.6080288,65.1843507 38.6538184,65.055804 38.6086362,64.9432685 C38.477876,64.612338 38.3555519,64.3414809 38.241664,64.1306971 C37.9569442,63.6248161 37.8103662,63.365552 37.80193,63.352905 C37.7305751,63.2548356 37.5972922,63.2252651 37.4911203,63.2839481 C37.3849484,63.342631 37.3391588,63.4711777 37.384341,63.5837132 C37.5151012,63.9146437 37.6395343,64.1844469 37.7576403,64.3931229 Z M37.0124652,64.0704024 C36.8793008,64.1277705 37.0043915,64.7150744 37.2918703,65.3822152 C37.4299329,65.7026098 37.5877493,65.998944 37.7306003,66.2060249 C37.8734513,66.4131058 37.9896348,66.5139698 38.0535907,66.486427 C38.1867552,66.4290589 38.0616644,65.841755 37.7741857,65.1746142 C37.6361231,64.8542196 37.4783067,64.5578854 37.3354557,64.3508045 C37.1926047,64.1437236 37.0764212,64.0428596 37.0124652,64.0704024 Z M37.9000002,67.4726737 L36.7294854,64.9970184 C36.7253456,64.9877456 36.7176596,64.9805182 36.7081468,64.9769529 C36.6986339,64.9733876 36.6880882,64.973782 36.6788685,64.9780478 L36.6662143,64.9843713 C36.4481284,65.0868183 36.4198092,65.4844771 36.6029432,65.8728249 L37.1407473,67.0110573 C37.2291364,67.1975632 37.3554719,67.3566591 37.49194,67.4533185 C37.628408,67.5499779 37.7638203,67.5762762 37.8683647,67.5264236 L37.8810189,67.5232618 C37.8902969,67.5191244 37.8975284,67.5114427 37.9010957,67.5019353 C37.904663,67.4924279 37.9042684,67.4818881 37.9000002,67.4726737 Z M36.1252466,66.2585592 C35.9375425,66.6927738 36.0071406,67.0479444 36.3340412,67.3240711 C36.3996351,67.3772829 36.4453277,67.450795 36.4637469,67.5327471 C36.5670896,67.9522068 36.7273763,68.3158088 36.944607,68.6235531 C37.0082838,68.7327675 37.1480132,68.770474 37.2580374,68.7081335 C37.3680617,68.645793 37.4074446,68.5066002 37.3463783,68.3959066 L36.3783309,66.2585592 C36.3555192,66.2079118 36.3049727,66.1750555 36.249868,66.1750555 C36.1947632,66.1750555 36.1457283,66.2079118 36.1252466,66.2585592 L36.1252466,66.2585592 Z M39.687408,66.3091473 C39.6398959,66.307925 39.5965744,66.3352526 39.576767,66.3789405 C39.5569597,66.4226284 39.5643592,66.474532 39.5956649,66.5114997 L40.9781378,68.1903924 C41.026934,68.2488715 41.0918339,68.291747 41.1647875,68.3137009 L41.4748157,68.4085536 C41.5156652,68.4239271 41.5617392,68.4094713 41.586468,68.3735226 C41.6111968,68.3375739 41.6082029,68.2894032 41.579213,68.2567893 C40.8389415,67.3683357 40.0701979,66.3091473 39.687408,66.3091473 Z M42.1897788,68.3453185 L42.4586809,68.1239955 C42.4916107,68.0959189 42.4958403,68.0466019 42.4681715,68.0133341 L41.2913296,66.5937054 C41.1941868,66.4766348 41.0913505,66.3723054 41.0057642,66.3039941 C40.920178,66.2356828 40.8589634,66.2090737 40.8357779,66.2301034 L40.6269834,66.404 C40.5801019,66.4479097 40.7028351,66.6763175 40.9022125,66.9162046 L42.0790545,68.3358332 C42.107147,68.3687444 42.1564921,68.3729715 42.1897788,68.3453185 Z M41.79057,66.3698847 C41.6857809,66.4623141 41.9763796,66.9629645 42.4396679,67.4881663 C42.6621733,67.7404067 42.8955681,67.9646917 43.0885048,68.1116778 C43.2814415,68.258664 43.4181145,68.3163102 43.4684555,68.2719341 C43.5732446,68.1795046 43.282646,67.6788542 42.8193576,67.1536525 C42.5968522,66.9014121 42.3634574,66.6771271 42.1705207,66.5301409 C41.9775841,66.3831548 41.840911,66.3255086 41.79057,66.3698847 L41.79057,66.3698847 Z M42.975827,66.6283582 C42.9300227,66.672698 42.974934,66.8068468 43.1006807,67.001292 C43.2264273,67.1957373 43.4227083,67.4345504 43.6463422,67.6651931 C44.1120267,68.1454674 44.5668371,68.4599352 44.6621908,68.3675773 C44.7079951,68.3232375 44.6630838,68.1890887 44.5373371,67.9946435 C44.4115905,67.8001982 44.2153095,67.5613851 43.9916757,67.3307425 C43.5259912,66.8504681 43.0711807,66.5360003 42.975827,66.6283582 L42.975827,66.6283582 Z M38.6719073,66.988925 L37.6216075,69.9388438 C37.574501,70.0761029 37.4832944,70.1939372 37.3621961,70.27399 C33.5427324,72.8624146 31.8175412,76.4204446 32.1866225,80.9480799 C32.395417,83.4932938 33.5754225,86.1175517 35.2457788,88.0493849 C35.8088913,88.6985989 36.262334,89.0917107 36.6061068,89.2287201 C41.0255911,90.983495 45.7899028,90.0128357 48.9502928,86.3483599 C51.1268176,83.8231704 52.0864289,80.7868303 51.8291265,77.2393395 C51.6836031,75.2284624 51.1521261,72.5789104 49.4532978,71.2446492 C48.3713625,70.3951906 47.4644771,69.845045 46.7326417,69.5942123 C44.9821421,68.9976942 43.1599353,68.832229 41.2660212,69.0978165 C41.0788735,69.1236121 40.8904251,69.0604417 40.7566891,68.9270817 L38.7921223,66.9636309 C38.7747288,66.945819 38.7494289,66.9381346 38.7250601,66.943262 C38.7006913,66.9483894 38.6806389,66.9656162 38.6719073,66.988925 Z M45.568454,68.3864213 L45.7234682,68.2283335 C45.7344591,68.2166344 45.7403097,68.2010266 45.7397154,68.1849898 C45.7391211,68.168953 45.7321314,68.1538205 45.7203046,68.1429661 L45.6918326,68.1145103 C45.0336628,67.4814721 44.4592827,67.0092208 44.4074299,67.0584836 L44.3504859,67.118557 C44.3099447,67.1779011 44.80169,67.7299203 45.4545661,68.3579655 L45.4830381,68.3895831 C45.4947438,68.4005678 45.5103605,68.406415 45.5264064,68.4058211 C45.5424523,68.4052271 45.5575934,68.3982414 45.568454,68.3864213 L45.568454,68.3864213 Z M35.965677,67.607902 C35.909945,67.4952006 35.7733564,67.4489845 35.6605839,67.5046707 L35.6322068,67.5186773 C35.5780464,67.5454256 35.5367365,67.5925821 35.5173657,67.6497721 C35.4979949,67.7069622 35.50215,67.7695006 35.5289168,67.8236287 L36.3923771,69.5696455 C36.4481091,69.6823468 36.5846978,69.728563 36.6974702,69.6728768 L36.7258473,69.6588702 C36.7800078,69.6321219 36.8213176,69.5849654 36.8406884,69.5277753 C36.8600592,69.4705853 36.8559041,69.4080469 36.8291373,69.3539188 L35.965677,67.607902 Z M35.3093345,68.2010475 C35.2416736,68.0689236 35.0796564,68.0166331 34.9474557,68.0842523 L34.8685883,68.1245647 C34.7363893,68.1921872 34.684069,68.3541124 34.7517266,68.486238 L35.656756,70.2538496 C35.724417,70.3859735 35.8864342,70.438264 36.0186349,70.3706448 L36.0975023,70.3303325 C36.2297013,70.2627099 36.2820216,70.1007847 36.214364,69.9686591 L35.3093345,68.2010475 Z M47.0300158,68.4496565 C46.9435453,68.3042157 46.8813288,68.2167404 46.8433661,68.1872307 C46.8219226,68.171584 46.7927477,68.1718517 46.7715952,68.1878893 C46.7504427,68.2039269 46.7423241,68.2319347 46.7516231,68.2567893 C46.8127851,68.416985 46.86762,68.5160533 46.9161278,68.5539944 C46.9465149,68.5753424 46.9876717,68.5726804 47.015052,68.547596 C47.0424323,68.5225116 47.0486579,68.4817644 47.0300158,68.4496565 Z M46.3466882,68.5223769 C46.3382521,68.4001223 46.2264732,68.2957843 46.0113515,68.209363 C45.9666522,68.1937996 45.9171292,68.2112707 45.8921103,68.2514297 C45.8670914,68.2915887 45.8732564,68.3437137 45.9069543,68.3769361 L46.1695292,68.610906 C46.2023833,68.638919 46.2488156,68.6445773 46.2874421,68.625275 C46.3260687,68.6059727 46.3493989,68.565453 46.3466882,68.5223769 Z M34.2998762,68.5634797 L33.7905441,68.8006114 C33.772206,68.8082276 33.7577794,68.8230039 33.7506106,68.8415127 C33.7434418,68.8600216 33.7441538,68.8806546 33.7525815,68.8986259 L34.5877596,70.6723713 C34.6617459,70.8295496 34.7619982,70.9665163 34.8664331,71.0531006 C34.9708681,71.1396849 35.0709183,71.1687839 35.144545,71.1339877 L35.2331245,71.0928849 C35.3840993,71.0184993 35.3826879,70.6968892 35.229961,70.3720044 L34.3947829,68.598259 C34.3776836,68.5630108 34.3357209,68.5476332 34.2998762,68.5634797 Z M57.3515838,68.9186714 C57.3256277,68.9437164 57.3505156,69.0192564 57.4207723,69.128673 C57.491029,69.2380895 57.6008992,69.3724193 57.7262118,69.5021103 C57.9871394,69.772155 58.2424743,69.9487977 58.2965373,69.8966659 C58.3224934,69.871621 58.2976055,69.7960809 58.2273488,69.6866644 C58.1570921,69.5772478 58.0472218,69.442918 57.9219092,69.313227 C57.6609817,69.0431824 57.4056468,68.8665397 57.3515838,68.9186714 L57.3515838,68.9186714 Z M47.7702873,69.0851695 C47.7597421,69.0704146 47.7481424,69.0598755 47.7354882,69.0535519 C47.7284544,69.0499865 47.7202526,69.0517249 47.714711,69.0579557 C47.7091694,69.0641864 47.7073807,69.073681 47.7101798,69.0820078 C47.7165069,69.1030861 47.7217795,69.1157332 47.7259976,69.1199488 C47.7362499,69.1296353 47.7520538,69.1303571 47.7631475,69.1216456 C47.7742411,69.1129342 47.7772785,69.0974169 47.7702873,69.0851695 L47.7702873,69.0851695 Z M33.4077541,69.2748749 L32.9332211,69.5183301 C32.8927078,69.5406036 32.877284,69.5910528 32.898422,69.6321534 L33.7114553,71.2161934 C33.9346354,71.6498075 34.2359093,71.9396012 34.3852922,71.8643535 L34.4707081,71.8200889 C34.5432377,71.7844194 34.5699955,71.6666063 34.5450575,71.4927328 C34.5201195,71.3188593 34.445543,71.1032696 34.3378389,70.8936942 L33.5216421,69.3096542 C33.499356,69.2691639 33.4488781,69.2537489 33.4077541,69.2748749 L33.4077541,69.2748749 Z M32.5630853,70.6312684 C32.8161696,71.2783746 33.1926325,71.8369516 33.692474,72.3069994 C33.7460809,72.3591429 33.8301026,72.3633642 33.8886715,72.3168564 C33.9472404,72.2703487 33.9621186,72.187594 33.9234134,72.1236175 L32.6801368,69.9704613 C32.6641214,69.9438251 32.6353048,69.9275316 32.6042115,69.9275316 C32.5731183,69.9275316 32.5443017,69.9438251 32.5282862,69.9704613 L32.0157906,70.8620767 C32.000415,70.887583 31.9992154,70.9187555 32.012627,70.9442823 L33.1167072,73.0183946 C33.1457927,73.0756096 33.2040441,73.1121636 33.268243,73.1134866 C33.3324419,73.1148095 33.3921514,73.0806863 33.4235719,73.0247181 L33.5374598,72.8286892 C33.5955258,72.7297889 33.5918441,72.6059091 33.5279692,72.5093518 L32.3637815,70.7261211 C32.3453308,70.6967265 32.355213,70.65722 32.3859263,70.6375919 L32.4586881,70.5964891 C32.4768506,70.5857132 32.4988021,70.5833569 32.51884,70.5900325 C32.5388779,70.596708 32.5550245,70.6117564 32.5630853,70.6312684 Z M57.9653765,70.2940355 C57.8978009,70.3547185 58.1068915,70.6978241 58.4324119,71.0604136 C58.5887509,71.2345565 58.7515866,71.3899962 58.8850941,71.4925351 C59.0186015,71.595074 59.1118435,71.6363119 59.1443063,71.6071762 C59.2118819,71.5464932 59.0027914,71.2033876 58.6772709,70.840798 C58.5209319,70.6666552 58.3580962,70.5112155 58.2245888,70.4086766 C58.0910813,70.3061377 57.9978393,70.2648998 57.9653765,70.2940355 L57.9653765,70.2940355 Z M31.8512858,72.7306747 C32.3574544,73.5695941 32.6147567,73.9943234 32.6231929,74.0048626 C32.6432571,74.0303287 32.6740428,74.045035 32.7059781,74.0444284 C32.7379135,74.0437834 32.7671264,74.0279013 32.7845341,74.0017009 C33.1388521,73.4863345 32.7876976,72.9931005 32.4207254,72.389205 C31.9166659,71.5481778 31.6604181,71.1223946 31.6519819,71.1118554 C31.6318585,71.0876437 31.6018755,71.0738084 31.570872,71.0744081 C31.5398685,71.0750478 31.5113797,71.0900519 31.4938042,71.1150172 C31.1363227,71.6303835 31.4906407,72.1204557 31.8512858,72.7306747 Z M58.4947339,71.9086181 L58.7035284,72.1141322 C58.7308625,72.1392253 58.7719785,72.1419462 58.8023843,72.1206742 C58.8327902,72.0994022 58.8443054,72.0598604 58.8300706,72.025603 C58.7857808,71.934966 58.7035284,71.856976 58.5833134,71.7916331 C58.5501289,71.775611 58.5094393,71.7852711 58.4873762,71.8144093 C58.4653131,71.8435476 58.4684337,71.8835041 58.4947339,71.9086181 L58.4947339,71.9086181 Z M59.4311457,72.1394263 C59.3805289,72.0150639 59.3425662,71.9433974 59.3172578,71.9244268 C59.2867473,71.8978619 59.2427596,71.8950685 59.2086828,71.917532 C59.1746059,71.9399955 59.1583551,71.982498 59.1685708,72.0224413 C59.1875521,72.0941078 59.242387,72.1594507 59.3330756,72.2184702 C59.3571364,72.2338455 59.388337,72.232132 59.4105674,72.2142145 C59.4327977,72.196297 59.4410832,72.1661849 59.4311457,72.1394263 L59.4311457,72.1394263 Z M31.3166452,73.7708926 C31.8671036,74.5655474 32.1465508,74.9681444 32.1549869,74.9786836 C32.1754056,75.0025159 32.2060062,75.015138 32.2372997,75.0126359 C32.2685931,75.0101339 32.2967967,74.9928101 32.3131646,74.9660366 C32.6326835,74.4348615 32.2530571,73.973245 31.8544493,73.4009671 C31.3061001,72.6042045 31.0277073,72.2005536 31.0192712,72.1900144 C30.9988525,72.1661821 30.9682519,72.15356 30.9369585,72.1560621 C30.905665,72.1585641 30.8774615,72.1758879 30.8610935,72.2026614 C30.5447382,72.7338365 30.921201,73.1954529 31.3166452,73.7708926 Z M58.772747,72.413677 C58.6808333,72.4889093 58.9265693,72.9409341 59.3216235,73.4233207 C59.5113456,73.6549843 59.7108365,73.8628115 59.8762085,74.0010809 C60.0415806,74.1393502 60.1592869,74.196735 60.2034324,74.1606107 C60.2953461,74.0853785 60.0496101,73.6333537 59.6545559,73.150967 C59.4648338,72.9193035 59.265343,72.7114763 59.0999709,72.5732069 C58.9345988,72.4349375 58.8168925,72.3775527 58.772747,72.413677 L58.772747,72.413677 Z M30.3722296,73.5343932 C30.2926103,73.5888674 30.3047553,73.7702945 30.405993,74.0387622 C30.5072306,74.30723 30.6892679,74.6407467 30.9120584,74.9659417 C31.3759919,75.6431123 31.8864777,76.1000972 32.0522663,75.9866516 C32.1318857,75.9321774 32.1197406,75.7507504 32.018503,75.4822826 C31.9172653,75.2138149 31.735228,74.8802982 31.5124376,74.5551031 C31.048504,73.8779326 30.5380182,73.4209476 30.3722296,73.5343932 L30.3722296,73.5343932 Z M59.051456,73.8606233 C59.0115038,73.8952139 59.0521864,74.019534 59.1645539,74.2062345 C59.2769215,74.392935 59.4517694,74.6267222 59.6506331,74.8561655 C59.849505,75.0856198 60.0561044,75.2919344 60.2249779,75.4297184 C60.3938514,75.5675024 60.5111643,75.6254682 60.551107,75.5908629 C60.5910592,75.5562723 60.5503767,75.4319522 60.4380091,75.2452517 C60.3256416,75.0585512 60.1507936,74.8247639 59.9519299,74.5953206 C59.753058,74.3658664 59.5464586,74.1595518 59.3775851,74.0217678 C59.2087116,73.8839838 59.0913987,73.826018 59.051456,73.8606233 L59.051456,73.8606233 Z M31.155304,75.765961 C30.5521198,75.0092473 30.2452551,74.6256208 30.2347099,74.6150816 C30.2124473,74.5936456 30.181375,74.5839552 30.1508654,74.5889336 C30.1203557,74.5939119 30.0939807,74.6129761 30.0796958,74.6403757 C29.7981395,75.1905213 30.2062379,75.6268437 30.6396448,76.1738276 C31.242829,76.934757 31.5486392,77.3194373 31.5570753,77.3278687 C31.579333,77.3506373 31.6112677,77.3611853 31.6427174,77.3561562 C31.6741671,77.3511271 31.7012146,77.3311473 31.715253,77.3025746 C31.9968093,76.752429 31.5887108,76.3161066 31.155304,75.765961 Z M59.3033698,75.2267234 C59.1937439,75.3161589 59.4566414,75.8197148 59.8905886,76.3514867 C60.0989941,76.6068725 60.3197861,76.8347449 60.504392,76.9849736 C60.6889978,77.1352024 60.8222953,77.1954812 60.87496,77.1525493 C60.9845859,77.0631138 60.7216884,76.5595579 60.2877411,76.027786 C60.0793356,75.7724002 59.8585436,75.5445278 59.6739378,75.3942991 C59.4893319,75.2440703 59.3560344,75.1837915 59.3033698,75.2267234 L59.3033698,75.2267234 Z M29.74515,75.9226576 C29.5947455,76.0214119 29.8732879,76.710776 30.3672944,77.4624014 C30.6045343,77.82336 30.8607524,78.1506954 31.0795801,78.3723931 C31.2984077,78.5940909 31.4619185,78.6919893 31.5341395,78.6445506 C31.6845441,78.5457963 31.4060016,77.8564322 30.9119951,77.1048068 C30.6747552,76.7438482 30.4185371,76.4165128 30.1997095,76.1948151 C29.9808818,75.9731173 29.8173711,75.8752189 29.74515,75.9226576 Z M60.1397817,77.8969848 C60.5932244,78.3649248 60.8663445,78.6452672 60.9591421,78.7380121 C61.021628,78.8046882 61.1236886,78.8152297 61.1984973,78.7627343 C61.2733061,78.7102388 61.2980452,78.6107183 61.2565161,78.5293361 C61.0899023,78.1562489 60.8568539,77.8137253 60.5573708,77.5017653 C60.1018191,77.0359332 59.8265899,76.7566447 59.7316833,76.6638998 C59.6691974,76.5972237 59.5671368,76.5866822 59.4923281,76.6391776 C59.4175193,76.6916731 59.3927803,76.7911935 59.4343093,76.8725757 C59.6030322,77.2435552 59.8381896,77.5850249 60.1397817,77.8969848 Z M30.2442006,79.0099231 C30.9085468,79.8741366 31.2459925,80.3115129 31.2565377,80.3220521 C31.2812139,80.3473975 31.3165243,80.3594294 31.3515527,80.3544282 C31.3865812,80.3494269 31.4171083,80.327995 31.4336967,80.296758 C31.7595427,79.6833773 31.3103181,79.1869815 30.829458,78.5609537 C30.1672208,77.6967403 29.8318841,77.259364 29.823448,77.2488248 C29.7992238,77.2232196 29.7642462,77.2106758 29.7292597,77.2150466 C29.6942733,77.2194175 29.6634613,77.2401803 29.646289,77.2709571 C29.3172794,77.8843378 29.7696675,78.3838953 30.2442006,79.0099231 Z M59.528425,78.0419198 C59.3874078,78.156447 59.6473683,78.7095789 60.1090636,79.2773761 C60.5707619,79.8451704 61.0593525,80.2126084 61.2003631,80.0980732 C61.3413802,79.983546 61.0814198,79.4304141 60.6197244,78.8626169 C60.1580262,78.2948226 59.6694356,77.9273846 59.528425,78.0419198 L59.528425,78.0419198 Z M29.6209805,79.0731583 L29.8297751,80.0785968 C29.8381047,80.1200537 29.8578228,80.1583726 29.886719,80.1892583 L31.4368603,81.9598419 C31.4621145,81.9888483 31.5032153,81.9982462 31.5385767,81.9830999 C31.5739381,81.9679536 31.5954742,81.9317266 31.5918744,81.8934451 C31.5539118,81.3601621 31.393625,80.9470259 31.1110143,80.6540365 C30.5964095,80.1228614 30.1450759,79.5758775 29.7570133,79.0130849 C29.7360998,78.9837731 29.697457,78.9731825 29.6645089,78.9877328 C29.6315607,79.002283 29.6133772,79.0379686 29.6209805,79.0731583 Z M60.5257353,80.2177141 C60.0132396,79.6844312 59.7496101,79.4125201 59.7348469,79.4019809 C59.6164782,79.3077322 59.4475194,79.3154781 59.3380022,79.4201742 C59.228485,79.5248703 59.2115715,79.6948143 59.2982765,79.8193328 C59.566124,80.1860965 59.8044451,80.4801399 60.0132396,80.7014629 C60.5299533,81.2305301 60.7946373,81.5013872 60.8072915,81.5140343 C60.9249586,81.6209821 61.1042924,81.6186493 61.2192934,81.5086749 C61.3342944,81.3987005 61.3463654,81.2179946 61.2470255,81.0935207 C60.979178,80.7288647 60.7387479,80.4369292 60.5257353,80.2177141 Z M31.8512858,83.1360154 L30.035406,80.8374184 C30.0291661,80.8293764 30.0199552,80.8241768 30.0098423,80.8229878 C29.9997295,80.8217987 29.9895627,80.8247198 29.9816256,80.8310949 L29.972135,80.8405801 C29.794463,80.9818086 30.0521726,81.6044889 30.5479017,82.231753 L30.6143363,82.3171204 C30.8531593,82.619123 31.1161912,82.8815799 31.3453214,83.0465074 C31.5744517,83.2114349 31.7508221,83.2652591 31.835468,83.1960887 L31.8449587,83.1897652 C31.8530053,83.1835288 31.8582078,83.1743231 31.8593975,83.164216 C31.8605873,83.154109 31.8576645,83.1439479 31.8512858,83.1360154 L31.8512858,83.1360154 Z M59.2982765,81.0144767 L59.1717343,81.3780787 C59.110214,81.5541106 59.1674168,81.7497599 59.3140943,81.8649892 L60.7123849,82.9399865 C60.7680987,82.9834192 60.8426571,82.9941234 60.9083509,82.9681208 C60.9740447,82.9421183 61.0210524,82.8832964 61.0319038,82.8135162 L61.0635394,82.6238108 C61.1092332,82.342307 60.9974103,82.0592642 60.7724925,81.8871215 L59.5450337,80.9417564 C59.5048088,80.9103687 59.4519029,80.9003053 59.4029538,80.9147308 C59.3540047,80.9291563 59.3150263,80.9662984 59.2982765,81.0144767 L59.2982765,81.0144767 Z M59.7063749,83.5754995 C60.1302911,83.9254006 60.4266106,84.1614784 60.5953335,84.283733 C60.6300506,84.3101906 60.6758636,84.3169191 60.7172654,84.3016409 C60.7586671,84.2863628 60.7901151,84.2511234 60.8009644,84.2078508 C60.8579084,83.9802043 60.8789988,83.8242244 60.8642355,83.7399108 C60.8474022,83.6445172 60.8008818,83.5570643 60.7313663,83.4901321 C60.6786404,83.4416518 60.4825,83.2761866 60.1429453,82.9937363 C59.7211382,82.6417274 59.4248186,82.4056496 59.2539867,82.2855029 C59.2197895,82.2604495 59.175387,82.2541548 59.1350515,82.2686422 C59.0947159,82.2831295 59.0635306,82.3165731 59.0515193,82.3582233 C58.9945753,82.5858697 58.9724305,82.7418497 58.9850847,82.8261632 C59.001918,82.9215569 59.0484384,83.0090098 59.1179539,83.075942 C59.1706798,83.1265301 59.3668202,83.2930493 59.7063749,83.5754995 Z M30.3201259,82.5637374 C30.6280451,83.2782944 30.9950173,83.9317241 31.4210425,84.5240265 C31.5475846,84.698977 31.8365225,84.8876285 32.2878562,85.0899809 C32.3223131,85.1061082 32.3629082,85.1015642 32.3929416,85.0782182 C32.4229751,85.0548721 32.4373744,85.0166669 32.4302161,84.9793194 C32.4196709,84.9202999 32.1402237,84.5493205 31.5918744,83.8663811 C31.3387901,83.5544211 30.9370188,83.1065056 30.3865605,82.5226346 C30.372604,82.5084495 30.3499115,82.5055755 30.3332514,82.515883 C30.3165914,82.5261905 30.3110041,82.5465611 30.3201259,82.5637374 L30.3201259,82.5637374 Z M59.4248186,84.6915995 C59.8487348,85.0225301 60.1461088,85.2449069 60.3169407,85.3587302 C60.3513431,85.3824962 60.3953732,85.3872546 60.4346009,85.371446 C60.4738286,85.3556373 60.503197,85.3212995 60.5130811,85.2796863 C60.5615889,85.0562555 60.5784612,84.9034372 60.5636979,84.8212316 C60.5447284,84.7284073 60.4970995,84.644274 60.4276651,84.5809381 C60.3749392,84.5324578 60.1777444,84.3754239 59.8360806,84.1098364 C59.4142735,83.776798 59.1190085,83.5533672 58.9502856,83.439544 C58.9158832,83.415778 58.8718531,83.4110196 58.8326254,83.4268282 C58.7933977,83.4426368 58.7640293,83.4769746 58.7541453,83.5185879 C58.7035284,83.7420187 58.6856016,83.8948369 58.7003649,83.9770426 C58.7195684,84.0714162 58.7683827,84.1567927 58.8395612,84.2204978 C58.8922871,84.2668703 59.0873729,84.4239042 59.4248186,84.6915995 Z M58.3998273,84.7516729 L58.3302291,85.1089514 C58.2950212,85.2822737 58.373812,85.4588171 58.5263694,85.5484356 L59.9816041,86.3799775 C60.0398637,86.413606 60.1115817,86.4138998 60.1701151,86.3807497 C60.2286486,86.3475996 60.2652507,86.2859593 60.2663239,86.2187279 L60.272651,86.0353461 C60.2790677,85.7651672 60.1368384,85.5136736 59.9025152,85.3808625 L58.621276,84.6504967 C58.5785893,84.6270667 58.5273441,84.6250547 58.4834982,84.6450871 C58.4396524,84.6651195 58.4085317,84.7047632 58.3998273,84.7516729 L58.3998273,84.7516729 Z M31.6194606,85.1339609 C31.5894732,85.1679104 31.6344795,85.2654678 31.7445769,85.4051683 C31.8546744,85.5448688 32.0208428,85.7152668 32.2065212,85.8788707 C32.5931319,86.2195188 32.9571196,86.4383338 33.0195228,86.367615 C33.0495102,86.3336656 33.0045039,86.2361081 32.8944065,86.0964076 C32.784309,85.9567071 32.6181406,85.7863091 32.4324622,85.6227052 C32.0458515,85.2820571 31.6818638,85.0632421 31.6194606,85.1339609 L31.6194606,85.1339609 Z M59.9648689,87.1791747 C60.0400248,87.0719045 60.0139505,86.9240546 59.9066278,86.8489292 L58.3517413,85.7608107 C58.2444019,85.6857039 58.0964662,85.7117779 58.0213081,85.8190503 L57.8471228,86.0676908 C57.7719669,86.174961 57.7980412,86.3228109 57.9053639,86.3979363 L59.4602504,87.4860548 C59.5675898,87.5611616 59.7155255,87.5350876 59.7906836,87.4278152 L59.9648689,87.1791747 Z M59.5616423,88.247216 C59.5917491,88.2027736 59.6029568,88.148198 59.5927997,88.0954963 C59.5826425,88.0427947 59.5519527,87.9962847 59.5074823,87.9661991 L57.8309571,86.8317293 C57.7864894,86.8016397 57.7318827,86.7904383 57.6791511,86.8005896 C57.6264195,86.810741 57.5798831,86.8414134 57.5497804,86.8858586 L57.3582273,87.1686144 C57.3281205,87.2130568 57.3169128,87.2676325 57.3270699,87.3203342 C57.3372271,87.3730358 57.3679169,87.4195458 57.4123873,87.4496314 L59.0889125,88.5841012 C59.1333802,88.6141908 59.1879869,88.6253922 59.2407185,88.6152408 C59.2934501,88.6050895 59.3399865,88.5744171 59.3700892,88.5299719 L59.5616423,88.247216 Z M59.018998,89.3163956 C59.0577698,89.2595924 59.0723755,89.1897223 59.0596022,89.1221561 C59.0468288,89.05459 59.0077226,88.9948626 58.9508867,88.9561135 L57.3410175,87.8585729 C57.284182,87.8198232 57.2142722,87.8052257 57.1466677,87.8179918 C57.0790631,87.8307579 57.0193018,87.8698419 56.9805306,87.9266456 L56.8379176,88.135606 C56.7991458,88.1924093 56.78454,88.2622794 56.7973134,88.3298455 C56.8100868,88.3974116 56.849193,88.457139 56.9060289,88.4958882 L58.5158981,89.5934287 C58.5727336,89.6321785 58.6426434,89.646776 58.7102479,89.6340099 C58.7778525,89.6212437 58.8376138,89.5821598 58.876385,89.5253561 L59.018998,89.3163956 Z M58.5261163,90.2908806 C58.5850856,90.2021641 58.5609375,90.082469 58.4721777,90.0235225 L56.6961904,88.8442189 C56.6535603,88.8159067 56.6014223,88.8056806 56.5512477,88.8157905 C56.501073,88.8259004 56.4569724,88.8555179 56.4286487,88.8981269 L56.2045742,89.2352333 C56.1456049,89.3239499 56.169753,89.4436449 56.2585128,89.5025915 L58.0345001,90.681895 C58.0771302,90.7102072 58.1292682,90.7204333 58.1794429,90.7103234 C58.2296175,90.7002135 58.2737181,90.670596 58.3020418,90.6279871 L58.5261163,90.2908806 Z M57.9154556,91.3513653 C57.9535731,91.296147 57.9681813,91.2280566 57.9560665,91.1620736 C57.9439517,91.0960906 57.9061062,91.03762 57.8508558,90.9995251 L56.1009362,89.7930304 C56.0456826,89.7549377 55.9775508,89.7403428 55.91153,89.7524567 C55.8455092,89.7645707 55.7870077,89.802401 55.7488959,89.8576251 L55.6447201,90.0085674 C55.6066026,90.0637857 55.5919944,90.1318761 55.6041092,90.1978591 C55.6162241,90.2638421 55.6540695,90.3223127 55.7093199,90.3604076 L57.4592395,91.5669023 C57.5144931,91.604995 57.5826249,91.6195899 57.6486457,91.6074759 C57.7146666,91.595362 57.7731681,91.5575316 57.8112798,91.5023076 L57.9154556,91.3513653 Z M57.3931213,92.1246045 C57.4198088,92.0859523 57.4300389,92.0382871 57.4215608,91.992096 C57.4130827,91.945905 57.3865909,91.9049723 57.3479141,91.8783037 L55.4313384,90.5569108 C55.3926604,90.5302415 55.3449654,90.5200223 55.2987478,90.5285016 C55.2525302,90.5369809 55.2115765,90.563464 55.1848976,90.6021239 L54.958577,90.9300297 C54.9318895,90.9686819 54.9216594,91.0163471 54.9301375,91.0625381 C54.9386156,91.1087292 54.9651073,91.1496619 55.0037842,91.1763305 L56.9203598,92.4977234 C56.9590379,92.5243926 57.0067328,92.5346119 57.0529504,92.5261326 C57.0991681,92.5176533 57.1401218,92.4911702 57.1668006,92.4525103 L57.3931213,92.1246045 Z M56.6667694,93.08053 C56.7548766,92.9588896 56.7276402,92.7888967 56.6059342,92.7008346 L54.8326043,91.4178887 C54.7108865,91.3298382 54.5407954,91.3570736 54.4526931,91.4787209 L54.3562364,91.6118941 C54.2681292,91.7335344 54.2953656,91.9035273 54.4170715,91.9915894 L56.1904015,93.2745353 C56.3121192,93.3625858 56.4822103,93.3353505 56.5703126,93.2137031 L56.6667694,93.08053 Z M55.8822714,93.9252248 C55.9319315,93.8607789 55.953941,93.7792559 55.9434576,93.698591 C55.9329742,93.6179261 55.8908568,93.5447276 55.8263714,93.4950995 L54.1069484,92.1717147 C53.9726754,92.0683827 53.7800123,92.093395 53.6766102,92.2275829 L53.6032474,92.3227834 C53.5535872,92.3872293 53.5315778,92.4687524 53.5420611,92.5494172 C53.5525445,92.6300821 53.5946619,92.7032806 53.6591474,92.7529088 L55.3785704,94.0762935 C55.5128434,94.1796255 55.7055064,94.1546132 55.8089085,94.0204253 L55.8822714,93.9252248 Z M52.9774965,92.8426078 L52.6896131,93.2125333 C52.6410133,93.2737427 52.6508997,93.3626697 52.711758,93.411724 L54.3631329,94.7080441 C54.5501305,94.8553123 54.737992,94.9301319 54.7838856,94.8756172 L55.0907503,94.4867212 C55.1331421,94.4292874 55.0157972,94.2639674 54.8281753,94.1167956 L53.1799639,92.8204755 C53.1503538,92.7961412 53.1121755,92.7847705 53.0740676,92.7889362 C53.0359597,92.7931019 53.0011433,92.8124519 52.9774965,92.8426078 L52.9774965,92.8426078 Z M54.0330161,95.310833 C54.0806288,95.2490452 54.1017313,95.1708843 54.091681,95.0935459 C54.0816307,95.0162076 54.041251,94.9460273 53.9794255,94.8984451 L52.3502271,93.6445241 C52.2214925,93.5454534 52.0367758,93.5694323 51.9376364,93.6980842 L51.8333973,93.8333442 C51.7857847,93.8951319 51.7646822,93.9732928 51.7747324,94.0506312 C51.7847827,94.1279696 51.8251624,94.1981499 51.8869879,94.2457321 L53.5161864,95.4996531 C53.644921,95.5987238 53.8296377,95.5747449 53.928777,95.4460929 L54.0330161,95.310833 Z M53.1389959,95.9723041 C53.1826231,95.9148599 53.2016298,95.8424471 53.1918347,95.7709967 C53.1820395,95.6995463 53.1442448,95.6349116 53.0867656,95.5913124 L51.3682284,94.2876254 C51.3107555,94.2440196 51.2383041,94.2250184 51.1668134,94.234802 C51.0953226,94.2445856 51.0306488,94.2823526 50.9870202,94.3397943 L50.8799023,94.4808403 C50.8362751,94.5382844 50.8172683,94.6106972 50.8270635,94.6821476 C50.8368586,94.7535981 50.8746533,94.8182328 50.9321326,94.8618319 L52.6506698,96.165519 C52.7081426,96.2091248 52.780594,96.228126 52.8520848,96.2183424 C52.9235756,96.2085587 52.9882493,96.1707917 53.031878,96.11335 L53.1389959,95.9723041 Z M49.7506718,95.1949546 C49.7032454,95.2223341 49.6718299,95.2707804 49.6661941,95.3252288 C49.6605583,95.3796771 49.6813857,95.4335248 49.7221999,95.4700274 L50.9749671,96.579804 C51.2028898,96.7823482 51.5248651,96.8430637 51.8133088,96.7378918 L52.0094491,96.6651714 C52.0810525,96.6394783 52.1337524,96.5778973 52.1480473,96.5032163 C52.1623422,96.4285353 52.136106,96.3518621 52.0790473,96.3015694 L50.6554482,95.0400285 C50.5034778,94.9075189 50.2847339,94.8859112 50.1113169,94.9862787 L49.7506718,95.1949546 Z M51.0635466,97.098332 L49.2729753,95.6597328 C49.1680052,95.5763999 49.0254485,95.5581338 48.9028395,95.6123065 L48.5263766,95.7830413 C48.4803606,95.8036726 48.4479459,95.8462104 48.440277,95.8960298 C48.4326081,95.9458492 48.4507307,95.9961575 48.488414,96.0296583 L50.0005926,97.3734048 C50.0608496,97.426271 50.1446747,97.4420551 50.2188778,97.4145077 L51.0572195,97.1204643 C51.0616439,97.11809 51.0649963,97.1141044 51.066246,97.1097329 C51.0674957,97.1053615 51.0664931,97.1011272 51.0635466,97.098332 L51.0635466,97.098332 Z M48.1246053,97.3006844 C48.4747052,97.5957817 48.6803362,97.7654626 48.7414983,97.8097272 C48.8218958,97.8687614 48.9193444,97.9008569 49.019891,97.9014182 C49.1084705,97.8993103 49.2634846,97.8487222 49.4849333,97.7496539 C49.526282,97.7316006 49.5559829,97.6942306 49.5642218,97.6498923 C49.5724607,97.605554 49.5581654,97.560018 49.5260595,97.5283309 C49.3720999,97.3765666 49.0768349,97.1173026 48.6402645,96.7505388 C48.2922736,96.4533337 48.0876972,96.2825988 48.0265351,96.2383343 C47.9461376,96.1793001 47.848689,96.1472046 47.7481424,96.1466433 C47.6595629,96.1487512 47.5045488,96.1993393 47.2831001,96.2984076 C47.2417514,96.3164609 47.2120505,96.3538308 47.2038116,96.3981692 C47.1955727,96.4425075 47.209868,96.4880435 47.2419739,96.5197306 C47.3959335,96.6714949 47.690144,96.9318128 48.1246053,97.3006844 Z M34.1732076,96.2784253 C34.1314654,96.3450091 34.4347434,96.6103346 34.8506193,96.871065 C35.2665157,97.1318065 35.6375315,97.2892164 35.6793121,97.2226523 C35.7210543,97.1560685 35.4177763,96.890743 35.0019004,96.6300126 C34.586004,96.3692711 34.2149882,96.2118612 34.1732076,96.2784253 L34.1732076,96.2784253 Z M46.8750017,97.6611247 C47.191357,97.9604376 47.3769522,98.1322264 47.4317871,98.176491 C47.5049653,98.2366747 47.5958014,98.2721028 47.6911985,98.2776672 C47.7755599,98.279775 47.9253014,98.2397261 48.1404231,98.1575204 C48.1796022,98.142135 48.2088741,98.1087039 48.2189356,98.0678523 C48.2289971,98.0270007 48.2185967,97.9838097 48.1910399,97.9520063 C48.0518436,97.800242 47.7861051,97.5388701 47.3938244,97.1678907 C47.0795781,96.8685777 46.8950375,96.695735 46.8402026,96.6493626 C46.7666188,96.5903236 46.6758214,96.5560172 46.5807912,96.5513481 C46.4964297,96.5471325 46.3466882,96.5861275 46.1315666,96.6683331 C46.0929004,96.6843911 46.0643687,96.7181166 46.0549535,96.7588926 C46.0455383,96.7996686 46.0563978,96.8424793 46.0841133,96.8738473 C46.2212006,97.0277195 46.48483,97.2901452 46.8750017,97.6611247 Z M35.9796915,96.8679348 C35.92739,96.9242354 36.0478608,97.1211313 36.2487834,97.3077352 C36.4497256,97.494355 36.6550425,97.6000128 36.7073721,97.5437287 C36.7596737,97.4874281 36.6392029,97.2905322 36.4382803,97.1039283 C36.2373381,96.9173085 36.0320212,96.8116507 35.9796915,96.8679348 L35.9796915,96.8679348 Z M45.7867392,97.9393592 C45.9849886,98.1290646 46.2517816,98.3430102 46.5871183,98.5811958 C46.6997265,98.6690392 46.8608597,98.6561797 46.9580931,98.5515897 C47.0553265,98.4469997 47.0563361,98.2854485 46.9604176,98.1796527 C46.9498724,98.1691135 46.7020607,97.9319818 46.2169825,97.4682575 C46.012406,97.2827678 45.743504,97.0709301 45.4102764,96.8327445 C45.2979817,96.7514462 45.1427092,96.7663325 45.0479264,96.8674839 C44.9531435,96.9686352 44.9484516,97.1244613 45.036977,97.2311258 C45.0475222,97.2437728 45.2974429,97.4798506 45.7867392,97.9393592 Z M44.711131,98.1859763 C45.1255565,98.5906811 45.448239,98.9669301 45.9290991,98.7835482 C45.9536213,98.7736249 45.9718707,98.7525187 45.9781396,98.7268307 C45.9844085,98.7011428 45.9779316,98.6740092 45.9607347,98.6539162 C45.9544076,98.6454849 45.6644152,98.3598729 45.0907574,97.7970802 C44.6794955,97.3923754 44.3536495,97.0161263 43.8759529,97.1995082 C43.8519977,97.2090379 43.8338997,97.2292424 43.8270631,97.2540885 C43.8202266,97.2789345 43.8254427,97.3055468 43.8411538,97.3259785 C43.8495899,97.3344098 44.1395823,97.6210758 44.711131,98.1859763 Z M37.0082261,97.117429 C36.9749125,97.1493457 36.9902577,97.2292462 37.0508855,97.3395524 C37.1115133,97.4498586 37.2124573,97.5815342 37.3315096,97.7056106 C37.4505655,97.8296905 37.5779773,97.9360056 37.6857127,98.0011652 C37.7934482,98.0663247 37.8726811,98.0849906 37.9059793,98.053056 C37.9392929,98.0211394 37.9239477,97.9412389 37.8633199,97.8309327 C37.8026921,97.7206265 37.7017481,97.5889508 37.5826958,97.4648744 C37.4636399,97.3407945 37.3362281,97.2344794 37.2284927,97.1693198 C37.1207572,97.1041603 37.0415243,97.0854944 37.0082261,97.117429 L37.0082261,97.117429 Z M37.9069917,97.2544912 C37.8705648,97.2961806 37.9092298,97.4003344 38.0144796,97.5440368 C38.1197294,97.6877392 38.2829414,97.8592173 38.4682061,98.0207429 C38.6534638,98.1822606 38.8455941,98.3205933 39.0023282,98.4053078 C39.1590622,98.4900223 39.2675606,98.5141789 39.3039536,98.472463 C39.3403805,98.4307736 39.3017155,98.3266198 39.1964657,98.1829174 C39.0912158,98.039215 38.9280039,97.8677369 38.7427392,97.7062113 C38.5574815,97.5446936 38.3653512,97.4063609 38.2086171,97.3216464 C38.051883,97.2369318 37.9433847,97.2127753 37.9069917,97.2544912 L37.9069917,97.2544912 Z M39.0667188,97.3577225 C39.0205248,97.4131233 39.0666168,97.5415264 39.1948548,97.7146843 C39.3230928,97.8878422 39.5229721,98.0915704 39.7505209,98.2810503 C40.2243439,98.6756003 40.686425,98.9019303 40.7826302,98.7865835 C40.8288241,98.7311827 40.7827322,98.6027796 40.6544942,98.4296217 C40.5262561,98.2564638 40.3263768,98.0527357 40.0988281,97.8632558 C39.6250051,97.4687058 39.162924,97.2423757 39.0667188,97.3577225 Z M42.7086016,98.0120796 C42.4428631,97.7296294 42.1475981,97.5061986 41.8228066,97.3417873 C41.7520473,97.3033635 41.663858,97.3217836 41.6144178,97.3853134 C41.5649777,97.4488431 41.5688224,97.5388045 41.6235027,97.5978895 C41.7015371,97.6864187 41.9398581,97.942521 42.3384658,98.3661964 C42.6042043,98.6465388 42.8994693,98.8699696 43.2242608,99.0364887 C43.2950202,99.0749125 43.3832095,99.0564924 43.4326496,98.9929627 C43.4820897,98.9294329 43.478245,98.8394715 43.4235647,98.7803865 C43.3455304,98.6918573 43.1072094,98.435755 42.7086016,98.0120796 Z M43.9771866,97.9488445 C43.6861397,97.6663943 43.3655662,97.4471792 43.0154663,97.2911992 C42.9398751,97.2586696 42.8518182,97.2835215 42.8044169,97.3507626 C42.7570155,97.4180038 42.7632361,97.5092407 42.819326,97.5694337 C42.9057965,97.6579629 43.1694259,97.9151191 43.6102144,98.3409023 C43.9033703,98.6212447 44.2249983,98.8394059 44.5750982,98.9953859 C44.6506894,99.0279155 44.7387463,99.0030636 44.7861477,98.9358224 C44.833549,98.8685813 44.8273284,98.7773444 44.7712385,98.7171513 C44.6847681,98.6286222 44.4200841,98.3725199 43.9771866,97.9488445 Z M40.3595049,97.3718556 C40.3075798,97.4300714 40.3466299,97.5650216 40.4680641,97.747016 C40.5894982,97.9290104 40.7833682,98.1431395 41.0070211,98.3422935 C41.230668,98.5414433 41.4657763,98.7093052 41.6606228,98.80895 C41.8554693,98.9085948 41.9940924,98.9318598 42.0459953,98.8736267 C42.0979205,98.8154108 42.0588703,98.6804607 41.9374361,98.4984663 C41.816002,98.3164719 41.6221321,98.1023427 41.3984792,97.9031888 C41.1748322,97.704039 40.9397239,97.536177 40.7448774,97.4365322 C40.5500309,97.3368874 40.4114078,97.3136224 40.3595049,97.3718556 L40.3595049,97.3718556 Z"></path>
            </g>
        </g>
    </g>
</svg>