<svg width="41px" height="35px" viewBox="0 0 41 35" version="1.1" xmlns="http://www.w3.org/2000/svg" xmlns:xlink="http://www.w3.org/1999/xlink">
    <title>Designed to Be Lived</title>
    <g stroke="none" stroke-width="1" fill="none" fill-rule="evenodd">
        <g transform="translate(-422, -4702)" fill="currentColor">
            <g transform="translate(0, 4602)">
                <g transform="translate(422, 100)">
                    <path d="M13.3243572,35 C10.7429984,34.9788015 8.87518596,34.7244189 7.17526675,33.7916828 C6.08396058,33.1981235 5.18153433,32.3713801 4.57292128,31.2902542 C3.39766849,29.2763922 2.28537567,27.2413317 1.08913622,25.2274697 C-0.107103229,23.2136077 -0.274996485,21.1149515 0.375589882,18.8891041 C1.06814956,16.4936682 2.39030895,14.4374091 4.0272682,12.6143341 C9.71465224,6.25476989 16.703209,2.16345027 24.9929385,0.382772299 C27.3644308,-0.125992835 29.7569097,-0.189588477 32.1284019,0.573559225 C34.1641076,1.20951564 35.7171203,2.41783284 36.7454664,4.36809919 C37.6059194,6.04278442 38.5293323,7.67507256 39.6206385,9.20136797 C41.4674643,11.8087893 41.236611,14.5010048 40.2292515,17.2780145 C39.4947185,19.2282808 38.2984791,20.9241646 36.9133597,22.45046 C31.5617622,28.3648547 25.0768852,32.4561743 17.3328087,34.3640436 C15.8007828,34.766816 14.2267835,34.8728087 13.3243572,35 Z M12.8206775,32.2865859 C13.890997,32.1593947 15.0662498,32.095799 16.1995293,31.8414165 C23.251046,30.2515254 29.1482966,26.6053753 34.1641076,21.4329297 C35.6751469,19.8642372 36.9973063,18.1471549 37.7738126,16.0696973 C38.4663723,14.2254237 38.487359,12.4871428 37.3330928,10.7700605 C36.2417867,9.13777232 35.2344271,7.44188854 34.3320009,5.70360767 C33.6394412,4.38929773 32.6320817,3.62615003 31.2889356,3.22337763 C29.2952032,2.60861976 27.2804841,2.7146125 25.2867517,3.15978199 C17.9414218,4.79207013 11.687398,8.41702172 6.52468038,13.9498426 C4.88772114,15.709322 3.48161512,17.6383898 2.91497538,20.0762227 C2.64214884,21.2633414 2.66313549,22.4080629 3.27174855,23.5103874 C4.40502802,25.5030508 5.62225413,27.4745157 6.71356029,29.5095763 C7.51105326,31.0146731 8.77025268,31.7354237 10.344252,32.0322034 C11.0997716,32.1593947 11.9182512,32.2017918 12.8206775,32.2865859 Z" fill-rule="nonzero"></path>
                    <path d="M11.624438,22.874431 C13.3663306,18.6983171 22.0967799,12.2327602 29.4840831,12.0843704 C27.3224575,16.8752421 17.1439288,23.4043946 11.624438,22.874431 Z" fill-rule="nonzero"></path>
                </g>
            </g>
        </g>
    </g>
</svg>