<svg width="19px" height="16px" viewBox="0 0 19 16" version="1.1" xmlns="http://www.w3.org/2000/svg" xmlns:xlink="http://www.w3.org/1999/xlink">
    <title>Twitter</title>
    <g stroke="none" stroke-width="1" fill="none" fill-rule="evenodd">
        <g transform="translate(-1431, -5133)" fill="currentColor">
            <g transform="translate(0, 4602)">
                <g transform="translate(853, 359)" fill-rule="nonzero">
                    <path d="M595.335209,175.846619 C595.335209,182.765301 590.890675,187.747377 584.353698,187.966027 C581.589228,188.184676 579.695338,187.325697 578,186.02942 C579.893891,186.248069 582.444534,185.60774 583.696945,184.295845 C581.803055,184.295845 580.733923,183.2026 580.107717,181.718909 L581.803055,181.718909 C580.107717,181.062962 578.824759,179.766685 578.824759,177.611429 C579.237138,177.830079 579.664791,178.03311 580.520096,178.03311 C579.038585,177.174131 578.198553,174.362928 579.252412,172.629353 C581.146302,174.784609 583.467846,176.736833 587.301447,176.939864 C586.232315,172.629353 591.745981,170.442862 594.067524,173.269683 C595.136656,173.051034 595.762862,172.629353 596.587621,172.176437 C596.373794,173.269683 595.747588,173.910012 594.892283,174.331693 C595.732315,174.331693 596.373794,174.113044 597,173.691363 C596.801447,174.550342 595.961415,175.424938 595.335209,175.846619 Z"></path>
                </g>
            </g>
        </g>
    </g>
</svg>