<svg width="18px" height="18px" viewBox="0 0 18 18" version="1.1" xmlns="http://www.w3.org/2000/svg" xmlns:xlink="http://www.w3.org/1999/xlink">
    <title>Instagram</title>
    <g stroke="none" stroke-width="1" fill="none" fill-rule="evenodd">
        <g transform="translate(-1249, -5131)" fill="currentColor">
            <g transform="translate(0, 4602)">
                <g transform="translate(853, 359)" fill-rule="nonzero">
                    <path d="M404.997581,175.998722 C403.344995,175.998722 401.996359,177.347383 401.996359,179 C401.996359,180.652617 403.344995,182.001278 404.997581,182.001278 C406.650167,182.001278 407.998803,180.652617 407.998803,179 C407.998803,177.347383 406.650167,175.998722 404.997581,175.998722 Z M413.998995,179 C413.998995,177.75716 414.010253,176.525578 413.940457,175.28499 C413.870661,173.844016 413.541945,172.565152 412.488253,171.51144 C411.432309,170.455477 410.15572,170.129006 408.714773,170.059209 C407.471957,169.989412 406.240398,170.00067 404.999832,170.00067 C403.757016,170.00067 402.525457,169.989412 401.284892,170.059209 C399.843945,170.129006 398.565105,170.457729 397.511412,171.51144 C396.455469,172.567404 396.129004,173.844016 396.059208,175.28499 C395.989412,176.52783 396.00067,177.759412 396.00067,179 C396.00067,180.240588 395.989412,181.474422 396.059208,182.71501 C396.129004,184.155984 396.45772,185.434848 397.511412,186.48856 C398.567356,187.544523 399.843945,187.870994 401.284892,187.940791 C402.527708,188.010588 403.759267,187.99933 404.999832,187.99933 C406.242649,187.99933 407.474208,188.010588 408.714773,187.940791 C410.15572,187.870994 411.43456,187.542271 412.488253,186.48856 C413.544196,185.432596 413.870661,184.155984 413.940457,182.71501 C414.012504,181.474422 413.998995,180.24284 413.998995,179 Z M404.997581,183.61787 C402.442152,183.61787 400.379797,181.555477 400.379797,179 C400.379797,176.444523 402.442152,174.38213 404.997581,174.38213 C407.55301,174.38213 409.615365,176.444523 409.615365,179 C409.615365,181.555477 407.55301,183.61787 404.997581,183.61787 Z M409.804489,175.271482 C409.207847,175.271482 408.726031,174.789655 408.726031,174.193002 C408.726031,173.596349 409.207847,173.114524 409.804489,173.114524 C410.401131,173.114524 410.882949,173.596349 410.882949,174.193002 C410.883307,174.479142 410.769799,174.753666 410.567471,174.955998 C410.365143,175.15833 410.090624,175.27184 409.804489,175.271482 L409.804489,175.271482 Z"></path>
                </g>
            </g>
        </g>
    </g>
</svg>