<svg width="18px" height="18px" viewBox="0 0 18 18" version="1.1" xmlns="http://www.w3.org/2000/svg" xmlns:xlink="http://www.w3.org/1999/xlink">
    <title>Facebook</title>
    <g stroke="none" stroke-width="1" fill="none" fill-rule="evenodd">
        <g transform="translate(-1282, -5131)" fill="currentColor">
            <g transform="translate(0, 4602)">
                <g transform="translate(853, 359)" fill-rule="nonzero">
                    <path d="M447,179.055587 C447,174.052779 442.970089,170 438,170 C433.029911,170 429,174.054801 429,179.055587 C429,183.575295 432.290625,187.320831 436.59375,188 L436.59375,181.673217 L434.309598,181.673217 L434.309598,179.055587 L436.59375,179.055587 L436.59375,177.060528 C436.59375,174.790567 437.937723,173.537339 439.992857,173.537339 C440.977232,173.537339 442.007812,173.713195 442.007812,173.713195 L442.007812,175.940707 L440.872768,175.940707 C439.755804,175.940707 439.40625,176.638069 439.40625,177.355643 L439.40625,179.055587 L441.903348,179.055587 L441.503571,181.673217 L439.40625,181.673217 L439.40625,188 C443.709375,187.322852 447,183.575295 447,179.055587 Z"></path>
                </g>
            </g>
        </g>
    </g>
</svg>