<svg width="37px" height="37px" viewBox="0 0 37 37" version="1.1" xmlns="http://www.w3.org/2000/svg" xmlns:xlink="http://www.w3.org/1999/xlink">
    <title>Footer freedom always icon</title>
    <g stroke="none" stroke-width="1" fill="none" fill-rule="evenodd">
        <g transform="translate(-23, -8748)" fill="currentColor">
            <g transform="translate(0, 8486)">
                <g transform="translate(23.2611, 262.3262)" fill-rule="nonzero">
                    <g>
                        <path d="M26.4253978,6.21943155 C26.573978,6.11581581 26.6833496,6.02642184 26.7535124,5.95124963 C28.193915,4.37466499 29.7385301,2.70868638 31.3873577,0.953313798 C32.043587,0.255431294 32.5914765,-0.497306603 33.5541524,0.435235083 C34.823275,1.66033887 36.3555084,2.52888259 35.8076189,4.47015401 C35.7772478,4.57981607 35.7172997,4.67888618 35.6342753,4.75662107 L30.6970788,9.47418489 C30.653643,9.517106 30.6346155,9.57849322 30.6464697,9.63746145 C30.658324,9.69642968 30.6994635,9.74503727 30.7558918,9.76674699 L33.1207935,10.7023362 C33.2090097,10.7378968 33.2822369,10.8024587 33.3281867,10.8851875 C33.7078917,11.5901809 33.7285278,12.2372714 33.3900951,12.8264589 C33.3096299,12.9650308 33.1869916,13.0740178 33.0403125,13.1373062 C32.6523531,13.3079674 32.1178771,13.4329158 31.4368844,13.5121513 C28.8099038,13.8209669 26.2726904,14.0474993 23.8252442,14.1917487 C23.6732644,14.1993913 23.5259045,14.1440174 23.419744,14.0393726 L22.3642054,13.0001677 C22.3107065,12.9476253 22.2815811,12.8770415 22.283614,12.8051263 C22.3538874,9.53615117 22.7181152,6.30984137 23.3764081,3.12619688 C23.4415907,2.80782738 23.7061277,2.58384598 23.9954923,2.60202312 C24.9426912,2.66602108 25.9053671,5.26555721 26.2396726,6.16457616 C26.2526647,6.19996221 26.2819089,6.22720136 26.3185154,6.23801337 C26.3551219,6.24882539 26.3947665,6.24193306 26.4253978,6.21943155 Z M23.066866,12.4333286 L31.9352472,11.2569852 C31.965239,11.2521995 31.9883825,11.2284321 31.9919741,11.1987289 C31.9955658,11.1690257 31.9787367,11.1405733 31.9507243,11.1289893 L28.4033718,9.7271292 C28.275076,9.67635751 28.1766856,9.57159432 28.1353059,9.44170046 C28.0939261,9.31180661 28.1139231,9.17048741 28.1897878,9.0566744 C28.4332942,8.69503514 28.6757689,8.39536215 28.9172117,8.15765545 C29.4702603,7.6111332 31.3192584,5.80700026 34.4642062,2.74525665 C34.5065463,2.70408693 34.5301189,2.64777289 34.5295461,2.58918752 C34.5289521,2.53060215 34.5042626,2.47475395 34.4611108,2.43440942 L32.8422056,0.919791057 C32.8062571,0.886347745 32.7582959,0.868440317 32.709289,0.87004969 C32.660282,0.871886649 32.6144201,0.893093047 32.5821902,0.928933623 C30.316342,3.41875897 28.5179024,5.36307791 26.3913482,7.1458782 C26.3159564,7.20942482 26.2148067,7.2347818 26.1177271,7.21447161 C26.0206475,7.19416141 25.9387113,7.13050071 25.8960808,7.04226245 L24.3731337,3.87893477 C24.3608209,3.85670516 24.3451844,3.83617904 24.3267024,3.81798434 L24.2090764,3.70827355 C24.1864211,3.68578797 24.1526683,3.67810011 24.1222842,3.68850494 C24.0919002,3.69890977 24.0702788,3.72556016 24.066687,3.7570339 L22.9616217,12.3327604 C22.9584744,12.3608206 22.9686705,12.3887385 22.9892467,12.4084006 C23.009823,12.4280626 23.0384714,12.4372633 23.066866,12.4333286 Z M30.1151397,8.85858548 C30.0367223,8.8016984 30.0057681,8.70214602 30.022277,8.55992833 C30.0272954,8.50911136 30.0616015,8.46593643 30.1108237,8.44849064 C30.1600459,8.43104484 30.2156855,8.44234037 30.2544336,8.47764524 L30.3844413,8.59954612 C30.4531272,8.66451611 30.5627351,8.66316722 30.632075,8.5964986 C30.7785916,8.45428091 30.7754962,8.27752464 30.6227887,8.06622979 C30.6031731,8.03954972 30.6002541,8.0043442 30.6152151,7.97488532 C30.630176,7.94542644 30.6605345,7.92660218 30.6939834,7.92604379 C30.7847824,7.92401211 30.8631997,7.97581998 30.9292354,8.0814674 C30.9598511,8.12975607 31.0129058,8.15983738 31.0706943,8.16167268 C31.1284829,8.16350798 31.1833965,8.13685563 31.2171095,8.09060997 C31.5534786,7.62941833 31.7309494,7.40390171 31.749522,7.41406012 C31.8250612,7.45912609 31.9432852,7.41415547 32.021919,7.31044438 L32.6038582,6.54551639 C32.644454,6.49356588 32.6965704,6.45272736 32.7555338,6.42666304 C32.9557044,6.33930075 33.0630123,6.20419394 33.0774576,6.02134263 C33.0839421,5.91284416 33.1744657,5.8277119 33.2848508,5.82630124 C33.5531206,5.82426955 33.7068599,5.67697266 33.7460685,5.38441057 C33.7606597,5.28233219 33.8543174,5.21046391 33.9565571,5.22289191 C34.1814911,5.25336713 34.3837252,5.10911776 34.5632597,4.79014381 C34.9068514,4.18673448 35.6776112,4.17454439 35.2690157,3.1993374 C35.2498344,3.15140847 35.2089821,3.11507218 35.1582259,3.10079479 C35.1074696,3.08651741 35.0524446,3.09588409 35.0090003,3.12619688 L34.9718552,3.15362457 C34.8593681,3.23409482 34.8182153,3.37969906 34.8728018,3.50408959 C34.9182013,3.60770533 34.9388374,3.71640027 34.9347102,3.83017442 C34.9330198,3.87407199 34.9062469,3.91324862 34.8655819,3.93132925 C34.824917,3.94940988 34.777362,3.94328126 34.7427941,3.91550504 C34.7200943,3.89518822 34.6994582,3.84134867 34.6808857,3.75398638 C34.6627522,3.6684161 34.5848657,3.60891778 34.4958839,3.61266158 C34.406902,3.61640538 34.3323159,3.6823188 34.3187214,3.76922399 C34.2857036,3.96426539 34.2072863,4.0821029 34.0834694,4.12273652 C33.9080622,4.1796236 33.7770227,4.259875 33.6903509,4.36349075 C33.4592262,4.64792612 32.7730745,5.36003039 31.631896,6.49980356 C31.6185437,6.51393394 31.5228943,6.59323447 31.396644,6.69484496 C31.2934633,6.77814389 31.1871871,6.91121901 31.0778156,7.09407032 C30.9993983,7.22409792 30.75486,7.45977295 30.3442008,7.80109539 C30.1997478,7.92299627 29.862347,8.27549296 29.3319982,8.85858548 C29.2487835,8.94946806 29.2270389,9.08029524 29.2762806,9.19381288 L29.3258073,9.30657119 C29.3449561,9.35321414 29.3890123,9.38538013 29.4399073,9.38987695 C29.4908024,9.39437377 29.5399719,9.37044474 29.5672501,9.32790384 C29.7426573,9.06784864 29.9139373,8.94290025 30.08109,8.95305865 C30.1049379,8.95506365 30.127156,8.9409714 30.13516,8.91876372 C30.143164,8.89655604 30.1349374,8.87182799 30.1151397,8.85858548 Z M32.8298239,12.2230496 C32.8298239,12.0985002 32.7272697,11.997533 32.6007627,11.997533 C32.5400119,11.997533 32.4817493,12.0212927 32.438792,12.0635853 C32.3958347,12.1058778 32.3717016,12.1632389 32.3717016,12.2230496 C32.3717016,12.2828603 32.3958347,12.3402214 32.438792,12.3825139 C32.4817493,12.4248065 32.5400119,12.4485662 32.6007627,12.4485662 C32.7272697,12.4485662 32.8298239,12.347599 32.8298239,12.2230496 Z M31.5080791,12.277905 C31.5658603,12.4526296 31.6380868,12.5450711 31.7247586,12.5552295 C31.877466,12.5735146 31.9373108,12.5145959 31.904293,12.3784732 C31.877466,12.2667307 31.7969851,12.1854635 31.6628502,12.1346715 C31.620579,12.1184319 31.5725895,12.1275781 31.5395277,12.1581753 C31.5064658,12.1887725 31.494228,12.2353639 31.5080791,12.277905 L31.5080791,12.277905 Z M30.6289796,12.3601881 C30.6558065,12.5816413 30.7734325,12.679162 30.9818576,12.6527502 C31.0788474,12.6425918 31.1211515,12.5928156 31.1087698,12.5034216 C31.0798792,12.3002535 30.9550306,12.2088278 30.7342239,12.2291446 C30.7023485,12.2321696 30.6731037,12.2478586 30.6532419,12.2725893 C30.6333801,12.29732 30.6246183,12.3289543 30.6289796,12.3601881 L30.6289796,12.3601881 Z M29.7830939,12.4237899 C29.7654811,12.4673462 29.7773784,12.5203992 29.8161682,12.5712766 C29.8549579,12.6221541 29.9174624,12.6666879 29.9899299,12.6950803 C30.0623956,12.7234758 30.1388898,12.733405 30.2025834,12.7226831 C30.266277,12.7119612 30.3119519,12.6814668 30.3295595,12.6379087 C30.3471722,12.5943524 30.3352749,12.5412994 30.2964852,12.490422 C30.2576954,12.4395445 30.195191,12.3950107 30.1227234,12.3666184 C30.0502578,12.3382228 29.9737635,12.3282937 29.9100699,12.3390155 C29.8463764,12.3497374 29.8007014,12.3802318 29.7830939,12.4237899 Z M29.3072348,12.8416965 C29.3771555,12.8489711 29.4392043,12.8074751 29.4610335,12.7388412 C29.4828627,12.6702074 29.4595274,12.5899834 29.4031928,12.5399919 C29.3041394,12.4526296 29.1751635,12.4302811 29.0162652,12.4729464 C28.9713636,12.4835932 28.9369458,12.5191255 28.9282733,12.5637874 C28.9196007,12.6084494 28.9382786,12.6539753 28.9760247,12.6801779 C29.1163505,12.7817619 29.2267538,12.8356015 29.3072348,12.8416965 Z M28.1433565,12.5796097 C28.1014211,12.5796097 28.0621417,12.6000567 28.03901,12.6339096 C28.0158782,12.6677625 28.0120446,12.7104175 28.0288259,12.7472234 C28.0989888,12.9056945 28.2351873,12.9798509 28.4374215,12.9696925 C28.5187565,12.9680746 28.5899863,12.9122607 28.6092152,12.8350794 C28.628444,12.757898 28.5905835,12.6797727 28.5179024,12.6466551 C28.4353579,12.6060215 28.3105092,12.583673 28.1433565,12.5796097 Z M27.2704478,12.7350333 C27.230459,12.7384818 27.1954446,12.7628384 27.1787855,12.798795 C27.1621264,12.8347517 27.1663976,12.8767508 27.1899668,12.908742 C27.2993384,13.0509597 27.4355369,13.1047993 27.5985624,13.0702607 C27.6621328,13.0567325 27.7078914,13.0041824 27.7127614,12.9391123 C27.7176314,12.8740422 27.680555,12.8105861 27.6202303,12.7807461 C27.5335585,12.7401125 27.4169643,12.7248749 27.2704478,12.7350333 Z M26.2903446,12.9638717 C26.2859316,13.0097434 26.3089797,13.0562769 26.3544172,13.0932326 C26.3998548,13.1301884 26.4639587,13.1545384 26.5326232,13.1609244 C26.6755835,13.1742277 26.7989095,13.1075905 26.8080847,13.0120835 C26.8124977,12.9662118 26.7894497,12.9196783 26.7440121,12.8827225 C26.6985745,12.8457667 26.6344706,12.8214168 26.5658061,12.8150307 C26.4228459,12.8017275 26.2995198,12.8683646 26.2903446,12.9638717 L26.2903446,12.9638717 Z M25.8867946,13.0611181 C25.8475859,12.9270271 25.7082919,12.877251 25.4689127,12.9117895 C25.4333259,12.9162579 25.4030475,12.9391996 25.3891108,12.9722548 C25.3751741,13.0053101 25.3796143,13.0436517 25.4008135,13.0733082 C25.5039942,13.2134942 25.6298746,13.2673338 25.7784548,13.2348269 C25.8775083,13.2124784 25.9136215,13.1545754 25.8867946,13.0611181 Z M24.8498285,13.3293 C24.9172128,13.3385803 24.980317,13.2973987 24.9981527,13.2325039 C25.0159885,13.1676092 24.9831739,13.0985832 24.9210232,13.0702607 C24.863242,13.0438488 24.777602,13.0316587 24.6641033,13.0336904 C24.6267743,13.0334323 24.5933948,13.0556291 24.5792477,13.0901179 C24.5651007,13.1246066 24.5729097,13.1647474 24.5990994,13.1921615 C24.6713259,13.2693654 24.7549023,13.3150783 24.8498285,13.3293 Z M23.7323815,13.1586388 C23.7340063,13.2458826 23.7871068,13.3233437 23.8699392,13.3593031 C23.9527716,13.3952624 24.051424,13.3836805 24.1255,13.3293 C24.152327,13.3089832 24.1502634,13.2693654 24.1193092,13.2104467 C24.0677188,13.1088626 23.9903333,13.068229 23.8871526,13.0885458 C23.7819083,13.1088626 23.7303179,13.1322269 23.7323815,13.1586388 Z"></path>
                        <path d="M9.49344486,6.38704526 C9.52464305,6.40995294 9.56501124,6.41708785 9.60185385,6.4062061 C9.63869647,6.39532435 9.66748668,6.36776297 9.67917012,6.33218986 C10.0010939,5.43012339 10.9266248,2.83058726 11.8676328,2.75439921 C12.1553242,2.73256 12.4219359,2.9508653 12.4929078,3.26638288 C13.1883457,6.42971056 13.5928141,9.63976691 13.7063129,12.8965519 C13.7092473,12.9680249 13.6812679,13.0385436 13.6289273,13.0915933 L12.5888659,14.1399408 C12.4850158,14.2455008 12.3400401,14.3030363 12.1895566,14.298412 C9.74830119,14.1846378 7.21727861,13.9906123 4.59648881,13.7163353 C3.9175598,13.6452265 3.38308378,13.5273889 2.99306073,13.3628228 C2.84718305,13.3012869 2.72460441,13.1944888 2.64327815,13.0580706 C2.29865461,12.4749781 2.31000449,11.8299193 2.67732778,11.1228942 C2.72201522,11.0393059 2.794175,10.9736448 2.88162557,10.9369954 L5.2279547,9.97702599 C5.28420544,9.95378146 5.32461831,9.90400556 5.33525573,9.84486499 C5.34589314,9.78572441 5.3252994,9.72531243 5.28057686,9.6844639 L0.300044443,5.04613564 C0.216249887,4.96971134 0.155222839,4.87168167 0.123605446,4.76271611 C-0.445952021,2.8366823 1.06770886,1.95290096 2.31825895,0.715607093 C3.26545778,-0.226077158 3.81953814,0.517518173 4.48195824,1.20321059 C6.14729474,2.93217132 7.70841874,4.57275391 9.16533023,6.12495838 C9.23549311,6.1980989 9.34486465,6.28546119 9.49344486,6.38704526 Z M4.32099634,11.5038344 L12.87674,12.5735146 C12.9105925,12.5775802 12.9444204,12.5657431 12.9685569,12.541386 C12.9926934,12.5170289 13.0044831,12.4828315 13.0005569,12.4485662 L11.8459648,3.9947406 C11.8343142,3.90811218 11.7647157,3.8401573 11.676632,3.8294068 C11.5885482,3.8186563 11.5042023,3.86782246 11.4714189,3.94902778 L10.2084871,7.0483575 C10.1369428,7.22309974 9.98140098,7.35114003 9.79446522,7.3891756 C9.60752946,7.42721117 9.41420023,7.37015522 9.27986081,7.23730385 L3.13235467,1.18187794 C3.07924663,1.12996844 2.99354662,1.12996844 2.94043857,1.18187794 L1.36177385,2.73611408 C1.34097615,2.75617626 1.32925614,2.7836359 1.32925614,2.81230213 C1.32925614,2.84096836 1.34097615,2.86842799 1.36177385,2.88849017 C3.20870839,4.70481319 5.12064677,6.5556748 7.09758899,8.44107498 C7.19251524,8.53250064 7.41332194,8.80373008 7.76000909,9.25476332 C7.83909778,9.35751028 7.8655392,9.4904659 7.83164908,9.61499142 C7.79775897,9.73951695 7.70733865,9.84164486 7.58666551,9.89169538 L4.29004213,11.2722228 C4.2379627,11.2938008 4.20654727,11.3474221 4.21387251,11.4022325 C4.22119776,11.4570429 4.26537996,11.4989476 4.32099634,11.5038344 L4.32099634,11.5038344 Z M0.779834701,3.11095927 C0.459974529,3.47666189 0.424893091,3.864713 0.674590386,4.27511261 C0.874760945,4.60018161 0.99032333,4.76474779 1.02127754,4.76881115 C1.09181683,4.77796283 1.16208819,4.74747498 1.20390738,4.68957559 L1.24105243,4.64081524 C1.26213973,4.61154018 1.26737523,4.57400391 1.25515406,4.53971256 C1.2429329,4.50542121 1.21471274,4.47846484 1.17914401,4.46710649 C0.974846225,4.40615605 0.845870349,4.21111465 0.792216385,3.8819823 C0.778042806,3.79421416 0.788745382,3.70359629 0.823170595,3.61989542 C0.932542138,3.35577686 0.982068874,3.20136908 0.971750804,3.15667209 C0.961698793,3.11706867 0.93014427,3.08623456 0.889844126,3.0766354 C0.849543981,3.06703624 0.807162883,3.0802595 0.779834701,3.11095927 L0.779834701,3.11095927 Z M1.62798006,4.33911057 C1.6486162,4.18876616 1.60115308,4.0170891 1.48559069,3.82407938 C1.46322025,3.78901089 1.42269962,3.76933153 1.38082142,3.77319686 C1.33894322,3.77706219 1.30284388,3.80381352 1.28748375,3.84236451 C1.2070028,4.05162768 1.19462112,4.22533642 1.2503387,4.36349075 C1.28320038,4.4468659 1.36886943,4.50129855 1.45815599,4.49553429 C1.54744255,4.48977004 1.61744955,4.42528709 1.62798006,4.33911057 L1.62798006,4.33911057 Z M2.12324742,5.03699308 L2.00871684,5.50326392 C1.97998672,5.61673496 2.04037143,5.73434316 2.15110621,5.78058841 L2.15420163,5.78058841 C2.27199369,5.82556059 2.40560714,5.77241074 2.46064831,5.65868753 C2.60716491,5.34987199 2.58756057,5.06645245 2.40183531,4.80842894 C2.2861784,4.64586418 2.10052523,4.54092662 1.91205191,4.53158651 C1.72357858,4.5222464 1.55958114,4.60985644 1.47939985,4.76271611 C1.44638203,4.82772991 1.42058685,4.97604264 1.40201433,5.2076543 C1.3967886,5.26041183 1.43665657,5.30778378 1.49178153,5.31431756 L1.59702585,5.32955517 C1.68952644,5.33995352 1.77555383,5.2813177 1.79822822,5.19241669 C1.92204506,4.69465479 2.02935298,4.61135586 2.120152,4.9425199 C2.13030998,4.97241146 2.13138444,5.00520436 2.12324742,5.03699308 L2.12324742,5.03699308 Z M2.98067904,6.38095021 C3.10862311,6.15340191 3.19116767,6.01524759 3.22831272,5.96648724 C3.31090987,5.85347064 3.30602905,5.70274206 3.2161922,5.59218369 C3.12635534,5.48162531 2.9716845,5.43600047 2.83209883,5.47888374 C2.65256442,5.53373914 2.60303768,5.81614283 2.68351863,6.32609482 C2.69415293,6.39317821 2.74674319,6.44678728 2.81411842,6.45922466 C2.88149365,6.47166203 2.94856472,6.44014227 2.98067904,6.38095021 L2.98067904,6.38095021 Z M3.7700114,6.9234091 C3.79703141,6.89388942 3.84074058,6.88575396 3.87684155,6.90352514 C3.91294253,6.92129631 3.93255737,6.96060382 3.92478245,6.99959715 C3.8587468,7.42625021 3.93922775,7.66192523 4.16622529,7.70662222 C4.23585428,7.7217525 4.30754925,7.69543247 4.34885513,7.63957674 C4.47886281,7.46891551 4.5211669,7.22511376 4.47576739,6.90817149 C4.4620077,6.80153373 4.38631235,6.709367 4.28576215,6.67682094 C4.18521194,6.64427488 4.08086431,6.67816535 4.02383593,6.76189044 C3.98875449,6.81065079 3.95883208,6.83401513 3.93406872,6.83198345 C3.90366417,6.82841911 3.87615637,6.81235714 3.85800544,6.78756963 C3.8398545,6.76278213 3.83265969,6.73145308 3.83811066,6.70094001 C3.88351017,6.44697985 3.85152416,6.24584341 3.74215261,6.09753068 C3.70468028,6.04523595 3.64326964,6.01476278 3.57780634,6.01597883 C3.51234304,6.01719487 3.45114835,6.04994555 3.41403799,6.10362572 C3.1952949,6.42463136 3.18394502,6.72430434 3.37998835,7.00264467 C3.41313745,7.04824252 3.46514541,7.07698899 3.52194665,7.08110958 C3.57874789,7.08523017 3.63447383,7.06429915 3.67405335,7.02397732 L3.7700114,6.9234091 Z M4.67077892,7.44148782 C4.52426232,7.69747965 4.52426232,7.95245565 4.67077892,8.2064158 C4.70447109,8.26358728 4.77613587,8.28710589 4.83793165,8.26127119 L5.11342412,8.14546536 C5.1742656,8.11884235 5.24558336,8.13351127 5.29050965,8.18188902 C5.33543593,8.23026677 5.3439019,8.30151097 5.31153107,8.35879189 C5.24549542,8.48272445 5.24033638,8.60462532 5.29605396,8.72449451 C5.33732624,8.80982513 5.41264815,8.85960132 5.5220197,8.87382308 C5.70361773,8.89617158 5.84187987,8.85553795 5.93680611,8.75192221 C5.98351625,8.69678701 6.0638134,8.6848432 6.12525131,8.72389191 C6.18668923,8.76294061 6.21059068,8.84111096 6.18134437,8.90734583 C6.14007209,9.00689821 6.0668138,9.07800705 5.96156948,9.12067235 C5.87727218,9.15496603 5.83313505,9.2435127 5.8566971,9.33106435 C5.88025915,9.41861601 5.96478169,9.48013305 6.05752753,9.47723241 C6.18753522,9.47113737 6.37119686,9.38275923 6.60851247,9.21209801 C6.64604252,9.18571384 6.6697007,9.14421881 6.6732717,9.09851418 C6.67684269,9.05280956 6.65996953,9.00746434 6.627085,8.97439131 C6.31960651,8.6615124 5.99458731,8.37606118 5.65202738,8.11803767 C5.42709345,7.94737644 5.26613156,7.75436673 5.1691417,7.53900851 C5.122775,7.43529413 5.02704886,7.35685869 4.92167177,7.33623827 C4.81629468,7.31561786 4.71924449,7.35633041 4.67077892,7.44148782 L4.67077892,7.44148782 Z M3.1664043,12.5399919 C3.24894886,12.5379602 3.33665246,12.51358 3.42951509,12.4668513 C3.45698596,12.4525212 3.47463061,12.4246342 3.47528144,12.3945186 C3.47593227,12.364403 3.45948102,12.3370681 3.43261051,12.3236178 C3.25101248,12.2220338 3.13132287,12.2382872 3.07354167,12.3723782 C3.057449,12.4106585 3.05910149,12.4544214 3.07792236,12.4883924 C3.09674323,12.5223634 3.13012039,12.5418277 3.1664043,12.5399919 L3.1664043,12.5399919 Z M3.96811835,12.704558 C4.05685375,12.6761145 4.12908024,12.6131324 4.18479782,12.5156117 C4.20778669,12.4730515 4.20518626,12.4215015 4.1780272,12.3813933 C4.15086815,12.3412852 4.10353583,12.319095 4.05479014,12.3236178 C3.89176463,12.3419029 3.79271116,12.3744098 3.75762972,12.4211385 C3.70904176,12.4849064 3.70865987,12.5720056 3.75668469,12.6366702 C3.80470951,12.7013349 3.89015262,12.7287692 3.96811835,12.704558 Z M5.00817981,12.4455187 C4.88436297,12.4658355 4.76673697,12.5115483 4.65530181,12.5826572 C4.60896672,12.6122382 4.58536097,12.6664376 4.59553814,12.7198759 C4.60571531,12.7733143 4.64766073,12.8154129 4.70173313,12.8264589 C4.86063141,12.8569341 4.99476632,12.8254431 5.10413786,12.7319857 C5.15899837,12.6838996 5.18143594,12.6054109 5.1592531,12.5391877 C5.13707025,12.4729644 5.07556789,12.4348315 5.00817981,12.4455187 L5.00817981,12.4455187 Z M6.10705427,12.5674196 C5.8470389,12.5592928 5.67369533,12.6019581 5.58702354,12.6954155 C5.533147,12.751695 5.52444461,12.8366084 5.56581579,12.9023497 C5.60718697,12.968091 5.68828939,12.9982254 5.76346254,12.9757875 C5.90172468,12.9371856 6.03689139,12.8528708 6.16896269,12.7228432 C6.1946453,12.6971249 6.20257066,12.6589449 6.18919639,12.6253683 C6.17582212,12.5917917 6.14364782,12.5690937 6.10705427,12.5674196 Z M7.02948973,12.6710353 C6.75502907,12.6994788 6.61676693,12.7147165 6.61470332,12.7167481 C6.55679726,12.7405863 6.5193791,12.7958637 6.5187069,12.8585492 C6.51805263,12.9212347 6.55426411,12.9800049 6.61160789,13.0093102 C6.82003291,13.1169893 6.9954401,13.0621339 7.13782947,12.8447441 C7.16202295,12.8082377 7.16267724,12.7612723 7.13950984,12.7241263 C7.11634244,12.6869804 7.07350348,12.6663082 7.02948973,12.6710353 Z M8.14006488,12.9247415 C8.12772073,12.8414717 7.95864799,12.796815 7.76242352,12.8249961 C7.66818194,12.8385338 7.58015718,12.8674052 7.51771686,12.9052578 C7.45527654,12.9431105 7.4235364,12.9868431 7.42948004,13.0268335 C7.44182419,13.1101033 7.61089693,13.15476 7.8071214,13.1265789 C7.90136298,13.1130412 7.98938774,13.0841698 8.05182806,13.0463172 C8.11426838,13.0084645 8.14600852,12.9647319 8.14006488,12.9247415 L8.14006488,12.9247415 Z M8.31408945,13.1037834 C8.51426001,13.227716 8.70514431,13.2399061 8.88674234,13.1403537 C8.93213457,13.1150994 8.96159714,13.0689556 8.96474105,13.0181933 C8.96788496,12.967431 8.94426858,12.9191809 8.90221945,12.8904569 C8.88983776,12.8802985 8.70514431,12.9006153 8.34813908,12.9514073 C8.31243082,12.9551883 8.28316841,12.9810065 8.27545182,13.0155391 C8.26773523,13.0500718 8.28328995,13.0855971 8.31408945,13.1037834 L8.31408945,13.1037834 Z M9.82775033,12.9544548 L9.39129597,13.0123578 C9.32875946,13.0184768 9.28018914,13.068734 9.27708948,13.1305308 C9.27398982,13.1923277 9.31729439,13.2470517 9.37891428,13.259207 C9.52955811,13.2957773 9.69774265,13.233811 9.88346791,13.0733082 C9.90886164,13.0542651 9.91741207,13.0204117 9.90403517,12.9918769 C9.89065828,12.9633421 9.8589444,12.9477847 9.82775033,12.9544548 L9.82775033,12.9544548 Z M10.6480369,13.0245478 C10.4065941,13.0915933 10.2714273,13.1657497 10.2425367,13.2470169 C10.2300723,13.2849576 10.2394988,13.3265693 10.2671574,13.3556997 C10.294816,13.3848301 10.336351,13.3968918 10.3756398,13.3872029 C10.5531107,13.3404743 10.6769275,13.2642862 10.7470904,13.1586388 C10.7679391,13.1278569 10.7671061,13.0875474 10.745003,13.0576259 C10.7228998,13.0277043 10.6842052,13.0145044 10.6480369,13.0245478 L10.6480369,13.0245478 Z M11.6292854,13.1952091 C11.4167331,13.1931774 11.2681529,13.2124784 11.1835447,13.253112 C11.1337229,13.2771615 11.1069686,13.3315507 11.1186951,13.3849463 C11.1304215,13.4383418 11.1776084,13.4769912 11.2330715,13.4786286 C11.3568883,13.4806603 11.5013413,13.4278366 11.6664304,13.3201575 C11.6935165,13.304657 11.7063661,13.2729625 11.6975657,13.2433598 C11.6887653,13.2137571 11.6605859,13.1938852 11.6292854,13.1952091 Z M12.6569651,13.2073992 L12.1586024,13.253112 C12.1032155,13.25861 12.0583648,13.2998234 12.048979,13.353845 C12.0395932,13.4078666 12.0679802,13.4614136 12.1183619,13.4847236 C12.1575705,13.5050405 12.347423,13.4705019 12.6879193,13.3811079 C12.7338098,13.3700277 12.7631198,13.325821 12.754955,13.2800016 C12.7467902,13.2341823 12.703946,13.2024382 12.6569651,13.2073992 Z"></path>
                        <path d="M30.4587314,26.1227968 C30.4303749,26.1341177 30.4102039,26.1592223 30.4051949,26.1894275 C30.400186,26.2196327 30.4110269,26.2507909 30.433968,26.2721253 L35.7549968,31.2548235 C35.9181524,31.405759 36.0072719,31.6190017 35.999535,31.8399477 L35.9469129,33.3454235 C35.9389534,33.5489244 35.8512812,33.7412222 35.7023746,33.8817874 C35.1926619,34.3653275 34.5250828,34.942325 33.6996372,35.6127798 C33.1579385,36.0546705 32.631717,35.8352489 32.1302587,35.3872632 C30.3679324,33.8127102 28.5942561,32.1020346 26.80923,30.2552364 C26.7798388,30.2253218 26.7372478,30.211779 26.6956361,30.2191165 C26.6540244,30.2264541 26.6188552,30.2537085 26.6018368,30.2918066 C26.3294398,30.8931843 26.0085478,31.6520172 25.6391609,32.5683055 C25.4864534,32.9461982 25.2078656,33.1473346 24.8033972,33.1717148 C23.8025444,33.2346969 23.2278279,32.7989013 23.0792477,31.8643279 C22.7057336,29.5136727 22.3910324,26.968992 22.1351443,24.2302857 C22.040218,23.2063183 22.2507067,22.3459013 22.7666102,21.6490347 C22.8306774,21.5629983 22.9329525,21.5120864 23.0421026,21.5118962 C25.4854216,21.4915794 28.2176466,21.7028742 31.2387775,22.1457807 C32.1405768,22.27784 32.8318875,22.4545963 33.3127096,22.6760495 C33.4115467,22.7199827 33.4821956,22.8100629 33.5015303,22.9168038 C33.6026473,23.4673894 33.5954247,24.0382918 33.4798623,24.629511 C33.4488781,24.7853912 33.3408699,24.9157396 33.1919882,24.9769285 L30.4587314,26.1227968 Z M32.2509802,23.2520312 C32.2582912,23.2252503 32.2528872,23.1966259 32.2362001,23.1737428 C32.219513,23.1508597 32.1932273,23.136028 32.1643084,23.1331778 C28.7449,22.7857603 26.1137921,22.4931982 24.2709848,22.2554915 C23.9098523,22.2067312 23.5353064,22.112258 23.147347,21.972072 C23.1319153,21.9665893 23.1146182,21.9689952 23.1018879,21.9783952 C23.0891577,21.9877952 23.0828987,22.0027828 23.0854385,22.0177848 L24.2586031,30.4929431 C24.2691346,30.5548892 24.3194288,30.6028541 24.3826518,30.6112466 C24.4458747,30.6196391 24.5072759,30.5865013 24.5340956,30.5295133 L25.8744129,27.3418055 C25.8837178,27.3216333 25.89406,27.3022872 25.9053671,27.2839026 C26.1633188,26.9222633 26.5615963,26.9954038 27.1001996,27.5033242 C29.4176381,29.6873815 31.3997394,31.6794449 33.0465034,33.4795145 C33.0637594,33.4991552 33.0884664,33.5109365 33.1148174,33.5121828 C33.1411684,33.5132426 33.1668396,33.5036656 33.1857973,33.4856095 L34.9749507,31.7789973 C34.996334,31.7584209 35.008129,31.7300587 35.0075637,31.7006264 C35.0069566,31.6711942 34.9940414,31.643309 34.9718552,31.6235737 C32.6750528,29.6975399 30.455636,27.5591954 28.3136046,25.2085402 C28.2710019,25.162012 28.2541186,25.0979906 28.2682175,25.0364325 C28.2823164,24.9748743 28.325683,24.9232654 28.3847993,24.897693 C29.5074053,24.4202479 30.7662099,23.9092801 32.161213,23.3647895 C32.2066125,23.3444727 32.2365349,23.3068866 32.2509802,23.2520312 Z M32.8360147,24.0779096 C32.8335217,23.958676 32.73914,23.8844924 32.6142304,23.9035881 C32.4893209,23.9226839 32.3716211,24.0292898 32.337652,24.1540976 C32.3128886,24.25365 32.3335247,24.3552341 32.3995604,24.4588498 C32.4240647,24.4983785 32.4679406,24.5222389 32.5149734,24.5216132 C32.5620061,24.5209874 32.6052111,24.4959685 32.6286215,24.4558023 C32.7668837,24.2201273 32.8360147,24.094163 32.8360147,24.0779096 Z M31.492602,24.3735192 C31.4740295,24.5238636 31.5153018,24.6640496 31.6164189,24.7940772 C31.6655326,24.8574023 31.7531376,24.8779367 31.8259663,24.8431946 C31.898795,24.8084525 31.9367172,24.7280368 31.9166747,24.6508437 L31.8361938,24.3521866 C31.8130504,24.2741994 31.7380913,24.2224239 31.6557304,24.2275374 C31.5733694,24.232651 31.5056108,24.2932875 31.492602,24.3735192 L31.492602,24.3735192 Z M30.8178002,24.9921661 C30.8797087,25.0226414 30.9447125,25.0581958 31.0128118,25.0988294 C31.0777491,25.1379364 31.1615664,25.1328563 31.2201974,25.08626 C31.2788284,25.0396638 31.2988483,24.9622205 31.2697317,24.8946454 C31.2140141,24.7646178 31.1098016,24.6904615 30.9570942,24.6721764 C30.8942232,24.6644593 30.8318756,24.6899389 30.7930369,24.7392218 L30.3132466,25.3212985 C30.3049625,25.3300069 30.3049625,25.3441874 30.3132466,25.3548212 L30.375155,25.4096766 C30.3932593,25.4273595 30.4185733,25.4359368 30.4438966,25.4329688 C30.4692198,25.4300007 30.491781,25.4158122 30.5051627,25.394439 C30.5753256,25.2847282 30.6124706,25.1892392 30.6165979,25.107972 C30.6189808,25.0617788 30.644854,25.0198803 30.6854113,24.9965367 C30.7259687,24.9731932 30.7757456,24.9715499 30.8178002,24.9921661 L30.8178002,24.9921661 Z M29.9470583,25.2611404 C29.9198812,25.2256393 29.8740224,25.2062792 29.8195708,25.2073194 C29.7651192,25.2083596 29.7065354,25.2297148 29.6567078,25.2666869 C29.5529483,25.3436638 29.5146993,25.4659949 29.5712742,25.5399277 C29.5984513,25.5754289 29.6443101,25.5947889 29.6987617,25.5937488 C29.7532133,25.5927086 29.8117971,25.5713534 29.8616247,25.5343812 C29.9653842,25.4574044 30.0036332,25.3350732 29.9470583,25.2611404 L29.9470583,25.2611404 Z M26.0972832,29.1733661 C25.8290134,29.4435797 25.6515426,29.7981081 25.5648708,30.2369513 C25.5607776,30.2551111 25.5545027,30.2715852 25.5462982,30.2857116 L24.7198208,31.9069932 C24.6882085,31.9685268 24.7045377,32.0434397 24.7590111,32.0867849 C24.8134846,32.1301302 24.8913073,32.1301352 24.9457866,32.086797 C25.0056314,32.0421 25.0510309,31.921215 25.0819851,31.7241419 C25.1046849,31.5737975 25.1407981,31.4529125 25.1903248,31.3614868 C25.4978033,30.8048062 25.8063136,30.2999334 26.1158557,29.8468685 C26.2066547,29.7127775 26.2004639,29.4882767 26.0972832,29.1733661 L26.3325352,29.084988 C26.4277028,29.051822 26.4919009,28.9630924 26.4934971,28.8625189 C26.4955607,28.7060794 26.547151,28.6055112 26.6482681,28.5608142 C26.6892464,28.5422003 26.7371195,28.5469422 26.7740531,28.5732734 C26.8109867,28.5996046 26.8314435,28.6435773 26.8278025,28.6888102 C26.772085,29.2576809 27.0795635,29.7066824 27.750238,30.0358148 C27.8424846,30.0812031 27.9175276,30.1561556 27.9638221,30.2491413 C28.0422394,30.4035491 28.1010524,30.4929431 28.1402611,30.5173233 C28.1932398,30.5515854 28.2617102,30.5520458 28.3151593,30.5184993 C28.3686084,30.4849527 28.3970834,30.423646 28.3878947,30.3618996 C28.2991593,29.8072507 28.1093068,29.4791342 27.8183373,29.3775501 C27.7073093,29.3371604 27.6223629,29.2478777 27.5892761,29.1367959 C27.4128371,28.5455766 26.9547148,28.600432 26.6977949,28.1067335 C26.6627985,28.0380377 26.5879065,27.9982179 26.510367,28.0070787 C26.4328275,28.0159396 26.3691911,28.0715897 26.3511077,28.1463513 L26.0972832,29.1733661 Z M28.7036277,30.2095236 C28.5901289,30.5630361 28.57362,30.8525507 28.6541009,31.0780673 C28.6819029,31.1564694 28.7564249,31.2094763 28.8407616,31.2108375 C28.9250983,31.2121987 29.001345,31.1616252 29.0317423,31.0841623 C29.1823861,30.7123647 29.1411139,30.4055808 28.9079255,30.1638107 C28.8786276,30.1324515 28.8345211,30.1189316 28.79232,30.1283743 C28.7501189,30.1378171 28.7162805,30.1687776 28.7036277,30.2095236 L28.7036277,30.2095236 Z M29.5364817,30.8788813 C29.376742,30.8500276 29.2069741,31.0426966 29.1572926,31.3092218 C29.133429,31.4372194 29.1410188,31.5654824 29.1783922,31.6657914 C29.2157655,31.7661004 29.2798606,31.8302377 29.3565758,31.8440924 C29.5163155,31.872946 29.6860833,31.680277 29.7357649,31.4137518 C29.7596284,31.2857542 29.7520386,31.1574912 29.7146653,31.0571822 C29.6772919,30.9568733 29.6131969,30.8927359 29.5364817,30.8788813 L29.5364817,30.8788813 Z M30.3287237,32.3184087 C30.5103218,32.0217832 30.4845266,31.7343003 30.2513382,31.45596 C30.2226902,31.4222057 30.179589,31.4036448 30.1354596,31.4060585 C30.0913302,31.4084722 30.0515345,31.4315672 30.0284679,31.4681501 C29.8324245,31.7708706 29.8107566,32.0380367 29.963464,32.2696483 C30.188398,32.6109708 30.3503917,32.8364874 30.4494451,32.9461982 C30.5443714,33.0538773 30.6527111,33.0041011 30.7744643,32.7968696 C30.8146584,32.7335509 30.8952913,32.7065667 30.9660079,32.7327687 C31.0367244,32.7589706 31.0772761,32.8308561 31.0623385,32.9035329 C31.0004301,33.1899999 31.1036108,33.4612294 31.3718806,33.7172212 C31.4121166,33.7556767 31.4709161,33.7685536 31.5239157,33.7505162 C31.5769153,33.7324789 31.6150852,33.6866004 31.6226097,33.6318906 L31.6938044,33.0894317 C31.7107463,32.9555721 31.6481499,32.8240205 31.5328425,32.7511568 C31.3182266,32.6170658 31.1149607,32.4159294 30.9230446,32.1477475 C30.8842761,32.0937074 30.8176938,32.066041 30.7513215,32.0763927 C30.6849492,32.0867444 30.6303123,32.1333168 30.610407,32.1965078 C30.5629439,32.3448205 30.5185762,32.4331987 30.4773039,32.4616422 C30.4364342,32.4888341 30.3824445,32.4838938 30.3469932,32.4497182 C30.311542,32.4155427 30.3039726,32.3611391 30.3287237,32.3184087 L30.3287237,32.3184087 Z M24.2183626,32.3031711 C24.2665561,32.3250606 24.3230857,32.3110218 24.3553487,32.2691514 C24.3876117,32.227281 24.3872867,32.1683784 24.3545612,32.1264148 C24.1420089,31.8643279 23.9985877,31.7119518 23.9242976,31.6692865 C23.8930657,31.6498613 23.8525852,31.6529277 23.8247392,31.6768281 C23.7968932,31.7007284 23.7882883,31.7397922 23.8035762,31.7729023 C23.9232658,32.0593693 24.061528,32.2361256 24.2183626,32.3031711 Z M32.808156,34.5156719 C32.7710109,34.0240051 32.5429816,33.6329064 32.1240679,33.342376 C32.0463008,33.2902301 31.9414329,33.3063202 31.8857205,33.3789463 C31.6091962,33.7446489 31.6453095,34.0727654 31.9940602,34.3632958 C32.2664573,34.5908441 32.4676596,34.7493153 32.5976673,34.8387092 C32.8576827,35.0154655 33.0196764,35.152604 33.0836484,35.2501247 C33.1105242,35.2918049 33.1549867,35.3194039 33.2047723,35.3253094 C33.2545579,35.3312148 33.3044064,35.3148027 33.3405684,35.2805999 C33.406604,35.2176178 33.4581944,35.1048595 33.4953394,34.942325 C33.5160353,34.8533465 33.5919401,34.7871919 33.6841601,34.7777588 C33.8286131,34.7655687 33.9586208,34.6446837 34.0741831,34.4151037 C34.1083622,34.3498782 34.1638535,34.297388 34.2320496,34.2657751 C34.2857036,34.2434266 34.315626,34.2302207 34.3218168,34.2261574 C34.458872,34.1626395 34.5732661,34.0595779 34.6499315,33.9305477 C34.8387521,33.6105579 35.433073,33.2509504 35.4485501,32.9949585 C35.4568045,32.8649309 35.4124368,32.7196657 35.315447,32.5591629 C35.2937738,32.5225752 35.2555112,32.4985468 35.2122331,32.494346 C35.168955,32.4901452 35.1257445,32.5062653 35.0956721,32.5378302 C34.9656644,32.6800479 34.8965333,32.8232815 34.8882789,32.9675308 C34.8860417,33.00915 34.8662419,33.0480166 34.8334905,33.075079 C34.8007391,33.1021415 34.7578948,33.1150377 34.7149353,33.1107644 C34.4858741,33.0863842 34.3042761,33.2042217 34.1701412,33.4642769 C34.1199553,33.5612228 34.0385914,33.6402596 33.9379846,33.6897935 C33.4323992,33.9315636 33.1176981,34.2159989 32.9938812,34.5430996 C32.9780522,34.584972 32.9345938,34.6102025 32.8897153,34.6035749 C32.8448368,34.5969473 32.8108099,34.5602738 32.808156,34.5156719 Z"></path>
                        <path d="M5.78513048,26.2538402 L3.04258746,25.1445422 C2.89423507,25.0859269 2.78514616,24.9579599 2.75161789,24.8032198 C2.62780105,24.2140322 2.61232394,23.6441456 2.70518657,23.09356 C2.72292959,22.9863138 2.792453,22.8950504 2.89091183,22.8497583 C3.36760667,22.6242417 4.05479014,22.4393587 4.95246223,22.2951093 C7.96121146,21.8136009 10.685182,21.5667516 13.1243737,21.5545067 C13.2337205,21.552617 13.3373607,21.6025015 13.4029616,21.6886525 C13.9271196,22.3773924 14.1479263,23.2327302 14.0653817,24.2546659 C13.8487022,26.9913405 13.5690825,29.5350054 13.2265226,31.8856606 C13.0923877,32.8202339 12.5248938,33.2631404 11.524041,33.2143801 C11.1216363,33.196095 10.8409848,32.9990219 10.6820865,32.6231609 C10.3023816,31.7129677 9.97220331,30.9602298 9.69155181,30.3649472 C9.67453338,30.326849 9.63936423,30.2995946 9.59775253,30.2922571 C9.55614082,30.2849196 9.51354986,30.2984623 9.4841586,30.3283769 C7.72802307,32.195492 5.98117381,33.9264844 4.24361082,35.5213541 C3.74834346,35.9754349 3.2252173,36.2009515 2.6804232,35.7682034 C1.84672314,35.1099387 1.17295317,34.5420838 0.659113281,34.0646387 C0.50797488,33.9268946 0.416986967,33.7368103 0.405288758,33.5343699 L0.334094075,32.0319416 C0.322712196,31.8116614 0.408464474,31.5972655 0.569346072,31.4437699 L5.81298927,26.4031688 C5.83576265,26.3813896 5.84613886,26.3498494 5.84049065,26.3195738 C5.83484244,26.2892983 5.81395516,26.2644971 5.78513048,26.2538402 Z M3.9464504,23.4044073 C3.9608957,23.4592627 3.9908181,23.4958329 4.03621761,23.5141181 C5.43328429,24.0464185 6.69312065,24.5451963 7.81572667,25.0104513 C7.87534867,25.035391 7.91943518,25.0867213 7.93416355,25.1483482 C7.94889192,25.2099752 7.93245888,25.2743535 7.89001677,25.3212985 C5.77481241,27.6841438 3.58119072,29.83671 1.30915169,31.7789973 C1.28696553,31.7987326 1.27405029,31.8266178 1.27344327,31.8560501 C1.27287795,31.8854823 1.28467295,31.9138445 1.30605627,31.9344209 L3.1075913,33.6197005 C3.12561097,33.6372266 3.15034375,33.646487 3.17605923,33.645432 C3.20177471,33.6441854 3.22624114,33.6327233 3.24378983,33.6136055 C4.87198128,31.8033775 6.83138279,29.7981081 9.12199434,27.5977973 C9.65440675,27.0878453 10.0506206,27.0116573 10.310636,27.3692332 C10.3230036,27.3874921 10.3343821,27.4068417 10.3446856,27.4271361 L11.7097663,30.5935113 C11.7362406,30.6524831 11.7995045,30.6875249 11.8640324,30.6789591 C11.9285603,30.6703934 11.9782747,30.6203543 11.9852588,30.556941 L13.0779424,22.0909253 C13.0805104,22.0759064 13.0742628,22.0608995 13.061527,22.0514955 C13.0487913,22.0420915 13.0314768,22.0397002 13.016034,22.0452125 C12.6301382,22.1894619 12.256624,22.2869826 11.8954916,22.3377746 C10.0609387,22.5917348 7.43911711,22.9076612 4.03002677,23.2855539 C4.0018385,23.2881733 3.97626407,23.302915 3.96014771,23.325834 C3.94403136,23.3487529 3.9390184,23.3775093 3.9464504,23.4044073 L3.9464504,23.4044073 Z M3.43570593,24.5990358 C3.49461919,24.6869159 3.60610375,24.7351004 3.70758727,24.7165451 C3.80907079,24.6979898 3.87528445,24.6173149 3.86906487,24.5198003 C3.86081042,24.4283746 3.7700114,24.3206955 3.59666783,24.1967629 C3.55199705,24.1658916 3.493534,24.1622318 3.44525147,24.1872842 C3.39696893,24.2123367 3.36698966,24.2618867 3.36759733,24.3156163 C3.36967028,24.4395489 3.39237004,24.534022 3.43570593,24.5990358 Z M4.42314524,24.4649449 C4.29726478,24.5746557 4.23329275,24.6305269 4.23122913,24.6325586 C4.17904872,24.709805 4.18718309,24.8135344 4.25073145,24.8812518 C4.31427981,24.9489692 4.41588832,24.9621823 4.49433992,24.9129306 C4.58307532,24.8580752 4.61609315,24.7310951 4.59339339,24.5319903 C4.58841124,24.4939765 4.56295917,24.4613945 4.52726549,24.447338 C4.4915718,24.4332814 4.45149681,24.4400582 4.42314524,24.4649449 L4.42314524,24.4649449 Z M5.38891659,25.1750175 C5.46073061,25.0820849 5.46848042,24.9478253 5.40756145,24.8520095 C5.34664247,24.7561937 5.23338946,24.7245136 5.13509207,24.7757921 C5.08969256,24.7981406 5.04119763,24.8905821 4.98960728,25.0531166 C4.97069474,25.1143766 5.00314373,25.1796015 5.06389739,25.2024452 C5.22279567,25.2593322 5.3311354,25.2501897 5.38891659,25.1750175 Z M5.73869917,25.4401519 C5.89759745,25.553926 6.00696899,25.5854171 6.0668138,25.534625 C6.13720227,25.4733697 6.16931352,25.3786885 6.14957617,25.2905971 C6.12983883,25.2025057 6.06169751,25.1363781 5.97395117,25.1201621 C5.90172468,25.1059403 5.81608469,25.1557165 5.71703122,25.2694906 C5.69525979,25.2942997 5.68518998,25.3270318 5.68932051,25.3595648 C5.69345105,25.3920977 5.71139479,25.4213823 5.73869917,25.4401519 L5.73869917,25.4401519 Z M6.28658869,25.4928435 C6.27080213,25.5994263 6.38826359,25.7045372 6.54895657,25.7276246 C6.62613146,25.7387066 6.70315706,25.7290005 6.7630884,25.7006416 C6.82301974,25.6722827 6.86094748,25.6275939 6.86852784,25.5764066 C6.8843144,25.4698238 6.76685294,25.3647128 6.60615995,25.3416255 C6.52898507,25.3305435 6.45195946,25.3402496 6.39202813,25.3686085 C6.33209679,25.3969674 6.29416905,25.4416561 6.28658869,25.4928435 L6.28658869,25.4928435 Z M9.62035712,28.9295644 C9.6017846,29.0839722 9.55741689,29.2292374 9.48725402,29.36536 C9.44946913,29.4342079 9.46838645,29.5199019 9.53178861,29.5670984 C9.59519078,29.6142948 9.68409253,29.608861 9.74107854,29.5543064 C9.82155949,29.4831975 9.88037249,29.2851086 9.91751754,28.9600396 C9.95259898,28.6349706 9.93918549,28.428755 9.87727707,28.3413927 C9.83296748,28.2760383 9.74670608,28.2525202 9.67456178,28.2861248 C9.60241747,28.3197294 9.56617983,28.4003072 9.58940291,28.4754836 C9.62654796,28.6217647 9.63686603,28.7731249 9.62035712,28.9295644 Z M9.2489066,28.7649982 C9.26067295,28.7140438 9.23321231,28.6621996 9.18403923,28.6425322 C9.13486614,28.6228647 9.07846115,28.6411657 9.05079966,28.6857626 C8.86197897,28.9844198 8.70101708,29.2708868 8.32337572,29.4811658 C7.96430688,29.6802706 7.72699127,29.9535317 7.61142888,30.3009492 C7.58848064,30.3659814 7.51511776,30.400051 7.44737157,30.3771373 C7.4081629,30.3629155 7.38546315,30.3558046 7.37927231,30.3558046 C7.3214935,30.3597269 7.26627552,30.3858214 7.22450126,30.4289451 L6.06062295,31.672334 C6.00403163,31.731861 5.97887847,31.8151579 5.99252369,31.8978507 L6.09157716,32.4738323 C6.09845348,32.5134002 6.12508677,32.546849 6.1628028,32.5632846 C6.20051883,32.5797203 6.24449096,32.5770395 6.28039785,32.5561154 C6.38357855,32.4951649 6.47128214,32.3813908 6.54350863,32.2147929 C6.57920587,32.1286571 6.64665282,32.0589881 6.73232931,32.0197515 C7.13473405,31.8328369 7.28228245,31.5301164 7.17497452,31.11159 C7.16350274,31.0625763 7.18836903,31.0123332 7.2346457,30.9910226 C7.28092238,30.969712 7.33603172,30.983126 7.36689062,31.0232119 C7.37308146,31.0333703 7.36585882,31.0912732 7.34522268,31.1969206 C7.33393324,31.2594915 7.36880665,31.321271 7.42873908,31.344873 C7.48867152,31.368475 7.55720092,31.3474166 7.59285636,31.2944413 L8.00145193,30.6605568 C8.06111549,30.5645123 8.15525149,30.4947302 8.26456272,30.4655154 C8.26662633,30.4634837 8.27384898,30.461452 8.28623066,30.4594203 C8.41152828,30.4301042 8.52083755,30.3561849 8.59267734,30.2521889 C8.90015583,29.8153774 9.11889892,29.3196472 9.2489066,28.7649982 Z M11.3259341,31.5230055 C11.2557712,31.4884669 11.2093399,31.4417382 11.1866402,31.3828195 C10.9472609,30.7184597 10.7161362,30.1170821 10.4932658,29.5786865 C10.4775832,29.5419493 10.4349151,29.5243331 10.3973078,29.5390687 L10.3942124,29.5390687 C10.376763,29.5458256 10.3674708,29.5654294 10.3725444,29.5847816 L11.1618768,32.0349891 C11.1718846,32.0635824 11.1940818,32.0864437 11.2226442,32.0975747 C11.2512065,32.1087056 11.2832829,32.1069952 11.310457,32.0928921 C11.3310931,32.0766386 11.36927,31.9577853 11.4249876,31.736332 C11.4464614,31.6503411 11.4052815,31.561654 11.3259341,31.5230055 L11.3259341,31.5230055 Z M11.9543046,32.4159294 C12.1854293,32.3712324 12.3319459,32.201587 12.3938544,31.9069932 C12.4084655,31.8274435 12.3599088,31.7488499 12.2815618,31.7252373 C12.2032148,31.7016246 12.1205986,31.7406846 12.0905031,31.8155676 L11.8800145,32.3275512 C11.8721754,32.3497048 11.8766677,32.374281 11.8918598,32.392354 C11.9070518,32.410427 11.9307338,32.4193679 11.9543046,32.4159294 L11.9543046,32.4159294 Z M5.66803071,32.0657691 C5.59582552,32.0634083 5.52456603,32.120833 5.46992885,32.2254102 C5.41529166,32.3299875 5.38175248,32.4731506 5.37668968,32.6234047 C5.36614345,32.9362831 5.47947857,33.1939108 5.62983321,33.1988377 C5.7020384,33.2011986 5.77329789,33.1437738 5.82793507,33.0391966 C5.88257225,32.9346194 5.91611144,32.7914563 5.92117424,32.6412022 C5.93172047,32.3283238 5.81838534,32.0706961 5.66803071,32.0657691 L5.66803071,32.0657691 Z M1.88799542,34.2779652 C1.87767735,33.8878824 1.78894195,33.6948727 1.62178922,33.6989361 C1.56880066,33.7005029 1.51808272,33.6776645 1.48511301,33.6373907 C1.4521433,33.5971168 1.44083404,33.5441863 1.45463648,33.4947521 C1.55781718,33.1209228 1.44431841,32.8395349 1.11414017,32.6505886 C1.07911499,32.63053 1.03606939,32.6296321 1.00021267,32.648212 C0.964355958,32.666792 0.940737034,32.7022335 0.937701173,32.7420142 C0.898492506,33.2763464 1.00889586,33.6115738 1.26891122,33.7476964 C1.37040417,33.8004958 1.44796047,33.8910325 1.48559069,34.0006407 C1.55781718,34.2099039 1.63829813,34.336884 1.72703353,34.381581 C1.76245193,34.3989404 1.80456387,34.3965088 1.83767826,34.3751921 C1.87079266,34.3538754 1.88994362,34.3168704 1.88799542,34.2779652 L1.88799542,34.2779652 Z M4.52838955,33.9427378 C4.53045317,33.9447695 4.54283485,33.9813398 4.5655346,34.0524486 C4.58799114,34.1239388 4.6551326,34.1726874 4.73113963,34.1726874 C4.80714665,34.1726874 4.87428812,34.1239388 4.89674465,34.0524486 C4.99992535,33.731443 5.11858316,33.5171006 5.25271807,33.4094215 C5.31219375,33.3608547 5.34818455,33.2899616 5.3517269,33.2143984 C5.35526925,33.1388351 5.32602977,33.0657132 5.27129059,33.0132437 L5.12580581,32.8669626 C5.07870594,32.8202455 5.01234271,32.7975296 4.94548324,32.8052389 C4.87862377,32.8129481 4.81853662,32.8502443 4.78221407,32.9065804 C4.28075587,33.6958885 3.45737388,33.5435125 3.96192751,34.7107133 C3.98352215,34.7587695 4.02840615,34.792874 4.08066179,34.8009319 C4.13291743,34.8089899 4.18515445,34.7898617 4.21884745,34.7503311 C4.36123682,34.5877966 4.39115922,34.3592325 4.30861466,34.0646387 C4.29281166,34.0080028 4.31818841,33.9480461 4.37016459,33.9192168 C4.42214076,33.8903876 4.48737619,33.9000852 4.52838955,33.9427378 Z M1.7517969,33.3179958 L2.72994994,35.1830792 C2.73937796,35.1990359 2.76013499,35.2044854 2.77638126,35.1952693 L2.77947668,35.1922218 C2.95084042,35.1049868 2.87744064,34.6291354 2.61541936,34.1286367 L2.55970178,34.0189259 C2.29722445,33.5181346 1.94531126,33.1825793 1.77346485,33.2692355 L1.767274,33.272283 C1.75895517,33.2762102 1.75261105,33.2832927 1.74969361,33.2919096 C1.74677617,33.3005265 1.74753517,33.30994 1.7517969,33.3179958 L1.7517969,33.3179958 Z M3.16330888,35.3872632 C3.18331195,35.4284886 3.22138328,35.4584302 3.26664104,35.4685299 C3.31189881,35.4786296 3.35936241,35.4677759 3.39546546,35.439071 C3.7545343,35.158699 3.79477477,34.3907235 3.2685532,34.2505375 C3.22232931,34.2381317 3.17298428,34.253094 3.14185903,34.2889536 C3.11073377,34.3248131 3.10341518,34.3751332 3.12306841,34.4181512 C3.19116767,34.5583372 3.25513971,34.7137608 3.31498451,34.8844221 C3.33768427,34.9555309 3.34181149,35.0114021 3.3273662,35.0520358 C3.30879367,35.0987644 3.27474404,35.1353347 3.2252173,35.1617466 C3.1477826,35.2017364 3.11754651,35.2964534 3.15711804,35.3750731 L3.16330888,35.3872632 Z"></path>
                    </g>
                </g>
            </g>
        </g>
    </g>
</svg>