<svg width="21px" height="15px" viewBox="0 0 21 15" version="1.1" xmlns="http://www.w3.org/2000/svg" xmlns:xlink="http://www.w3.org/1999/xlink">
    <g stroke="none" stroke-width="1" fill="none" fill-rule="evenodd">
        <g transform="translate(-997, -205)" fill="currentColor">
            <g transform="translate(-7, 0)">
                <path d="M1014.5,220 C1010.64994,220 1007.21516,217.686 1004.20325,213.1655 C1003.93225,212.759371 1003.93225,212.240629 1004.20325,211.8345 C1007.21516,207.314 1010.64994,205 1014.5,205 C1018.35006,205 1021.78484,207.314 1024.79675,211.8345 C1025.06775,212.240629 1025.06775,212.759371 1024.79675,213.1655 C1021.78484,217.686 1018.35006,220 1014.5,220 Z M1014.5,206.5 C1011.31275,206.5 1008.36096,208.46525 1005.63781,212.5 C1008.36096,216.53475 1011.31275,218.5 1014.5,218.5 C1017.68725,218.5 1020.63904,216.53475 1023.36219,212.5 C1020.63904,208.46525 1017.68725,206.5 1014.5,206.5 Z M1014.5,216 C1012.45225,216 1010.79222,214.433 1010.79222,212.5 C1010.79222,210.567 1012.45225,209 1014.5,209 C1016.54775,209 1018.20778,210.567 1018.20778,212.5 C1018.20778,214.433 1016.54775,216 1014.5,216 Z M1014.5,214.5 C1015.67022,214.5 1016.61888,213.6045 1016.61888,212.5 C1016.61888,211.3955 1015.67022,210.5 1014.5,210.5 C1013.32978,210.5 1012.38112,211.3955 1012.38112,212.5 C1012.38112,213.6045 1013.32978,214.5 1014.5,214.5 Z" fill-rule="nonzero"></path>
            </g>
        </g>
    </g>
</svg>