<svg width="13px" height="11px" viewBox="0 0 13 11" version="1.1" xmlns="http://www.w3.org/2000/svg" xmlns:xlink="http://www.w3.org/1999/xlink">
    <g stroke="none" stroke-width="1" fill="none" fill-rule="evenodd">
        <g transform="translate(-28, -87)" fill="currentColor">
            <g transform="translate(10, 60)">
                <g transform="translate(18, 16)" fill-rule="nonzero">
                    <path d="M12.4428571,12.258712 L0.557142858,12.258712 C0.249441354,12.258712 0,12.0351101 0,11.759283 C0,11.483456 0.249441354,11.259854 0.557142858,11.259854 L12.4428571,11.259854 C12.7505586,11.259854 13,11.483456 13,11.759283 C13,12.0351101 12.7505586,12.258712 12.4428571,12.258712 L12.4428571,12.258712 Z M12.4428571,21.5813869 L0.557142858,21.5813869 C0.249478183,21.5813402 9.42968763e-05,21.3577519 9.42968763e-05,21.0819579 C9.42968763e-05,20.8061638 0.249478183,20.5825755 0.557142858,20.5825289 L12.4428571,20.5825289 C12.7505218,20.5825755 12.9999057,20.8061638 12.9999057,21.0819579 C12.9999057,21.3577519 12.7505218,21.5813402 12.4428571,21.5813869 L12.4428571,21.5813869 Z M9.47142857,16.9200495 L0.557142858,16.9200495 C0.249441354,16.9200495 0,16.6964475 0,16.4206204 C0,16.1447934 0.249441354,15.9211914 0.557142858,15.9211914 L9.47142857,15.9211914 C9.77913008,15.9211914 10.0285714,16.1447934 10.0285714,16.4206204 C10.0285714,16.6964475 9.77913008,16.9200495 9.47142857,16.9200495 Z"></path>
                </g>
            </g>
        </g>
    </g>
</svg>