<svg width="15px" height="15px" viewBox="0 0 15 15" version="1.1" xmlns="http://www.w3.org/2000/svg" xmlns:xlink="http://www.w3.org/1999/xlink">
    <title>More Info</title>
    <g stroke="none" stroke-width="1" fill="none" fill-rule="evenodd">
        <g transform="translate(-1400, -941)" fill="#FFFFFF">
            <g transform="translate(1397, 937)">
                <path d="M11.5170826,7.25180266 C10.9480356,7.84573859 10.4509011,8.35715114 10.4133815,8.38969557 C10.3754153,8.42146514 10.3365557,8.46330798 10.3271758,8.48229223 C10.3169026,8.50166392 10.3026094,8.51754871 10.2945695,8.51754871 C10.2869762,8.51754871 9.75455548,8.1041569 9.1127026,7.59933073 C8.47084972,7.09566686 7.92681575,6.67452638 7.90358934,6.66445311 C7.80979038,6.62261026 7.71733141,6.60246371 7.66775196,6.61369929 C7.63648564,6.62028566 7.44397444,6.78533243 7.22243023,6.99415922 C7.16659752,7.04723765 7.01428587,7.18710123 6.88520064,7.30488109 C5.95971757,8.14948665 5.90656483,8.20140277 5.89495162,8.25641836 C5.88959168,8.28276386 5.86859858,8.31182139 5.83599227,8.33894175 C5.80874591,8.36257521 5.78015956,8.40131858 5.77256631,8.42378974 C5.74755326,8.49817702 5.59792158,9.57098106 5.60685482,9.60352549 C5.62159465,9.65117984 5.75693315,9.80034183 5.91683804,9.94679179 C5.99768381,10.0204042 6.11738915,10.1300479 6.18126178,10.1885504 C6.24602773,10.2486027 6.60425042,10.5759842 6.97631963,10.9157636 C7.3488355,11.2567053 7.65345878,11.5434062 7.65345878,11.5550293 C7.65345878,11.5651025 7.2822829,11.9242536 6.82936792,12.3519805 C6.27372075,12.8761783 6.00259709,13.1400207 5.99768381,13.161717 C5.99366386,13.1787641 5.97401074,13.2023975 5.95346431,13.2147954 C5.8998649,13.2485022 5.88423174,13.3015806 5.90254487,13.3930149 C5.91549806,13.4596535 6.20448819,14.4623321 6.26836081,14.6657348 C6.281314,14.7087399 6.30096712,14.7482582 6.30856037,14.75252 C6.4050393,14.8044361 6.57164412,14.8834726 6.57968403,14.8803731 C6.58325732,14.8780485 6.85661429,15.0543308 7.18625063,15.2720686 C8.45164327,16.1108627 8.4931828,16.137983 8.53606233,16.1449568 C8.55928874,16.149606 8.59055506,16.1484437 8.60618822,16.1426322 C8.62316136,16.1368207 8.69596722,16.0771559 8.76921974,16.0081927 C9.01399036,15.7811565 10.8417301,14.123715 10.8569166,14.1159663 C10.8662965,14.1101548 10.8895229,14.114804 10.909176,14.123715 C10.9301691,14.132626 10.9600954,14.1407621 10.9757286,14.1407621 C10.9940417,14.1407621 11.2606988,14.3406779 11.7828463,14.7470959 C13.2367302,15.8784024 13.3774286,15.9868839 13.4426412,16.0264021 C13.5011539,16.0612711 13.5181271,16.0659203 13.6092461,16.0694073 C13.7092983,16.073669 13.7119783,16.073669 13.7561978,16.0364754 C13.7807642,16.0151665 14.0751142,15.6908845 14.4096639,15.3150738 C14.7442135,14.9388756 15.0332036,14.6184679 15.0515167,14.6002585 C15.0747431,14.5789496 15.0984162,14.5696512 15.1283425,14.5696512 C15.1569289,14.5696512 15.1841753,14.5595779 15.2127616,14.5371068 L15.2556411,14.5041749 L15.2556411,13.6677055 C15.2547478,12.8432465 15.2547478,12.8308486 15.2283948,12.8002413 C15.2141016,12.7824194 15.1801553,12.7583985 15.1542489,12.7460006 C15.1256626,12.7324404 14.8366725,12.4670483 14.429317,12.080002 C14.0568011,11.7255001 13.7521778,11.4341499 13.7521778,11.430663 C13.7521778,11.4217521 15.4575322,9.71898075 15.5281048,9.65660391 C15.5602644,9.62870868 15.5942107,9.58996531 15.6009106,9.57098106 C15.6205638,9.52332671 15.5866175,9.24669901 15.5227448,8.9181552 C15.4954985,8.77480471 15.4602122,8.5795381 15.444579,8.48345454 C15.4133127,8.29051253 15.3431868,8.03519369 15.3012006,7.96545562 C15.2869075,7.94027243 15.2507279,7.90540339 15.2194615,7.887194 C15.1895352,7.86937205 14.6463946,7.47651423 14.0125816,7.01546808 C13.3787686,6.55480936 12.8423279,6.17008765 12.8191015,6.16195154 C12.770862,6.14412959 12.6431168,6.14296729 12.589964,6.15962694 C12.563611,6.16776305 12.2397813,6.49746916 11.5170826,7.25180266 Z M15.1359358,8.27114084 C15.148889,8.31647059 15.1698821,8.42727664 15.1841753,8.51754871 C15.1998084,8.60782077 15.2337547,8.80076277 15.2623411,8.94643786 C15.3168338,9.22771476 15.3405069,9.38346312 15.3405069,9.46482421 C15.3405069,9.50899166 15.3338069,9.51906493 15.2726143,9.56865645 C15.1971285,9.62948355 15.1841753,9.62754638 15.1841753,9.5485099 C15.1841753,9.46598651 15.1216426,9.07739047 15.0528567,8.72521319 C15.0175704,8.54001986 14.9836242,8.36954902 14.9809442,8.34824016 C14.9760309,8.31414599 14.9822842,8.30058581 15.0305236,8.24983199 C15.06179,8.21690012 15.0930563,8.19016719 15.1010962,8.19016719 C15.1086894,8.19016719 15.1243226,8.22736083 15.1359358,8.27114084 L15.1359358,8.27114084 L15.1359358,8.27114084 Z M14.9067983,8.48577914 C14.9916641,8.90265785 15.0890363,9.36757834 15.1176227,9.49969325 C15.1596089,9.67946251 15.1569289,9.69069808 15.0876963,9.74726341 C15.0474968,9.77980784 15.0474968,9.78097015 15.0242704,9.62522178 L15.0059572,9.50899166 L15.0461568,9.49194457 L15.086803,9.47605979 L15.0448168,9.4818713 C15.0215904,9.48497077 15.0019373,9.48613307 15.0019373,9.48380846 C15.0019373,9.45591323 14.8406924,8.67794628 14.8143394,8.58070041 C14.7924529,8.49817702 14.7924529,8.49933932 14.8509656,8.44083682 C14.8652588,8.42727664 14.879552,8.41565363 14.8849119,8.41565363 C14.8889319,8.41565363 14.8992051,8.4474232 14.9067983,8.48577914 L14.9067983,8.48577914 L14.9067983,8.48577914 Z M6.06155644,8.59309829 C6.10577595,8.62912962 6.10577595,8.6403652 6.07852958,8.89568404 C6.04726326,9.19168342 5.99098389,9.66357772 5.98607061,9.66822693 C5.97535073,9.6783002 5.8636853,9.58454124 5.8636853,9.56516955 C5.8636853,9.54153609 5.98830392,8.66748556 6.00170377,8.59890979 C6.00929702,8.55474235 6.01465696,8.55474235 6.06155644,8.59309829 L6.06155644,8.59309829 L6.06155644,8.59309829 Z M14.8210393,9.03128585 C14.8639188,9.21764148 14.9251115,9.47063572 14.9577178,9.59461451 L15.0148905,9.81816379 L14.9550378,9.87937832 C14.9224315,9.91308505 14.8911652,9.93788081 14.8849119,9.93439391 C14.879552,9.93245674 14.8719587,9.89720027 14.8665988,9.85884433 C14.8456057,9.69495985 14.7075872,9.01540107 14.6557745,8.82439623 C14.6388013,8.76008223 14.6245081,8.70041743 14.6245081,8.69150646 C14.6245081,8.68337035 14.6441613,8.65741229 14.6660477,8.63494113 L14.7089272,8.59309829 L14.7245604,8.64268981 C14.7352802,8.66981017 14.7768198,8.84493022 14.8210393,9.03128585 L14.8210393,9.03128585 Z M6.22950124,8.73877337 C6.26076756,8.76705604 6.26076756,8.76938064 6.25808759,8.98944301 C6.25540762,9.2017567 6.22280132,9.75617439 6.20716816,9.83753547 L6.20046823,9.87589141 L6.13570228,9.82048839 C6.09907602,9.78988112 6.06378975,9.75617439 6.05753648,9.74610111 C6.04592328,9.72789172 6.06155644,9.58802814 6.12408908,9.138605 C6.13838225,9.03554762 6.15624872,8.89800864 6.16428863,8.83020774 C6.17322187,8.76356913 6.18394175,8.70932841 6.18885503,8.70932841 C6.19421497,8.70932841 6.21118811,8.72288859 6.22950124,8.73877337 L6.22950124,8.73877337 L6.22950124,8.73877337 Z M14.5722487,8.86856368 C14.5865419,8.9204798 14.6388013,9.138605 14.6897207,9.35285586 C14.7401935,9.56749415 14.7951329,9.79685493 14.8121061,9.86349353 L14.8433724,9.98437286 L14.8027262,10.0304775 C14.7638666,10.0746449 14.7415335,10.0870428 14.7415335,10.0645716 C14.7415335,9.98747233 14.5709087,9.15526465 14.512396,8.94876246 L14.4797897,8.83369464 L14.5088228,8.79843817 C14.5231159,8.78061622 14.5387491,8.76705604 14.5423224,8.76938064 C14.5450024,8.77248011 14.5592955,8.81664756 14.5722487,8.86856368 L14.5722487,8.86856368 L14.5722487,8.86856368 Z M6.42335243,9.00184089 C6.42335243,9.10102392 6.36349976,9.8917762 6.35054657,9.96151427 L6.34250666,9.99987021 L6.2906939,9.9549279 L6.23843448,9.90959815 L6.26568084,9.65660391 C6.29560718,9.36874064 6.31392031,9.15875155 6.3268735,8.96580955 L6.33491341,8.83137004 L6.37913292,8.86856368 C6.42201244,8.90459502 6.42335243,8.90691962 6.42335243,9.00184089 L6.42335243,9.00184089 L6.42335243,9.00184089 Z M14.4409302,9.02779895 C14.4565633,9.09211295 14.4981029,9.2660707 14.5333891,9.41523269 C14.5686754,9.56400725 14.6204882,9.78213245 14.6504145,9.89952487 C14.6790009,10.015755 14.699994,10.1207495 14.695974,10.1308228 C14.6870408,10.1548437 14.5749287,10.2621629 14.5673354,10.255189 C14.5633155,10.2528644 14.5490223,10.1862258 14.5333891,10.109514 C14.4931896,9.90184947 14.3538311,9.31023815 14.3118449,9.16688766 L14.2756653,9.04252143 L14.335518,8.97820743 C14.3694643,8.94217609 14.4007306,8.91273112 14.4043039,8.91273112 C14.4083239,8.91273112 14.425297,8.96464725 14.4409302,9.02779895 L14.4409302,9.02779895 Z M6.55333099,9.02198744 C6.58057735,9.05259471 6.58191734,9.06073082 6.57432409,9.21764148 C6.56628418,9.36874064 6.52474464,9.89603797 6.50643151,10.0610847 C6.50285821,10.100603 6.4948183,10.1319851 6.48856504,10.1319851 C6.47650517,10.1319851 6.3840462,10.0452 6.3840462,10.0328021 C6.3840462,10.0281529 6.39342609,9.96151427 6.40369931,9.88364009 C6.41933247,9.76973457 6.50151823,9.02314974 6.50151823,8.99835398 C6.50151823,8.98169433 6.52742461,8.99409221 6.55333099,9.02198744 L6.55333099,9.02198744 Z M6.69536941,9.15332748 C6.72261577,9.18006041 6.72261577,9.18238501 6.70966258,9.35982967 C6.69804938,9.51441573 6.66410309,9.89836257 6.63685673,10.173828 C6.63283677,10.2191577 6.62390354,10.2563514 6.6185436,10.2563514 C6.61184367,10.2563514 6.59263722,10.2393043 6.57432409,10.2191577 L6.5403778,10.1808018 L6.56628418,9.97856136 C6.5975505,9.73021633 6.64444997,9.24786131 6.64444997,9.17928554 C6.64444997,9.12039561 6.65382987,9.11574641 6.69536941,9.15332748 L6.69536941,9.15332748 L6.69536941,9.15332748 Z M14.2131327,9.14635367 C14.2207259,9.17231173 14.3042517,9.48497077 14.3886708,9.81583918 C14.425297,9.9560902 14.4695165,10.1230741 14.4878297,10.1862258 C14.5061428,10.2505398 14.516416,10.3094298 14.5110561,10.3160161 C14.4940829,10.3411993 14.3730376,10.4597541 14.3654443,10.4597541 C14.3600844,10.4597541 14.3457912,10.387304 14.334178,10.2981942 C14.2926385,10.015755 14.1595333,9.35866736 14.128267,9.28737956 C14.1090605,9.24359954 14.1153138,9.21182998 14.15328,9.16882483 C14.1934796,9.12272021 14.2028595,9.11923331 14.2131327,9.14635367 L14.2131327,9.14635367 L14.2131327,9.14635367 Z M6.83740783,9.38230082 C6.83204789,9.43073004 6.81775472,9.55742088 6.8074815,9.66357772 C6.77621518,9.98204826 6.73422898,10.3411993 6.72797572,10.3454611 C6.72395576,10.348948 6.70698261,10.3377124 6.6873295,10.3218277 L6.65382987,10.2912204 L6.68107624,10.1130009 C6.7083226,9.94485462 6.75388209,9.56090778 6.76951525,9.37571445 C6.77353521,9.3292224 6.77978847,9.27846858 6.78246844,9.2625838 L6.79050835,9.23430113 L6.8190947,9.2637461 C6.84500108,9.28970416 6.84634107,9.29900257 6.83740783,9.38230082 L6.83740783,9.38230082 L6.83740783,9.38230082 Z M14.038488,9.31449992 C14.038488,9.3280601 14.1872263,10.0103309 14.2403791,10.2427912 C14.2729854,10.3807176 14.2988917,10.5012095 14.2988917,10.5128325 C14.2988917,10.5306544 14.2131327,10.6290626 14.1961596,10.6290626 C14.1921396,10.6290626 14.1805264,10.5647486 14.1715932,10.4845498 C14.1573,10.3535972 14.0934274,9.94679179 14.0451879,9.68062481 C14.0349147,9.62173488 14.0139216,9.52681361 13.9982884,9.46947342 C13.973722,9.37222755 13.973722,9.36447887 13.9929285,9.33735851 C14.0139216,9.31140045 14.038488,9.29784027 14.038488,9.31449992 L14.038488,9.31449992 L14.038488,9.31449992 Z M6.94549997,9.49659378 C6.93612007,9.55742088 6.92048691,9.66241542 6.91155368,9.73137863 C6.9008338,9.79917953 6.88162734,9.92896984 6.86733417,10.0192419 C6.85170101,10.109514 6.83338788,10.2234195 6.82668795,10.2733984 C6.8190947,10.32299 6.80971481,10.3760684 6.80614151,10.3907909 C6.79944159,10.4179112 6.79944159,10.4179112 6.77353521,10.3950526 C6.74762883,10.3725815 6.74762883,10.3725815 6.77353521,10.2327179 C6.82311466,9.96151427 6.89190056,9.47838439 6.89190056,9.40399711 C6.89190056,9.34510718 6.90217378,9.33503391 6.93612007,9.36331657 C6.95979314,9.38462543 6.96113313,9.3912118 6.94549997,9.49659378 L6.94549997,9.49659378 L6.94549997,9.49659378 Z M7.06743862,9.51557803 C7.06520531,9.52797591 7.05225212,9.60042602 7.04153224,9.6748133 C7.00758595,9.8917762 6.90217378,10.4992723 6.89592052,10.5035341 C6.89324055,10.507021 6.87894737,10.49811 6.86331421,10.4857121 L6.83740783,10.4616912 L6.8646542,10.3330632 C6.91021369,10.1288856 6.98971948,9.70968234 7.00267267,9.60158832 C7.00669262,9.56749415 7.01294589,9.51674033 7.01696584,9.48845767 L7.02455909,9.43770385 L7.04957215,9.46482421 C7.06386532,9.47954669 7.07145857,9.50085555 7.06743862,9.51557803 L7.06743862,9.51557803 L7.06743862,9.51557803 Z M13.9201226,9.66009082 C13.9424557,9.76159846 13.9839952,9.96848808 14.0125816,10.1207495 C14.0411679,10.2733984 14.0764542,10.4562672 14.0907474,10.5271675 C14.1273737,10.7069368 14.1260337,10.7080991 14.0568011,10.7747377 C14.0228548,10.8072821 13.9929285,10.8309156 13.9906952,10.8278161 C13.9880152,10.8254915 13.9786353,10.755366 13.972382,10.6728426 C13.946029,10.3613459 13.8861763,9.94369232 13.8276636,9.66706463 L13.7990773,9.53378742 L13.8303436,9.50550475 C13.8473168,9.48961997 13.8656299,9.47722209 13.8705432,9.47722209 C13.8759031,9.47722209 13.8982362,9.55974548 13.9201226,9.66009082 L13.9201226,9.66009082 L13.9201226,9.66009082 Z M7.16257756,9.55858318 C7.17195746,9.56633185 7.17821072,9.58570354 7.17821072,9.60236319 C7.17821072,9.6713264 7.01562586,10.580246 7.00133268,10.5938061 C6.99731273,10.597293 6.98033958,10.5872198 6.96202645,10.571335 L6.92986681,10.54189 L6.96202645,10.4020264 C6.98033958,10.3253146 7.01026592,10.1850635 7.02857905,10.0924669 C7.04689218,9.99870791 7.07279856,9.87007991 7.08709173,9.8046036 C7.10004492,9.7391273 7.11567808,9.65466675 7.12103802,9.6151485 C7.12997126,9.54269839 7.1353312,9.53494972 7.16257756,9.55858318 L7.16257756,9.55858318 Z M13.7575378,9.82707476 C13.7758509,9.92315833 13.8057772,10.0913046 13.8240903,10.199786 C13.8419568,10.3082675 13.8696498,10.4527803 13.882603,10.5217435 C13.8968962,10.5895444 13.9161027,10.691052 13.9281625,10.746455 C13.9384357,10.8018581 13.947369,10.8549365 13.947369,10.8650098 C13.947369,10.8944547 13.8214104,11.0118472 13.8133705,10.9901509 C13.8093505,10.9812399 13.7977373,10.869659 13.7861241,10.7418058 C13.7628977,10.4868744 13.6990251,10.0021948 13.6677587,9.84644645 C13.6570389,9.79220572 13.6481056,9.737965 13.6481056,9.72440482 C13.6481056,9.69418499 13.7003651,9.63064585 13.7146582,9.64304373 C13.7195715,9.64769294 13.7392246,9.73137863 13.7575378,9.82707476 L13.7575378,9.82707476 L13.7575378,9.82707476 Z M7.2822829,9.66822693 C7.30059603,9.69728446 7.21215701,10.3613459 7.15096436,10.6604447 L7.1353312,10.7317326 L7.09245167,10.6957012 C7.03751228,10.6503715 7.03751228,10.6344867 7.08083847,10.4461939 C7.14426443,10.1614301 7.21751695,9.80925281 7.2251102,9.74261421 C7.22913016,9.70542057 7.2344901,9.66822693 7.23806339,9.66009082 C7.24476332,9.63994426 7.26664974,9.64304373 7.2822829,9.66822693 L7.2822829,9.66822693 Z M7.4596076,9.86349353 C7.45558765,9.87821602 7.43995449,9.99095924 7.42566131,10.1153255 C7.41002815,10.2393043 7.38680174,10.4167489 7.37206191,10.5105079 C7.35776873,10.6031046 7.34124225,10.7228216 7.33320234,10.7759 C7.32560909,10.8289784 7.31890916,10.8762453 7.31756918,10.8820568 C7.31488921,10.8874809 7.28630286,10.8673344 7.25101658,10.8367271 C7.18982393,10.7813241 7.18982393,10.7813241 7.19652385,10.7193347 C7.20054381,10.6852405 7.20947704,10.6344867 7.21617697,10.606204 C7.27200968,10.3535972 7.34749551,9.90184947 7.3604487,9.74803828 C7.3604487,9.74493881 7.38412177,9.76392306 7.41270812,9.78988112 C7.45156769,9.82513759 7.46318089,9.84528415 7.4596076,9.86349353 L7.4596076,9.86349353 Z M13.586913,9.95144099 C13.5985262,10.0227288 13.6351524,10.2540267 13.6677587,10.4651781 C13.7003651,10.6763295 13.7352047,10.8944547 13.7459245,10.9506326 C13.7628977,11.0455539 13.7628977,11.05369 13.7392246,11.0862344 C13.7133182,11.1234281 13.6378324,11.1889044 13.6311325,11.1811557 C13.6284525,11.1788311 13.6168393,11.0319937 13.6038861,10.8549365 C13.584233,10.5589371 13.5440335,10.2044352 13.5038339,9.96035197 C13.4868608,9.86233123 13.4868608,9.86116893 13.5181271,9.83288627 C13.5351002,9.81700148 13.5529667,9.80809051 13.5569866,9.81273971 C13.5623466,9.81816379 13.5752998,9.88015318 13.586913,9.95144099 L13.586913,9.95144099 L13.586913,9.95144099 Z M7.573953,9.93013214 C7.59360611,9.94911639 7.6065593,9.97391215 7.60253935,9.98437286 C7.59896606,9.99444614 7.58958616,10.0510115 7.58199291,10.109514 C7.55831984,10.2857963 7.52437355,10.4857121 7.45692763,10.849125 C7.42968127,10.9948001 7.4270013,10.998287 7.38278179,10.9587687 L7.34615553,10.9258369 L7.38546176,10.7181724 C7.4060082,10.6042669 7.44665441,10.3714192 7.47390078,10.2021106 C7.50114714,10.0339644 7.52705352,9.89487567 7.53241346,9.89487567 C7.53643342,9.89487567 7.55563987,9.91076045 7.573953,9.93013214 L7.573953,9.93013214 L7.573953,9.93013214 Z M13.4319214,10.100603 C13.4439812,10.1773149 13.4712276,10.3659951 13.493114,10.5217435 C13.5141071,10.6763295 13.5467134,10.8874809 13.5636866,10.9901509 C13.6128194,11.2725901 13.6065661,11.2907994 13.5024939,11.1958782 L13.4399613,11.1381506 L13.4386213,11.0502031 C13.4359413,10.7995335 13.3877019,10.3590213 13.3345491,10.1060271 C13.3224892,10.0452 13.3224892,10.0393885 13.3564355,10.0021948 C13.3747487,9.98088596 13.3957418,9.96267657 13.400655,9.96267657 C13.406015,9.96267657 13.4189682,10.0250534 13.4319214,10.100603 L13.4319214,10.100603 Z M7.72760463,10.1455453 C7.71867139,10.1839012 7.70303823,10.2776602 7.69231835,10.3524349 C7.67445188,10.468665 7.62219246,10.7882979 7.58065293,11.0343183 C7.573953,11.0749989 7.56501977,11.1098679 7.56233979,11.1133548 C7.55563987,11.1191663 7.46586086,11.0354806 7.46452088,11.0219204 C7.46452088,11.0172712 7.50874039,10.8049575 7.56233979,10.5511884 C7.61549254,10.2958696 7.66015871,10.0758072 7.66015871,10.0610847 C7.66015871,10.0204042 7.67579187,10.015755 7.7092915,10.0463623 C7.74055782,10.0723203 7.74055782,10.0758072 7.72760463,10.1455453 L7.72760463,10.1455453 Z M7.83435678,10.156006 C7.84463,10.1695662 7.85132992,10.194362 7.84864995,10.2098593 C7.84463,10.2257441 7.83301679,10.2981942 7.82274357,10.3690946 C7.80309046,10.49811 7.69008504,11.1404752 7.67802518,11.1923913 L7.67177191,11.2195116 L7.63782562,11.1923913 C7.59762607,11.1598468 7.59762607,11.1664332 7.67936516,10.7588529 C7.73430455,10.4857121 7.76557087,10.3160161 7.78343734,10.1850635 C7.79281724,10.126561 7.80443044,10.1195872 7.83435678,10.156006 Z M13.2693365,10.2788225 C13.2939029,10.4403824 13.3863619,11.0130095 13.3957418,11.0579518 L13.403335,11.09747 L13.3617955,11.0637633 C13.2510234,10.9734912 13.2470034,10.9653551 13.2313703,10.7801618 C13.223777,10.6875651 13.2054639,10.5353036 13.1911707,10.442707 C13.1585644,10.2214823 13.1585644,10.2090844 13.2014439,10.1660793 C13.2447701,10.1219118 13.2470034,10.1253987 13.2693365,10.2788225 L13.2693365,10.2788225 L13.2693365,10.2788225 Z M7.964782,10.2687492 C7.98264847,10.2881209 7.99828163,10.314079 7.99828163,10.3264769 C7.99828163,10.3625082 7.93708897,10.7363818 7.8982294,10.933973 C7.87991627,11.0296691 7.85534988,11.1598468 7.84373667,11.2218362 C7.83167681,11.2838256 7.81604365,11.3345795 7.8084504,11.3345795 C7.80175047,11.3345795 7.77316412,11.3132706 7.74591776,11.2873125 L7.69633831,11.2396582 L7.72358467,11.1462867 C7.75485099,11.0319937 7.85892317,10.5500261 7.88929617,10.3659951 C7.90224936,10.293545 7.91654253,10.2338802 7.92145581,10.2338802 C7.92681575,10.2338802 7.94646887,10.2493775 7.964782,10.2687492 L7.964782,10.2687492 L7.964782,10.2687492 Z M13.0937984,10.3377124 C13.1237248,10.4957854 13.1795575,10.8704338 13.1741976,10.875083 C13.1679443,10.8797322 13.0326058,10.7576906 12.9999995,10.7170101 C12.9843663,10.6988007 12.9593533,10.5376282 12.9580133,10.4481311 C12.9580133,10.422173 13.0558322,10.3016811 13.0781653,10.3016811 C13.0830786,10.3016811 13.0897785,10.3183407 13.0937984,10.3377124 L13.0937984,10.3377124 Z M8.08716731,10.3826548 C8.10771375,10.4008641 8.10637376,10.4473562 8.07644743,10.6573453 C8.06081427,10.7565283 8.03758786,10.9215751 8.02463467,11.024245 C8.01034149,11.126915 7.99604832,11.2229985 7.99202836,11.2365587 C7.98398845,11.2648414 7.87366301,11.3740977 7.85266991,11.3740977 C7.84463,11.3740977 7.84373667,11.3605375 7.84864995,11.3427156 C7.88929617,11.2024646 8.0335679,10.5442146 8.04518111,10.4450316 C8.054561,10.3671574 8.05947428,10.3590213 8.08716731,10.3826548 L8.08716731,10.3826548 Z M8.1934728,10.7406435 C8.18453956,10.8785699 8.18051961,10.9936378 8.18453956,10.9971247 C8.1934728,11.0048733 8.21848585,10.8549365 8.235459,10.6833033 C8.24841219,10.5488638 8.25243214,10.5294921 8.26940529,10.54189 C8.28593177,10.5531256 8.28727175,10.5860575 8.27967851,10.7565283 C8.27431857,10.8673344 8.26538533,10.9711666 8.25734542,10.9882137 C8.24975217,11.0048733 8.22250581,11.0389675 8.19481278,11.0637633 C8.16756642,11.088559 8.11798697,11.1335013 8.08448734,11.1652709 C8.02954795,11.217187 8.02463467,11.2195116 8.02463467,11.1935536 C8.02463467,11.1776688 8.0335679,11.1346636 8.04250114,11.09747 C8.06215425,11.0277319 8.11441367,10.7530414 8.14166004,10.5837329 C8.16265314,10.4539426 8.16354646,10.451618 8.18855952,10.4733142 C8.20687265,10.4876493 8.20687265,10.5182566 8.1934728,10.7406435 L8.1934728,10.7406435 Z M12.9341275,10.580246 C12.942725,10.6197642 12.942725,10.6515338 12.9369933,10.6515338 C12.9217089,10.6515338 12.8409879,10.5701727 12.8409879,10.5542879 C12.8409879,10.5477015 12.8548394,10.5271675 12.8715568,10.5105079 C12.9078573,10.4733142 12.9159772,10.4822252 12.9341275,10.580246 Z M8.50613599,10.7588529 C8.50613599,10.7735754 8.29933162,10.9653551 8.29933162,10.9506326 C8.29799164,10.9440462 8.30692487,10.8932924 8.31719809,10.8378894 C8.32791797,10.7813241 8.3368512,10.7123609 8.3368512,10.6844656 C8.3368512,10.656183 8.34087116,10.6290626 8.34578444,10.6244134 C8.35650432,10.6155024 8.50613599,10.7406435 8.50613599,10.7588529 L8.50613599,10.7588529 Z M10.8738897,12.7448383 C10.9587555,12.8095397 11.0092282,12.8579689 11.0172681,12.8804401 C11.0485345,12.9652881 11.2450656,13.9927624 11.2321124,14.003998 C11.2227325,14.0117466 11.0954339,13.9114013 11.0784608,13.8819563 C11.0445145,13.8257784 10.8752297,13.2620623 10.8037638,12.9664504 C10.7854507,12.8885762 10.7582044,12.7866811 10.7452512,12.7382519 C10.730958,12.690985 10.7193448,12.6491422 10.7193448,12.644493 C10.7193448,12.6286082 10.7465911,12.6468176 10.8738897,12.7448383 L10.8738897,12.7448383 L10.8738897,12.7448383 Z M10.4745742,12.7312781 C10.5589932,13.0702826 10.6880785,13.5363654 10.7541844,13.743255 L10.7881307,13.8482496 L10.7046049,13.9214746 C10.6590455,13.9609928 10.6175059,13.9939247 10.6125926,13.9939247 C10.6072327,13.9939247 10.6018728,13.9733907 10.6018728,13.9485949 C10.6018728,13.7870351 10.4625143,13.0621465 10.3937284,12.8614558 L10.366482,12.7855188 L10.4026616,12.7460006 C10.4446478,12.699896 10.4665343,12.6964091 10.4745742,12.7312781 L10.4745742,12.7312781 L10.4745742,12.7312781 Z M10.3285158,12.8951626 C10.3740753,13.0396754 10.4379479,13.31979 10.523707,13.7544906 L10.5786463,14.0276314 L10.5107538,14.0954323 C10.4732342,14.132626 10.4379479,14.1632332 10.432588,14.1632332 C10.4276747,14.1632332 10.4182948,14.1260396 10.4147215,14.0807098 C10.3883685,13.8277156 10.3740753,13.7215588 10.3285158,13.4406693 C10.2999294,13.2701984 10.2646432,13.0826805 10.24901,13.0249529 L10.2217636,12.918796 L10.2583899,12.8862516 C10.278043,12.8680422 10.2985894,12.8533197 10.3039494,12.8533197 C10.3102027,12.8533197 10.3209225,12.8726914 10.3285158,12.8951626 L10.3285158,12.8951626 L10.3285158,12.8951626 Z M11.270972,13.0656334 C11.3075983,13.1663662 11.4804563,14.1272019 11.4715231,14.1744688 C11.4675032,14.1938405 11.4572299,14.1891913 11.3906773,14.1384375 L11.3151915,14.0783852 L11.297325,13.9203123 C11.2673987,13.6541453 11.1892329,13.1888374 11.1409934,12.9842723 L11.1329535,12.9505656 L11.1981661,12.9989948 C11.2347924,13.0249529 11.2673987,13.0555602 11.270972,13.0656334 L11.270972,13.0656334 L11.270972,13.0656334 Z M10.1775441,13.0079058 C10.1904973,13.047424 10.25035,13.3503972 10.2883162,13.5704596 C10.3102027,13.6944384 10.342809,13.8866055 10.3624621,13.9981865 L10.3977483,14.1992646 L10.3244958,14.2624163 L10.25303,14.3247931 L10.2440967,14.2581545 C10.1931773,13.8412758 10.1449378,13.577046 10.0591788,13.2461776 L10.0252325,13.115225 L10.0877651,13.0520732 C10.1543177,12.9842723 10.1672709,12.977686 10.1775441,13.0079058 L10.1775441,13.0079058 Z M15.0005973,13.8707208 L15.0019373,14.3278926 L14.9434246,14.3643113 L14.8849119,14.4003427 L14.8849119,14.213987 C14.8849119,13.9981865 14.8625788,13.512732 14.8456057,13.3387742 C14.8326525,13.2066593 14.8313125,13.2101462 14.9291314,13.1086386 L14.9822842,13.0520732 L14.9903241,13.2326174 C14.995684,13.3310255 14.9992573,13.6188888 15.0005973,13.8707208 L15.0005973,13.8707208 Z M11.5300358,13.2578006 C11.545669,13.2721356 11.5586221,13.3116539 11.5666621,13.3639574 C11.5872085,13.5026587 11.6667143,14.3259554 11.660461,14.3360287 C11.6564411,14.3414528 11.6318747,14.3271177 11.6041816,14.3042591 C11.5563888,14.2635786 11.5550488,14.2604791 11.545669,14.158584 C11.5224425,13.8629721 11.4661632,13.4619782 11.4219437,13.2578006 C11.4013972,13.1671411 11.4040772,13.1640416 11.4585699,13.2012352 C11.4844763,13.2190572 11.5170826,13.2454027 11.5300358,13.2578006 L11.5300358,13.2578006 L11.5300358,13.2578006 Z M10.0020061,13.2791094 C10.0748119,13.5545748 10.2114904,14.2422697 10.2114904,14.337191 C10.2114904,14.3654736 10.1958573,14.3856202 10.1346646,14.4386986 C10.0475656,14.5130859 10.0422056,14.5111487 10.0422056,14.3914317 C10.0422056,14.2469189 9.9667198,13.6018417 9.92384027,13.3740307 L9.89793389,13.234942 L9.92652024,13.2078216 C9.9421534,13.1930991 9.96001987,13.1807013 9.96537981,13.1807013 C9.97073975,13.1807013 9.98637291,13.2248687 10.0020061,13.2791094 L10.0020061,13.2791094 L10.0020061,13.2791094 Z M9.87292084,13.577046 C9.89257395,13.7227211 9.92250029,13.9431709 9.93813345,14.0671497 C9.95376661,14.1915159 9.97341972,14.3507512 9.98235296,14.4204892 C10.0006661,14.5653895 10.0020061,14.5595779 9.90150719,14.6510123 C9.86890088,14.6804573 9.83763456,14.7017661 9.8313813,14.6982792 C9.82602136,14.6951798 9.82110808,14.6351275 9.82110808,14.5642272 C9.82110808,14.3348664 9.75857544,13.7339566 9.71524925,13.5499256 L9.68934287,13.439507 L9.75723545,13.3717061 C9.79475504,13.3356748 9.82736134,13.3062298 9.83004131,13.3097167 C9.83272128,13.3116539 9.8523744,13.4313709 9.87292084,13.577046 L9.87292084,13.577046 Z M14.7611866,13.588669 C14.7701199,13.7273703 14.788433,13.9850137 14.8000462,14.1609086 L14.8223793,14.4805415 L14.7495734,14.5642272 C14.6790009,14.6452008 14.6414813,14.6711589 14.6557745,14.6285412 C14.6597944,14.6184679 14.6687276,14.491777 14.6763209,14.3495889 C14.6910607,14.1113171 14.6883808,13.8424381 14.6687276,13.5239676 C14.6611344,13.4011511 14.6620277,13.3988265 14.695974,13.3627951 C14.7156271,13.3434234 14.7339403,13.3287009 14.7375136,13.3310255 C14.7401935,13.3345124 14.7509134,13.4495803 14.7611866,13.588669 L14.7611866,13.588669 L14.7611866,13.588669 Z M11.7721264,13.4677897 C11.7801663,13.4867739 11.8060727,13.6595694 11.8319791,13.8528988 C11.8569922,14.0446785 11.8909385,14.2783011 11.9052316,14.3708977 C11.9195248,14.4623321 11.928458,14.5413686 11.9244381,14.5448555 C11.9181848,14.550667 11.7998195,14.4623321 11.7658732,14.427463 C11.7564933,14.4185521 11.74756,14.3278926 11.7422001,14.2062384 C11.7372868,14.0919454 11.7216537,13.8652967 11.7087005,13.7014122 C11.6939606,13.5363654 11.6823474,13.3988265 11.6823474,13.3930149 C11.6823474,13.3705438 11.7605132,13.4360201 11.7721264,13.4677897 L11.7721264,13.4677897 L11.7721264,13.4677897 Z M6.20850814,13.4778629 C6.22682127,13.5286168 6.39208611,14.1043433 6.47427186,14.4026673 C6.48945836,14.4557457 6.50509152,14.5088241 6.50911148,14.521222 C6.5158114,14.5359445 6.51447142,14.5382691 6.5041982,14.530133 C6.4948183,14.5235466 6.41799249,14.2771387 6.33223344,13.9826891 C6.24602773,13.687852 6.17188188,13.4371824 6.16830859,13.4247845 C6.16294865,13.4112243 6.16562862,13.4065751 6.17456185,13.4112243 C6.18260176,13.4158735 6.19823492,13.4449311 6.20850814,13.4778629 L6.20850814,13.4778629 Z M6.38806615,13.6719672 C6.42067246,13.7591398 6.50643151,14.0109718 6.57968403,14.2310341 C6.6511499,14.4510965 6.71502253,14.640939 6.71725583,14.6510123 C6.72127579,14.6622479 6.7199358,14.6711589 6.71636251,14.6711589 C6.69536941,14.6711589 6.56539085,14.5731381 6.55869093,14.5526041 C6.55601096,14.5402063 6.53903781,14.4646567 6.52072468,14.3856202 C6.48052513,14.2062384 6.38538618,13.845925 6.32553351,13.6460092 C6.27238077,13.4732137 6.27104078,13.4619782 6.30498707,13.4914231 C6.31928025,13.503821 6.35545985,13.5851821 6.38806615,13.6719672 L6.38806615,13.6719672 L6.38806615,13.6719672 Z M9.66879643,13.6436846 C9.68040964,13.7091609 9.71033597,13.9373594 9.73490237,14.1519977 C9.76125541,14.3666359 9.78716179,14.5789496 9.79341505,14.6250543 C9.80011498,14.670384 9.80145496,14.7188132 9.79475504,14.7323734 C9.7858218,14.7536823 9.67906965,14.8520904 9.67772967,14.8408548 C9.6750497,14.8272947 9.66611646,14.6510123 9.65807655,14.5130859 C9.64378338,14.2252226 9.58527069,13.81648 9.54105118,13.6843651 C9.5151448,13.6076532 9.5151448,13.6088155 9.57633746,13.5491507 C9.61519703,13.5096325 9.63217017,13.4991718 9.63976342,13.5104074 C9.64512336,13.5185435 9.65807655,13.5782083 9.66879643,13.6436846 L9.66879643,13.6436846 L9.66879643,13.6436846 Z M14.5646555,13.5782083 C14.5709087,13.6247003 14.5762687,13.7296949 14.5919018,14.1744688 C14.5959218,14.2771387 14.6021751,14.4398609 14.606195,14.5359445 L14.6142349,14.7110645 L14.5543822,14.7808026 C14.5217759,14.8203209 14.4931896,14.8520904 14.4918496,14.8520904 C14.4891696,14.8520904 14.4891696,14.5673266 14.4891696,14.2209609 C14.4918496,13.6247003 14.4931896,13.5875067 14.515076,13.5603863 C14.5293692,13.5445015 14.5436624,13.5309414 14.5476823,13.5309414 C14.5530423,13.5309414 14.5592955,13.5522502 14.5646555,13.5782083 L14.5646555,13.5782083 L14.5646555,13.5782083 Z M11.9650843,13.6018417 C11.9999239,13.6370982 12.0066238,13.6584071 12.0441434,13.8594852 C12.0923829,14.1179035 12.1705487,14.5797245 12.1835019,14.6816196 C12.1902018,14.7265619 12.1888618,14.7513577 12.1799286,14.7494205 C12.1732287,14.7470959 12.1343691,14.7176509 12.0937229,14.6858813 C12.0093038,14.6180804 11.9950106,14.5878606 11.9950106,14.4716305 C11.9950106,14.3561752 11.9373913,13.7839356 11.9088049,13.6123024 C11.8985317,13.5545748 11.9141649,13.5510879 11.9650843,13.6018417 L11.9650843,13.6018417 L11.9650843,13.6018417 Z M6.51313143,13.6281872 C6.54305777,13.6607317 6.63685673,13.9036526 6.72261577,14.1690447 C6.75254211,14.2616414 6.80882149,14.436374 6.84768105,14.5549287 C6.93076013,14.8114099 6.93076013,14.816834 6.88296733,14.7854518 C6.76683528,14.7130017 6.76415531,14.7087399 6.72797572,14.5584156 C6.68375621,14.3677982 6.60961036,14.1159663 6.5158114,13.8265533 C6.47159189,13.6944384 6.43630562,13.5840198 6.43630562,13.5805329 C6.43630562,13.568135 6.48856504,13.5999046 6.51313143,13.6281872 L6.51313143,13.6281872 L6.51313143,13.6281872 Z M9.50710489,13.9261238 C9.54507114,14.1543223 9.60492381,14.6297035 9.62189695,14.8179963 L9.62815022,14.9028442 L9.55534436,14.9648336 L9.4825385,15.0260482 L9.4825385,14.8044361 C9.4825385,14.4646567 9.44993219,14.029956 9.40973264,13.8265533 C9.39141951,13.7339566 9.39141951,13.7320195 9.42000586,13.7002499 C9.436979,13.6832028 9.45395215,13.6719672 9.45886543,13.6766164 C9.46422537,13.6801033 9.48655845,13.7928466 9.50710489,13.9261238 L9.50710489,13.9261238 L9.50710489,13.9261238 Z M6.80346154,14.0400293 C6.85036102,14.1857044 6.90753372,14.3677982 6.93076013,14.4456724 C6.9544332,14.5235466 6.99329277,14.6521746 7.01830583,14.7312111 C7.04287222,14.8114099 7.05984537,14.8823103 7.05850538,14.8881218 C7.05582541,14.8950956 7.032599,14.8846349 7.00758595,14.8656506 C6.96604641,14.833881 6.95979314,14.8203209 6.93880004,14.7253996 C6.91289366,14.6049077 6.75924204,14.0764481 6.69134945,13.8718831 C6.66544308,13.7951712 6.64444997,13.726208 6.64444997,13.7196216 C6.64444997,13.7114855 6.66142312,13.7215588 6.68107624,13.7409304 C6.71100257,13.7680508 6.73422898,13.8265533 6.80346154,14.0400293 Z M12.1861818,13.7715377 C12.2174482,13.7998204 12.2420146,13.837014 12.2460345,13.8594852 C12.2603277,13.9249615 12.3058872,14.2593168 12.3331335,14.4964262 C12.3478734,14.620405 12.3643999,14.7571692 12.3710998,14.8013366 C12.3777997,14.8439543 12.378693,14.8834726 12.3737798,14.8881218 C12.3684198,14.8939333 12.3344735,14.8733993 12.2982939,14.842792 L12.2330813,14.790101 L12.2241481,14.6285412 C12.2134282,14.4216515 12.1848419,14.1709819 12.1446423,13.9373594 C12.1263292,13.8346894 12.112036,13.7444174 12.112036,13.7362812 C12.112036,13.7114855 12.1343691,13.7215588 12.1861818,13.7715377 L12.1861818,13.7715377 L12.1861818,13.7715377 Z M14.3694643,13.8436004 C14.3730376,13.8990034 14.3797375,14.0900083 14.3850975,14.2705524 C14.3886708,14.4499342 14.3967107,14.6711589 14.4029639,14.7618184 C14.4096639,14.8691375 14.4083239,14.9334515 14.3993906,14.948174 C14.3810775,14.9795561 14.2703054,15.1015978 14.2640521,15.0969486 C14.2613722,15.094624 14.2653921,14.9977655 14.2729854,14.8815354 C14.2805786,14.7649178 14.2859386,14.4782169 14.2872785,14.2445943 C14.2872785,13.8257784 14.2886185,13.8176423 14.3158649,13.7827733 C14.3314981,13.7622393 14.3484712,13.7455797 14.3524912,13.7455797 C14.3574044,13.7455797 14.3654443,13.7893597 14.3694643,13.8436004 L14.3694643,13.8436004 L14.3694643,13.8436004 Z M9.33916009,13.8153177 C9.33916009,13.8234538 9.34452003,13.8718831 9.35211328,13.9237992 C9.36908642,14.059401 9.43027908,14.9005196 9.43027908,15.0144252 C9.43027908,15.0779643 9.43027908,15.0779643 9.3378201,15.1601003 L9.24536113,15.2414613 L9.25340104,15.1457652 C9.27171417,14.9346138 9.28734733,14.3980181 9.2806474,14.2647409 C9.27662745,14.1868667 9.26501424,14.0694743 9.25206105,14.0016734 L9.22972797,13.880794 L9.27439414,13.8412758 C9.32084696,13.7998204 9.33916009,13.7928466 9.33916009,13.8153177 L9.33916009,13.8153177 L9.33916009,13.8153177 Z M6.88654062,13.8707208 C6.91557363,13.8900924 6.94148001,13.9114013 6.94639329,13.91915 C6.96336644,13.945108 7.25503654,14.8815354 7.28898283,15.0202367 L7.29791606,15.0585926 L7.23940338,15.021399 C7.13667118,14.957085 7.12863127,14.9470117 7.09379166,14.7966874 C7.05314544,14.620405 6.8762674,13.9892755 6.83204789,13.854836 C6.82311466,13.8288779 6.82802794,13.8300402 6.88654062,13.8707208 L6.88654062,13.8707208 Z M12.4077261,13.9431709 C12.4242525,13.9532441 12.4425657,13.9792022 12.4492656,14.0028357 C12.4635588,14.05049 12.6029172,14.8993573 12.6158704,15.0167498 L12.6234637,15.094624 L12.5600377,15.047357 C12.4336324,14.9559227 12.4412257,14.9772315 12.4336324,14.7164886 C12.4269325,14.5165728 12.385393,14.0524272 12.3657399,13.956731 C12.3594866,13.9214746 12.3670798,13.91915 12.4077261,13.9431709 L12.4077261,13.9431709 L12.4077261,13.9431709 Z M14.1934796,14.6037454 L14.1961596,15.1736604 L14.15596,15.2279012 C14.0894074,15.3139114 14.0853874,15.3104245 14.0961073,15.1612626 C14.1166538,14.8373679 14.129607,14.4557457 14.1287136,14.2333587 C14.1273737,14.0187204 14.129607,13.9904378 14.1506001,13.9621551 L14.1751665,13.9319353 L14.1832064,13.9826891 C14.1885663,14.0109718 14.1921396,14.2895366 14.1934796,14.6037454 L14.1934796,14.6037454 Z M9.19220839,14.0357675 C9.20382159,14.1372752 9.20516157,15.2279012 9.19220839,15.269744 C9.18818843,15.2856288 9.14798888,15.3309585 9.10510935,15.3712516 L9.02560357,15.4448641 L9.03319682,15.3433564 C9.06178316,14.9760692 9.06714311,14.8575145 9.07250305,14.4704682 L9.07741632,14.038867 L9.11806254,13.9939247 C9.14128895,13.9691289 9.16362204,13.9485949 9.1698753,13.9485949 C9.17657523,13.9485949 9.18550846,13.9881132 9.19220839,14.0357675 L9.19220839,14.0357675 L9.19220839,14.0357675 Z M7.13399121,14.0357675 C7.14962437,14.0470031 7.1679375,14.0659874 7.17553075,14.0783852 C7.21483698,14.1473484 7.61325923,15.2290635 7.60521932,15.2484351 C7.60253935,15.2550215 7.54938661,15.2267389 7.48819395,15.1860583 C7.35687541,15.0992732 7.37876183,15.1457652 7.26307645,14.7223001 C7.22243023,14.5731381 7.16257756,14.3596621 7.13131124,14.2480812 C7.10004492,14.1361129 7.07145857,14.0334429 7.06743862,14.0187204 C7.06118535,13.9962493 7.06386532,13.9939247 7.08307178,14.003998 C7.09647163,14.0109718 7.11969804,14.0245319 7.13399121,14.0357675 L7.13399121,14.0357675 L7.13399121,14.0357675 Z M12.6341835,14.2376205 C12.65607,14.3561752 12.772202,15.0260482 12.7967684,15.170561 C12.8007884,15.2007808 12.7994484,15.2248017 12.7940884,15.2248017 C12.7878352,15.2236394 12.7538889,15.2007808 12.7199426,15.1736604 L12.65741,15.1240689 L12.6524967,15.0020273 C12.6355235,14.6362898 12.6221237,14.4941016 12.5729909,14.1295265 C12.564951,14.0706366 12.566291,14.068312 12.5872841,14.085359 C12.6015772,14.0977569 12.6172104,14.1485107 12.6341835,14.2376205 L12.6341835,14.2376205 L12.6341835,14.2376205 Z M14.0206215,14.75252 L14.0112416,15.3882987 L13.9384357,15.4708221 C13.8982362,15.5161519 13.8642899,15.5510209 13.8616099,15.5486963 C13.85893,15.5463717 13.8683099,15.4359531 13.882603,15.3026759 C13.9111894,15.0190744 13.9344158,14.6173056 13.9344158,14.3767092 C13.9344158,14.2093378 13.9344158,14.2062384 13.9710421,14.1620709 C13.9906952,14.1384375 14.0112416,14.1179035 14.0179415,14.1179035 C14.0241948,14.1179035 14.0255348,14.3801961 14.0206215,14.75252 Z M8.98629734,14.5436932 C8.98629734,14.7660801 8.98138406,15.0709905 8.97602412,15.2213148 L8.96709088,15.4944556 L8.91483146,15.5440471 C8.8420256,15.6164972 8.82639244,15.6199841 8.83666566,15.5610942 C8.87061195,15.3534297 8.88624511,14.4600075 8.85765876,14.3360287 L8.84068562,14.2647409 L8.90187827,14.2027515 C8.93582456,14.1690447 8.96977085,14.1407621 8.97602412,14.1407621 C8.98272404,14.1407621 8.98763732,14.3042591 8.98629734,14.5436932 L8.98629734,14.5436932 Z M12.770862,14.2275472 C12.8226748,14.2647409 12.8320547,14.2864372 12.8655543,14.456908 C12.8995006,14.6285412 12.9843663,15.2619953 12.9843663,15.3452936 C12.9843663,15.3724139 12.9566733,15.3600161 12.8852074,15.3026759 L12.8150815,15.2437859 L12.8150815,15.1570008 C12.8150815,14.9931163 12.7485289,14.3685731 12.7159226,14.2275472 C12.7123493,14.2105001 12.7123493,14.19694 12.7172626,14.19694 C12.7212826,14.19694 12.745849,14.2105001 12.770862,14.2275472 L12.770862,14.2275472 L12.770862,14.2275472 Z M7.75217102,15.150027 C7.81738363,15.2980267 7.86696308,15.4223929 7.86294313,15.4254924 C7.85668986,15.4313039 7.72492466,15.3487805 7.70035826,15.3228224 C7.69365834,15.3150738 7.63782562,15.1593254 7.57663297,14.9760692 C7.51544031,14.7932005 7.43459454,14.5537664 7.39841495,14.4456724 C7.36178869,14.337191 7.32918238,14.2376205 7.32560909,14.2252226 C7.31622919,14.188029 7.6275524,14.8610014 7.75217102,15.150027 L7.75217102,15.150027 L7.75217102,15.150027 Z M7.52571353,14.3011596 C7.57261301,14.3449397 7.79817718,14.8621637 7.93842896,15.2526969 C7.97237525,15.3452936 8.00900151,15.4471887 8.02061471,15.4766336 C8.03088793,15.5068535 8.03758786,15.5339738 8.0335679,15.5374607 C8.02329468,15.5452094 7.96344201,15.5045289 7.94780885,15.4785708 C7.93976894,15.4661729 7.8772363,15.3216601 7.8084504,15.1570008 C7.74055782,14.991954 7.62621242,14.7199755 7.55474655,14.550667 C7.484174,14.380971 7.42566131,14.2399451 7.42566131,14.2364582 C7.42566131,14.2263849 7.49221391,14.2693901 7.52571353,14.3011596 L7.52571353,14.3011596 L7.52571353,14.3011596 Z M8.79110617,14.8439543 C8.79110617,15.1186448 8.78708621,15.4165814 8.78351292,15.5056912 L8.77547301,15.6684133 L8.72991351,15.7125808 C8.70534712,15.7362142 8.68033406,15.7551985 8.67542078,15.7551985 C8.6530877,15.7551985 8.6530877,15.7044447 8.67676077,15.4890315 C8.71160038,15.1682364 8.72991351,14.8823103 8.73527345,14.6056826 C8.73929341,14.37206 8.74822664,14.3213062 8.78083295,14.3395156 C8.7884262,14.3426151 8.79244615,14.5572533 8.79110617,14.8439543 L8.79110617,14.8439543 L8.79110617,14.8439543 Z M13.8249837,14.4197144 C13.8214104,14.4623321 13.8133705,14.7494205 13.8084572,15.0585926 L13.8004173,15.6211464 L13.7472645,15.6854604 C13.7079583,15.7327273 13.6923251,15.7439629 13.6896452,15.7292404 C13.6869652,15.7180048 13.6936651,15.6211464 13.7052783,15.5149896 C13.7445846,15.1477024 13.7785309,14.5684889 13.767811,14.4592326 C13.763791,14.4173898 13.769151,14.3914317 13.7834441,14.37206 C13.8214104,14.3213062 13.8343636,14.337191 13.8249837,14.4197144 L13.8249837,14.4197144 Z M13.0156326,14.4197144 C13.0518122,14.4487719 13.0857585,14.4817038 13.0911185,14.491777 C13.1013917,14.5142482 13.1456112,15.4719844 13.136678,15.4808954 C13.132658,15.4843823 13.1054117,15.4696598 13.0768253,15.4495133 L13.0232259,15.4130945 L13.0232259,15.304613 C13.0232259,15.0597549 12.9932996,14.7618184 12.9374668,14.4197144 C12.9321069,14.3902694 12.9334469,14.3666359 12.9388068,14.3666359 C12.9437201,14.3666359 12.9790064,14.3902694 13.0156326,14.4197144 L13.0156326,14.4197144 L13.0156326,14.4197144 Z M7.74055782,14.4421855 C7.81470366,14.5130859 8.27431857,15.6447799 8.24037227,15.6742248 C8.22473911,15.6866227 8.08940062,15.5847276 8.08180737,15.5545078 C7.99470833,15.2189902 7.89152948,14.9229908 7.72626464,14.5266461 C7.6847251,14.4251384 7.67802518,14.401505 7.69633831,14.410416 C7.70795151,14.4162275 7.72894461,14.4297876 7.74055782,14.4421855 L7.74055782,14.4421855 Z M8.65040773,15.0101634 C8.62986129,15.4619111 8.62048139,15.5793036 8.60886819,15.5610942 C8.60395491,15.5533455 8.58430179,15.4956179 8.56732865,15.4336285 C8.54008228,15.3398695 8.53740231,15.3080999 8.54499556,15.2472728 C8.57760187,15.0167498 8.58430179,14.9423625 8.58832175,14.7730539 C8.58921507,14.670384 8.58698176,14.5731381 8.58028184,14.556091 C8.57268859,14.5312953 8.57894185,14.5177351 8.61288814,14.4840284 L8.65576767,14.4421855 L8.65978762,14.5708135 C8.66246759,14.6421013 8.65844764,14.8396925 8.65040773,15.0101634 L8.65040773,15.0101634 L8.65040773,15.0101634 Z M13.6641449,14.936551 C13.6531287,15.1477024 13.6382567,15.3309585 13.6321978,15.3421941 C13.6206307,15.363503 13.6096144,15.2255766 13.590336,14.8114099 L13.5793197,14.5956093 L13.625588,14.5526041 C13.6641449,14.5154105 13.6740596,14.5130859 13.6784661,14.5312953 C13.6817709,14.5425309 13.6751612,14.7253996 13.6641449,14.936551 L13.6641449,14.936551 L13.6641449,14.936551 Z M7.98800841,14.6025831 C8.0219547,14.6227296 8.054561,14.6533369 8.06215425,14.670384 C8.08716731,14.7253996 8.39045061,15.7462875 8.38643066,15.7633346 C8.38107071,15.7858058 8.27297858,15.7156802 8.26672532,15.6842981 C8.26270536,15.6707379 8.24841219,15.5982878 8.23277903,15.5239005 C8.18319958,15.2833042 8.07778741,14.9706452 7.93485566,14.6397767 C7.91118259,14.5843737 7.90090937,14.5495047 7.91118259,14.5549287 C7.92011583,14.5595779 7.9554021,14.5808868 7.98800841,14.6025831 L7.98800841,14.6025831 L7.98800841,14.6025831 Z M13.2746964,14.620405 C13.314896,14.6533369 13.3224892,14.6657348 13.3224892,14.7064153 C13.3224892,14.7323734 13.3318691,14.9435248 13.3434823,15.1748227 C13.3537556,15.4076704 13.3617955,15.6130103 13.3591155,15.6335443 L13.3550955,15.6695756 L13.2733565,15.602937 L13.1898307,15.5351361 L13.2054639,15.3150738 C13.2157371,15.175985 13.2184171,15.0000901 13.2135038,14.8373679 C13.2094838,14.6963421 13.2094838,14.5808868 13.2148438,14.5808868 C13.221097,14.5808868 13.2470034,14.5990962 13.2746964,14.620405 L13.2746964,14.620405 L13.2746964,14.620405 Z M8.51506923,14.7866141 C8.50613599,14.9842053 8.49184282,15.1601003 8.48514289,15.1535139 C8.47754964,15.1477024 8.36275758,14.7594938 8.36275758,14.7401221 C8.36275758,14.7211378 8.49050283,14.5932847 8.51149593,14.5932847 C8.5177492,14.5921224 8.52042917,14.6723212 8.51506923,14.7866141 L8.51506923,14.7866141 Z" fill-rule="nonzero" transform="translate(10.6065, 11.1478) rotate(-45) translate(-10.6065, -11.1478)"></path>
            </g>
        </g>
    </g>
</svg>