<svg width="28px" height="24px" viewBox="0 0 28 24" version="1.1" xmlns="http://www.w3.org/2000/svg" xmlns:xlink="http://www.w3.org/1999/xlink">
    <title>Available Worldwide</title>
    <g stroke="none" stroke-width="1" fill="none" fill-rule="evenodd">
        <g transform="translate(-48, -2240)" fill="currentColor">
            <g transform="translate(0, 626.8902)">
                <g transform="translate(17, 40.1098)" fill-rule="nonzero">
                    <g transform="translate(1, 1318)">
                        <g transform="translate(0, 76)">
                            <g transform="translate(30, 175.7464)">
                                <g transform="translate(0, 3.2536)">
                                    <path d="M26.1193563,18.5087524 C24.7396567,20.6746279 22.7052247,22.3265369 20.3221608,23.2159336 C20.1945589,23.3372533 20.0267024,23.4053131 19.8519767,23.4065763 L19.8296612,23.4018916 C17.6197751,24.1449591 15.2413328,24.1968579 13.0021049,23.5508723 C12.8226423,23.499871 12.6704768,23.3784758 12.5791062,23.2134104 C12.4877355,23.0483451 12.4646498,22.8531413 12.5149312,22.6707708 C12.6227923,22.2936297 13.0077214,22.0735248 13.3808632,22.1756254 C15.2352483,22.6983213 17.1965251,22.683341 19.0429716,22.132378 C18.9923937,21.8599181 18.8956068,21.5984663 18.756932,21.3596951 C18.5222907,21.0715859 18.2232596,20.844687 17.8847888,20.6979301 C17.2591627,20.3867414 16.699493,19.9541381 16.2373244,19.424503 C15.9872143,19.122925 16.0250013,18.6723756 16.321724,18.4181729 C16.6184467,18.1639702 17.0617423,18.2023755 17.3118524,18.5039535 C17.6637274,18.8980276 18.0882403,19.2181235 18.5613486,19.4461124 C19.1004282,19.6925851 19.5682259,20.0755879 19.9199488,20.5584473 C20.1296805,20.8896836 20.2806865,21.2557081 20.3661172,21.6399176 C25.0375171,19.6134554 27.5460163,14.4172156 26.2643224,9.42205915 C25.7677811,9.60703042 25.2982244,9.85961045 24.868497,10.1728898 C23.9569578,10.9223302 23.2929744,11.9374038 22.9657822,13.0816908 C22.2360356,14.7135512 20.5863603,15.7136542 18.8268574,15.590882 L18.4913248,15.6180902 C18.3465537,15.6409331 18.2036634,15.6747338 18.0638463,15.7192102 C17.693354,15.8339569 17.3013376,15.6225134 17.1871702,15.2463538 C17.0730027,14.8701942 17.2796982,14.4710413 17.6494086,14.3537182 C17.8683861,14.2851703 18.0922962,14.2341075 18.3190968,14.2009955 L18.7280259,14.166132 C19.991926,14.0761522 21.1666346,13.8857809 21.6537661,12.571206 C22.0813878,11.1514331 22.9296481,9.90035855 24.0827769,8.98872832 C24.6158228,8.60524509 25.1976587,8.29714401 25.8123222,8.07287775 C25.0316509,6.0392243 23.6450909,4.30442941 21.8465811,3.11113976 C21.5722051,2.93199445 21.2838469,2.78581314 20.9975403,2.63508999 C20.1952144,3.01958268 19.7049887,3.862775 19.7606492,4.76255298 C19.7288987,5.72290729 19.2888285,6.62204005 18.5543926,7.22712566 C18.3971296,7.36729026 18.2595362,7.52872694 18.1454635,7.70691744 C18.8285772,8.75595581 18.6374856,10.15763 17.6994638,10.9783653 C17.3065848,11.3104747 16.8120712,11.4929717 16.3010667,11.4944346 C15.7025865,11.4849688 15.128429,11.2521476 14.6879046,10.8402964 C14.0187368,10.258978 13.5628729,9.46456413 13.3945223,8.58637621 C13.2648454,8.06890722 13.203773,7.87992127 12.8853985,7.67488181 C12.8109522,7.62392221 12.7239498,7.59517584 12.6342514,7.59190052 C12.448085,7.58487184 12.272291,7.5029657 12.1455428,7.36420092 C12.0187946,7.22543615 11.9514751,7.04117992 11.9583941,6.85196742 C11.9618565,6.66155352 12.0413932,6.48076623 12.1787116,6.35118482 C12.31603,6.22160341 12.4993105,6.15438152 12.6864004,6.16497952 C13.0257066,6.17695071 13.3554113,6.28254328 13.6401748,6.47043919 C14.2419054,6.87035134 14.6476397,7.51174441 14.7558627,8.23414138 C14.8542173,8.83337682 15.1595337,9.37734881 15.6169888,9.76838103 C15.9275513,10.1146143 16.4479845,10.1595821 16.8115958,9.87160061 C17.2141101,9.49997344 17.2737583,8.87868442 16.9495215,8.43498179 C16.3731422,7.41679716 17.1189952,6.66362419 17.5643204,6.21379708 C18.0617806,5.71168176 18.3629969,5.36438866 18.3554788,4.77579285 C18.326538,3.72421064 18.7262252,2.70717437 19.460009,1.96522679 C16.7748063,1.06381983 13.844647,1.30846698 11.3401805,2.64317388 L11.3401805,2.6425026 C11.3209566,2.65297643 11.3017514,2.66273613 11.282565,2.67178171 C10.9721291,2.83709942 10.5892982,2.74462939 10.3852327,2.45503761 C10.1811672,2.16544582 10.2182749,1.76729579 10.4722108,1.52179824 C10.5362456,1.46281908 10.6089365,1.41434777 10.6876645,1.37813065 C14.4661797,-0.6338999 19.0162795,-0.43103829 22.6069363,1.90953936 C24.8489254,3.38176911 26.5300632,5.5868874 27.3729138,8.16098645 C27.4497565,8.2715951 27.4925385,8.40291141 27.4958314,8.53827278 L27.4915454,8.55291233 C28.4975901,11.9150866 27.995641,15.55695 26.1193563,18.5087524 Z M9.7949343,19.6531657 L10.089293,15.5079007 L14.9994496,15.973053 C15.1962765,15.9906942 15.3914419,15.9242365 15.5380837,15.7896372 C15.6841516,15.6542757 15.7672668,15.4626319 15.7672668,15.2617277 L15.7672668,13.7763484 C15.7669573,13.5131935 15.6246943,13.2714026 15.3967432,13.1466048 L10.5352927,10.4986306 L10.5346042,8.14076244 C10.5346042,4.55758493 9.6426047,2.74088041 7.8832961,2.74088041 C6.12466203,2.74088041 5.23264852,4.55761349 5.23264852,8.14076244 L5.23197399,10.4986163 L0.370523536,13.1465905 C0.142568039,13.2713836 0.000303300749,13.5131775 0,13.7763342 L0,15.2617134 C0,15.4626733 0.0831888943,15.654359 0.229322425,15.7897299 C0.375455955,15.9251008 0.570945488,15.9916266 0.767817139,15.9729815 L5.67797372,15.5078293 L5.92772964,19.015681 C5.94534005,19.2704625 6.09552979,19.4962714 6.32158454,19.6078384 C6.5476393,19.7194054 6.81511507,19.6997308 7.02300827,19.5562443 C7.23090146,19.4127577 7.34753536,19.1673222 7.32886692,18.9126185 L7.02765058,14.6780022 C7.0139667,14.4865933 6.92509944,14.3088254 6.7810614,14.1847314 C6.63702336,14.0606374 6.44992463,14.0006505 6.2618992,14.0182796 L1.40525471,14.4779045 L1.40525471,14.2038234 L6.26669112,11.5558493 C6.49459832,11.431353 6.63689765,11.1897782 6.63722867,10.9268055 L6.63790319,8.14076244 C6.63790319,5.65386623 7.10381538,4.16912969 7.8832961,4.16912969 C8.66345134,4.16912969 9.12934948,5.65386623 9.12934948,8.14076244 L9.13005211,10.9267626 C9.13037726,11.1897332 9.27267163,11.4313087 9.50057561,11.5558064 L14.3620261,14.2037806 L14.3620261,14.4778616 L9.50538158,14.0182796 C9.31706153,13.9989366 9.12920901,14.0592161 8.98595729,14.1849563 C8.84206072,14.3090366 8.75329427,14.4867106 8.7396302,14.6780022 L8.37734149,19.7745098 C8.36677949,19.9206241 8.40080026,20.0664948 8.4747678,20.1922442 L9.00723285,21.0974543 L5.52152672,21.0974543 C5.13347636,21.0974543 4.81889938,21.4171788 4.81889938,21.8115789 C4.81889938,22.2059791 5.13347636,22.5257036 5.52152672,22.5257036 L10.24574,22.5257036 C10.4986493,22.5257036 10.7320841,22.3877047 10.8569052,22.1641446 C10.9817264,21.9405844 10.9786593,21.6660831 10.8488753,21.4454615 L9.7949343,19.6531657 Z"></path>
                                </g>
                            </g>
                        </g>
                    </g>
                </g>
            </g>
        </g>
    </g>
</svg>