<svg width="25px" height="25px" viewBox="0 0 25 25" version="1.1" xmlns="http://www.w3.org/2000/svg" xmlns:xlink="http://www.w3.org/1999/xlink">
    <title>100% Refundable</title>
    <g stroke="none" stroke-width="1" fill="none" fill-rule="evenodd">
        <g transform="translate(-50, -2091)" fill="currentColor">
            <g transform="translate(0, 626.8902)">
                <g transform="translate(17, 40.1098)" fill-rule="nonzero">
                    <g transform="translate(1, 1318)">
                        <g transform="translate(0, 76)">
                            <g transform="translate(32, 30)">
                                <path d="M7.29457388,23.8028639 C4.2864754,22.4139662 2.08610707,19.9972842 0.91629099,17.136155 C-1.67401603,10.7472256 1.41764074,3.49717963 7.79592362,0.913829922 C14.2020593,-1.66951979 21.4994834,1.41383309 24.0897904,7.77498453 C26.5965391,13.9694683 23.7555572,21.0528465 17.655802,23.8028639 C16.6531025,24.2473112 15.9846362,22.7473017 16.9594829,22.2750765 C22.251508,19.8861724 24.7025512,13.7472446 22.5300356,8.38609952 C20.3018145,2.88606465 13.9792372,0.219381075 8.43653719,2.44161739 C2.89383721,4.69163165 0.219971898,10.9972272 2.47604576,16.52504 C3.47874525,19.0250559 5.42843871,21.1361804 8.07445126,22.3306324 L8.32512614,20.9972906 C8.3529789,20.8584008 8.54794824,20.8028449 8.63150654,20.9417347 L10.692611,24.4973128 L6.57040202,24.9973159 C6.4311382,25.0250939 6.31972715,24.8306482 6.4311382,24.7195364 L7.29457388,23.8028639 Z" transform="translate(12.5, 12.5) rotate(180) translate(-12.5, -12.5)"></path>
                                <path d="M16.3745748,8.44165543 C16.3745748,8.83054678 15.9567834,9.60832949 15.5389919,9.60832949 C15.4832864,9.60832949 15.0376422,9.44166177 14.2577648,9.13610428 C13.4500347,8.83054678 12.8094211,8.66387906 12.3359241,8.66387906 C11.2775191,8.66387906 10.7483166,9.08054837 10.7483166,9.91388698 C10.7483166,10.4694461 11.2218136,10.9694492 12.1688075,11.3861185 C13.8121206,12.1083453 14.6755563,12.4972367 14.7869673,12.5527926 C15.7339613,13.1639076 16.2074583,13.9972462 16.2074583,15.0528085 C16.2074583,15.8861471 15.9846362,16.5805959 15.5111392,17.136155 C15.0376422,17.6917141 14.3970286,17.9972716 13.5614457,18.0806054 C13.5614457,18.7750543 13.7842678,19.8028386 12.7258628,19.8028386 C12.3080713,19.8028386 12.0295437,19.7195047 11.8902799,19.5806149 C11.639605,19.3028354 11.7510161,18.4972747 11.7510161,18.1361613 C11.054697,18.0806054 8.68721206,17.5806023 8.68721206,16.7194857 C8.68721206,16.3305943 9.02144523,15.5528116 9.46708945,15.5528116 C9.52279497,15.5528116 9.96843919,15.6917014 10.7483166,15.9972589 C11.5560467,16.3028164 12.1688075,16.4417061 12.6701573,16.4417061 C13.7007095,16.4417061 14.2020593,16.0250368 14.2020593,15.1916982 C14.2020593,14.5805832 13.7285623,14.0805801 12.8094211,13.6639108 C11.9459854,13.3027974 11.0825497,12.913906 10.1912613,12.5527926 C9.24426734,11.9694556 8.79862312,11.1638949 8.79862312,10.1361106 C8.79862312,8.30276566 9.96843919,7.24720341 11.7231633,6.99720183 C11.7231633,6.74720024 11.6953105,6.4694207 11.6953105,6.21941912 C11.6953105,5.58052618 12.0016909,5.27496868 12.586599,5.27496868 C13.2829181,5.27496868 13.5614457,5.52497027 13.5614457,6.21941912 C13.5614457,6.4694207 13.5335929,6.71942229 13.5335929,6.99720183 C14.2020593,7.05275773 16.3745748,7.58053886 16.3745748,8.44165543 Z"></path>
                            </g>
                        </g>
                    </g>
                </g>
            </g>
        </g>
    </g>
</svg>