<svg width="26px" height="23px" viewBox="0 0 26 23" version="1.1" xmlns="http://www.w3.org/2000/svg" xmlns:xlink="http://www.w3.org/1999/xlink">
    <title>60-day free trial</title>
    <g stroke="none" stroke-width="1" fill="none" fill-rule="evenodd">
        <g transform="translate(-49, -2163)" fill="currentColor">
            <g transform="translate(0, 626.8902)">
                <g transform="translate(17, 40.1098)" fill-rule="nonzero">
                    <g transform="translate(1, 1318)">
                        <g transform="translate(0, 76)">
                            <g transform="translate(31, 102)">
                                <g transform="translate(6.9947, 10.288)">
                                    <path d="M2.7972973,2.56763926 C3.50675676,2.56763926 4.10304054,2.82404951 4.58614865,3.33687003 C5.06925676,3.84969054 5.31081081,4.48099027 5.31081081,5.23076923 C5.31081081,6.01591512 5.05743243,6.67374005 4.55067568,7.20424403 C4.04391892,7.73474801 3.41216216,8 2.65540541,8 C1.90540541,8 1.27533784,7.73474801 0.765202703,7.20424403 C0.255067568,6.67374005 0,6.01945181 0,5.24137931 C0,4.92307692 0.0472972973,4.61361627 0.141891892,4.31299735 C0.236486486,4.01237843 0.39527027,3.66401415 0.618243243,3.26790451 L2.40202703,0.127320955 L3.84121622,0.127320955 L2.44256757,2.62068966 C2.51013514,2.5994695 2.57263514,2.58532272 2.63006757,2.57824934 C2.6875,2.57117595 2.74324324,2.56763926 2.7972973,2.56763926 Z M4.07432432,5.23076923 C4.07432432,4.79929266 3.9375,4.43501326 3.66385135,4.13793103 C3.3902027,3.84084881 3.05405405,3.69230769 2.65540541,3.69230769 C2.25675676,3.69230769 1.92060811,3.84084881 1.64695946,4.13793103 C1.37331081,4.43501326 1.23648649,4.79929266 1.23648649,5.23076923 C1.23648649,5.6622458 1.37331081,6.0265252 1.64695946,6.32360743 C1.92060811,6.62068966 2.25675676,6.76923077 2.65540541,6.76923077 C3.05405405,6.76923077 3.3902027,6.62068966 3.66385135,6.32360743 C3.9375,6.0265252 4.07432432,5.6622458 4.07432432,5.23076923 Z M6,4 C6,2.83996463 6.28378378,1.88328912 6.85135135,1.12997347 C7.41891892,0.376657825 8.13513514,0 9,0 C9.87162162,0 10.589527,0.376657825 11.1537162,1.12997347 C11.7179054,1.88328912 12,2.83996463 12,4 C12,5.16003537 11.7179054,6.11671088 11.1537162,6.87002653 C10.589527,7.62334218 9.87162162,8 9,8 C8.13513514,8 7.41891892,7.62334218 6.85135135,6.87002653 C6.28378378,6.11671088 6,5.16003537 6,4 Z M10.652027,4 C10.652027,3.20778073 10.4983108,2.55702918 10.1908784,2.04774536 C9.88344595,1.53846154 9.48648649,1.28381963 9,1.28381963 C8.51351351,1.28381963 8.11655405,1.54022989 7.80912162,2.0530504 C7.50168919,2.56587091 7.34797297,3.21485411 7.34797297,4 C7.34797297,4.78514589 7.50168919,5.43412909 7.80912162,5.9469496 C8.11655405,6.45977011 8.51351351,6.71618037 9,6.71618037 C9.48648649,6.71618037 9.88344595,6.46153846 10.1908784,5.95225464 C10.4983108,5.44297082 10.652027,4.79221927 10.652027,4 Z"></path>
                                </g>
                                <path d="M17.875,0 C17.4252232,0 17.0625,0.366709184 17.0625,0.821428571 L17.0625,1.64285714 L8.9375,1.64285714 L8.9375,0.821428571 C8.9375,0.366709184 8.57477679,0 8.125,0 C7.67522321,0 7.3125,0.366709184 7.3125,0.821428571 L7.3125,1.64285714 L1.625,1.64285714 C0.728348214,1.64285714 0,2.37920918 0,3.28571429 L0,21.3571429 C0,22.263648 0.728348214,23 1.625,23 L24.375,23 C25.2716518,23 26,22.263648 26,21.3571429 L26,3.28571429 C26,2.37920918 25.2716518,1.64285714 24.375,1.64285714 L18.6875,1.64285714 L18.6875,0.821428571 C18.6875,0.366709184 18.3247768,0 17.875,0 Z M17.875,4.92857143 C18.3247768,4.92857143 18.6875,4.56186224 18.6875,4.10714286 L18.6875,3.28571429 L24.375,3.28571429 L24.375,6.57142857 L1.625,6.57142857 L1.625,3.28571429 L7.3125,3.28571429 L7.3125,4.10714286 C7.3125,4.56186224 7.67522321,4.92857143 8.125,4.92857143 C8.57477679,4.92857143 8.9375,4.56186224 8.9375,4.10714286 L8.9375,3.28571429 L17.0625,3.28571429 L17.0625,4.10714286 C17.0625,4.56186224 17.4252232,4.92857143 17.875,4.92857143 Z M1.625,21.3571429 L1.625,8.21428571 L24.375,8.21428571 L24.375,21.3571429 L1.625,21.3571429 Z"></path>
                            </g>
                        </g>
                    </g>
                </g>
            </g>
        </g>
    </g>
</svg>