<?xml version="1.0" encoding="UTF-8"?>
<svg width="49px" height="26px" viewBox="0 0 49 26" version="1.1" xmlns="http://www.w3.org/2000/svg" xmlns:xlink="http://www.w3.org/1999/xlink">
    <title>路径备份 3</title>
    <g id="页面-1" stroke="none" stroke-width="1" fill="none" fill-rule="evenodd">
        <g id="VILO_Homepage-web" transform="translate(-853, -12138)" fill="#000000">
            <g id="编组" transform="translate(235, 12125)">
                <path d="M654.941906,39.0925067 L644.691151,49.1213083 C643.493633,50.2928972 641.553654,50.2928972 640.356136,49.1213083 L630.057481,39.0456432 C629.98084,38.9706615 629.98084,38.8535026 630.057481,38.7785209 L631.954349,36.922724 C632.030991,36.8477423 632.150742,36.8477423 632.227384,36.922724 L640.64354,45.1566512 C640.763292,45.2738101 640.969265,45.1894557 640.969265,45.0254332 L640.969265,2.18745421 C640.969265,2.08435437 641.055487,2 641.160868,2 L643.843309,2 C643.94869,2 644.034911,2.08435441 644.034911,2.18745421 L644.034911,45.0722968 C644.034911,45.2410056 644.240885,45.3206737 644.360636,45.2035148 L652.776793,36.9695875 C652.853434,36.8946058 652.973186,36.8946058 653.049827,36.9695875 L654.946696,38.8253845 C655.018547,38.9003661 655.018547,39.017525 654.941906,39.0925067 Z" id="路径备份-3" transform="translate(642.5, 26) scale(-1, 1) rotate(-90) translate(-642.5, -26)"></path>
            </g>
        </g>
    </g>
</svg>