<?xml version="1.0" encoding="UTF-8"?>
<svg width="49px" height="26px" viewBox="0 0 49 26" version="1.1" xmlns="http://www.w3.org/2000/svg" xmlns:xlink="http://www.w3.org/1999/xlink">
    <title>路径备份 4</title>
    <g id="页面-1" stroke="none" stroke-width="1" fill="none" fill-rule="evenodd">
        <g id="VILO_Homepage-web" transform="translate(-959, -12138)" fill="#000000">
            <g id="编组" transform="translate(235, 12125)">
                <path d="M760.941906,39.0925067 L750.691151,49.1213083 C749.493633,50.2928972 747.553654,50.2928972 746.356136,49.1213083 L736.057481,39.0456432 C735.98084,38.9706615 735.98084,38.8535026 736.057481,38.7785209 L737.954349,36.922724 C738.030991,36.8477423 738.150742,36.8477423 738.227384,36.922724 L746.64354,45.1566512 C746.763292,45.2738101 746.969265,45.1894557 746.969265,45.0254332 L746.969265,2.18745421 C746.969265,2.08435437 747.055487,2 747.160868,2 L749.843309,2 C749.94869,2 750.034911,2.08435441 750.034911,2.18745421 L750.034911,45.0722968 C750.034911,45.2410056 750.240885,45.3206737 750.360636,45.2035148 L758.776793,36.9695875 C758.853434,36.8946058 758.973186,36.8946058 759.049827,36.9695875 L760.946696,38.8253845 C761.018547,38.9003661 761.018547,39.017525 760.941906,39.0925067 Z" id="路径备份-4" transform="translate(748.5, 26) rotate(-90) translate(-748.5, -26)"></path>
            </g>
        </g>
    </g>
</svg>